<svg xmlns="http://www.w3.org/2000/svg" viewBox="0 0 377.636 497.368"><defs><style>.a{fill:#eb8d00;}.b{fill:#fff;}</style></defs><g transform="translate(-363 -4356.123)"><rect class="a" width="377.636" height="344.491" rx="30" transform="translate(363 4509)"/><path class="b" d="M-84.912-10.15a10.1,10.1,0,0,0,3.045,7.5,10.177,10.177,0,0,0,7.424,3,10.1,10.1,0,0,0,7.41-3.016A10.134,10.134,0,0,0-64-10.15a10.121,10.121,0,0,0-3.031-7.5,10.128,10.128,0,0,0-7.41-3A10.088,10.088,0,0,0-81.882-17.6,10.161,10.161,0,0,0-84.912-10.15Zm4.669,0a6.031,6.031,0,0,1,1.7-4.437,5.566,5.566,0,0,1,4.1-1.711A5.562,5.562,0,0,1-70.4-14.587a5.976,5.976,0,0,1,1.726,4.437A6.107,6.107,0,0,1-70.325-5.7,5.516,5.516,0,0,1-74.443-4a5.566,5.566,0,0,1-4.1-1.711A6.031,6.031,0,0,1-80.243-10.15ZM-44.979-20.3H-60.262V0h8.236q8.439,0,8.439-6.525a5.983,5.983,0,0,0-1.769-4.64,7.614,7.614,0,0,0-5.307-1.624h-5.1v-3.306h10.788Zm-6.7,11.716a5.341,5.341,0,0,1,2.639.478A1.736,1.736,0,0,1-48.256-6.5a1.912,1.912,0,0,1-.855,1.755,5.337,5.337,0,0,1-2.741.536h-3.915V-8.584ZM-25.462-20.3l-4.669,10.092L-36.308-20.3h-5.568l9.454,14.877Q-33-4.2-33.872-4.2a1.454,1.454,0,0,1-1.247-.754l-2.9,2.639A4.745,4.745,0,0,0-33.93,0a4.833,4.833,0,0,0,3.335-1.16,11.268,11.268,0,0,0,2.465-3.6L-20.764-20.3Zm24.157,0H-5.8v8.381A7.837,7.837,0,0,1-10.15-10.7a3.759,3.759,0,0,1-3.175-1.262A7.3,7.3,0,0,1-14.3-16.3v-4h-4.524v6.844A6.2,6.2,0,0,0-16.6-8.193a9.366,9.366,0,0,0,5.844,1.7A10.481,10.481,0,0,0-5.8-7.627V0h4.5ZM3.451,0H19.227V-4.2H7.946v-4.06H18.241v-4.06H7.946v-3.77h11.02v-4.2H3.451ZM36.772,0h4.495V-20.3H36.772v7.975H27.753V-20.3h-4.5V0h4.5V-8.12h9.019ZM49.706,0,59.6-12.383V0h4.5V-20.3H60.349L50.518-7.859V-20.3h-4.5V0Zm19.14,0H84.622V-4.2H73.341v-4.06h10.3v-4.06h-10.3v-3.77h11.02v-4.2H68.846ZM-129.007,41h4.5V20.7h-17.98V41h4.5V24.905h8.99Zm8.236-10.15a10.1,10.1,0,0,0,3.045,7.5,10.177,10.177,0,0,0,7.424,3,10.1,10.1,0,0,0,7.41-3.016,10.134,10.134,0,0,0,3.031-7.482,10.121,10.121,0,0,0-3.031-7.5,10.128,10.128,0,0,0-7.41-3A10.088,10.088,0,0,0-117.74,23.4,10.161,10.161,0,0,0-120.77,30.85Zm4.669,0a6.031,6.031,0,0,1,1.7-4.437,5.566,5.566,0,0,1,4.1-1.711,5.562,5.562,0,0,1,4.046,1.711,5.976,5.976,0,0,1,1.726,4.437,6.107,6.107,0,0,1-1.653,4.451A5.516,5.516,0,0,1-110.3,37a5.566,5.566,0,0,1-4.1-1.711A6.031,6.031,0,0,1-116.1,30.85Zm26.8,0a10.1,10.1,0,0,0,3.045,7.5,10.177,10.177,0,0,0,7.424,3,10.1,10.1,0,0,0,7.41-3.016A10.134,10.134,0,0,0-68.4,30.85a10.121,10.121,0,0,0-3.031-7.5,10.128,10.128,0,0,0-7.41-3A10.088,10.088,0,0,0-86.275,23.4,10.161,10.161,0,0,0-89.305,30.85Zm4.669,0a6.031,6.031,0,0,1,1.7-4.437,5.566,5.566,0,0,1,4.1-1.711,5.562,5.562,0,0,1,4.046,1.711,5.976,5.976,0,0,1,1.726,4.437A6.107,6.107,0,0,1-74.718,35.3,5.516,5.516,0,0,1-78.836,37a5.566,5.566,0,0,1-4.1-1.711A6.031,6.031,0,0,1-84.636,30.85ZM-47.574,20.7h-5.452l-4.524,6.293L-62.1,20.7h-5.423l7.279,10-7.6,10.3h5.481l4.785-6.641L-52.823,41h5.481l-7.569-10.3Zm7.6,20.3V34.62h3.915q4.437,0,6.525-2.015a6.572,6.572,0,0,0,2.088-4.916,7.844,7.844,0,0,0-.392-2.523,6.511,6.511,0,0,0-1.3-2.2,6.126,6.126,0,0,0-2.683-1.653,13.059,13.059,0,0,0-4.234-.609h-8.41V41Zm4.031-16.095q3.828,0,3.828,2.755t-4,2.755h-3.857v-5.51ZM-28.173,41h4.64l1.653-3.77h8.5L-11.73,41h4.7l-8.9-20.3H-19.27Zm10.527-13.63,2.61,6.061h-5.278ZM9.237,41h4.495V20.7H9.237v7.975H.218V20.7H-4.277V41H.218V32.88H9.237Zm9.251,0H34.264V36.795H22.983v-4.06H33.278v-4.06H22.983v-3.77H34V20.7H18.488ZM42.21,24.905h6.5V41H53.2V24.905h6.525V20.7H42.21ZM67.091,41V34.62h3.915q4.437,0,6.525-2.015a6.572,6.572,0,0,0,2.088-4.916,7.844,7.844,0,0,0-.392-2.523,6.511,6.511,0,0,0-1.3-2.2,6.126,6.126,0,0,0-2.683-1.653,13.059,13.059,0,0,0-4.234-.609H62.6V41Zm4.031-16.095q3.828,0,3.828,2.755t-4,2.755H67.091v-5.51Zm25.81-4.2L92.264,30.792,86.087,20.7H80.519l9.454,14.877q-.58,1.218-1.45,1.218a1.454,1.454,0,0,1-1.247-.754l-2.9,2.639A4.745,4.745,0,0,0,88.465,41,4.832,4.832,0,0,0,91.8,39.84a11.268,11.268,0,0,0,2.465-3.6L101.631,20.7Zm3.828,23.693h4.205V41h13.021v3.393h4.205v-7.6h-2.349V20.7H105.081v2.436q0,9.193-2.117,13.659h-2.2Zm8.613-19.488h5.974v11.89H107.6q1.566-3.654,1.74-10.759ZM123.352,41h4.64l1.653-3.77h8.5L139.794,41h4.7l-8.9-20.3h-3.335Zm10.527-13.63,2.61,6.061H131.21ZM-82.374,61.7H-97.657V82h8.236q8.439,0,8.439-6.525a5.983,5.983,0,0,0-1.769-4.64,7.614,7.614,0,0,0-5.307-1.624h-5.1V65.9h10.788Zm-6.7,11.716a5.341,5.341,0,0,1,2.639.479,1.736,1.736,0,0,1,.783,1.609,1.912,1.912,0,0,1-.855,1.755,5.337,5.337,0,0,1-2.741.536h-3.915V73.416ZM-77.386,82H-61.61V77.795H-72.892v-4.06h10.3v-4.06h-10.3V65.9h11.02V61.7H-77.386Zm35.148-6.7a6.816,6.816,0,0,1-5.6,2.7A5.942,5.942,0,0,1-52.2,76.287a5.976,5.976,0,0,1-1.725-4.437,6,6,0,0,1,1.7-4.48A6.077,6.077,0,0,1-47.777,65.7a6.445,6.445,0,0,1,2.639.594,5.73,5.73,0,0,1,2.2,1.7l3.045-2.784a7.765,7.765,0,0,0-3.292-2.8A11.148,11.148,0,0,0-48.1,61.352a10.06,10.06,0,0,0-7.569,3.031,10.331,10.331,0,0,0-2.929,7.467,10.409,10.409,0,0,0,2.827,7.613,10.1,10.1,0,0,0,7.555,2.885,11.455,11.455,0,0,0,5-1.088,9.008,9.008,0,0,0,3.639-3.089ZM-22.924,82h4.5V61.7h-17.98V82h4.5V65.9h8.99ZM-.855,82H3.64V61.7H-11.585l-.029,2.291a83.455,83.455,0,0,1-.507,9.454q-.421,2.987-1.2,3.785a2.826,2.826,0,0,1-2.465.594V82a7.435,7.435,0,0,0,1.16.087,9.992,9.992,0,0,0,2.291-.217,4.839,4.839,0,0,0,1.856-.986,5.179,5.179,0,0,0,1.523-2.218,21.93,21.93,0,0,0,1.015-4A50.57,50.57,0,0,0-7.322,68.4l.116-2.349H-.855Zm7.25,0h4.64l1.653-3.77h8.5L22.838,82h4.7l-8.9-20.3H15.3ZM16.922,68.37l2.61,6.061H14.254ZM25.68,65.9h6.5V82h4.495V65.9H43.2V61.7H25.68ZM59.581,82h4.495V61.7H59.581v7.975H50.562V61.7h-4.5V82h4.5V73.88h9.019Zm8.236-10.15a10.374,10.374,0,1,0,3.03-7.453A10.1,10.1,0,0,0,67.817,71.85Zm4.669,0a6.031,6.031,0,0,1,1.7-4.437,5.707,5.707,0,0,1,8.149,0,5.976,5.976,0,0,1,1.726,4.437A6.107,6.107,0,0,1,82.4,76.3a5.811,5.811,0,0,1-8.221-.014A6.031,6.031,0,0,1,72.486,71.85ZM92.9,76.287H97.28V61.7H92.9Zm-.29,3.538a2.1,2.1,0,0,0,.7,1.566,2.491,2.491,0,0,0,1.8.667,2.379,2.379,0,0,0,1.711-.667,2.1,2.1,0,0,0,.7-1.566,2.042,2.042,0,0,0-.711-1.493,2.365,2.365,0,0,0-1.7-.681,2.5,2.5,0,0,0-1.784.667A2.024,2.024,0,0,0,92.611,79.825Z" transform="translate(552 4563)"/><g transform="translate(482.97 4691.809)"><path class="b" d="M3.976,161.826c7.865-9.546,17.277-12.5,27.159-8.4,7.26,3.025,11.361,8.672,13.31,16.134.134,6.252.134,6.252-6.05,6.252H3.909c-3.025,0-4.5-2.017-3.63-5.042A54.464,54.464,0,0,1,3.976,161.826Z" transform="translate(0 -49.701)"/><path class="b" d="M140.523,168.928a22.155,22.155,0,0,1,22.654-17.142c1.008.067,2.017.134,2.958.269,6.386,1.277,11.092,5.042,14.789,10.218a28.554,28.554,0,0,1,3.025,10.487c.134,2.286-.269,3.294-2.958,3.294-12.571-.134-25.209-.2-37.78,0-2.756.067-3.563-.874-3.16-3.361C140.254,171.348,140.389,170.138,140.523,168.928Z" transform="translate(-45.862 -49.744)"/><path class="b" d="M85.086,152.878c8.941-2.353,16.94-1.008,23.663,5.848a22.808,22.808,0,0,1,5.647,11.025c.471,6.185.471,6.185-5.781,6.185H75.338c-4.5,0-4.5,0-4.638-4.235C71.977,162.626,77.086,156.643,85.086,152.878Z" transform="translate(-23.163 -49.761)"/><path class="b" d="M19.161,120.65c3.63-5.311,8.47-7.193,13.714-5.378,5.042,1.748,7.26,5.848,6.857,12.571a11.208,11.208,0,0,0-.538,1.344c-.269.471-.471,1.008-.739,1.479-4.907,4.907-9.613,5.983-14.588,3.294C18.96,131.406,17.414,127.036,19.161,120.65Z" transform="translate(-6.043 -37.565)"/><path class="b" d="M173.9,134.167c-3.9,1.613-7.731,1.815-11.5-.605a9.971,9.971,0,0,1-4.5-10.689,10.925,10.925,0,0,1,21.512,2.891A12.193,12.193,0,0,1,173.9,134.167Z" transform="translate(-51.677 -37.57)"/><path class="b" d="M73.936.13h47.393c9.142,0,12.974,3.9,13.041,13.109V59.624c0,8.537-4.033,12.638-12.5,12.638H25.4c-7.932,0-12.168-4.235-12.168-12.235,0-15.6.269-31.125-.134-46.721C12.964,5.912,17.065-.273,26.543,0c15.8.4,31.6.134,47.393.134ZM97.6,32.4a1.782,1.782,0,0,1,.336.4L87.852,51.557c-.672,1.277-1.344,2.353-.538,4.033,2.151,4.571.134,7.664-4.907,7.932-4.975.269-9.815-.605-14.722-.941-1.277-.067-1.882-1.143-2.555-1.95-1.681-2.151-3.361-4.235-5.714-7.059,0,4.1.134,7.059-.067,10.084-.134,2.353.672,3.092,3.025,3.025q29.747-.1,59.493-.067c4.907,0,6.655-1.815,6.655-6.722V12.836c0-5.58-1.613-7.193-7.193-7.193H25.535c-4.3,0-6.319,1.748-6.386,5.647q-.1,24.7-.067,49.41A5.92,5.92,0,0,0,20.56,65c.739.739,1.613,1.546,2.622,1.143,1.076-.4.538-1.546.538-2.353.067-6.252,0-12.571.067-18.823.067-6.857,4.773-10.756,11.7-9.747,1.546,4.37,3.092,8.739,4.706,13.109a10,10,0,0,0,1.546-4.571c.134-1.95.874-2.555,2.823-2.622,2.218-.067,2.823.807,3.092,2.756.269,1.681,0,3.63,1.344,5.243,1.613-4.706,3.227-9.344,4.773-13.915,4.84-.471,8.067,1.95,10.487,5.848a74.733,74.733,0,0,0,6.588,9.277,5.4,5.4,0,0,0,1.95,1.748c5.647,2.286,10.218.4,13.646-4.773A124.921,124.921,0,0,1,97.6,32.4Z" transform="translate(-4.282 0)"/><path class="b" d="M98.688,135.3A10.326,10.326,0,0,1,88,124.885a10.729,10.729,0,0,1,21.444.134C109.511,130.935,104.873,135.3,98.688,135.3Z" transform="translate(-28.833 -37.565)"/><path class="b" d="M54.723,36.472c-5.983,0-10.89-4.706-10.823-10.42,0-5.647,5.109-10.42,11.025-10.353A10.658,10.658,0,0,1,65.613,26.321C65.613,32.17,61.042,36.472,54.723,36.472Z" transform="translate(-14.379 -5.15)"/><path class="b" d="M62.575,52.223c-1.076,2.017-1.479,4.37-4.907,4.235-2.958-.134-3.092-2.286-4.168-3.832C56.458,51.282,59.55,52.089,62.575,52.223Z" transform="translate(-17.525 -17.002)"/><path class="b" d="M140,46.941a4.539,4.539,0,0,0,.134-.941c.067.067.269.067.269.134a.653.653,0,0,1-.4.807Z" transform="translate(-45.877 -15.081)"/><path class="b" d="M139.572,47.285a5.916,5.916,0,0,0-.336,1.008,1.783,1.783,0,0,1-.336-.4c.067-.4.2-.739.672-.605Z" transform="translate(-45.516 -15.492)"/></g><path class="a" d="M0,112.043,13.561,74.1c23.28,21.243,48.655,44.232,90.385,50.634-10.3-9.545-16.645-14.55-22.116-20.719a206.2,206.2,0,0,1-20.836-23.92C32.01,38.071,46.56,6.7,97.427.648c28.285-3.376,44.814,8.323,49.819,36.259,2.1,11.64,2.561,23.28,4.132,38,16.529-21.476,21.825-54.475,57.211-45.629,20.137,5.005,37.83,16.412,40.333,38.7,3.667,32.825-27.412,38.819-46.153,54.126l2.968,5.238,74.089-43.592L291,116C193.69,145.1,96.03,149,0,112.043Zm134.558-17.46A509.131,509.131,0,0,0,123.326,43.6c-5.82-17.751-20.661-21.592-39.983-13.328s-16.82,21.709-8.148,34.745a287.508,287.508,0,0,0,33.814,40.391,21.534,21.534,0,0,0,18.333,4.074c3.667-1.106,5.005-9.836,7.217-14.783Zm23.978,14.434c25.375,7.391,38.47-7.508,52.38-16.936,5.82-4.016,12.8-14.9,11.116-19.846a30.264,30.264,0,0,0-19.264-16.412,24.619,24.619,0,0,0-20.254,9.2,400.36,400.36,0,0,0-23.92,44.116Z" transform="translate(406 4356.04)"/></g></svg>