<svg xmlns="http://www.w3.org/2000/svg" viewBox="0 0 377.636 495.368"><defs><style>.a{fill:#eb8d00;}.b{fill:#fff;}</style></defs><g transform="translate(-363 -4631.123)"><rect class="a" width="377.636" height="344.491" rx="30" transform="translate(363 4782)"/><g transform="translate(-4.985 128.509)"><g transform="translate(454.985 4837.491)"><g transform="translate(0 0)"><path class="b" d="M24,11v99.683H54.978a26.838,26.838,0,1,1,53.063,0h15.642V11Z" transform="translate(60.347 -11)"/><path class="b" d="M53.17,31A19.17,19.17,0,1,0,72.34,50.17,19.2,19.2,0,0,0,53.17,31Z" transform="translate(88.686 45.679)"/><path class="b" d="M36.007,31.109,30.755,49.166l-11.08,2.761-.92.345A32.5,32.5,0,0,0,2,81.065V93.679H13.808a26.838,26.838,0,1,1,53.063,0H78.679V17H58.321A24.933,24.933,0,0,0,36.007,31.109Z" transform="translate(-2 6.004)"/><path class="b" d="M26.17,31A19.17,19.17,0,1,0,45.34,50.17,19.2,19.2,0,0,0,26.17,31Z" transform="translate(12.17 45.679)"/></g></g><path class="a" d="M1.9-17.969H14.661v3.162H5.64v4.138h7.9v3.125H5.64V0H1.9Zm19.031,3.1v4.834H25.2a4.748,4.748,0,0,0,1.9-.293,2,2,0,0,0,1.123-2.026,2.236,2.236,0,0,0-1.086-2.2,4.106,4.106,0,0,0-1.831-.317Zm5.151-3.125A8.222,8.222,0,0,1,29-17.529a4.548,4.548,0,0,1,1.727,1.257,5.571,5.571,0,0,1,.928,1.514,4.933,4.933,0,0,1,.342,1.892,5.391,5.391,0,0,1-.647,2.521,3.616,3.616,0,0,1-2.136,1.752,3.36,3.36,0,0,1,1.764,1.422,5.92,5.92,0,0,1,.519,2.814v1.208a9.244,9.244,0,0,0,.1,1.672,1.5,1.5,0,0,0,.684,1.025V0H28.137q-.171-.6-.244-.964a8.86,8.86,0,0,1-.159-1.55L27.71-4.187a3.267,3.267,0,0,0-.629-2.295,3.335,3.335,0,0,0-2.264-.574H20.935V0H17.261V-17.993Zm22.449,3.186H39.014v3.821h8.74v3.125h-8.74v4.626h9.961V0H35.339V-17.993h13.2Zm16.675,0H55.688v3.821h8.74v3.125h-8.74v4.626h9.961V0H52.014V-17.993h13.2Z" transform="translate(559 4879.858)"/></g><path class="b" d="M.062,3.627h4.5V0H18.476V3.627h4.5V-4.495H20.46V-21.7H4.681v2.6q0,9.827-2.263,14.6H.062ZM9.269-17.2h6.386v12.71H7.378Q9.052-8.4,9.238-16ZM25.11-10.85a10.793,10.793,0,0,0,3.255,8.013A10.879,10.879,0,0,0,36.3.372a10.8,10.8,0,0,0,7.92-3.224,10.833,10.833,0,0,0,3.239-8,10.819,10.819,0,0,0-3.239-8.014,10.827,10.827,0,0,0-7.92-3.208,10.784,10.784,0,0,0-7.952,3.255A10.862,10.862,0,0,0,25.11-10.85Zm4.991,0a6.447,6.447,0,0,1,1.814-4.743A5.95,5.95,0,0,1,36.3-17.422a5.946,5.946,0,0,1,4.324,1.829A6.388,6.388,0,0,1,42.47-10.85,6.528,6.528,0,0,1,40.7-6.092a5.9,5.9,0,0,1-4.4,1.814,5.95,5.95,0,0,1-4.387-1.829A6.447,6.447,0,0,1,30.1-10.85ZM67.859-7.161a7.286,7.286,0,0,1-5.983,2.883A6.352,6.352,0,0,1,57.21-6.107a6.388,6.388,0,0,1-1.844-4.743,6.411,6.411,0,0,1,1.813-4.789,6.5,6.5,0,0,1,4.758-1.783,6.89,6.89,0,0,1,2.821.635,6.125,6.125,0,0,1,2.356,1.813l3.255-2.976a8.3,8.3,0,0,0-3.519-2.991A11.917,11.917,0,0,0,61.6-22.072a10.754,10.754,0,0,0-8.091,3.24,11.044,11.044,0,0,0-3.131,7.983A11.127,11.127,0,0,0,53.4-2.712,10.792,10.792,0,0,0,61.473.372,12.244,12.244,0,0,0,66.821-.79a9.629,9.629,0,0,0,3.89-3.3ZM72.075-17.2h6.944V0h4.805V-17.2H90.8V-21.7H72.075ZM88.815,0h4.96l1.767-4.03h9.083L106.392,0h5.022L101.9-21.7H98.332Zm11.253-14.57,2.79,6.479H97.216ZM114.359,0h9.455a10.7,10.7,0,0,0,6.169-1.581,5.5,5.5,0,0,0,2.294-4.867q0-3.72-2.821-5.053a5.886,5.886,0,0,0,2.108-4.65q0-5.549-7.5-5.549h-9.7Zm9.207-8.9a5.8,5.8,0,0,1,2.852.512,1.8,1.8,0,0,1,.837,1.659,1.819,1.819,0,0,1-.9,1.72,6.548,6.548,0,0,1-3.038.512h-4.154V-8.9Zm-.31-8.308a4.737,4.737,0,0,1,2.6.511,1.866,1.866,0,0,1,.713,1.628,1.519,1.519,0,0,1-.744,1.349,4.021,4.021,0,0,1-2.17.481h-4.5V-17.2ZM136.431,0h4.805V-7.285l1.55-1.581L150.133,0h6.324L146.413-12.09l9.424-9.61h-6.262l-8.339,8.463V-21.7h-4.805ZM156.55,0h4.96l1.767-4.03h9.083L174.127,0h5.022l-9.517-21.7h-3.565ZM167.8-14.57l2.79,6.479h-5.642Z" transform="translate(457 4855)"/><path class="b" d="M2.543-22.251h16.2v3.83H7.19v4.935h5.525q.5,0,1.287.03a9.834,9.834,0,0,1,1.673.219,8.745,8.745,0,0,1,1.786.6,5.316,5.316,0,0,1,1.627,1.158,5.675,5.675,0,0,1,1.181,1.907,7.85,7.85,0,0,1,.454,2.853,7.739,7.739,0,0,1-.454,2.831,5.9,5.9,0,0,1-1.158,1.9A5.086,5.086,0,0,1,17.543-.84a8.646,8.646,0,0,1-1.673.59,8.184,8.184,0,0,1-1.483.219Q13.714,0,13.4,0H2.543ZM7.19-3.845h5.025a9.8,9.8,0,0,0,1.309-.091,3.651,3.651,0,0,0,1.241-.394,2.411,2.411,0,0,0,.931-.9,3.055,3.055,0,0,0,.363-1.6A3.213,3.213,0,0,0,15.7-8.469a2.345,2.345,0,0,0-.931-.9,3.549,3.549,0,0,0-1.294-.378,13.8,13.8,0,0,0-1.446-.076H7.19ZM24.779-22.251H41.111v3.83H29.244v4.935H40.158v3.845H29.244v5.616h12.4V0H24.779ZM59.472-14.94q-.091-.318-.227-.734a4.857,4.857,0,0,0-.371-.84,4.853,4.853,0,0,0-.59-.833,3.65,3.65,0,0,0-.885-.727,4.915,4.915,0,0,0-1.271-.515,6.835,6.835,0,0,0-1.741-.2,5.619,5.619,0,0,0-1,.106,4.6,4.6,0,0,0-1.181.4,5.248,5.248,0,0,0-1.2.825,5.077,5.077,0,0,0-1.052,1.385A8.48,8.48,0,0,0,49.209-14a12.58,12.58,0,0,0-.288,2.876A12.567,12.567,0,0,0,49.3-7.9a7.247,7.247,0,0,0,1.09,2.407,4.884,4.884,0,0,0,1.718,1.506,4.873,4.873,0,0,0,2.278.522,5.432,5.432,0,0,0,2.392-.454,4.512,4.512,0,0,0,1.476-1.1,4.711,4.711,0,0,0,.825-1.362q.272-.711.424-1.241h4.617A11.331,11.331,0,0,1,62.863-4a8.917,8.917,0,0,1-2.134,2.551A8.623,8.623,0,0,1,57.906.061a10.924,10.924,0,0,1-3.338.5,11.025,11.025,0,0,1-4.4-.825,8.724,8.724,0,0,1-3.224-2.354A10.4,10.4,0,0,1,44.956-6.3a15.968,15.968,0,0,1-.681-4.821,16.218,16.218,0,0,1,.394-3.724,11.9,11.9,0,0,1,1.1-2.959,9.566,9.566,0,0,1,1.657-2.24A9.162,9.162,0,0,1,49.5-21.608a9.579,9.579,0,0,1,2.369-.908,10.824,10.824,0,0,1,2.513-.3,12.457,12.457,0,0,1,3.224.378,9.636,9.636,0,0,1,2.467,1.014,8.048,8.048,0,0,1,1.809,1.453,8.674,8.674,0,0,1,1.226,1.688,7.91,7.91,0,0,1,.711,1.741,9.084,9.084,0,0,1,.3,1.6Zm7.992-7.311H85.507V0H80.86V-18.421H72.126V0H67.464Zm36.116,3.83H97.057l.015,3.36q.015,3.042-.129,5.366a35.329,35.329,0,0,1-.454,4.042A14.534,14.534,0,0,1,95.7-2.77,6.168,6.168,0,0,1,94.574-.9,3.756,3.756,0,0,1,93.091.106a5.324,5.324,0,0,1-1.832.3,9.432,9.432,0,0,1-1.446-.1,5.459,5.459,0,0,1-1.249-.356L88.55-4.3A2.645,2.645,0,0,0,89-4.125a4.036,4.036,0,0,0,.462.106q.227.038.416.053t.3.015a2.5,2.5,0,0,0,.764-.114,1.29,1.29,0,0,0,.636-.492,3.569,3.569,0,0,0,.492-1.09,11.918,11.918,0,0,0,.356-1.892q.144-1.181.212-2.921t.068-4.163v-7.629h15.53V0h-4.647Zm15.031-3.83h5.313L131.8,0H126.74l-1.423-4.586H117.1L115.554,0h-4.9Zm-.272,13.82h5.676l-2.77-8.81h-.061Zm14.456-13.82h18.225v3.83h-6.8V0h-4.647V-18.421h-6.781Zm20.752,0h4.662v8.461h8.734v-8.461h4.647V0h-4.647V-9.945h-8.734V0h-4.662Zm21.585,11.125a15.477,15.477,0,0,1,.666-4.632,10.438,10.438,0,0,1,2-3.7,9.226,9.226,0,0,1,3.345-2.46,11.483,11.483,0,0,1,4.692-.893,10.72,10.72,0,0,1,4.45.893,9.811,9.811,0,0,1,3.368,2.46,10.938,10.938,0,0,1,2.127,3.7,14.02,14.02,0,0,1,.742,4.632,14.039,14.039,0,0,1-.742,4.624,10.925,10.925,0,0,1-2.127,3.708,9.811,9.811,0,0,1-3.368,2.46,10.72,10.72,0,0,1-4.45.893,11.483,11.483,0,0,1-4.692-.893,9.226,9.226,0,0,1-3.345-2.46,10.429,10.429,0,0,1-2-3.708A15.5,15.5,0,0,1,175.132-11.125Zm10.7,7.659a5.487,5.487,0,0,0,2.543-.575,5.56,5.56,0,0,0,1.9-1.6,7.338,7.338,0,0,0,1.188-2.422,10.906,10.906,0,0,0,.409-3.065,10.906,10.906,0,0,0-.409-3.065,7.338,7.338,0,0,0-1.188-2.422,5.56,5.56,0,0,0-1.9-1.6,5.487,5.487,0,0,0-2.543-.575,5.487,5.487,0,0,0-2.543.575,5.56,5.56,0,0,0-1.9,1.6,7.449,7.449,0,0,0-1.2,2.422,10.72,10.72,0,0,0-.416,3.065A10.72,10.72,0,0,0,180.2-8.06a7.449,7.449,0,0,0,1.2,2.422,5.56,5.56,0,0,0,1.9,1.6A5.487,5.487,0,0,0,185.833-3.466Zm15.455-18.77h4.738v5.661L204.8-6.161h-2.255l-1.256-10.414Zm.106,17.861H205.9V0h-4.511Z" transform="translate(450 4895.898)"/><path class="a" d="M0,112.043,13.561,74.1c23.28,21.243,48.655,44.232,90.385,50.634-10.3-9.545-16.645-14.55-22.116-20.719a206.2,206.2,0,0,1-20.836-23.92C32.01,38.071,46.56,6.7,97.427.648c28.285-3.376,44.814,8.323,49.819,36.259,2.1,11.64,2.561,23.28,4.132,38,16.529-21.476,21.825-54.475,57.211-45.629,20.137,5.005,37.83,16.412,40.333,38.7,3.667,32.825-27.412,38.819-46.153,54.126l2.968,5.238,74.089-43.592L291,116C193.69,145.1,96.03,149,0,112.043Zm134.558-17.46A509.131,509.131,0,0,0,123.326,43.6c-5.82-17.751-20.661-21.592-39.983-13.328s-16.82,21.709-8.148,34.745a287.508,287.508,0,0,0,33.814,40.391,21.534,21.534,0,0,0,18.333,4.074c3.667-1.106,5.005-9.836,7.217-14.783Zm23.978,14.434c25.375,7.391,38.47-7.508,52.38-16.936,5.82-4.016,12.8-14.9,11.116-19.846a30.264,30.264,0,0,0-19.264-16.412,24.619,24.619,0,0,0-20.254,9.2,400.36,400.36,0,0,0-23.92,44.116Z" transform="translate(406.5 4631.04)"/></g></svg>