<svg xmlns="http://www.w3.org/2000/svg" viewBox="0 0 377.636 497.368"><defs><style>.a{fill:#eb8d00;}.b{fill:#fff;}</style></defs><g transform="translate(-771 -4543.123)"><rect class="a" width="377.636" height="344.491" rx="30" transform="translate(771 4696)"/><path class="b" d="M-83.7,0h4.65V-21H-83.7v8.25h-9.33V-21h-4.65V0h4.65V-8.4h9.33Zm7.5,0h4.8l1.71-3.9h8.79L-59.19,0h4.86l-9.21-21h-3.45Zm10.89-14.1,2.7,6.27h-5.46ZM-37.5,0h4.65V-21H-37.5v8.25h-9.33V-21h-4.65V0h4.65V-8.4h9.33Zm9.57,0h16.32V-4.35H-23.28v-4.2h10.65v-4.2H-23.28v-3.9h11.4V-21H-27.93ZM8.43-6.93A7.051,7.051,0,0,1,2.64-4.14,6.147,6.147,0,0,1-1.875-5.91,6.182,6.182,0,0,1-3.66-10.5,6.2,6.2,0,0,1-1.9-15.135,6.287,6.287,0,0,1,2.7-16.86a6.667,6.667,0,0,1,2.73.615A5.928,5.928,0,0,1,7.71-14.49l3.15-2.88a8.033,8.033,0,0,0-3.4-2.9,11.532,11.532,0,0,0-5.085-1.1,10.407,10.407,0,0,0-7.83,3.135A10.688,10.688,0,0,0-8.49-10.5,10.768,10.768,0,0,0-5.565-2.625,10.444,10.444,0,0,0,2.25.36,11.849,11.849,0,0,0,7.425-.765a9.318,9.318,0,0,0,3.765-3.2ZM14.46,0H30.78V-4.35H19.11v-4.2H29.76v-4.2H19.11v-3.9h11.4V-21H14.46ZM48.93,0h4.65V-21H48.93v8.25H39.6V-21H34.95V0H39.6V-8.4h9.33ZM62.31,0,72.54-12.81V0h4.65V-21H73.32L63.15-8.13V-21H58.5V0Zm19.8,0H98.43V-4.35H86.76v-4.2H97.41v-4.2H86.76v-3.9h11.4V-21H82.11ZM-77.085,38h4.65V17h-15.75l-.03,2.37a86.334,86.334,0,0,1-.525,9.78q-.435,3.09-1.245,3.915a2.923,2.923,0,0,1-2.55.615V38a7.691,7.691,0,0,0,1.2.09,10.337,10.337,0,0,0,2.37-.225,5.006,5.006,0,0,0,1.92-1.02,5.357,5.357,0,0,0,1.575-2.3,22.686,22.686,0,0,0,1.05-4.14,52.314,52.314,0,0,0,.645-6.48l.12-2.43h6.57Zm8.52-10.5a10.445,10.445,0,0,0,3.15,7.755,10.528,10.528,0,0,0,7.68,3.1,10.452,10.452,0,0,0,7.665-3.12,10.484,10.484,0,0,0,3.135-7.74,10.47,10.47,0,0,0-3.135-7.755,10.478,10.478,0,0,0-7.665-3.1,10.436,10.436,0,0,0-7.695,3.15A10.512,10.512,0,0,0-68.565,27.5Zm4.83,0a6.239,6.239,0,0,1,1.755-4.59,5.758,5.758,0,0,1,4.245-1.77,5.754,5.754,0,0,1,4.185,1.77,6.182,6.182,0,0,1,1.785,4.59,6.318,6.318,0,0,1-1.71,4.6,5.706,5.706,0,0,1-4.26,1.755,5.758,5.758,0,0,1-4.245-1.77A6.239,6.239,0,0,1-63.735,27.5ZM-43.065,38h4.65V21.35h11.1V17h-15.75Zm16.83-10.5a10.445,10.445,0,0,0,3.15,7.755,10.528,10.528,0,0,0,7.68,3.1A10.452,10.452,0,0,0-7.74,35.24,10.484,10.484,0,0,0-4.6,27.5,10.47,10.47,0,0,0-7.74,19.745a10.478,10.478,0,0,0-7.665-3.1,10.436,10.436,0,0,0-7.7,3.15A10.512,10.512,0,0,0-26.235,27.5Zm4.83,0a6.239,6.239,0,0,1,1.755-4.59A5.758,5.758,0,0,1-15.4,21.14a5.754,5.754,0,0,1,4.185,1.77A6.182,6.182,0,0,1-9.435,27.5a6.318,6.318,0,0,1-1.71,4.6A5.706,5.706,0,0,1-15.4,33.86a5.758,5.758,0,0,1-4.245-1.77A6.239,6.239,0,0,1-21.4,27.5Zm17.7-6.15h6.72V38h4.65V21.35h6.75V17H-3.705ZM21.2,38l10.23-12.81V38h4.65V17h-3.87L22.035,29.87V17h-4.65V38Zm33.75,0h4.65V17h-18.6V38h4.65V21.35h9.3Zm7.5,0h4.8l1.71-3.9h8.79l1.71,3.9h4.86l-9.21-21h-3.45Zm10.89-14.1,2.7,6.27h-5.46ZM-85.215,55h-15.81V76h8.52q8.73,0,8.73-6.75a6.189,6.189,0,0,0-1.83-4.8,7.876,7.876,0,0,0-5.49-1.68h-5.28V59.35h11.16Zm-6.93,12.12a5.526,5.526,0,0,1,2.73.495,1.8,1.8,0,0,1,.81,1.665A1.978,1.978,0,0,1-89.49,71.1a5.521,5.521,0,0,1-2.835.555h-4.05V67.12ZM-80.055,76h16.32V71.65H-75.4v-4.2h10.65v-4.2H-75.4v-3.9H-64V55h-16.05Zm36.36-6.93a7.051,7.051,0,0,1-5.79,2.79A6.147,6.147,0,0,1-54,70.09a6.182,6.182,0,0,1-1.785-4.59,6.2,6.2,0,0,1,1.755-4.635,6.287,6.287,0,0,1,4.6-1.725,6.667,6.667,0,0,1,2.73.615,5.928,5.928,0,0,1,2.28,1.755l3.15-2.88a8.033,8.033,0,0,0-3.4-2.9,11.532,11.532,0,0,0-5.085-1.1,10.407,10.407,0,0,0-7.83,3.135,10.688,10.688,0,0,0-3.03,7.725,10.768,10.768,0,0,0,2.925,7.875,10.444,10.444,0,0,0,7.815,2.985A11.85,11.85,0,0,0-44.7,75.235a9.319,9.319,0,0,0,3.765-3.195ZM-23.715,76h4.65V55h-18.6V76h4.65V59.35h9.3Zm22.83,0h4.65V55h-15.75l-.03,2.37a86.333,86.333,0,0,1-.525,9.78q-.435,3.09-1.245,3.915a2.923,2.923,0,0,1-2.55.615V76a7.692,7.692,0,0,0,1.2.09,10.337,10.337,0,0,0,2.37-.225,5.006,5.006,0,0,0,1.92-1.02A5.357,5.357,0,0,0-9.27,72.55a22.686,22.686,0,0,0,1.05-4.14,52.314,52.314,0,0,0,.645-6.48l.12-2.43h6.57Zm7.5,0h4.8l1.71-3.9h8.79l1.71,3.9h4.86l-9.21-21h-3.45Zm10.89-14.1,2.7,6.27h-5.46Zm9.06-2.55h6.72V76h4.65V59.35h6.75V55H26.565ZM61.635,76h4.65V55h-4.65v8.25H52.3V55h-4.65V76H52.3V67.6h9.33Zm8.52-10.5A10.816,10.816,0,1,0,88.65,57.745,10.838,10.838,0,0,0,70.155,65.5Zm4.83,0a6.239,6.239,0,0,1,1.755-4.59,5.9,5.9,0,0,1,8.43,0,6.182,6.182,0,0,1,1.785,4.59,6.318,6.318,0,0,1-1.71,4.605,6.011,6.011,0,0,1-8.5-.015A6.239,6.239,0,0,1,74.985,65.5ZM96.1,70.09h4.53V55H96.1Zm-.3,3.66a2.174,2.174,0,0,0,.72,1.62,2.577,2.577,0,0,0,1.86.69,2.461,2.461,0,0,0,1.77-.69,2.174,2.174,0,0,0,.72-1.62,2.112,2.112,0,0,0-.735-1.545,2.447,2.447,0,0,0-1.755-.705,2.59,2.59,0,0,0-1.845.69A2.094,2.094,0,0,0,95.8,73.75Z" transform="translate(960 4756)"/><g transform="translate(857.49 4878.19)"><path class="b" d="M212.884,118.082a21.3,21.3,0,0,1-3.1,8.134,179.59,179.59,0,0,1-24.465,1.925c-6.334-.062-12.667-.124-18.939-.745-2.981-.435-5.9-.869-8.88-1.242-1.677-.248-2.732-.683-3.415-2.67-1.056-3.167-.931-6.272-.931-9.5-.248-17.883,1.614-35.7,0-53.588.31-2.111-.683-4.1-.994-6.147a12.671,12.671,0,0,0,.5,6.085,70.2,70.2,0,0,1-1.8,17.945,217.322,217.322,0,0,0-5.03,21.8c-1.118,2.111-1.366,4.409-1.925,7.389,1.863-2.422,1.428-4.905,2.484-6.893,1.056.745.931,1.987,1.18,3.043a80.409,80.409,0,0,1,2.484,17.262c.062,3.229-.5,4.471-3.291,5.278-4.347,1.242-8.755.745-13.164.745a14.251,14.251,0,0,1-7.141-1.677c-.683-.373-1.8-.807-1.49-1.739,1.49-4.285-.31-8.817,1.118-13.164a106.666,106.666,0,0,0,2.856-11.674,9.574,9.574,0,0,0-.31-4.719c-2.422-8.383-4.843-16.828-5.9-25.583V63.376c0-1.428,0-2.856.062-4.347a1.833,1.833,0,0,0-.31-1.677,1.811,1.811,0,0,0-.186,1.677c-.062.373-.124.807-.186,1.18a1.263,1.263,0,0,1-.062.31c.373.124-.435.435-.248-.062-.683-2.608.745-5.589-.807-8.2-6.4-.248-12.854-.248-19.249.062-1.3-.062-2.67-.062-3.974-.124-1.056-.062-1.739.124-1.677,1.428.186,5.961-.248,11.922.31,17.821.186.435.435.869.621,1.242,0,0,.373-.062.373-.186.124-.559,0-.931-.621-1.056,0-3.291.124-6.582-.062-9.811-.124-1.863.621-1.8,1.925-1.366.248.186.435.5.683.5,6.209.062,12.357.062,18.566.124a1.918,1.918,0,0,0,1.987-1.118c2.484.5.559,2.546,1.3,3.6V64c-.062,2.3-.062,4.6-.062,6.955,0,.5-.373,1.366.807.931l.124.186.062-.248c.31,15.524.683,31.047.994,46.509a7.536,7.536,0,0,1-1.49,4.595c0-2.36-.062-4.719-.062-7.141a78.823,78.823,0,0,0,.062-12.108h-.931v11.55c0,1.677-.062,3.291-.062,4.968,0,1.18-.248,1.863-1.739,1.863-6.955-.062-13.909,0-20.8,0,7.824,1.242,15.71.683,23.6.807-.186,2.3-1.366,3.291-3.726,3.477-4.16.373-8.259.994-12.419,1.552-1.242.062-2.484.062-3.726.124-2.732-.373-5.464.559-8.2-.373.062-14.282.124-28.5.186-42.783,0-11.177-.124-22.292-.124-33.469.869-.807,1.987-.435,2.918-.435,8.134-.062,16.331-.559,24.4.248,3.912.373,4.036-1.366,4.657-3.726.869-3.353,3.353-6.023,4.16-9.376a1.794,1.794,0,0,0,1.18-1.3c2.049,0,1.366,1.863,1.614,2.794,1.739,6.955,3.291,14.033,5.03,21.671.745-3.167,1.3-5.775,2.049-8.321,1.49-5.34,1.987-10.929,4.222-16.02v.124h.062c0,.435.062.869.621.807a4.713,4.713,0,0,1,2.235,2.422c1.366,2.732,2.484,5.526,3.726,8.321-.062,2.484,1.677,2.36,3.353,2.36h56.382c1.614,0,3.539-.559,3.043,2.608a85.861,85.861,0,0,1,4.595-12.419h0a2.741,2.741,0,0,0,1.242-1.863h0c1.056-.373,1.18-1.925,2.484-2.049,1.614,7.017,3.291,13.971,4.905,20.988,2.67,11.239,5.4,22.54,8.134,33.779,1.3,5.837,2.235,11.86,4.1,17.573,1.552,4.719-.186,9.5,1.242,14.1.373,1.118-4.843,3.664-6.52,3.6-4.471-.062-7.265-1.366-7.265-6.582,0-1.863-1.925-3.788-2.981-5.651-1.739-6.892-3.726-13.723-5.154-20.677C215.864,83.5,211.642,73,212.387,61.638c0-.124-.248-.31-.745-.931C211.642,80.2,212.076,99.143,212.884,118.082ZM98.816,75.671a7.411,7.411,0,0,0-.5-.993s-.373.062-.373.124a.849.849,0,0,0,.5,1.118c0,1.242.931,1.118,1.739,1.118h17.324c.621,0,1.428.124,1.428-.745H100.741A3.23,3.23,0,0,1,98.816,75.671ZM106.7,65.3c-.124,1.428-.062,2.732,1.614,3.167a2.1,2.1,0,0,0,2.608-1.118,2,2,0,0,0-.435-2.484c-1.3-1.242-2.422-.373-3.539.373a.469.469,0,0,1-.248.062,4.148,4.148,0,0,0-6.023-2.918,1.446,1.446,0,0,0-.869,1.739,1.758,1.758,0,0,0,.931,1.056.941.941,0,0,0,1.3-.869c.062-.807.435-1.056,1.552-.807-1.18.931,0,4.1-3.229,2.36-.745-.435-1.428.124-1.614.931-.186.994.5,1.49,1.366,1.739,1.863.435,2.608-1.18,3.664-2.173.5.745-.248,1.987,1.056,2.049,1.242.062,1.118-.931,1.18-1.739C106.205,66.109,106.143,65.612,106.7,65.3ZM95.9,85.917c-.124.373-.435.745-.435,1.056v31.917c0,.807-.062,1.677,1.18,1.987V86.662h10.929v-.745Zm76.376-20.243c.124,1.49.248,2.3.248,3.1-.062,1.242-.062,2.173,1.677,2.235,1.552,0,2.3-.435,2.173-2.111A18.5,18.5,0,0,1,176.434,64c1.118-5.526,1.18-5.526-4.285-6.085-1.428-.124-2.918-.124-4.347-.124a6.308,6.308,0,0,0-2.111.373,2.882,2.882,0,0,0-2.049,3.664,2.532,2.532,0,0,0,2.794,2.3c1.925-.062,2.235-.931,1.863-2.794-.248-1.428,1.366-1.614,2.484-1.428,1.49.248.559,1.3.31,1.925a12.778,12.778,0,0,1-2.918,5.03c-.683.683-1.739,1.366-2.173-.062-.683-2.422-2.235-2.049-3.477-1.118-1.552,1.18-1.3,2.918-.062,4.347,1.677,1.925,4.843,1.739,6.893-.435A30.379,30.379,0,0,0,172.274,65.674Zm9.625,5.589a4.642,4.642,0,0,0,4.409-4.968,4.107,4.107,0,0,0-4.409-4.16,4.818,4.818,0,0,0-4.533,4.968A4.406,4.406,0,0,0,181.9,71.262Zm16.7-9.128a4.885,4.885,0,0,0-4.843,4.595,4.5,4.5,0,0,0,4.409,4.595,4.886,4.886,0,0,0,4.657-4.781A4.271,4.271,0,0,0,198.6,62.135Zm-11.674,6.023c-.062,1.366,0,2.981,1.925,3.1,2.3.124,1.739-1.614,1.739-3.043,0-.994-.5-2.36.869-2.981,1.056-.435,2.484-.807,1.987-2.173-.435-1.3-1.987-.559-3.043-.683-1.987-.248-3.167.373-3.1,2.67A21.914,21.914,0,0,1,186.928,68.158ZM116.7,68.53c1.863,0,2.608-.807,2.608-2.3a1.811,1.811,0,0,0-1.925-1.987,2.143,2.143,0,0,0-2.235,2.422C115.209,67.909,115.644,68.655,116.7,68.53Zm-1.987-4.036c-2.049-.621-3.1-.124-3.1,1.8,0,.745-.31,1.8.807,1.987,1.3.248.869-.994,1.118-1.677A20.179,20.179,0,0,1,114.712,64.494Zm5.278,10.059a5.826,5.826,0,0,0,.559-.745c.062-.248.062-.745,0-.745-.559-.248-.621.186-.621.621A2.134,2.134,0,0,0,119.99,74.553ZM97.885,73.56l-.248-.248a.927.927,0,0,0-.186.435c0,.062.124.124.186.186C97.76,73.87,97.822,73.684,97.885,73.56Z" transform="translate(-35.492 -13.948)"/><path class="b" d="M3.589,97.235c2.732-8.755,4.595-17.7,6.706-26.576,2.546-10.68,5.03-21.423,7.513-32.1a3.294,3.294,0,0,1,.5-1.056,2.206,2.206,0,0,0,.621.124h0a.557.557,0,0,0,.621.621h0a4.383,4.383,0,0,0,1.863,2.484h-.062a109.294,109.294,0,0,1,6.147,15.9c-.31-1.739-.559-3.477-.869-5.4,10.246.248,20.367-.31,30.426.31-.062,7.451-.124,14.9-.124,22.292,0,18.07.062,36.2.124,54.271-1.49.062-3.043.186-4.533.248-5.775-.435-11.55-.683-17.262-1.49-1.863-.248-4.036-.124-5.713-1.366,0-.248-.124-.31-.373-.31a2.613,2.613,0,0,1-.062-2.049c7.2.559,14.344.062,21.547.248a2.268,2.268,0,0,0,2.049-1.118c.31-.186.807-.373.373-.807s-.621.062-.807.373c-4.657.683-9.314.248-13.909.31-2.67,0-6.023,1.18-7.7-.559-1.552-1.614-.435-4.905-.5-7.513-.062-3.291,0-6.582,0-9.935a4.7,4.7,0,0,1-.931-.062c-.621.931-.31,2.049-.373,3.1-.248,5.03.559,10.121-.373,15.089-.994-1.925-.621-3.974-.621-5.961.186-14.9.435-29.867.683-44.77.062.31.124.435.31.062,1.677-.31.683-1.614.807-2.422.435-3.1-.621-6.272.559-9.314a4.5,4.5,0,0,0,3.6,1.3c4.843-.062,9.687,0,14.468,0,1.8,0,3.664.248,5.589-1.614-.373,4.781.435,9-.559,13.1-.124.31-.186.621-.31.931-1.118,2.732-3.167,3.229-5.9,3.043a48.459,48.459,0,0,0-9,0c-3.974.435-7.079-.248-8.2-4.657,0-.062-.31,0-.435,0,1.614,5.4,1.614,5.4,6.955,5.4,3.912,0,7.886-.248,11.8.062,2.918.248,4.409-.869,5.154-3.477.124-.31.248-.621.373-.869.248-.435.745-.807.745-1.242.062-6.085.124-12.108.124-18.194,0-1.18-.745-1.3-1.614-1.242l-16.641.186c-1.739-.062-3.477.062-5.216-.124-2.111-.248-2.3.683-2.3,2.422.062,4.719,0,9.438,0,14.158a.53.53,0,0,0-.435,0c-.31-3.167.31-6.4-1.056-9.438a65.252,65.252,0,0,1-2.173,20.8c-1.242,4.347-1.987,8.817-3.167,13.226-2.111,7.886-3.291,16.082-6.458,23.72l-.124.186c-.248.5-.559.994-.807,1.49h0a2.93,2.93,0,0,0-1.118,1.925c-.062.435-.124.807-.186,1.242C11.6,127.04,11.6,127.04,6.57,127.289c-1.118-.5-2.36-.248-3.539-.621-2.918-.807-2.981-2.111-3.043-5.092C-.323,113.007,3.03,105.369,3.589,97.235Zm50.3-10.246v33.842c1.428-.5,1.118-1.3,1.118-1.987V87.3a2.789,2.789,0,0,0-.435-1.118H42.895v.745C46.559,86.989,50.222,86.989,53.886,86.989Z" transform="translate(0 -14.213)"/><path class="b" d="M174.4,36.973c1.739-.124,3.477-.31,5.216-.31q35.115-.093,70.291-.062l-.186,2.608h0c-1.49-.124-1.366.931-1.242,1.863h0c-2.422,1.242-2.608,3.788-3.291,5.9-.807,2.67-2.173,3.539-4.905,3.477-18.318-.124-36.636-.062-54.954,0-1.8,0-3.229-.373-4.285-1.863-1.242-2.794-2.36-5.589-3.726-8.321a4.712,4.712,0,0,0-2.235-2.422c-.124-.373.062-.931-.621-.807Z" transform="translate(-66.119 -13.872)"/><path class="b" d="M110.984,18.586c3.726.994,7.513,1.987,11.239,3.1a17.365,17.365,0,0,1,8.2,5.278,2.4,2.4,0,0,1,.5,2.981,1.794,1.794,0,0,1-1.18,1.3c-2.856,2.484-3.85,6.023-5.092,9.376-.5,1.3-.869,2.484-2.67,2.484-8.817-.124-17.635-.124-26.39-.124-1.428,0-2.049-.559-1.987-2.049.062-5.092,0-10.121,0-15.213a1.906,1.906,0,0,1,.435-1.366c.621-.5,1.118.186,1.552.5,1.18.869,1.863,2.546,3.726,2.36l-.062-.062c-.124.559.062.807.683.621h0c-.124.559.124.745.621.683V28.4c-.062,1.242.869,1.49,1.739,1.677.559.124.869-.435.683-1.056v.062c.931-.062.869-.621.683-1.242V27.9c1.366-.31,1.428-1.614,1.863-2.546,1.118-2.3,2.111-4.595,3.167-6.955.621,0,1.242.062,1.863.062l.248.124Z" transform="translate(-35.489 -6.973)"/><path class="b" d="M66.663,24.709c1.552-.31,1.987.435,1.987,1.863-.062,4.781-.062,9.5-.062,14.282,0,1.614-.621,2.173-2.235,2.173-8.817,0-17.573,0-26.39.062-1.614,0-2.36-.745-2.918-2.235a55.947,55.947,0,0,0-2.608-5.961c-.31-.621-.373-1.739-1.614-1.366h.062c.31-1.49-.186-2.484-1.863-2.484h0c.186-.621.062-.869-.621-.621h0c.062-.994.186-2.049.248-3.043q.279,0,.373-.373a1.062,1.062,0,0,0,.807-.931c1.242-.931,2.484-1.8,3.726-2.732.248,0,.373-.124.5-.373a1.342,1.342,0,0,0,1.366-.621c5.154-1.3,10.246-2.608,15.4-3.85,1.366.807,1.3,2.422,1.987,3.6.931,1.739.683,4.222,3.043,5.092h0c.186,1.677.5,3.664,2.732,2.422,1.8-.994,3.726-2.111,4.781-4.16l.062-.186h0A10.927,10.927,0,0,0,66.663,24.709Z" transform="translate(-11.536 -7.011)"/><path class="b" d="M235.173,18.7c.373.062.683.124,1.056.186.248.062.5.186.745.248.621.124,1.242.186,1.8.31a5.386,5.386,0,0,0,3.167,1.056c.373.124.807.31,1.18.435,3.167,1.49,6.334,2.918,8.259,6.147-.5.807-1.3.5-1.987.5-23.658,0-47.378,0-71.036-.062-.993,0-2.67.869-2.856-1.242h0l.621-.621h0a6.182,6.182,0,0,0,.683-.621c.186-.186.373-.435.559-.621,1.49-.807,2.981-1.614,4.409-2.484a.531.531,0,0,0,.559-.186c.31-.124.621-.248.869-.373.31-.124.683-.186.994-.31.248-.124.559-.248.807-.373.807-.124,1.677.062,2.36-.559a12.922,12.922,0,0,0,5.03-1.366c3.415-.186,6.644-1.49,10.121-1.242,8.817,0,17.635-.5,26.452.435,1.428.062,2.794.186,4.222.248A2.03,2.03,0,0,0,235.173,18.7Z" transform="translate(-66.536 -6.589)"/><path class="b" d="M46.119,88.172c0,.869,0,1.739-.062,2.608-.186.373-.248.248-.31-.062a4.458,4.458,0,0,1-.124-2.546A.68.68,0,0,1,46.119,88.172Z" transform="translate(-17.258 -33.403)"/><path class="b" d="M84.3,172.968c.186-.31.373-.807.807-.373s-.062.621-.373.807A2.868,2.868,0,0,1,84.3,172.968Z" transform="translate(-31.967 -65.357)"/><path class="b" d="M81.479,17.943c-.435.248-.807.435-1.242.683l.062-.062-.062.062-.062.186A6.011,6.011,0,0,0,76.884,20.8c-1.552,1.552-2.918,1.614-4.16-.31h0C71.668,17.57,70.551,14.714,69.5,11.8c-.186-3.912,2.856-5.837,5.34-8.01,5.278-4.595,11.3-3.229,17.2-1.614,1.056,1.987-.248,3.6-.745,5.34l.062-.062c-.5.31-1.3.5-.621,1.366l.062-.062c-1.056.186-1.428,1.18-1.925,1.925l.062-.062a.689.689,0,0,0-.683.683l.062-.062a.734.734,0,0,0-.683.683l.062-.062a2.25,2.25,0,0,0-1.3,1.3l.062-.062-.683.683.062-.062c-.435.062-.683.248-.683.683l.062-.062a1.744,1.744,0,0,1-2.422,0c-.186-.373-.373-.745-.807-.373-.062.062.186.435.31.683C84.832,16.328,81.666,16.825,81.479,17.943Zm-2.856-7.762-.559-.559-.931-.931c-.186-.186-.435-.559-.5-.559-.5.31-.124.621.062.931l.931.931c.186.248.373.435.559.683l.621.621.621.621.621.621.621.621c.186.31.248.807.683.435s-.124-.559-.31-.807l-.621-.621c-.186-.186-.435-.373-.621-.559s-.435-.373-.621-.559A5.282,5.282,0,0,0,78.623,10.181Z" transform="translate(-26.352 -0.245)"/><path class="b" d="M217.853,10.371c-.373-.062-1.118.124-1.056-.31.5-3.6,5.278-9.066,8.569-9.563,7.762-1.18,12.295-.869,16.828,8.01a14.854,14.854,0,0,0,.807,1.3c-1.056.683-2.173.373-3.291.248C232.383,9.626,225.118,9.377,217.853,10.371Z" transform="translate(-82.189 0)"/><path class="b" d="M99.654,21.707c-1.118-1.118-2.111-2.546-3.477-3.291A3.1,3.1,0,0,1,94.562,15.5l-.062.062c.248,0,.559.124.745,0,.435-.186,0-.5,0-.683l-.062.062c.248,0,.559.124.745,0,.435-.186,0-.5-.062-.683l-.062.062c1.056.186,1.552-.186,1.3-1.3l-.062.062c.248.062.435.373.745.062s0-.5-.062-.745l-.062.062c.248,0,.5.5.683.062.124-.186,0-.5,0-.745l-.062.062c1.242,0,1.49-1.056,1.925-1.925l-.062.062c.621-.248,1.18-.5.621-1.366l-.062.062c2.235-1.056,1.925-3.043,1.863-4.968,1.614,2.794,4.222,4.905,5.278,8.072-1.366,3.539-2.732,7.017-4.1,10.556v-.062c-.683.186-.683.745-.683,1.3v-.062c-.994.5-1.552-.745-2.422-.621v.062c0-.435-.186-.683-.621-.683h0c.062-.5-.248-.621-.683-.621Z" transform="translate(-35.833 -1.401)"/><path class="b" d="M218.5,16.283a106.552,106.552,0,0,1,21.8-.248c1.118.062,2.235.435,3.291-.248.559.5,1.118,1.056,1.677,1.552-8.817-.931-17.635-.435-26.452-.435A2.9,2.9,0,0,0,218.5,16.283Z" transform="translate(-82.836 -5.912)"/><path class="b" d="M236.132,83.276c-.186.931.124,2.36-1.242,2.484s-1.18-1.118-1.118-1.987c.062-.994.124-2.36,1.3-2.484C236.381,81.1,236.07,82.407,236.132,83.276Z" transform="translate(-88.608 -30.805)"/><path class="b" d="M262.714,83.372c-.31.869-.124,2.3-1.428,2.36-1.242.062-1.242-1.18-1.118-2.111s.124-2.36,1.428-2.422C262.838,81.137,262.652,82.378,262.714,83.372Z" transform="translate(-98.61 -30.777)"/><path class="b" d="M122.794,62.648c-.248,2.235.994,4.843-1.366,6.644-7.017.994-14.033.31-20.988.186-2.732-1.428-1.677-3.974-1.8-6.147-.062-.931.745-.745,1.3-.807,1.18-.062,2.422-.062,3.6-.124C109.94,62.524,116.4,62.586,122.794,62.648Z" transform="translate(-37.364 -23.652)"/><path class="b" d="M48.311,68.611c-1.056-1.49-.435-3.167-.621-4.781-.124-1.18.621-1.3,1.49-1.3,1.739,0,3.477-.062,5.216-.062,4.657.062,9.314,0,13.909.124,1.428.062,3.539-1.18,3.6,2.049.062,4.285-1.3,4.843-3.788,5.092-2.235.186-4.533,0-6.83,0-3.229,0-6.4-.124-9.625-.062A7.818,7.818,0,0,1,48.311,68.611Z" transform="translate(-18.084 -23.653)"/></g><path class="a" d="M0,112.043,13.561,74.1c23.28,21.243,48.655,44.232,90.385,50.634-10.3-9.545-16.645-14.55-22.116-20.719a206.2,206.2,0,0,1-20.836-23.92C32.01,38.071,46.56,6.7,97.427.648c28.285-3.376,44.814,8.323,49.819,36.259,2.1,11.64,2.561,23.28,4.132,38,16.529-21.476,21.825-54.475,57.211-45.629,20.137,5.005,37.83,16.412,40.333,38.7,3.667,32.825-27.412,38.819-46.153,54.126l2.968,5.238,74.089-43.592L291,116C193.69,145.1,96.03,149,0,112.043Zm134.558-17.46A509.131,509.131,0,0,0,123.326,43.6c-5.82-17.751-20.661-21.592-39.983-13.328s-16.82,21.709-8.148,34.745a287.508,287.508,0,0,0,33.814,40.391,21.534,21.534,0,0,0,18.333,4.074c3.667-1.106,5.005-9.836,7.217-14.783Zm23.978,14.434c25.375,7.391,38.47-7.508,52.38-16.936,5.82-4.016,12.8-14.9,11.116-19.846a30.264,30.264,0,0,0-19.264-16.412,24.619,24.619,0,0,0-20.254,9.2,400.36,400.36,0,0,0-23.92,44.116Z" transform="translate(809.5 4543.04)"/></g></svg>