<svg xmlns="http://www.w3.org/2000/svg" xmlns:xlink="http://www.w3.org/1999/xlink" viewBox="0 0 220.605 99.37"><defs><style>.a{fill:#fff;}.b{clip-path:url(#a);}</style><clipPath id="a"><rect width="215.803" height="99.37"/></clipPath></defs><g transform="translate(-1661 528.511)"><path class="a" d="M60.5,388.954l-.994,6.244a5.311,5.311,0,0,0-4.263-1.863,5.411,5.411,0,0,0-3.875,1.567,6.3,6.3,0,0,0-1.913,3.687,5.54,5.54,0,0,0-.081.925,4,4,0,0,0,1.155,2.977,4.169,4.169,0,0,0,3.055,1.142,7.229,7.229,0,0,0,4.853-1.786l-.978,6.22a15.357,15.357,0,0,1-5.223,1.067,9.573,9.573,0,0,1-6.831-2.422,8.3,8.3,0,0,1-2.577-6.34,12.375,12.375,0,0,1,4.75-9.685,12.544,12.544,0,0,1,7.989-2.857,10.96,10.96,0,0,1,4.931,1.123Zm21.964-.534-3.2,20.124H73.006l2.4-15.108h-6.3l-2.4,15.108H60.449l3.2-20.124Zm16.332,0-.8,5.017H91.464l-.42,2.622h6.048l-.748,4.745H90.3l-.435,2.725H96.4l-.8,5.016H82.8l3.2-20.124Zm22.051,0-2.416,15.108h2.136l-1.441,9.076h-5.719l.64-4.06H99l3.217-20.124h6.256l-2.416,15.133h6.1l2.413-15.133Zm23.684,10.06a12.171,12.171,0,0,1-4.173,7.485,13.03,13.03,0,0,1-8.858,3.168,10.075,10.075,0,0,1-7.3-2.567,8.343,8.343,0,0,1-2.5-6.275A12.28,12.28,0,0,1,126.019,391a13.072,13.072,0,0,1,8.865-3.168,10.042,10.042,0,0,1,7.3,2.567,8.308,8.308,0,0,1,2.493,6.26,12.181,12.181,0,0,1-.143,1.823Zm-6.508,0a5.508,5.508,0,0,0,.077-.9,3.954,3.954,0,0,0-1.161-2.959,4.042,4.042,0,0,0-2.947-1.135,5.415,5.415,0,0,0-3.63,1.385,5.815,5.815,0,0,0-2.011,3.606,5.67,5.67,0,0,0-.077.9,3.948,3.948,0,0,0,1.164,2.959,4.068,4.068,0,0,0,2.956,1.132,5.388,5.388,0,0,0,3.62-1.379A5.818,5.818,0,0,0,138.023,398.48Zm28.686-10.061L164.3,403.528h2.257l-1.447,9.049h-5.745l.643-4.032H149.5l-.643,4.032h-5.719l1.441-9.024a3.4,3.4,0,0,0,3.059-2.033,15.244,15.244,0,0,0,1.388-4.822l1.326-8.277Zm-7.057,5.016h-4.186l-.761,4.72q-.661,4.077-2.714,5.371h6.045Zm24.054-5.016-.8,5.016h-6.533l-.422,2.622H182l-.748,4.745H175.2l-.435,2.725h6.536l-.8,5.016H167.712l3.2-20.124Zm31.773,0-7.995,9.906,5.092,10.218h-7.412l-3.568-8.969-1.431,8.969h-6.129l1.435-8.969-6.433,8.969h-7.408l8.34-10.218-4.853-9.906h7.023l3.726,8.7,1.372-8.7h6.126l-1.372,8.7,6.452-8.7Zm20.173,0-2.413,15.108H235.5l-1.447,9.049H228.3l.646-4.032h-10.51l-.646,4.032h-5.719l1.444-9.024a3.4,3.4,0,0,0,3.059-2.033,15.245,15.245,0,0,0,1.388-4.822l1.326-8.277Zm-7.058,5.016H224.4l-.761,4.72q-.657,4.077-2.714,5.371h6.045Zm27.9,15.108h-6.641l-.512-3.767h-6.4l-1.692,3.767h-6.638l10.01-20.124h8.265Zm-7.744-8.173-.9-6.4-2.925,6.4Z" transform="translate(1621.575 -867.376)"/><path class="a" d="M19.45,251.122l-2.515,2.835,1.615,2.8-1.761,1.034-2.173-3.829,3.4-3.86Zm-3.754,0-2.524,2.835,1.624,2.8-1.776,1.034-2.18-3.829,3.4-3.86Zm14.652-4-.581,3.64a3.085,3.085,0,0,0-2.484-1.086,3.159,3.159,0,0,0-2.26.913,3.678,3.678,0,0,0-1.115,2.15,3.135,3.135,0,0,0-.047.537,2.34,2.34,0,0,0,.674,1.737,2.438,2.438,0,0,0,1.782.666,4.219,4.219,0,0,0,2.829-1.043l-.571,3.625a8.841,8.841,0,0,1-3.046.623,5.582,5.582,0,0,1-3.981-1.41,4.852,4.852,0,0,1-1.5-3.7,6.77,6.77,0,0,1,.093-1.1,7.019,7.019,0,0,1,2.676-4.541,7.3,7.3,0,0,1,4.657-1.666,6.414,6.414,0,0,1,2.875.654ZM45.1,252.165a5.11,5.11,0,0,1-2.48,3.85,7.087,7.087,0,0,1-3.639.867h-.2l-.261,1.666H34.9l.261-1.666h-.2a6.124,6.124,0,0,1-3.089-.688,3.235,3.235,0,0,1-1.6-3.017,6.941,6.941,0,0,1,.084-1.012,5.086,5.086,0,0,1,2.478-3.838,7.2,7.2,0,0,1,3.633-.858h.2l.208-1.339H40.5l-.2,1.339h.2a6.167,6.167,0,0,1,3.1.685,3.217,3.217,0,0,1,1.6,3.008,6.867,6.867,0,0,1-.081,1Zm-3.481,0a2.922,2.922,0,0,0,.037-.426,1.375,1.375,0,0,0-.522-1.175,1.76,1.76,0,0,0-1.124-.342h-.267l-.618,3.89H39.4a2.189,2.189,0,0,0,2.226-1.947Zm-5.288-1.944h-.264a2.168,2.168,0,0,0-2.22,1.944,2.546,2.546,0,0,0-.04.417,1.421,1.421,0,0,0,.515,1.179,1.75,1.75,0,0,0,1.121.352h.27Zm18.607-3.406-.466,2.925H50.669l-.245,1.527h3.528l-.438,2.767H49.987l-.252,1.589h3.807l-.466,2.925H45.621l1.866-11.733Zm10.724,3.98a4.243,4.243,0,0,1-1.581,2.811,5.475,5.475,0,0,1-3.415.993H59.119l-.627,3.949H54.843l1.866-11.733h4.9a4.787,4.787,0,0,1,3.136.882,2.835,2.835,0,0,1,.987,2.311,5.018,5.018,0,0,1-.068.787Zm-3.717-.09a1.825,1.825,0,0,0,.019-.281c0-.654-.45-.981-1.36-.981h-.674l-.394,2.524h.64Q61.749,251.967,61.95,250.7Zm14.783,7.842H72.861l-.3-2.2H68.831l-.987,2.2H63.975l5.835-11.733h4.819Zm-4.515-4.763-.528-3.73-1.7,3.73Zm20.35-6.969L92.1,249.74H87.147l-.23,1.459h1.416a5.323,5.323,0,0,1,2.707.617,2.541,2.541,0,0,1,1.323,2.348,4.194,4.194,0,0,1-.056.666,3.907,3.907,0,0,1-1.987,2.9,6.614,6.614,0,0,1-3.381.815H82.1l1.866-11.733Zm-3.915,8.046a1.229,1.229,0,0,0,.025-.234q0-.889-1.41-.889h-.755l-.36,2.243h.8q1.523,0,1.7-1.12Zm13.841-8.046-.466,2.925H98.221l-.245,1.527H101.5l-.434,2.767H97.539l-.252,1.589h3.807l-.466,2.925H93.173l1.866-11.733Zm9.8,2.922a3.174,3.174,0,0,1-.782,1.629,3.476,3.476,0,0,1-1.534,1.018.057.057,0,0,0,.016.031,2.325,2.325,0,0,1,1.714,2.286,3.268,3.268,0,0,1-.047.534,3.832,3.832,0,0,1-1.813,2.635,6.328,6.328,0,0,1-3.577,1.006,6.767,6.767,0,0,1-4.375-1.367l1.667-2.477a3.485,3.485,0,0,0,2.5,1.024,2.138,2.138,0,0,0,1.192-.333,1.162,1.162,0,0,0,.59-1.018c0-.592-.476-.889-1.431-.889h-1.186l.416-2.567h1.136a2.483,2.483,0,0,0,1.158-.244,1.01,1.01,0,0,0,.587-.944q0-.852-1.453-.852a5.816,5.816,0,0,0-2.621.753l-.6-2.45a9.34,9.34,0,0,1,4.3-1.117,5.169,5.169,0,0,1,3.046.808,2.458,2.458,0,0,1,1.14,2.092,2.679,2.679,0,0,1-.04.441Zm14.016,2.943a7.069,7.069,0,0,1-2.434,4.362,7.576,7.576,0,0,1-5.164,1.848,5.874,5.874,0,0,1-4.257-1.5A4.866,4.866,0,0,1,113,253.738a6.9,6.9,0,0,1,.084-1.058,7.1,7.1,0,0,1,2.431-4.362,7.634,7.634,0,0,1,5.17-1.845,5.854,5.854,0,0,1,4.254,1.5,4.838,4.838,0,0,1,1.453,3.65,6.878,6.878,0,0,1-.084,1.061Zm-3.794,0a2.988,2.988,0,0,0,.047-.521,2.3,2.3,0,0,0-.677-1.725,2.361,2.361,0,0,0-1.717-.663,3.173,3.173,0,0,0-2.118.808,3.376,3.376,0,0,0-1.174,2.1,3.412,3.412,0,0,0-.043.524,2.293,2.293,0,0,0,.68,1.725,2.371,2.371,0,0,0,1.723.663,3.141,3.141,0,0,0,2.108-.805,3.409,3.409,0,0,0,1.171-2.108Zm17.192-5.865-1.866,11.733H134.2l1.4-8.808h-3.67l-1.4,8.808h-3.648l1.869-11.733Zm11.768,11.733H147.6l-.3-2.2h-3.732l-.987,2.2h-3.868l5.835-11.733h4.819Zm-4.514-4.763-.528-3.73-1.7,3.73Zm15.416-6.657-.581,3.641a3.085,3.085,0,0,0-2.484-1.086,3.154,3.154,0,0,0-2.26.913,3.678,3.678,0,0,0-1.115,2.15,3.139,3.139,0,0,0-.047.537,2.328,2.328,0,0,0,.674,1.737,2.435,2.435,0,0,0,1.779.666,4.221,4.221,0,0,0,2.832-1.043l-.571,3.625a8.84,8.84,0,0,1-3.046.623,5.581,5.581,0,0,1-3.981-1.41,4.833,4.833,0,0,1-1.5-3.7,7.118,7.118,0,0,1,.09-1.1,7.022,7.022,0,0,1,2.68-4.541,7.3,7.3,0,0,1,4.657-1.666,6.424,6.424,0,0,1,2.875.654Zm12.867-.312-1.869,11.733h-3.648l.742-4.649h-3.732l-.742,4.649h-3.648l1.866-11.733h3.648l-.7,4.4H170.9l.7-4.4Zm13.786,5.865a7.065,7.065,0,0,1-2.431,4.362,7.588,7.588,0,0,1-5.164,1.848,5.874,5.874,0,0,1-4.257-1.5,4.869,4.869,0,0,1-1.456-3.656,7.32,7.32,0,0,1,.084-1.058,7.1,7.1,0,0,1,2.434-4.362,7.618,7.618,0,0,1,5.166-1.845,5.854,5.854,0,0,1,4.254,1.5,4.838,4.838,0,0,1,1.453,3.65,6.888,6.888,0,0,1-.084,1.061Zm-3.791,0a3.312,3.312,0,0,0,.043-.521,2.291,2.291,0,0,0-.677-1.725,2.351,2.351,0,0,0-1.717-.663,3.173,3.173,0,0,0-2.118.808,3.386,3.386,0,0,0-1.171,2.1,3.427,3.427,0,0,0-.047.524,2.3,2.3,0,0,0,.68,1.725,2.371,2.371,0,0,0,1.723.663,3.141,3.141,0,0,0,2.108-.805,3.4,3.4,0,0,0,1.174-2.108Zm14.941-5.553-.581,3.641a3.076,3.076,0,0,0-2.484-1.086,3.146,3.146,0,0,0-2.257.913,3.678,3.678,0,0,0-1.115,2.15,3.134,3.134,0,0,0-.047.537,2.328,2.328,0,0,0,.674,1.737,2.426,2.426,0,0,0,1.779.666,4.213,4.213,0,0,0,2.829-1.043l-.571,3.625a8.805,8.805,0,0,1-3.043.623,5.582,5.582,0,0,1-3.981-1.41,4.833,4.833,0,0,1-1.5-3.7,7.124,7.124,0,0,1,.09-1.1,7.01,7.01,0,0,1,2.68-4.541,7.288,7.288,0,0,1,4.654-1.666A6.414,6.414,0,0,1,200.178,247.127Zm9.659-.312-.475,2.986h-2.524l-1.39,8.746H201.8l1.394-8.746h-2.54l.476-2.986ZM222.5,246.8l-1.866,11.748h-3.63l1.046-6.6-5.446,6.6h-3.465l1.866-11.748h3.62l-1.065,6.7,5.5-6.7Zm8.942,7.158-3.378,3.828-1.441-1.034,2.5-2.8-1.6-2.835,1.761-1.024Zm-3.754,0-3.4,3.828-1.438-1.034,2.5-2.8-1.6-2.835,1.757-1.024Z" transform="translate(1650.16 -743.887)"/><g class="b" transform="translate(1663.357 -528.51)"><path class="a" d="M64.1,28.1h2.911c.8-1.506,1.706-3.112,2.61-4.517A77.976,77.976,0,0,1,83.472,18.87,68.191,68.191,0,0,0,79.758,28.1h1a61.691,61.691,0,0,1,4.015-9.535c3.112-.7,6.625-1.405,10.539-1.907-1.1,3.814-2.007,7.628-2.81,11.443h1a113.75,113.75,0,0,1,2.81-11.543,109.348,109.348,0,0,1,11.944-.7v.5h0V28.1h1V16.26h0v-.5a103.713,103.713,0,0,1,11.643.7A116.087,116.087,0,0,1,123.822,28.1h1c-.8-3.915-1.706-7.729-2.81-11.543a85.941,85.941,0,0,1,10.74,2.007,70.116,70.116,0,0,1,4.115,9.535h1a78.235,78.235,0,0,0-3.814-9.234,67.261,67.261,0,0,1,14.655,5.621c.7,1.2,1.405,2.409,2.007,3.613h2.911A49.783,49.783,0,0,0,84.877,6.123c-.1.1-.2.1-.3.2a8.668,8.668,0,0,0-1.606,1,6.751,6.751,0,0,0-1.1.7c-.3.2-.5.3-.8.5a10.512,10.512,0,0,0-1.1.8c-.2.1-.4.3-.6.4-.6.4-1.2.9-1.706,1.3-.1,0-.1.1-.2.1l-1.807,1.506-.1.1A38.681,38.681,0,0,0,72.03,16.26h0l-.4.4h0A51.29,51.29,0,0,0,64.1,28.1Zm72.369-16.662c.1.1.2.1.3.2.5.4,1,.8,1.606,1.2.2.1.3.3.5.4a30.952,30.952,0,0,1,3.312,3.011,44.7,44.7,0,0,1,5.32,6.223,78.36,78.36,0,0,0-14.052-5.019c-.2-.5-.5-.9-.7-1.405h0A37.4,37.4,0,0,0,121.012,4.015,48.734,48.734,0,0,1,136.469,11.443ZM116.5,3.212a20.569,20.569,0,0,1,4.718,2.309,34.71,34.71,0,0,1,10.439,10.84h.5l-.4.2.3.6a87.821,87.821,0,0,0-10.338-1.807c-1.706-4.617-3.915-9.134-7.528-12.446A8.556,8.556,0,0,1,116.5,3.212Zm-7.127-.6a22.686,22.686,0,0,1,2.61.1,14.757,14.757,0,0,1,3.814,3.212,36.43,36.43,0,0,1,5.019,9.335,100.562,100.562,0,0,0-11.342-.6C109.368,10.539,109.368,6.524,109.368,2.61Zm-3.714.1a24.46,24.46,0,0,1,2.71-.1V14.654a100.04,100.04,0,0,0-11.443.7,39.116,39.116,0,0,1,3.613-7.428,14.724,14.724,0,0,1,4.718-4.918C105.354,2.81,105.454,2.71,105.655,2.71Zm-2.309.2c-3.613,3.312-5.822,7.829-7.528,12.446h-.1v.1c-3.714.5-7.127,1.1-10.138,1.807a4.069,4.069,0,0,0,.5-.9h0A34.493,34.493,0,0,1,96.32,5.721a23.267,23.267,0,0,1,4.718-2.409A18.526,18.526,0,0,1,103.346,2.911Zm-27.7,13.35A46.66,46.66,0,0,1,96.721,4.216,37.35,37.35,0,0,0,85.68,15.257l-.1-.1c-.5.8-.9,1.506-1.3,2.309a97.734,97.734,0,0,0-13.35,4.216A48.019,48.019,0,0,1,75.643,16.26Z" transform="translate(0.239 0)"/><path class="a" d="M147.3,76a57,57,0,0,1-5.019,6.022l-.1.1A46.147,46.147,0,0,1,121.1,94.168a34.575,34.575,0,0,0,6.625-5.521,27.736,27.736,0,0,0,1.907-2.208l.1-.1h0A58.471,58.471,0,0,0,135.554,76.1h-1.1a51.138,51.138,0,0,1-5.822,10.037h0c-.5.6-1.1,1.3-1.706,1.907l-.1.1h0A32.456,32.456,0,0,1,120,93.565a29.345,29.345,0,0,1-3.613,1.706c-.7.1-1.405.2-2.208.3,3.011-2.71,4.918-6.223,6.524-9.937a75.569,75.569,0,0,0,3.413-9.535h-1a61.267,61.267,0,0,1-4.015,10.74l.1.1c-1.506,3.112-3.312,6.123-6.123,8.231a2.052,2.052,0,0,1-.9.5,26.3,26.3,0,0,1-2.81.1V82.524h0V76h-1v5.822h0V95.774c-1,0-2.007-.1-3.011-.1a13.285,13.285,0,0,1-2.911-2.409,29.726,29.726,0,0,1-4.115-6.524h0A69.562,69.562,0,0,1,94.8,76.1h-1c.6,2.409,1.405,4.818,2.208,7.127h-.1c1.706,4.517,3.413,8.632,7.127,11.944l.3.3c-.8-.1-1.506-.2-2.309-.3a19.873,19.873,0,0,1-4.617-2.309,35.09,35.09,0,0,1-8.431-7.93h0a29.879,29.879,0,0,1-2.007-2.911h0Q84.162,79.011,82.657,76h-1.1a48.512,48.512,0,0,0,8.431,12.747l.1-.1a33.753,33.753,0,0,0,7.127,5.621c-.2-.1-.5-.1-.7-.2a55.38,55.38,0,0,1-5.32-1.807A45.557,45.557,0,0,1,75.631,82.022,47.848,47.848,0,0,1,70.512,76H67.4a50.607,50.607,0,0,0,5.521,6.926c.2.2.3.4.5.5l.4.4a2.661,2.661,0,0,0,.6.5c.1.1.3.2.4.4a49.512,49.512,0,0,0,34.127,13.55h0a49.188,49.188,0,0,0,35.03-14.454A47.6,47.6,0,0,0,150.409,76Z" transform="translate(0.252 0.284)"/></g></g></svg>