<svg xmlns="http://www.w3.org/2000/svg" viewBox="0 0 50 23.83"><title>bow</title><path d="M0,19.32,2.33,12.8c4,3.65,8.36,7.6,15.53,8.7C16.09,19.86,15,19,14.06,17.94a35.43,35.43,0,0,1-3.58-4.11C5.5,6.61,8,1.22,16.74.18c4.86-.58,7.7,1.43,8.56,6.23.36,2,.44,4,.71,6.53,2.84-3.69,3.75-9.36,9.83-7.84,3.46.86,6.5,2.82,6.93,6.65.63,5.64-4.71,6.67-7.93,9.3l.51.9,12.73-7.49L50,20C33.28,25,16.5,25.67,0,19.32Zm23.12-3a87.48,87.48,0,0,0-1.93-8.76c-1-3.05-3.55-3.71-6.87-2.29S11.43,9,12.92,11.24a49.4,49.4,0,0,0,5.81,6.94,3.7,3.7,0,0,0,3.15.7C22.51,18.69,22.74,17.19,23.12,16.34Zm4.12,2.48c4.36,1.27,6.61-1.29,9-2.91,1-.69,2.2-2.56,1.91-3.41a5.2,5.2,0,0,0-3.31-2.82,4.23,4.23,0,0,0-3.48,1.58A68.79,68.79,0,0,0,27.25,18.82Z" transform="translate(0 -0.09)" style="fill:#eb8d00"/></svg>