<svg xmlns="http://www.w3.org/2000/svg" xmlns:xlink="http://www.w3.org/1999/xlink" viewBox="0 0 256.55 662.07"><defs><radialGradient id="a" cx="179.23" cy="554.11" r="29.83" gradientUnits="userSpaceOnUse"><stop offset="0" stop-color="#fff"/><stop offset="0.45" stop-color="#fdfdfd"/><stop offset="0.59" stop-color="#f7f7f7"/><stop offset="0.68" stop-color="#ececec"/><stop offset="0.75" stop-color="#dcdbdc"/><stop offset="0.82" stop-color="#c7c6c7"/><stop offset="0.87" stop-color="#adacad"/><stop offset="0.92" stop-color="#8e8d8e"/><stop offset="0.96" stop-color="#6b6a6c"/><stop offset="1" stop-color="#444345"/><stop offset="1" stop-color="#414042"/></radialGradient><radialGradient id="b" cx="63.9" cy="554.11" r="29.8" xlink:href="#a"/><radialGradient id="c" cx="168.19" cy="179.43" r="74.39" gradientUnits="userSpaceOnUse"><stop offset="0" stop-color="#fff"/><stop offset="1" stop-color="#a7a9ac"/></radialGradient><radialGradient id="d" cx="71.47" cy="179.43" r="74.39" xlink:href="#c"/><radialGradient id="e" cx="113.6" cy="305.2" r="83.35" xlink:href="#c"/><radialGradient id="f" cx="114.01" cy="250" r="81.38" xlink:href="#c"/></defs><title>man_1</title><path d="M159.4,105.6c-7-2.65-14.48-5.65-16.54-13.42-1.24-4.68.25-14.4.07-21.21l-44.48.78c.46,10.44,3.93,21-4.68,28.86-1.22,1.11-5.75,2.85-11.58,5l36.36,15.56Z" style="fill:#fc9;stroke:#000;stroke-miterlimit:22.925600000000003;stroke-width:1.0001px;fill-rule:evenodd"/><path d="M158.51,105.6c-6.81-2.65-14.12-5.65-16.13-13.42-1.21-4.68.25-14.4.07-21.21l-43.39.78c.45,10.44,3.84,21-4.56,28.86-.81.76-3.15,1.81-6.37,3.1,3.33-.46,7.2-.83,9.61-2.81s5.43-11.61,8-11.3,7.14,5.76,10.56,8.36,14.66-2.83,13.44.93c-.46,1.41-6.18,3.69-8.18,5.85-3.33,3.6.55,6.05,0,6.9Z" style="fill:#e5ab74;fill-rule:evenodd"/><path d="M164.31,622.8a49.2,49.2,0,0,0-1.55,15.69l4.45,6.12,12.86,8.44,19.69,2.58,19-.81.8-5.6s.47-6.41-2.44-8.5A32.46,32.46,0,0,1,207,629.59c-3.14-5.77-2.68-10.25-4.08-14.33l-22.8-7.79Z" style="fill:#1a1a1a;stroke:#000;stroke-linejoin:round;stroke-width:1.0001px;fill-rule:evenodd"/><path d="M218.85,652.1l.39-2.74s.47-6.41-2.44-8.5a32.48,32.48,0,0,1-10.13-11.13c-2.67-4.92-2.74-8.9-3.57-12.49l-4.87-3-5.44,2.12s2.18,15.32,1.6,16.87-4,3-4,3,4.68-.63,5.7-2.26-.26-8.68-.26-8.68,4.74,5.72,6.79,7.55a69.42,69.42,0,0,1,6.23,6c1.62,1.92-7.81,4.42-7.53,5.24s2.21.42,4.72.6,9.88-1.24,10.46,0-.48,2.73-.55,3.66-.16,6.25-.16,6.25l2.47-1.46Z" style="fill:#121212;fill-rule:evenodd"/><path d="M163.63,640.55c1.61,2.1,4.91,1.79,8.6,3.56s3.69,5.9,10.3,8.46,16.21,3.75,24.86,2.88a56.28,56.28,0,0,1,9.44-.4l-.19,2.09c-.55,1.68-4.17,3.35-8.3,3.89a66.2,66.2,0,0,1-11,.36l-.72-1.55-.9-.07-.49,1.56c-1.82-.15-3.54-.36-5.13-.61l-.7-1.6-.88-.19,0,1.52-1.31-.26-2.87-.6-.49-1.37-.69-.66.06,1.75a27.44,27.44,0,0,1-3.51-1.19l-.62-1.34-.57-.6v1.39c-1.54-.8-1.41-1.41-1.41-1.41L175.92,654l-6.55-.24a18.7,18.7,0,0,1-2.78-1.21l0-2.19-.37-.09-.64,1.89a2,2,0,0,1-1-.06c-.62-.34-.66-1.35-1-1.75l-.73-10,.3-.19-.17-.62Z" style="fill:#58595b;stroke:#000;stroke-linejoin:round;stroke-width:1.0006000000000002px;fill-rule:evenodd"/><path d="M162.61,638.32c1.73,2.1,5.73,2.68,9.7,4.45s4.56,6,11.68,8.62,17.33,3.6,26.64,2.73,8.5-3.41,9.36-5.14l.08,2.8h.41l-.32,6c-.59,1.68-4.5,3.35-8.95,3.89a76.86,76.86,0,0,1-11.88.36l-.78-1.55-1-.07-.53,1.56c-2-.15-3.81-.36-5.53-.61l-.75-1.6-.94-.19,0,1.52-1.42-.26-3.09-.6-.53-1.37-.74-.66.06,1.74a31,31,0,0,1-3.79-1.19l-.67-1.34-.61-.6v1.39a6.11,6.11,0,0,1-2.11-1.41l-1.3-2-6.48-.39a21.1,21.1,0,0,1-3-1.21l0-2.19-.39-.09-1.14,1.33a6.4,6.4,0,0,1-1.8-1.26l-.79-10,.33-.19,0-2.11Z" style="fill:#1a1a1a;stroke:#000;stroke-linejoin:round;stroke-width:1.0001px;fill-rule:evenodd"/><polygon points="169.32 653.88 171.08 650.98 175.02 654.29 169.32 653.88" style="fill:#121212;fill-rule:evenodd"/><path d="M216.34,653.34a5.75,5.75,0,0,0,3.34-2.26v1l.39.5-.31,5a7.55,7.55,0,0,1-2.94,2.32l.23-5-.64-.47Z" style="fill:#121212;fill-rule:evenodd"/><path d="M189.59,624.16c1.35-1.82,4.5-5.34,6.13-6.29" style="fill:none;stroke:#000;stroke-linecap:round;stroke-linejoin:round;stroke-width:2.0001px;fill-rule:evenodd"/><path d="M200.25,623c-1.64-1.49-5.36-4.28-7.12-4.86" style="fill:none;stroke:#000;stroke-linecap:round;stroke-linejoin:round;stroke-width:2.0001px;fill-rule:evenodd"/><path d="M162.27,641c1.56,1.8,8.17,3.71,10.15,5.28,2.15,1.7,4.68,5.13,8.2,7,6.41,3.39,19.39,5.35,30.92,3.66,6.27-.91,8.64-3.76,8.82-4.89" style="fill:none;stroke:#000;stroke-linejoin:round;stroke-width:1.0001px;fill-rule:evenodd"/><path d="M193.46,619.22c.21,7,1.51,9.27,1.36,13.62-.08,2.33-9.77,4.46-10,10.12a6.79,6.79,0,0,1-3.78.24l-3.46-2.87a48.86,48.86,0,0,0-8.17-3.78l-.25,4.78" style="fill:none;stroke:#000;stroke-linejoin:round;stroke-width:1.0006000000000002px;fill-rule:evenodd"/><path d="M192.37,619c.2,6.66,1.47,9.37,1.29,13.5-.08,1.76-9.44,4.12-9.62,9.5a4.88,4.88,0,0,1-2.4.2L177.86,639a69.67,69.67,0,0,0-9.31-4l-.39,5.81" style="fill:none;stroke:#000;stroke-linejoin:round;stroke-width:0.5px;stroke-dasharray:2.500200033187866,1.500100016593933;fill-rule:evenodd"/><path d="M195.62,619.29c1.08,3.33,4.36,8.1,8.49,12.82,1.47,1.68,3.74,1.24,6.43,2.69" style="fill:none;stroke:#000;stroke-linejoin:round;stroke-width:1.0006000000000002px;fill-rule:evenodd"/><path d="M196,617.83c1,3.32,5.34,9.74,8.76,13.64,1.22,1.39,2.43.73,4.65,1.93" style="fill:none;stroke:#000;stroke-linejoin:round;stroke-width:0.5px;stroke-dasharray:2.500200033187866,1.500100016593933;fill-rule:evenodd"/><path d="M191.13,630.15c1.35-1.82,4.5-5.34,6.13-6.29" style="fill:none;stroke:#000;stroke-linecap:round;stroke-linejoin:round;stroke-width:2.0001px;fill-rule:evenodd"/><path d="M203.5,629c-1.53-2-6.57-5-9-4.57" style="fill:none;stroke:#000;stroke-linecap:round;stroke-linejoin:round;stroke-width:2.0001px;fill-rule:evenodd"/><path d="M177.49,640.23c.8-2.94,5.89-6.93,6-8.16.76-3.42.44-7.37-.24-11.85" style="fill:none;stroke:#000;stroke-linejoin:round;stroke-width:1.0001px;fill-rule:evenodd"/><path d="M176.67,639.69c.8-2.94,5.73-6.66,5.81-7.89.76-3.42.44-7.37-.24-11.85" style="fill:none;stroke:#000;stroke-linejoin:round;stroke-width:0.5px;stroke-dasharray:2.500200033187866,1.500100016593933;fill-rule:evenodd"/><path d="M174.79,638.79c.8-2.94,5.73-6.66,5.81-7.89.76-3.42.44-7.37-.24-11.85" style="fill:none;stroke:#000;stroke-linejoin:round;stroke-width:0.5px;stroke-dasharray:2.500200033187866,1.500100016593933;fill-rule:evenodd"/><polyline points="186.51 639.23 183.64 637.33 182.82 638.33 185.69 640.22" style="fill:none;stroke:#000;stroke-linejoin:round;stroke-width:0.5px;stroke-dasharray:2.500200033187866,1.500100016593933;fill-rule:evenodd"/><path d="M182.2,640a.59.59,0,0,1,.88,0,.74.74,0,0,1-.2.94.59.59,0,0,1-.88,0A.74.74,0,0,1,182.2,640Z" style="fill:none;stroke:#000;stroke-linejoin:round;stroke-width:0.5px;fill-rule:evenodd"/><path d="M192.29,630.12a1.38,1.38,0,0,0-1.37-1.34,1.31,1.31,0,0,0-1.14,1.48,1.38,1.38,0,0,0,1.37,1.33A1.31,1.31,0,0,0,192.29,630.12Z" style="fill:none;stroke:#000;stroke-linejoin:round;stroke-width:1.0001px;fill-rule:evenodd"/><path d="M204.64,628.08c-.4-.65-1.06-.91-1.48-.59a1.37,1.37,0,0,0-.05,1.75c.4.65,1.06.91,1.48.59A1.37,1.37,0,0,0,204.64,628.08Z" style="fill:none;stroke:#000;stroke-linejoin:round;stroke-width:1.0001px;fill-rule:evenodd"/><path d="M201.41,622.46c-.4-.65-1.06-.91-1.48-.59a1.37,1.37,0,0,0-.05,1.75c.4.65,1.06.91,1.48.59A1.37,1.37,0,0,0,201.41,622.46Z" style="fill:none;stroke:#000;stroke-linejoin:round;stroke-width:1.0001px;fill-rule:evenodd"/><path d="M190.8,624.23a1.38,1.38,0,0,0-1.37-1.33,1.31,1.31,0,0,0-1.14,1.48,1.38,1.38,0,0,0,1.37,1.34A1.31,1.31,0,0,0,190.8,624.23Z" style="fill:none;stroke:#000;stroke-linejoin:round;stroke-width:1.0001px;fill-rule:evenodd"/><polyline points="169.09 654.16 171.15 650.83 175.81 654.82" style="fill:none;stroke:#000;stroke-linecap:round;stroke-linejoin:round;stroke-width:1.0006000000000002px;fill-rule:evenodd"/><path d="M197.47,644.65s6.95-.55,12.4-1.06c3.27-.31,6-.91,6.39-.51,1.06,1.05-2.92,2.06-5.48,2.31S197.47,644.65,197.47,644.65Z" style="fill:#7b8089;fill-rule:evenodd"/><path d="M78.87,622.8a49.2,49.2,0,0,1,1.55,15.69L76,644.61l-12.86,8.44-19.69,2.58-19-.81-.8-5.6s-.47-6.41,2.44-8.5a32.46,32.46,0,0,0,10.13-11.13c3.14-5.77,2.68-10.25,4.08-14.33l22.8-7.79Z" style="fill:#1a1a1a;stroke:#000;stroke-linejoin:round;stroke-width:1.0001px;fill-rule:evenodd"/><path d="M24.34,652.1l-.39-2.74s-.47-6.41,2.44-8.5a32.48,32.48,0,0,0,10.13-11.13c2.67-4.92,2.74-8.9,3.57-12.49l4.87-3,5.44,2.12s-2.18,15.32-1.6,16.87,4,3,4,3-4.68-.63-5.7-2.26.26-8.68.26-8.68-4.74,5.72-6.79,7.55a69.37,69.37,0,0,0-6.23,6c-1.62,1.92,7.81,4.42,7.52,5.24s-2.21.42-4.72.6-9.88-1.24-10.46,0,.48,2.73.55,3.66.16,6.25.16,6.25l-2.47-1.46Z" style="fill:#121212;fill-rule:evenodd"/><path d="M79.55,640.55c-1.61,2.1-4.91,1.79-8.6,3.56s-3.69,5.9-10.3,8.46-16.21,3.75-24.86,2.88a56.28,56.28,0,0,0-9.44-.4l.19,2.09c.55,1.68,4.17,3.35,8.3,3.89a66.21,66.21,0,0,0,11,.36l.72-1.55.9-.07.49,1.56c1.82-.15,3.54-.36,5.13-.61l.7-1.6.88-.19,0,1.52L56,660.2l2.87-.6.49-1.37.69-.66L60,659.31a27.42,27.42,0,0,0,3.51-1.19l.62-1.34.57-.6v1.39c1.54-.8,1.41-1.41,1.41-1.41L67.26,654l6.55-.24a18.67,18.67,0,0,0,2.78-1.21l0-2.19.37-.09.64,1.89a2,2,0,0,0,1-.06c.62-.34.66-1.35,1-1.75l.73-10-.3-.19.17-.62Z" style="fill:#58595b;stroke:#000;stroke-linejoin:round;stroke-width:1.0006000000000002px;fill-rule:evenodd"/><path d="M80.57,638.32c-1.73,2.1-5.73,2.68-9.7,4.45s-4.56,6-11.68,8.62-17.33,3.6-26.64,2.73-8.5-3.41-9.36-5.14l-.08,2.8h-.41l.32,6c.59,1.68,4.5,3.35,8.94,3.89a76.86,76.86,0,0,0,11.88.36l.78-1.55,1-.07.53,1.56c2-.15,3.81-.36,5.53-.61l.75-1.6.94-.19,0,1.52,1.42-.26,3.09-.6.53-1.37.74-.66L59,659.91a31,31,0,0,0,3.79-1.19l.67-1.34.61-.6v1.39a6.11,6.11,0,0,0,2.11-1.41l1.3-2,6.48-.39a21.07,21.07,0,0,0,3-1.21l0-2.19.39-.09,1.14,1.33a6.39,6.39,0,0,0,1.8-1.26l.79-10-.33-.19,0-2.11Z" style="fill:#1a1a1a;stroke:#000;stroke-linejoin:round;stroke-width:1.0001px;fill-rule:evenodd"/><polygon points="73.87 653.88 72.11 650.98 68.16 654.29 73.87 653.88" style="fill:#121212;fill-rule:evenodd"/><path d="M26.85,653.34a5.75,5.75,0,0,1-3.34-2.26v1l-.39.5.31,5a7.55,7.55,0,0,0,2.94,2.32l-.23-5,.64-.47Z" style="fill:#121212;fill-rule:evenodd"/><path d="M53.59,624.16c-1.35-1.82-4.5-5.34-6.13-6.29" style="fill:none;stroke:#000;stroke-linecap:round;stroke-linejoin:round;stroke-width:2.0001px;fill-rule:evenodd"/><path d="M42.93,623c1.64-1.49,5.36-4.28,7.12-4.86" style="fill:none;stroke:#000;stroke-linecap:round;stroke-linejoin:round;stroke-width:2.0001px;fill-rule:evenodd"/><path d="M80.91,641c-1.56,1.8-8.17,3.71-10.15,5.28-2.15,1.7-4.68,5.13-8.2,7-6.41,3.39-19.39,5.35-30.92,3.66C25.38,656,23,653.17,22.83,652" style="fill:none;stroke:#000;stroke-linejoin:round;stroke-width:1.0006000000000002px;fill-rule:evenodd"/><path d="M49.72,619.22c-.21,7-1.51,9.27-1.36,13.62.08,2.33,9.77,4.46,10,10.12a6.79,6.79,0,0,0,3.78.24l3.46-2.87a48.84,48.84,0,0,1,8.17-3.78l.25,4.78" style="fill:none;stroke:#000;stroke-linejoin:round;stroke-width:1.0006000000000002px;fill-rule:evenodd"/><path d="M50.82,619c-.2,6.66-1.47,9.37-1.29,13.5.08,1.76,9.44,4.12,9.63,9.5a4.88,4.88,0,0,0,2.4.2L65.32,639a69.72,69.72,0,0,1,9.31-4l.39,5.81" style="fill:none;stroke:#000;stroke-linejoin:round;stroke-width:0.5px;stroke-dasharray:2.500200033187866,1.500100016593933;fill-rule:evenodd"/><path d="M47.57,619.29c-1.08,3.33-4.36,8.1-8.49,12.82-1.47,1.68-3.74,1.24-6.43,2.69" style="fill:none;stroke:#000;stroke-linejoin:round;stroke-width:1.0006000000000002px;fill-rule:evenodd"/><path d="M47.17,617.83c-1,3.32-5.34,9.74-8.76,13.64-1.22,1.39-2.43.73-4.65,1.93" style="fill:none;stroke:#000;stroke-linejoin:round;stroke-width:0.5px;stroke-dasharray:2.500200033187866,1.500100016593933;fill-rule:evenodd"/><path d="M52.06,630.15c-1.35-1.82-4.5-5.34-6.13-6.29" style="fill:none;stroke:#000;stroke-linecap:round;stroke-linejoin:round;stroke-width:2.0001px;fill-rule:evenodd"/><path d="M39.69,629c1.53-2,6.57-5,9-4.57" style="fill:none;stroke:#000;stroke-linecap:round;stroke-linejoin:round;stroke-width:2.0001px;fill-rule:evenodd"/><path d="M65.69,640.23c-.8-2.94-5.89-6.93-6-8.16-.76-3.42-.44-7.37.24-11.85" style="fill:none;stroke:#000;stroke-linejoin:round;stroke-width:1.0001px;fill-rule:evenodd"/><path d="M66.51,639.69c-.8-2.94-5.73-6.66-5.81-7.89-.76-3.42-.44-7.37.24-11.85" style="fill:none;stroke:#000;stroke-linejoin:round;stroke-width:0.5px;stroke-dasharray:2.500200033187866,1.500100016593933;fill-rule:evenodd"/><path d="M68.4,638.79c-.8-2.94-5.73-6.66-5.81-7.89-.76-3.42-.44-7.37.24-11.85" style="fill:none;stroke:#000;stroke-linejoin:round;stroke-width:0.5px;stroke-dasharray:2.500200033187866,1.500100016593933;fill-rule:evenodd"/><polyline points="56.67 639.23 59.54 637.33 60.36 638.33 57.49 640.22" style="fill:none;stroke:#000;stroke-linejoin:round;stroke-width:0.5px;stroke-dasharray:2.500200033187866,1.500100016593933;fill-rule:evenodd"/><path d="M61,640a.59.59,0,0,0-.88,0,.74.74,0,0,0,.2.94.59.59,0,0,0,.88,0A.74.74,0,0,0,61,640Z" style="fill:none;stroke:#000;stroke-linejoin:round;stroke-width:0.5px;fill-rule:evenodd"/><path d="M50.89,630.12a1.38,1.38,0,0,1,1.37-1.34,1.31,1.31,0,0,1,1.14,1.48A1.38,1.38,0,0,1,52,631.6,1.31,1.31,0,0,1,50.89,630.12Z" style="fill:none;stroke:#000;stroke-linejoin:round;stroke-width:1.0001px;fill-rule:evenodd"/><path d="M38.55,628.08c.4-.65,1.06-.91,1.48-.59a1.37,1.37,0,0,1,.05,1.75c-.4.65-1.06.91-1.48.59A1.37,1.37,0,0,1,38.55,628.08Z" style="fill:none;stroke:#000;stroke-linejoin:round;stroke-width:1.0001px;fill-rule:evenodd"/><path d="M41.78,622.46c.4-.65,1.06-.91,1.48-.59a1.37,1.37,0,0,1,.05,1.75c-.4.65-1.06.91-1.48.59A1.37,1.37,0,0,1,41.78,622.46Z" style="fill:none;stroke:#000;stroke-linejoin:round;stroke-width:1.0001px;fill-rule:evenodd"/><path d="M52.38,624.23a1.38,1.38,0,0,1,1.37-1.33,1.31,1.31,0,0,1,1.14,1.48,1.38,1.38,0,0,1-1.37,1.34A1.31,1.31,0,0,1,52.38,624.23Z" style="fill:none;stroke:#000;stroke-linejoin:round;stroke-width:1.0001px;fill-rule:evenodd"/><polyline points="74.09 654.16 72.04 650.83 67.37 654.82" style="fill:none;stroke:#000;stroke-linecap:round;stroke-linejoin:round;stroke-width:1.0006000000000002px;fill-rule:evenodd"/><path d="M45.71,644.65s-7-.55-12.4-1.06c-3.27-.31-6-.91-6.39-.51-1.06,1.05,2.92,2.06,5.48,2.31S45.71,644.65,45.71,644.65Z" style="fill:#7b8089;fill-rule:evenodd"/><path d="M245.12,221.57s3.92,15.22,5.71,20.16,6.78,15.13,4.64,18.4-15,21.49-27.81,32.21-26.75,15.78-30.31,20.16-4.64,5.13-9.27,7.77-14.26-17.4-14.26-17.4,8.91.09,17.83-9.09,31-39.44,32.09-41.26-7.85-19-7.85-19S244.76,221.58,245.12,221.57Z" style="fill:#fc9;stroke:#000;stroke-miterlimit:22.925600000000003;stroke-width:1.0001px;fill-rule:evenodd"/><path d="M246,226.19c1.3,4.9,3.33,12.3,4.47,15.47,1.78,4.94,6.78,15.13,4.64,18.4s-15,21.49-27.81,32.21-26.74,15.78-30.31,20.16-4.64,5.13-9.27,7.77c-2.44,1.39-6.26-3.5-9.33-8.44,2.23-7.71,5.73-13.9,6.64-11.8a12.92,12.92,0,0,0,6.06,6.59s20-12.37,30-19.44,25-23.93,28.53-27.6-.36-9.26-1.78-12.43-7.13-16.9-7.13-16.9Z" style="fill:#e5ab74;fill-rule:evenodd"/><path d="M243.73,228.12c.41,1.59,1,3.87,1.65,6.32-3,.68-9,2-12.57,4.15l-10.7,6.3L218.93,238Z" style="fill:#e5ab74;fill-rule:evenodd"/><path d="M12.43,222.93l-1.63,22.8c-.45,5.14-1.71,10.45-2,15.5-1.07,19.83,0,38.92.76,58.83.11,3-.31,5.94-.34,8.91,0,1.78.4,3.57.36,5.35-.3,12-1.13,23.75-.34,35.41l10.6,9.83,12.49,3.33L43.21,381l.53-2.35-2.48-2.86-4.91-.38L30.07,371l-2.67-7.61L28,357.3l2,5.92,2.56,4.23c2.63,3.34,6.88,2.18,6-.93l-.78-3.22-1.2-4.53-1.08-8c-1-11.88-.72-12.16-9.16-18.67-.75-4.93-.46-7.4-.18-12.14.9-15,5-30.18,7.78-45.07,1.36-7.27,1.89-14.13,2.57-21.54L37.28,241l4.1-16Z" style="fill:#fc9;stroke:#000;stroke-miterlimit:22.925600000000003;stroke-width:1.0001px;fill-rule:evenodd"/><path d="M36.28,368.69c1.28-.26,1.82-.43,1.36-2l-.78-3.23-1.2-4.53-1.08-8c-1-11.88-.72-12.16-9.16-18.68-.74-4.93-.46-7.4-.18-12.14.9-15,5-30.18,7.78-45.07,1.36-7.27,1.89-14.13,2.57-21.54l.72-12.37,4.1-16L12.26,235.4l-.07,8,3.48-.18,4.51,1.13,4.48,1.82L28,249.32,30,255l-.36,7.85L29.26,273l-1.66,14.1-2.75,18.07-4,19-.34,9,1.65,2.54,4.21,2.18,3.38,2.8,1.91,4.08,1,9.37,2.73,11.18Z" style="fill:#e5ab74;fill-rule:evenodd"/><polyline points="28.1 358.33 27.81 351.9 26.83 349.85 25.8 347.44" style="fill:none;stroke:#000;stroke-miterlimit:22.925600000000003;stroke-width:1.0001px;fill-rule:evenodd"/><polyline points="35.82 382.04 32.64 381.04 21.75 372.45 19.45 367.45" style="fill:none;stroke:#000;stroke-miterlimit:22.925600000000003;stroke-width:1.0001px;fill-rule:evenodd"/><polyline points="26.7 381.44 19.12 374.37 14.72 371.27 12.82 368.49" style="fill:none;stroke:#000;stroke-miterlimit:22.925600000000003;stroke-width:1.0001px;fill-rule:evenodd"/><path d="M186.93,120,165,121.39c-10.58.35-12.51-.7-23.77-.81l-10.75-1.49c-2.19,4.16-4,4.48-7.6.95l-15,1.7-22.32.48-29-1" style="fill:none;stroke:#000;stroke-miterlimit:22.925600000000003;stroke-width:0.216px;fill-rule:evenodd"/><path d="M54.17,176l1.09-3.23c4.41-1.47,5.93,6.5,11,12.83,6.22,9.84,26,11.54,32.57,12.21" style="fill:none;stroke:#000;stroke-miterlimit:22.925600000000003;stroke-width:0.216px;fill-rule:evenodd"/><path d="M208.68,245.91l-22-46.87c-1.39-13.93,9.78-43.21,12.39-59.21l7.8-10.62c4.36,5.18,10.24,16.82,16.82,30.85,11.74,25,20.93,46.41,31.26,66.23C239.23,232.85,222.91,241.36,208.68,245.91Z" style="fill:#fff;stroke:#000;stroke-linejoin:round;stroke-width:1.0001px;fill-rule:evenodd"/><path d="M208.91,245.15l-22-46.87c-.66-6.59,4.06-21.18,6.79-31.61.6,3.17.43,8.62,1.51,10.65.64,1.21,2.66-5,4.63-12.71,1.6-6.22,4.74-22,6.6-24.84,1.61-2.49,2.39,12.29-.78,33.74-1.62,11-5.37,33.82-2.79,41,1.77,4.93,5-7,6.5-15.69,1.75-10.31,1.67-21.09,3.87-27.7.84-2.53,3.31,14.1,3.18,27.13-.16,16.82-4.24,27.95-1.26,44.74C213,243.77,210.94,244.5,208.91,245.15Z" style="fill:#c5c7d6;fill-rule:evenodd"/><path d="M45.62,245.49l11.1-35.17c-.82-20.38-7.17-35.72-5.93-45.27l-8.54-18L33.6,129.65c-3.6,5.72-6.1,16.32-10.66,31.1C14.8,187.11,7.46,211.53,0,232.55,15.73,237.09,30.45,242.83,45.62,245.49Z" style="fill:#fff;stroke:#000;stroke-linejoin:round;stroke-width:1.0001px;fill-rule:evenodd"/><path d="M45.26,244.91l11.1-35.17c-.48-11.87-2.83-22-4.47-30.33L46,170.94s4.82,32.73,1.69,32.73-5.26-24.26-7-32.29-5.8-18.73-5.8-13.38a315.23,315.23,0,0,0,3.31,32.37c2,12.91,4.1,24.79,3,27.38-2.23,5.35-9.81,10.79-8.92,3.66s2.91-37.89-.27-33.53-8.48,38.91-10.74,50.81A192.21,192.21,0,0,0,45.26,244.91Z" style="fill:#c5c7d6;fill-rule:evenodd"/><path d="M95.14,98.11C74,112.3,38.74,118.21,33.21,130c9.91,28.78,17,62.18,22.17,92.59,1.63,9.57,4.11,23.25,4.29,27.8.24,6-2.53,13.42-2,15.64.83,3.63,2.35,5.24,3.32,9.07l31.39,6.64,49.16,1c13.51.45,29.38-.56,41-6.89.47-4.91,2.55-7.41,2.45-11.11s-2.88-11.2-2.29-15.18c.82-5.58,6.21-33.57,8.26-41.21-.56-8.5-.83-15.16,1.3-30.33,3.76-20.46,7.33-37.08,15.15-48.38C201,118.28,168.12,110.6,151,100.52a39.33,39.33,0,0,1-4.82-3c-5,10-15.25,14.57-25.2,14.66C109.92,112.26,99.09,107.3,95.14,98.11Z" style="fill:#fff;stroke:#000;stroke-linejoin:round;stroke-width:1.0001px;fill-rule:evenodd"/><path d="M159.43,282.25c8.08-.88,16-2.75,22.55-6.33.47-4.91,2.55-7.41,2.45-11.11s-2.88-11.2-2.3-15.18c.82-5.58,6.21-33.57,8.26-41.21-.56-8.5-.83-15.16,1.3-30.33.7-3.8,1.39-7.46,2.1-11-.41-15.32-1.4-25.84-3.05-25.61-5.48,3-3,23.91-4,32.37s-6.47,37.85-9.46,35.86-29.62-35.15-27.13-22.2c1.21,6.27,9.61,20.58,14.85,33.87,5.58,14.16,11.73,28.77,11.78,33.15.09,8-17.8-24.47-22.78-33.43S144,200.41,133.5,197.61s-26-2.16-8.9,9.79,36.27,36.2,39.75,46.66-34.86-10-28.39,0,17.43,11,23.91,11.46,14.07.72,12.9,4.31-5.58,8.88-11.41,10.63S159.13,281.6,159.43,282.25Z" style="fill:#c5c7d6;fill-rule:evenodd"/><path d="M45.84,172.2c4,16.88,7.36,34.08,10.14,50.42,1.63,9.57,4.11,23.25,4.29,27.8.24,6-2.53,13.42-2,15.64.83,3.63,2.34,5.24,3.32,9.07L93,281.77l49.16,1c6,.2,19.07-4.12,25.38-4.82-4-.72-18.73-3.51-24-3.9s-11.68,4.19-16.67,5.62-11.05-2.14-14.26-5.35S101.12,277.57,97.2,279s-13.29-4.21-16.55-7.48-7.83-8.49-9.14-15-7.83-39.17-3.92-31.34S80.65,257.81,91.09,263s24.81,6.53,37.21,6.53-3.8-7.83-15.32-14.24S92.15,235.15,78.45,213.6c-5.78-9.09-12.22-23.67-17.85-37.5-7.71-18.95-11-37.94-13-34.08C45,147.08,45.91,155.45,45.84,172.2Z" style="fill:#c5c7d6;fill-rule:evenodd"/><path d="M146.38,98.22a73.55,73.55,0,0,0,6.57,3.93l8.33,4,26.05,10.77-21.07-4c-9-2.42-15.9-4.71-23.36-9.65A51.26,51.26,0,0,0,146.38,98.22Z" style="fill:#c5c7d6;fill-rule:evenodd"/><path d="M204.53,236.84c17.44-6.5,26.43-10.94,46.1-19.3" style="fill:none;stroke:#000;stroke-miterlimit:22.925600000000003;stroke-width:0.5px;stroke-dasharray:2.500200033187866,0.5;fill-rule:evenodd"/><path d="M203.72,235.18c17.44-6.5,26.43-10.94,46.1-19.3" style="fill:none;stroke:#000;stroke-miterlimit:22.925600000000003;stroke-width:0.5px;stroke-dasharray:2.500200033187866,0.5;fill-rule:evenodd"/><path d="M48.43,235.79c-17.07-4.22-26-7.48-45.32-13.28" style="fill:none;stroke:#000;stroke-miterlimit:22.925600000000003;stroke-width:0.5px;stroke-dasharray:2.500200033187866,0.5;fill-rule:evenodd"/><path d="M49.14,234.11c-17.07-4.22-26-7.48-45.32-13.28" style="fill:none;stroke:#000;stroke-miterlimit:22.925600000000003;stroke-width:0.5px;stroke-dasharray:2.500200033187866,0.5;fill-rule:evenodd"/><path d="M120.45,377.78c-8.91,34.6-20.14,85.94-22.69,95.17-1.49,5.4-4.68,24.55-5.2,30.39-.29,3.19-.32,20.4-.15,25.94.21,6.83-.53,38-1.61,46.47-1,7.73-7,20.95-9.81,26.54,1.42,3.6,1.8,7.33,3.81,14.17.52,1.75-3.62,18.6-3.62,18.6-11.13,2.34-20.44-3.59-31.64-5.14a31.72,31.72,0,0,0-16.25,2.43s-2.92-19-2.84-23.16c1-4.88,6.36-9.47,8.79-13.37,1.06-1.69-2.15-7.09-2.77-11.86-1.06-8.15-1-27.15-.65-34,.19-3.81,6.73-49.25,7.72-55.79.81-5.34,0-23.44.51-43.48.72-25.76,2-55.9,3.54-78.73,1-15.09,1.95-33.66,4.21-49,2.34-15.78,4.1-23.1,8.08-38.2,13.45,3.39,53.76,4.45,66.51,5.74Z" style="fill:#666;stroke:#000;stroke-linejoin:round;stroke-width:1.0001px;fill-rule:evenodd"/><path d="M49,349.77,48.87,357c4.48-.6,10.68-1.22,24.25-.67s38.33,2.4,47,3.38l0-12.94-15.2,6.12-34.09-.65Z" style="fill:#4d4d4d;fill-rule:evenodd"/><path d="M52.79,320.82a227,227,0,0,1,6.44-31l7.68.46C61.79,297.53,55.22,311.12,52.79,320.82Z" style="fill:#4d4d4d;fill-rule:evenodd"/><path d="M116.52,391.33c-8.16,33.15-17.05,73.53-19.29,81.62-1.49,5.4-4.68,24.55-5.2,30.39-.29,3.19-.32,20.4-.15,25.94.21,6.83-.53,38-1.62,46.47-1,7.73-7,20.95-9.81,26.54,1.42,3.6,1.8,7.33,3.81,14.17.52,1.75-3.47,18.22-3.47,18.22-4.31.91-8.42.27-12.4-.57,1.46-6,4.13-19.83,2.9-23.62s-10-3.31-13-8.72,24.49-25.85,24.53-34.27c0-6.58-6.93-12.24-7.42-26.3-.14-3.94,9.73-18.51,8.84-21.8-4.09-15-7-22.85-1-37.88,4.22-10.54,21.88-63.08,30.5-94,2.5-9-.2-7.36-5.59-5.09-4,1.67-7,1.81-4.45-1.94,1.89-2.78,7.24-6.45,16.35-10.55l-.08,7.61C118.93,381.94,117.38,386.62,116.52,391.33Z" style="fill:#4d4d4d;fill-rule:evenodd"/><path d="M120.54,377.72c8.91,34.6,22.23,86,24.78,95.23,1.49,5.4,4.68,24.55,5.2,30.39.29,3.19.32,20.4.15,25.94-.21,6.83.53,38,1.61,46.47,1,7.73,7,20.95,9.81,26.54-1.42,3.6-1.8,7.33-3.81,14.17-.52,1.75,3.62,18.6,3.62,18.6,11.13,2.34,20.44-3.59,31.64-5.14a31.72,31.72,0,0,1,16.25,2.43s2.92-19,2.84-23.16c-1-4.88-6.36-9.47-8.79-13.37-1.06-1.69,2.14-7.09,2.77-11.86,1.06-8.15,1-27.15.65-34-.19-3.81-6.73-49.25-7.72-55.79-.81-5.34,0-23.44-.51-43.48-.72-25.76-2-55.9-3.54-78.73-1-15.09-1.95-33.66-4.21-49-2.34-15.78-4.1-23.1-8.08-38.2-13.45,3.39-49.53,4.9-62.28,6.18Z" style="fill:#666;stroke:#000;stroke-linejoin:round;stroke-width:1.0001px;fill-rule:evenodd"/><path d="M192.42,350.39l.47,8.45c-4.93-2.26-11.11-3-25.48-2.47s-37.06,2.45-46.19,3.44l-.08-13.69,10.28,6.22,37.19.18Z" style="fill:#4d4d4d;fill-rule:evenodd"/><path d="M145.9,472.95c1.49,5.4,4.64,24.56,5.17,30.4.77,8.49,7.31-13.77,7.06-14.83-.59-2.53-12.69-32.22-21.58-63.39-3.87-13.56,11.49,14.5,11.26,7.31-.29-9.12-13.69-33.75-20-47-2.33-4.92-5.49-8.51-.12-10.94,3.43-1.55,7.48-3.72,10.77-5.53,1.68-.92.11-2-3-2a44.94,44.94,0,0,0-14.37,2.74l-.06,8C129.48,409.42,137.14,441.28,145.9,472.95Z" style="fill:#4d4d4d;fill-rule:evenodd"/><path d="M151.27,511.65c0,5.6.07,14.61,0,17.44s0,10.12.2,18.16c3.57-2.71,4.63-4.81,10.76-4s17.46,3.92,15.12-.6-15.67-12.49-18-15.51S152.87,515.39,151.27,511.65Z" style="fill:#4d4d4d;fill-rule:evenodd"/><path d="M200.65,629.34a30.57,30.57,0,0,1,8.8,2.28s2.76-18.22,2.68-22.43c-1-4.88-6.36-9.14-8.79-13-1.06-1.69,2.15-7.43,2.77-12.19,1.06-8.15,1-27.15.65-34-.19-3.81-6.73-49.25-7.72-55.79-.81-5.34,0-23.44-.51-43.48-.72-25.76-2-55.9-3.54-78.73-1-15.09-1.95-33.66-4.21-49-2.34-15.78-4.1-23.1-8.08-38.2a49.91,49.91,0,0,1-6.24.85,29.67,29.67,0,0,1-.14,3.83c12.17,35.81,12.5,75.91,9.4,114-1.51,18.6-6.08,37.17-3.14,55,1.93,11.74,12.45,32.71,14.41,48.06s-23.92,21.68-10.9,29.81,15.84,15.36,14.07,26.2-23,17.17-14.65,23.49,21.87,17.16,23.76,22.13-.38,11.29-5,9-19.51-10.39-21.8-6.78-15.65,12.2-6.4,11.29,20.33-2.8,22.68.45S200.59,626.66,200.65,629.34Z" style="fill:#4d4d4d;fill-rule:evenodd"/><path d="M151.22,535.72c.11,11.7.76,33.21,1.63,40,1,7.73,7,20.78,9.81,26.37-1.42,3.6-1.81,7.5-3.82,14.34-.52,1.75,3.45,18.14,3.45,18.14a26.87,26.87,0,0,0,5.31.54c-2.58-7.34-4.46-15.09-4.45-16.72,0-3,2.7-12,3.69-14.24,1.59-3.61,18-4.56,17.46-8.63s-21.41-16.71-25.14-21.23C156.29,570.84,152.7,546.56,151.22,535.72Z" style="fill:#4d4d4d;fill-rule:evenodd"/><polyline points="131.35 292.42 131.37 351.21 121.3 351.21" style="fill:none;stroke:#000;stroke-miterlimit:22.925600000000003;stroke-width:0.5px;stroke-dasharray:2.500200033187866,0.5;fill-rule:evenodd"/><line x1="131.37" y1="349.72" x2="121.3" y2="349.72" style="fill:none;stroke:#000;stroke-miterlimit:22.925600000000003;stroke-width:0.5px;stroke-dasharray:2.500200033187866,0.5"/><path d="M44,494.13l0-.31c.77-5.34-.09-23.41.41-43.41.64-25.72,1.78-55.81,3.25-78.6.43-6.7.84-14.08,1.34-21.56,0,7.9.61,16.38.56,23.67-.27,33.77-.24,83.55.23,91.27S47.52,485.17,44,494.13Z" style="fill:#4d4d4d;fill-rule:evenodd"/><path d="M36.46,630.67a22.35,22.35,0,0,0-2.79,1S30.9,613.51,31,609.31c1-4.88,6.52-9.46,8.85-13.35,1-1.69-2.25-6.93-2.86-11.69-1-8.14-1-27.48-.67-34.34.08-1.73,1.6-12.2,3.12-23.61.07,11.32.71,37.64,2.06,41.38s10.19,13.67,10.17,19.09-18.81,19.5-18.58,24.81S35.24,625.09,36.46,630.67Z" style="fill:#4d4d4d;fill-rule:evenodd"/><path d="M161.58,629.69c7.93,1.53,20.58-5.15,33-6a34.25,34.25,0,0,1,15.71,2.45" style="fill:none;stroke:#000;stroke-miterlimit:22.925600000000003;stroke-width:0.5px;stroke-dasharray:2.500200033187866,0.5;fill-rule:evenodd"/><path d="M81.39,629.69c-7.93,1.53-20.58-5.15-33-6a34.25,34.25,0,0,0-15.71,2.45" style="fill:none;stroke:#000;stroke-miterlimit:22.925600000000003;stroke-width:0.5px;stroke-dasharray:2.500200033187866,0.5;fill-rule:evenodd"/><path d="M55.42,491.44s3.84,9.54,8.78,11,8.86,3.54,7.26,7.42-12.73,5.66-17.91-2.47S52.2,479.78,55.42,491.44Z" style="fill:#4d4d4d;fill-rule:evenodd"/><path d="M184,491.77s-4,9.56-9.1,11-9.19,3.54-7.52,7.43,13.22,5.66,18.59-2.48S187.34,480.09,184,491.77Z" style="fill:#4d4d4d;fill-rule:evenodd"/><path d="M183.26,274.75C145,282,101.71,281.21,60,274.7l-1.57,15.43c40.76,6.7,89.1,7.12,126.3,0Z" style="fill:#666;stroke:#000;stroke-linejoin:round;stroke-width:1.0001px;fill-rule:evenodd"/><path d="M67.12,276.26q-3.36-.47-6.7-1L58.9,289.71c2,.33,5.28.84,7.3,1.13Z" style="fill:#4d4d4d;fill-rule:evenodd"/><path d="M183,275.36c-2.43.54-4.43.68-6.9,1.15.19,3.3,0,11.42.56,14.52,2-.43,5.51-.93,7.48-1.42Z" style="fill:#4d4d4d;fill-rule:evenodd"/><path d="M178.52,575.24s12.93-4.52,11-9-13.93-6.32-19.49-7.23-13.89-.9-9.22,5.42S173.88,574.34,178.52,575.24Z" style="fill:#4d4d4d;fill-rule:evenodd"/><path d="M49.5,565c1,6.44,7.13,5.38,13.11,6.23s11.75,3.62,11.68-2.95c-.06-5.17-1.25-21.87-7-20.13-2.86.87-5.68,4.72-9.41,8.23S49.54,563,49.5,565Z" style="fill:#4d4d4d;fill-rule:evenodd"/><path d="M66.57,611.53s-14.57-7.75-21-5.33-7.93,6.3-7.71,10.17,5-.48,11.49-.48S71.33,618.07,66.57,611.53Z" style="fill:#4d4d4d;fill-rule:evenodd"/><line x1="120.99" y1="295.35" x2="120.99" y2="279.69" style="fill:none;stroke:#000;stroke-linejoin:round;stroke-width:1.0001px"/><line x1="122.33" y1="295.3" x2="122.33" y2="281.02" style="fill:none;stroke:#000;stroke-miterlimit:22.925600000000003;stroke-width:0.5px;stroke-dasharray:2.500200033187866,0.5"/><path d="M59.41,289c40.5,6.48,87.17,7.08,124.31,0" style="fill:none;stroke:#000;stroke-miterlimit:22.925600000000003;stroke-width:0.5px;stroke-dasharray:2.500200033187866,0.5;fill-rule:evenodd"/><path d="M60.34,275.9c40.5,6.48,86.14,7.08,123.28,0" style="fill:none;stroke:#000;stroke-miterlimit:22.925600000000003;stroke-width:0.5px;stroke-dasharray:2.500200033187866,0.5;fill-rule:evenodd"/><polygon points="154.13 297.35 150.21 297.47 150.21 278.74 154.13 278.62 154.13 297.35" style="fill:#666;stroke:#000;stroke-linejoin:round;stroke-width:1.0001px;fill-rule:evenodd"/><line x1="152.12" y1="278.91" x2="152.17" y2="297.12" style="fill:none;stroke:#000;stroke-miterlimit:22.925600000000003;stroke-width:0.5px;stroke-dasharray:2.500200033187866,0.5"/><line x1="150.34" y1="280.01" x2="154.09" y2="279.83" style="fill:none;stroke:#000;stroke-miterlimit:22.925600000000003;stroke-width:0.5px;stroke-dasharray:2.500200033187866,0.5"/><polygon points="87.93 297.13 91.86 297.25 91.86 278.52 87.93 278.4 87.93 297.13" style="fill:#666;stroke:#000;stroke-linejoin:round;stroke-width:1.0001px;fill-rule:evenodd"/><line x1="89.94" y1="278.69" x2="89.9" y2="296.89" style="fill:none;stroke:#000;stroke-miterlimit:22.925600000000003;stroke-width:0.5px;stroke-dasharray:2.500200033187866,0.5"/><line x1="91.72" y1="279.79" x2="87.98" y2="279.61" style="fill:none;stroke:#000;stroke-miterlimit:22.925600000000003;stroke-width:0.5px;stroke-dasharray:2.500200033187866,0.5"/><path d="M91.08,101.23c5.35,10.64,17.09,16,29.13,16.07s24.66-5.34,30.69-16.43" style="fill:none;stroke:#000;stroke-linejoin:round;stroke-width:1.0001px;fill-rule:evenodd"/><path d="M92,100.46c5.15,10.06,16.45,15.71,28,15.73s23.83-4.87,30.08-16.15" style="fill:none;stroke:#000;stroke-miterlimit:22.925600000000003;stroke-width:0.5px;stroke-dasharray:2.500200033187866,0.5;fill-rule:evenodd"/><path d="M151,547.74c.14,5.5.33,11.23.56,16.08,16.09-.18,39.64-1.35,55.84-3.23,0-4.67-.17-8.92-.29-11.45,0-.6-.31-2.4-.6-4.76A516,516,0,0,1,151,547.74Z" style="stroke:#000;stroke-linejoin:round;stroke-width:0.5px;fill-rule:evenodd;fill:url(#a)"/><path d="M92.07,547.74c-.14,5.5-.33,11.23-.56,16.08-16.08-.18-39.6-1.35-55.78-3.23,0-4.67.17-8.92.29-11.45,0-.6.31-2.4.6-4.76A515,515,0,0,0,92.07,547.74Z" style="stroke:#000;stroke-linejoin:round;stroke-width:0.5px;fill-rule:evenodd;fill:url(#b)"/><path d="M151,548.91c17.15-.16,39.23-1.3,55.38-3.26" style="fill:none;stroke:#000;stroke-linejoin:round;stroke-width:0.5px;stroke-dasharray:2.500200033187866,0.5;fill-rule:evenodd"/><path d="M92.14,548.91a554,554,0,0,1-55.33-3.26" style="fill:none;stroke:#000;stroke-linejoin:round;stroke-width:0.5px;stroke-dasharray:2.500200033187866,0.5;fill-rule:evenodd"/><path d="M151.6,562.73c17.14-.16,39.23-1.3,55.38-3.26" style="fill:none;stroke:#000;stroke-linejoin:round;stroke-width:0.5px;stroke-dasharray:2.500200033187866,0.5;fill-rule:evenodd"/><path d="M91.5,562.73a554,554,0,0,1-55.33-3.26" style="fill:none;stroke:#000;stroke-linejoin:round;stroke-width:0.5px;stroke-dasharray:2.500200033187866,0.5;fill-rule:evenodd"/><polygon points="186.94 325.95 167.04 294.61 186.2 315.7 186.94 325.95" style="fill:#4d4d4d;fill-rule:evenodd"/><polygon points="51.15 333.61 76.21 294.11 57.05 320.54 51.06 332.13 51.15 333.61" style="fill:#4d4d4d;fill-rule:evenodd"/><line x1="192.76" y1="335.43" x2="166.21" y2="293.27" style="fill:none;stroke:#000;stroke-linejoin:round;stroke-width:1.0001px"/><line x1="50.49" y1="334.93" x2="77.04" y2="292.77" style="fill:none;stroke:#000;stroke-linejoin:round;stroke-width:1.0001px"/><line x1="163.73" y1="293.7" x2="193.07" y2="340.13" style="fill:none;stroke:#000;stroke-miterlimit:22.925600000000003;stroke-width:0.5px;stroke-dasharray:2.500200033187866,0.5"/><line x1="79.52" y1="293.2" x2="50.18" y2="339.63" style="fill:none;stroke:#000;stroke-miterlimit:22.925600000000003;stroke-width:0.5px;stroke-dasharray:2.500200033187866,0.5"/><line x1="166.8" y1="294.82" x2="163.89" y2="296.08" style="fill:none;stroke:#000;stroke-miterlimit:22.925600000000003;stroke-width:1.1999px"/><line x1="76.45" y1="294.32" x2="79.36" y2="295.58" style="fill:none;stroke:#000;stroke-miterlimit:22.925600000000003;stroke-width:1.1999px"/><line x1="192.29" y1="335.56" x2="189.38" y2="336.83" style="fill:none;stroke:#000;stroke-miterlimit:22.925600000000003;stroke-width:1.1999px"/><line x1="50.96" y1="335.06" x2="53.87" y2="336.33" style="fill:none;stroke:#000;stroke-miterlimit:22.925600000000003;stroke-width:1.1999px"/><path d="M89,103.75s8.25,25.65,13.5,36.3,19.35,39.3,19.35,39.3l13.5-21.75,1.2,2.85L120.09,195l-9-26.1S90.84,133.6,90.84,132.7s-3.9-28.2-3.9-28.2Z" style="fill:#c5c7d6;fill-rule:evenodd"/><path d="M88.51,101.37s-27.6,9.71-34.64,13S43.22,119.27,39,122.26c5.12,12.86,9,31,10.93,47.91,1.75,15.14,0,31.76-.1,45.81-1,23.87-2.43,47.56-3.19,71.26-.69,21.46-1.44,42.19-1.29,64,5.55,1,32.16,3.27,53.87,3.64,8,.13,16.6-5.51,21.76-7.92,4.07,2.38,13.26,8.19,22.94,8,19.77-.42,43.48-1.54,53.5-3.33,0-4-.57-23.73-.61-28.95-.26-35.72-2.05-73.38-3.43-107.76-3.35-29.78-.78-63.34,9.08-92.65-4.26-3-9.93-4.92-16.63-7.89s-33.07-12.84-33.07-12.84l-5.59,26.08L120.79,192l-30.14-71.8Z" style="fill:#f60;stroke:#000;stroke-linejoin:round;stroke-width:1.0001px;fill-rule:evenodd"/><path d="M193.45,160a225.41,225.41,0,0,0-.61,54.49c1.37,34.38,3,72.56,3.26,108.28,0,4.91.65,25,.69,28.66-5.84.58-12,1.14-18.71,1.62,2.47-15,3.84-25.43,4.64-63.7.4-19.13-1.29-25.22-4.41-27.59-1.52-1.16-15.19,17.57-18.25,20.42-5.7,5.3-.45-15.33,7.13-33.79A172.38,172.38,0,0,0,180,196.64c3.17-37.43,1.73-33.32,4.74-52.49S191.69,149.46,193.45,160Z" style="fill:#cf5300;fill-rule:evenodd"/><path d="M152.92,102.3c11.18,4.16,27.42,10.25,30.76,11.72s7.29,3.05,9.54,4.18c-2.8-.57-7-2.15-14.73-3.82-2.74-.59.92.16-3.23-.63-1.93-.37,3.13,9.25,1.41,8.77-4.67-1.29-18.1-12.67-24-15.14A9.21,9.21,0,0,0,152.92,102.3Z" style="fill:#cf5300;fill-rule:evenodd"/><path d="M180,112c-4.53-1.8-10.42-4.07-15.57-6l-5.82,145.51,15.67,1.4Z" style="stroke:#000;stroke-linejoin:round;stroke-width:0.5669000000000001px;fill-rule:evenodd;fill:url(#c)"/><line x1="178.93" y1="111.48" x2="173.28" y2="252.74" style="fill:none;stroke:#000;stroke-miterlimit:22.925600000000003;stroke-width:0.5px;stroke-dasharray:2.500200033187866,0.5"/><line x1="165.43" y1="106.46" x2="159.62" y2="251.89" style="fill:none;stroke:#000;stroke-miterlimit:22.925600000000003;stroke-width:0.5px;stroke-dasharray:2.500200033187866,0.5"/><path d="M193.44,217.55l.27-3c-3.35-29.78-.87-63.09,9-92.4-.7-.49-1.88-1-2.65-1.46A198.11,198.11,0,0,0,190.52,168C189.52,180.65,189.83,202,193.44,217.55Z" style="fill:#999;stroke:#000;stroke-linejoin:round;stroke-width:1.0001px;fill-rule:evenodd"/><path d="M49.14,163.51c2.21,17,1.26,36.16,1.1,52-.91,22.82-2.31,46.86-3.22,70.89-.82,21.58-1.42,43.49-1.26,65a67.62,67.62,0,0,0,10.12,1.32c-1.76-9.12-1.11-25.34-2.14-38-1.78-21.93.18-47.22,2.59-67.71s16.13-20,23.49-10.79c5.83,7.29,13.24,6.64.63-14.32C73,209.51,65.33,199.83,61,183.45c-5.93-22.57-4.34-29.4-7.92-41.31S49.09,149.35,49.14,163.51Z" style="fill:#cf5300;fill-rule:evenodd"/><path d="M59.71,112c4.53-1.8,10.42-4.07,15.57-6L81.1,251.48l-15.67,1.4Z" style="stroke:#000;stroke-linejoin:round;stroke-width:0.5669000000000001px;fill-rule:evenodd;fill:url(#d)"/><line x1="60.73" y1="111.48" x2="66.38" y2="252.74" style="fill:none;stroke:#000;stroke-miterlimit:22.925600000000003;stroke-width:0.5px;stroke-dasharray:2.500200033187866,0.5"/><line x1="74.23" y1="106.46" x2="80.04" y2="251.89" style="fill:none;stroke:#000;stroke-miterlimit:22.925600000000003;stroke-width:0.5px;stroke-dasharray:2.500200033187866,0.5"/><path d="M46.19,297.3c-.17,5.25-.33,10.48-.48,15.71l150.87.09q-.11-7.86-.31-15.8Z" style="stroke:#000;stroke-linejoin:round;stroke-width:0.5669000000000001px;fill-rule:evenodd;fill:url(#e)"/><line x1="196.52" y1="312.05" x2="45.7" y2="312.05" style="fill:none;stroke:#000;stroke-miterlimit:22.925600000000003;stroke-width:0.5px;stroke-dasharray:2.500200033187866,0.5"/><line x1="196.3" y1="298.36" x2="45.77" y2="298.36" style="fill:none;stroke:#000;stroke-miterlimit:22.925600000000003;stroke-width:0.5px;stroke-dasharray:2.500200033187866,0.5"/><path d="M48.51,242.1q-.39,7.86-.77,15.71L195,257.9q-.31-7.95-.63-15.81Z" style="stroke:#000;stroke-linejoin:round;stroke-width:0.5669000000000001px;fill-rule:evenodd;fill:url(#f)"/><line x1="194.5" y1="256.85" x2="47.85" y2="256.85" style="fill:none;stroke:#000;stroke-miterlimit:22.925600000000003;stroke-width:0.5px;stroke-dasharray:2.500200033187866,0.5"/><line x1="194.35" y1="243.16" x2="48.15" y2="243.16" style="fill:none;stroke:#000;stroke-miterlimit:22.925600000000003;stroke-width:0.5px;stroke-dasharray:2.500200033187866,0.5"/><path d="M121.2,190.14c-11-29.27-28.56-57.53-31.9-89.41l-3,1.32c3.07,25.91,15.14,49.73,25.44,73.06,2.82,6.39,5.51,12.73,7.83,19.1l1.65-4.07Zm-1.65,154.69c-5.54,6-13.36,6.7-20.52,7-12.35.49-36.73-1.37-54.13-2.92v3C61.26,353.7,83.39,355,99.08,355c11.14-.14,18.26-2.82,22.87-7.8Z" style="fill:#999;stroke:#000;stroke-linejoin:round;stroke-width:1.0001px;fill-rule:evenodd"/><path d="M87.31,101.91c3.07,25.91,15.14,49.73,25.44,73.06,2.63,6,5.16,11.9,7.37,17.85m.13,152.72c-5.55,6-13.25,7.08-20.28,7.36-12.36.49-37.48-1.37-54.92-2.93" style="fill:none;stroke:#000;stroke-linejoin:round;stroke-width:0.5px;stroke-dasharray:2.500200033187866,0.5;fill-rule:evenodd"/><path d="M201,121.54s-7.27,18.88-9.4,45.93c-1,12.12-1.37,29.64,1,45.29" style="fill:none;stroke:#000;stroke-miterlimit:22.925600000000003;stroke-width:0.5px;stroke-dasharray:2.500200033187866,0.5;fill-rule:evenodd"/><path d="M111.09,322.21V234.09c-.65-46.57,35.81-86,40.79-133.36l3,1.32c-3.07,25.91-15.14,49.73-25.44,73.06-8.72,19.77-16.2,39.08-15.48,60.13l.21,82.86c.14,31.38,15.12,33.22,28,33.72,12.62.5,37.78-1.45,55.24-3l.07,2.93A554.31,554.31,0,0,1,142.11,355C118.5,354.72,112.93,343,111.09,322.21Z" style="fill:#999;stroke:#000;stroke-linejoin:round;stroke-width:1.0001px;fill-rule:evenodd"/><path d="M153.88,101.91c-3.07,25.91-15.14,49.73-25.44,73.06-8.72,19.77-16.2,39.08-15.48,60.13l.21,82.86c.14,31.38,15.21,34.44,28,34.94,12.62.5,38.53-1.45,56-3" style="fill:none;stroke:#000;stroke-linejoin:round;stroke-width:0.5px;stroke-dasharray:2.500200033187866,0.5;fill-rule:evenodd"/><path d="M49.69,217.55l-.33-3c2.75-29.78-.4-63.09-10.84-92.4.69-.49,1.86-1,2.62-1.46A200.62,200.62,0,0,1,51.62,168C52.87,180.65,53,202,49.69,217.55Z" style="fill:#999;stroke:#000;stroke-linejoin:round;stroke-width:1.0001px;fill-rule:evenodd"/><path d="M40.23,121.54s7.65,18.88,10.32,45.93c1.2,12.12,2,29.64-.05,45.29" style="fill:none;stroke:#000;stroke-miterlimit:22.925600000000003;stroke-width:0.5px;stroke-dasharray:2.500200033187866,0.5;fill-rule:evenodd"/><rect x="116.2" y="221.26" width="7.18" height="19.35" style="fill:none;stroke:#000;stroke-linejoin:round;stroke-width:0.5px;stroke-dasharray:2.500200033187866,0.5"/><rect x="116.2" y="276.91" width="7.18" height="19.35" style="fill:none;stroke:#000;stroke-linejoin:round;stroke-width:0.5px;stroke-dasharray:2.500200033187866,0.5"/><path d="M95.21,46.75a28.53,28.53,0,0,1,0-5.76c.27-2-2.56-11.2,3.74-17.55,4.14-2.33,6.62.32,6.62.32s-3.83,3.75-4.28,11.1a26.61,26.61,0,0,1-1.35,6.82c-1.43,4-3.4,7.29-1.79,14.61.73,3.32.53,5.61,1.11,8.87,1.19,6.65-.29,9,5,18.29-.35-.57-5-6.78-5.25-7.41-2.28-5-1.55-10.34-2.41-19.26-.41-4.28-.79-7.61-1-10.25A1.44,1.44,0,0,1,95.21,46.75Z" style="fill:#e5ab74;fill-rule:evenodd"/><path d="M148,47.83s3.51-2.73,4-.31.16,8.11-.67,11.4-3.37,9-5.4,9.34a3.17,3.17,0,0,1-3-.91s-.2-7.59.67-11.51S148,47.83,148,47.83Z" style="fill:#fc9;stroke:#000;stroke-miterlimit:22.925600000000003;stroke-width:1.0001px;fill-rule:evenodd"/><path d="M151.4,48.47c-1.21-.1-3.19,2.69-3.77,4-.84,1.94-.43,3.77-1.3,5s-2.27-.49-2.27-.49L144,59.56l0,3s1.56-1.82,2.29-1.1.8,2,1.47,1.33c1.31-1.32,2.41-6.18,1-7.61a2.36,2.36,0,0,1-.45-1.71c.19-1.31,1.49-3.25,2.27-3.07s.25,5.13.68,5.19S152.1,48.52,151.4,48.47Z" style="fill:#d99b67;fill-rule:evenodd"/><path d="M145.91,55.44s3.4-6.62,5-6.78" style="fill:none;stroke:#4c2727;stroke-linecap:round;stroke-miterlimit:22.925600000000003;stroke-width:0.5px;fill-rule:evenodd"/><path d="M144.61,63.91s.16-2.19.83-2.56,1.18.15,1.73.73c.71-.83,1.69-5.4,1-6.36" style="fill:none;stroke:#4c2727;stroke-linecap:round;stroke-miterlimit:22.925600000000003;stroke-width:0.5px;fill-rule:evenodd"/><path d="M93.73,48s-3.55-2.73-4-.31,0,8.11.83,11.4,3.49,9,5.53,9.34a3.13,3.13,0,0,0,3-.91s.09-7.59-.83-11.51S93.73,48,93.73,48Z" style="fill:#fc9;stroke:#000;stroke-miterlimit:22.925600000000003;stroke-width:1.0001px;fill-rule:evenodd"/><path d="M90.32,48.6c1.21-.1,3.23,2.69,3.83,4,.86,1.94.48,3.77,1.37,5s2.26-.49,2.26-.49l.1,2.58.07,3s-1.59-1.82-2.31-1.1-.77,2-1.45,1.33c-1.32-1.32-2.49-6.18-1.06-7.61a2.33,2.33,0,0,0,.43-1.71c-.21-1.31-1.53-3.25-2.32-3.07s-.18,5.13-.61,5.19S89.63,48.66,90.32,48.6Z" style="fill:#e5ab74;fill-rule:evenodd"/><path d="M95.91,55.58S92.43,49,90.86,48.79" style="fill:none;stroke:#4c2727;stroke-linecap:round;stroke-miterlimit:22.925600000000003;stroke-width:0.5px;fill-rule:evenodd"/><path d="M97.33,64s-.19-2.19-.87-2.56-1.18.15-1.72.73c-.72-.83-1.76-5.4-1.12-6.36" style="fill:none;stroke:#4c2727;stroke-linecap:round;stroke-miterlimit:22.925600000000003;stroke-width:0.5px;fill-rule:evenodd"/><path d="M120.24,71.8s-1.86,2.5,0,2.8,2.46-.32,2.46-.32S120.92,70.92,120.24,71.8Z" style="fill:#ecba8f;fill-rule:evenodd"/><path d="M147.46,45.65s-.94,6.17-2,12.14c-1.4,8.27-.48,13.89-2.38,19.58-1,3-2.33,4.59-5.83,8.56a27.19,27.19,0,0,1-6.72,6.1,17.19,17.19,0,0,1-9.1,2,24.81,24.81,0,0,1-8.23-1c-3-1.09-5.53-3.18-8.39-6.31-3-3.3-4.13-4.72-5.76-8.3-2.28-5-2.07-12.69-2.92-21.61-.77-8-1.41-12.66-1-15.79s-6.86-24.21,26.05-23.74S147.46,45.65,147.46,45.65Z" style="fill:#fc9;stroke:#000;stroke-miterlimit:22.925600000000003;stroke-width:1.0001px;fill-rule:evenodd"/><path d="M124.16,28.28a6.55,6.55,0,0,1,4.15-.55c2.47.43,7.66,3.19,7.66,3.19s-4.31-3.48-8.1-4.17C124.63,26.16,123.19,27.61,124.16,28.28Z" style="fill:#e5ab74;fill-rule:evenodd"/><path d="M124.35,26.48a5.87,5.87,0,0,1,4.15-.63c2.47.49,7.66,3.64,7.66,3.64s-4.31-4-8.1-4.75C124.82,24.06,123.38,25.72,124.35,26.48Z" style="fill:#e5ab74;fill-rule:evenodd"/><path d="M102.87,52.44c-.44,1.19-.44,2.52,3.54,3.2a11,11,0,0,0,5.71-.62c-2.28,0-3.19,0-3.26-.3s1.76-.48,2.28-.7C112.82,53.29,106.11,52.37,102.87,52.44Z" style="fill:#ecba8f;fill-rule:evenodd"/><path d="M115.71,64c-.18-.55-2.22,1.58-4,2.75a25.44,25.44,0,0,1-3.39,1.67c-2.07,1,2.63,1,7.18-.31.2,0-1.42-.34-1-1.77A7.77,7.77,0,0,1,115.71,64Z" style="fill:#e5ab74;fill-rule:evenodd"/><path d="M121.24,86.13c-2.15.12-3,3.31-8,2s1.87,4,8.81,3.43,8.54-4.4,8.54-4.4-2.81,1.82-4.67,1.28S123.55,86.14,121.24,86.13Z" style="fill:#e5ab74;fill-rule:evenodd"/><path d="M114.22,68a8.12,8.12,0,0,0,6.5,4.08c1.71.12,6.54-1.2,6.74-3.26a4.94,4.94,0,0,0-.25-2.47c-.32-.88-4.74,3.41-6.72,3.08A27.08,27.08,0,0,1,114.22,68Z" style="fill:#ecba8f;fill-rule:evenodd"/><path d="M111.57,77.07c.28.1.35-.35,1.54-.45s4.43.52,7.49.6,7-.82,8.42-.47,1.5.76,2,.47a2.06,2.06,0,0,0-.06-1.58,1.49,1.49,0,0,0-1.36-.72c-.36.08.18.68-.33.88a5.4,5.4,0,0,1-2.11.26c-1-.1-1.8-.9-3.18-1.13-.77-.13-1.66.83-2.79.83-1.33,0-2.76-1-3.62-.81-1.78.3-2.08.91-3.18,1s-2.21-1-2.46-1C111.27,75.1,111,76.88,111.57,77.07Z" style="fill:#e5ab74;fill-rule:evenodd"/><path d="M147.19,45s-.86,6.19-1.87,12.16c-1.4,8.27-.71,13.88-2.61,19.57-1,3-3,4.55-6.48,8.63s-4.9,5.44-7.57,6.79c-1.6.81-3.76,1.32-7.28,1.26-3.68-.07-5.47-.17-7.12-.86,1.62-.1,3.3-.86,5.27-1.33,3.17-.76,2.81.74,7.1.17,2.82-.38,4.38-1.7,5.89-5.18l1.36-6.44a7.85,7.85,0,0,0-1.49-5.36c-1.44-1.81-3.88-2.58-2.2-2.64,3.48-.14,2.85-1.12,2.37-1.68-1.06-1.23-2.43-2-3.13-2.89-3-3.6,3.32.67,6.49.19s5.09-3,6.15-7.84a31.93,31.93,0,0,0,.1-5.19c-.24-1.92-1.47-1.24-2.57-.64-2.2,1.2-2.57.47-2.25-.35s-1.27-1.11-1.27-1.11V50.66s1.9.92,1.93.23-.73-1.6-3-1.88a16.32,16.32,0,0,0-4.64.45c-5.1,1.15-2.89,3.38.46,3.58a32.73,32.73,0,0,0,3.47-.16h0a1.81,1.81,0,0,1,.64,0,6.77,6.77,0,0,1-1.82.55,19.38,19.38,0,0,1-2.35.22c-.89.06.32.83,1.68,1,1.54.17,3.42.1,3.37.15-.5.45-4.12.88-6.16.59A28.66,28.66,0,0,1,126,54.24a4.39,4.39,0,0,0-1.32,2.46c-.38,1.92,2.32,8.11,2.53,10.18.14,1.41-3.05,1.29-3.59,1.87a3.57,3.57,0,0,1-2.85,1.58c-2.4.07-3-2.23-5-2.28.59-.85,2.05-.86,3.19.09.85.71,3.29.7,3.47-.35.56-3.19-.64-6.36-.88-11.14a48.38,48.38,0,0,1,.15-5.88c.16-2.08-.8-3-.81-3.67,0-1,2,.14,3.45-.09s2.28-.86,4.13-1.21c1.2-.22,3.42.13,5.39,0,5.17-.39,2.92-3.34,2.6-8.16-.21-3.14.55-4.16-.42-7.3a5.24,5.24,0,0,0-4.6-3.77c-3.64-.63-6.76,0-9.87-.15s-10.42-2.9-10.42-2.9c0-2,18.06-1.36,22.51-.64,3.7.6,8.16,3.74,11.68,5.35C149.5,36.05,147.19,45,147.19,45Z" style="fill:#e5ab74;fill-rule:evenodd"/><path d="M114.42,80.73c-.26.4.58,3.25,6.34,3.28,6,0,7.74-3.73,6.77-3.73s-2.59,1.3-3.48,1.22-2.48-.3-3.36-.3-2.21-.13-3.18,0A13.78,13.78,0,0,1,114.42,80.73Z" style="fill:#e5ab74;fill-rule:evenodd"/><path d="M129.34,76.86s-1,2.47-2.11,3.13a9.77,9.77,0,0,1-5.07,1.47c-2.06-.06-4.43.27-5.41-.15s3.73-.52,3.77-1.6-2.87-2-4-2.1,1.82-.6,3.13-.26a6.77,6.77,0,0,0,3.2,0c.85-.16,2.82.4,4.18-.13S129.79,76.42,129.34,76.86Z" style="fill:#e5ab74;fill-rule:evenodd"/><path d="M112.65,92.24c-2.68-1.08-4.81-2.87-8.1-6.71-2.4-2.8-4.4-4.7-5.59-8.29-.17-.52-.32-1.26-.51-2a82.9,82.9,0,0,1-1.26-11.91c1.58,3.65,3.41,5.21,5.73,8.07.54.67.47,2.82,1.42,5.42.82,2.25,1.5.69,2.79-3.05A4.57,4.57,0,0,1,109,71.34a26.5,26.5,0,0,1,5.44-1.28,18.27,18.27,0,0,0,3.21-1,11.1,11.1,0,0,0,2.61,1.33v-.09a4.31,4.31,0,0,0,.59.15,4.31,4.31,0,0,0,.59-.15v.09A11.1,11.1,0,0,0,124,69a18.28,18.28,0,0,0,3.21,1,26.5,26.5,0,0,1,5.44,1.28c1.86.83,2.62,2.78,3.7,5.51,1.27,3.2,1.79-4.94,2-5.41,1.34-2.57,4.47-4.3,6.27-10.54-.1.64-.25,5.41-.7,9.48a43.74,43.74,0,0,1-1.29,6.87c-1.2,3.59-3.19,5.49-5.6,8.29-3.29,3.84-5.41,5.67-8.1,6.71-4.26,1.65-12.34,1.62-16.35,0ZM121.41,74h0l-.12,0h0l-.26,0h-.35l-.26,0h0l-.12,0h0c-1.06-.37-2.43-1.76-3.31-1.64-1.91.25-5.34,1.33-5.63,3.82-2.33.78-1.8,3.38-1.43,5.85A8,8,0,0,0,115.6,89a22.35,22.35,0,0,0,11.11.05c2.43-.58,4.46-3,5.06-7,.37-2.47.9-5.07-1.43-5.85-.28-2.49-3.72-3.57-5.63-3.82C123.84,72.29,122.48,73.67,121.41,74Z" style="fill:#d99b67;fill-rule:evenodd"/><path d="M118.69,69.83c-1,.06-3.34,1.07-5.13,1.61-2.79.84-4.88,1.63-5.37,2.93-.8,2.14-.15,4.06.29,3s1.63-.6,2.57-.4c-.78-.7-.39-1.9.26-2.58a21.54,21.54,0,0,1,4.1-2.6c1.61-.83,4.37.46,5,.13a1.2,1.2,0,0,0,.39-.31,1.1,1.1,0,0,0,.36.31c.67.33,3.43-1,5-.13.95.49,5.34,2.09,4.63,4.83.28.38,1.62-.81,2.37.89.63,1.44,1.9-.74,1.1-2.87-.49-1.3-3.46-2.34-6.25-3.19-1.79-.54-4.13-1.55-5.13-1.61a4.36,4.36,0,0,0-2.22.85A5.25,5.25,0,0,0,118.69,69.83Z" style="fill:#bb835b;fill-rule:evenodd"/><path d="M121.54,93.63A19.65,19.65,0,0,0,129,92.37a15,15,0,0,0,3.15-1.83,32.72,32.72,0,0,0,5-5c2.41-2.8,4.4-4.7,5.6-8.29a20.23,20.23,0,0,0,.52-2.07c-1.11,2.13-3,5.63-3.7,6.16-1,.77-.19-2.26-.9-1.21-.57.83-.92,2-1.62,3.19a8,8,0,0,1-1.76,2.13c-.66.49-.21-.26-.7-3.28-.22-1.35-.79-4.68-1-3.47s0,1.28-.42,3.8a14.57,14.57,0,0,1-2.2,5.37,9.63,9.63,0,0,1-3.58,3c-1.79.78-3.76-.11-5.91-.1-2.43,0-5,.81-7.05,0a9.28,9.28,0,0,1-3.61-2.88,14.58,14.58,0,0,1-2.2-5.37c-.46-2.52-.2-2.66-.42-3.8s-.81,2.12-1,3.47c-.48,3,0,3.77-.7,3.28a8,8,0,0,1-1.76-2.13c-.7-1.15-1.05-2.36-1.62-3.19-.71-1,.13,2-.9,1.21-.71-.53-2.59-4-3.7-6.16A20.25,20.25,0,0,0,99,77.24c1.2,3.59,3.19,5.49,5.59,8.29,3.29,3.84,5.18,5.32,7.75,6.63a18.23,18.23,0,0,0,7.81,1.46Z" style="fill:#bb835b;fill-rule:evenodd"/><path d="M99.72,49.51c.05-.39.37-.71.46-1A4,4,0,0,1,104,45.78a28.74,28.74,0,0,1,6.55.23h0c3.13-.7,4.43.32,6,.37,1,0,1.29-.25,1.49-.08s.41,1.14-.2,2.54a6.86,6.86,0,0,0-.26,3.39,26.52,26.52,0,0,1,0,4.37c0,1.5-.41,4.82-.69,4.19-.68-1.55-.5-5.89-1-7.08-.52-1.34-4.07.12-5.33.13a18.58,18.58,0,0,1-2.75-.13,3.64,3.64,0,0,1-1.61-.52c.35-.17,2.42.08,4,0a8.62,8.62,0,0,0,2.89-.66c0-1,1.72-.8,1.09-1.71s-1.71-.88-3.56-1.25a13.14,13.14,0,0,0-4.65-.34c-3.92.94-2.38,2.68-2.93,2.95-1.76.2-3.68-.26-3.37-2.64Zm23.93-2.88c1.19,0,3.62-1.13,5.38-.8s-3.51,1.33-4.55,2.76a38,38,0,0,0-2.4,4.13A18,18,0,0,0,121,46.84C120.58,45.45,122.3,46.58,123.64,46.63Z" style="fill:#e5ab74;fill-rule:evenodd"/><path d="M114.35,52.2s-1.56,1.66-5.19,1.61a14.46,14.46,0,0,1-6-1.33,10.63,10.63,0,0,1,5.52-2C112,50.18,113,50.48,114.35,52.2Z" style="fill:#fff;fill-rule:evenodd"/><path d="M126.27,52.06s1.61,1.63,5.24,1.48a14.36,14.36,0,0,0,6-1.48,10.73,10.73,0,0,0-5.59-1.92C128.59,50,127.61,50.3,126.27,52.06Z" style="fill:#fff;fill-rule:evenodd"/><path d="M114.35,52.2a5.23,5.23,0,0,1-2,1.15c.38-.42.84-.92.38-1.34a6.68,6.68,0,0,0-4-.83,7.05,7.05,0,0,0-4.09,1.9c-.71-.24-1.5-.57-1.5-.57s1.2-2,4.53-2.2S113,50.48,114.35,52.2Z" style="fill:#c1ccd1;fill-rule:evenodd"/><path d="M126.27,52.06a5.28,5.28,0,0,0,2.06,1.1c-.4-.41-.87-.9-.43-1.33a6.63,6.63,0,0,1,4-.92,7.11,7.11,0,0,1,4.15,1.8c.71-.26,1.51-.62,1.51-.62s-.91-1.89-4.24-2.05S127.61,50.3,126.27,52.06Z" style="fill:#c1ccd1;fill-rule:evenodd"/><path d="M106.47,50.5a2.36,2.36,0,0,0-.16,1.38,2.39,2.39,0,0,0,2.77,1.93,2.38,2.38,0,0,0,1.62-3.55c-.4,0-1,0-1.88.07S107,50.45,106.47,50.5Z" style="fill:#43281e;fill-rule:evenodd"/><path d="M134.09,50.18a2.37,2.37,0,0,1-2.5,3.37,2.39,2.39,0,0,1-2-2.71,2.36,2.36,0,0,1,.27-.8c.4,0,1,0,1.89,0S133.55,50.14,134.09,50.18Z" style="fill:#43281e;fill-rule:evenodd"/><path d="M106.35,50.85a2.36,2.36,0,0,0,0,1h0a7.19,7.19,0,0,1,2.39-.7,7.39,7.39,0,0,1,2.32.16,2.42,2.42,0,0,0,0-.29,2.36,2.36,0,0,0-.24-.69,19.92,19.92,0,0,0-2.12.07A10.4,10.4,0,0,0,106.35,50.85Z" style="fill:#341c0f;fill-rule:evenodd"/><path d="M134.22,50.53a2.36,2.36,0,0,1,.07,1h0a7.25,7.25,0,0,0-2.42-.65,7.4,7.4,0,0,0-2.31.21,2.41,2.41,0,0,1,0-.29,2.35,2.35,0,0,1,.22-.7,19.86,19.86,0,0,1,2.12,0A10.47,10.47,0,0,1,134.22,50.53Z" style="fill:#341c0f;fill-rule:evenodd"/><path d="M107.53,50.41a1.55,1.55,0,1,0,2.11-.12l-.82,0Z" style="fill:#4d3118;fill-rule:evenodd"/><path d="M133,50.11a1.54,1.54,0,1,1-2.61.85,1.52,1.52,0,0,1,.5-.92l.82,0Z" style="fill:#4d3118;fill-rule:evenodd"/><path d="M107.38,50.59a1.53,1.53,0,0,0-.26,1,7,7,0,0,1,1.59-.37,6.67,6.67,0,0,1,1.46,0h0a1.54,1.54,0,0,0-.45-.83l-1.09.06A10.07,10.07,0,0,0,107.38,50.59Z" style="fill:#3d2510;fill-rule:evenodd"/><path d="M133.18,50.29a1.54,1.54,0,0,1,.3.95,7.15,7.15,0,0,0-1.6-.33,6.65,6.65,0,0,0-1.46.05h0a1.53,1.53,0,0,1,.42-.84l1.09,0A10.11,10.11,0,0,1,133.18,50.29Z" style="fill:#3d2510;fill-rule:evenodd"/><path d="M108.45,50.35a1.12,1.12,0,0,0-.91,1.31,1.14,1.14,0,0,0,1.32.92,1.13,1.13,0,0,0,.91-1.31,1.14,1.14,0,0,0-1.12-.94h-.19Z" style="fill-rule:evenodd"/><path d="M132.1,50.07a1.13,1.13,0,1,1-1.29.95,1.13,1.13,0,0,1,1.09-1h.19Z" style="fill-rule:evenodd"/><path d="M115.1,52.28a5.85,5.85,0,0,0-2.84-2,24,24,0,0,0-6.63.67c-1.53.48-2.14.83-2.74,1.92" style="fill:none;stroke:#4c2727;stroke-linecap:round;stroke-miterlimit:22.925600000000003;stroke-width:1.0001px;fill-rule:evenodd"/><path d="M125.81,52a5.32,5.32,0,0,1,2.62-2,24.51,24.51,0,0,1,6.71.52c1.53.46,2.28.87,2.88,1.95" style="fill:none;stroke:#4c2727;stroke-linecap:round;stroke-miterlimit:22.925600000000003;stroke-width:1.0001px;fill-rule:evenodd"/><path d="M116.69,50.08c-.3-1.19-.44-2.59-1.87-3.31s-5.39-1.07-7.71-1-3.74-.31-5.92.72a3,3,0,0,0-1.13,4.44c.15.87.56-2.31,2.81-2.6s7.09,1,9,1.76C113.37,50.66,117.06,51.57,116.69,50.08Z" style="fill:#3a2212;fill-rule:evenodd"/><path d="M126.27,46.86c-2.7,1.43-2.93,3-3.21,5.11a58.48,58.48,0,0,0,0,10.55" style="fill:none;stroke:#4c2727;stroke-linecap:round;stroke-miterlimit:22.925600000000003;stroke-width:1.0001px;fill-rule:evenodd"/><path d="M113.48,79.52a6.23,6.23,0,0,0,4,2.2,27.13,27.13,0,0,0,7.09-.13,5.62,5.62,0,0,0,3.73-2.33" style="fill:none;stroke:#4c2727;stroke-linecap:round;stroke-miterlimit:22.925600000000003;stroke-width:1.0001px;fill-rule:evenodd"/><path d="M130.57,76.79a4.38,4.38,0,0,0-.46-.14c-.63,0-2.08.51-2.91.56-1.64.1-1.73-.45-3.64-.35-.53,0-1.47.64-2.3.62a21.38,21.38,0,0,1-2.3-.57c-1.91-.08-2.74.54-3.93.38a20.36,20.36,0,0,0-2.72-.47c-.14,0-.54.27-.67.29" style="fill:none;stroke:#4c2727;stroke-linecap:round;stroke-miterlimit:22.925600000000003;stroke-width:1.0001px;fill-rule:evenodd"/><circle cx="107.78" cy="51.48" r="0.37" transform="translate(-11.34 42.78) rotate(-21.35)" style="fill:#fff"/><circle cx="130.9" cy="51.06" r="0.37" transform="matrix(0.34, -0.94, 0.94, 0.34, 38.87, 157.23)" style="fill:#fff"/><circle cx="107.12" cy="51.78" r="0.2" transform="translate(-11.5 42.58) rotate(-21.36)" style="fill:#fff"/><circle cx="130.25" cy="51.36" r="0.2" transform="translate(38.37 157) rotate(-70.5)" style="fill:#fff"/><path d="M123.48,66.93s.59,3.38-2.41,3.55-2.3-1.6-3.91-1.73S114,68.08,114.28,67a7.48,7.48,0,0,1,.92-2.14" style="fill:none;stroke:#4c2727;stroke-linecap:round;stroke-miterlimit:22.925600000000003;stroke-width:1.0001px;fill-rule:evenodd"/><path d="M123.41,69.12s1.29-.43,2.43-.71,1.64-.75,1.24-1.8a12.66,12.66,0,0,0-.9-1.89" style="fill:none;stroke:#4c2727;stroke-linecap:round;stroke-miterlimit:22.925600000000003;stroke-width:1.0001px;fill-rule:evenodd"/><path d="M124,49.81c.3-1.19.44-2.59,1.9-3.31s5.46-1.07,7.81-1,3.78-.31,6,.72a3,3,0,0,1,1.15,4.44c-.15.87-.8-2.31-3.08-2.6s-7.59,1.17-9.1,1.84C126.85,50.67,123.62,51.3,124,49.81Z" style="fill:#3a2212;fill-rule:evenodd"/><path d="M121.37,87.06c-.51.11-1.88,1.22-.86,1.69s2,.5,2.16-.43A1.07,1.07,0,0,0,121.37,87.06Z" style="fill:#bb835b;fill-rule:evenodd"/><path d="M113.58,26.34s3,1.46,4.21,2.08a9.73,9.73,0,0,0,6.8.85c2.71-.82,6.6-3.38,10.7-2.69s3.54-1.8.64-2.18-7.51.24-12.6.77S113.63,26.31,113.58,26.34Z" style="fill:#e5ab74;fill-rule:evenodd"/><path d="M109,26.08s-5.41,1.79-6.84,5.48c-1.23,3.16-.88,6.09-2.25,8.73a16.1,16.1,0,0,0-2.27,3.89c-1,2.77-.76,6-.56,9.58a50.42,50.42,0,0,1,0,7.17s-.34-2.57-.72-6.39c-.17-1.71-.07-3.49-.46-5.71a58.64,58.64,0,0,1-1.15-8.5,15,15,0,0,1,2-8.78,12,12,0,0,1,5.6-4.19C104.65,26.49,107.68,26.44,109,26.08Z" style="fill:#e5ab74;fill-rule:evenodd"/><path d="M100,30.4s-2.6,12.21-3.4,13.25S94.2,43.29,94,43s.27-10.53.27-10.53C96.22,31.8,98.13,31.11,100,30.4Z" style="fill:#b17951;fill-rule:evenodd"/><path d="M137.15,26.69s5.32,3,5.95,4.5c1.38,3.31,2.57,11.17,3.15,12,.77,1,2.46-.37,2.61-.64s-.11-10.67-.11-10.67l-10.32-6Z" style="fill:#b17951;fill-rule:evenodd"/><path d="M95.08,51.27a8.88,8.88,0,0,0-.83-2.61,28.65,28.65,0,0,0-2.54-3.48,21.91,21.91,0,0,0-.27-2.78c-.07-.38-.41-.68-.48-1s.14-.66,0-.88a9.45,9.45,0,0,0-.64-1.15c-.32.36-.26.65-.27.25a3.08,3.08,0,0,1,.07-.56l-.3-.44a9.11,9.11,0,0,0-.22,1.54,3.7,3.7,0,0,1,0-2.36c0-.37.12-.75.15-1.12,0-.13-.81-.3-.79-.44,0-.48.09-1,.15-1.62,0-.11.08-.15.09-.27s0-.27,0-.37.13-.33.14-.51a6.81,6.81,0,0,0-.13-2,10.62,10.62,0,0,1-.31-2.55,5.64,5.64,0,0,0-.66,1.38s-.16-.5.61-2c.07-.15.15-.3.23-.43a1.06,1.06,0,0,1,.29-.44,5.71,5.71,0,0,1,.75-.86c.22-.4.28-.82.07-1.06a3.27,3.27,0,0,1-.58-.92,2.64,2.64,0,0,0,1.08.27,2.53,2.53,0,0,0,1.07-1,4,4,0,0,1-.68,0c-1.63-.1-1.82-1-1.82-1a2.55,2.55,0,0,0,1.54.58,5.34,5.34,0,0,0,1.29,0,2.26,2.26,0,0,1,.6-.41,2.3,2.3,0,0,1-.87-.26c-.27,0-.56-.08-.89-.14a1.45,1.45,0,0,1-1.22-1,1,1,0,0,0,.67.22,3.86,3.86,0,0,0,.58-.09L90,20.36s.4-.17,1.17-.56a13.78,13.78,0,0,1,1.62-.9l.33-.09a3.58,3.58,0,0,1-.79-1,10.66,10.66,0,0,0-1.43-1.75,5.14,5.14,0,0,1,1.18,1A5.88,5.88,0,0,0,94,18.28a1.54,1.54,0,0,0,.11-.22,5.43,5.43,0,0,1-1.5-1.31c-.7-.93-2.05-2.83-2.05-2.83a20.4,20.4,0,0,1,2,1.33,1.81,1.81,0,0,0,.78.45,13.91,13.91,0,0,0-.7-1.45,3,3,0,0,1-.37-.81l1.41.71c.48.24.83.61.4-.12a8.49,8.49,0,0,1-1.57-2.85A11.58,11.58,0,0,1,92,8.23,5.23,5.23,0,0,0,94.52,10c.93.3,1.61.49,2,.6.72-.55,1-1,.65-1.28a10.22,10.22,0,0,0-1.83.06,3.6,3.6,0,0,1,1.36-.32C97,9,97.3,9,97.56,9a4.81,4.81,0,0,1,.52,0,12.49,12.49,0,0,0,2.29-.22,4.35,4.35,0,0,1,.31-.88,3.5,3.5,0,0,1,1-1,4.2,4.2,0,0,0-.5,1.7h0a5.29,5.29,0,0,0,1.33-.66l.07,0a7.64,7.64,0,0,1,.87-2.44,5.57,5.57,0,0,1,1.07-1.19l-.7,1.36s.68-.72,1.17-1.37a3.79,3.79,0,0,0,.64-1.25,2,2,0,0,1,0,1.07,5.6,5.6,0,0,0-.3,1.4,2.45,2.45,0,0,0,.6-1.11,11,11,0,0,1,.34-1.13s-.45-.52-.93-1.15a1.94,1.94,0,0,1-.48-1s.63.54,1.2,1l1.18.89.3-.38L107,2l.63.39.3-.39,1-.75-.69.95a1.6,1.6,0,0,0-.2.42l1.63,1a4.48,4.48,0,0,1,1.08,1l.22,0a4.56,4.56,0,0,1,.81-.58,10.61,10.61,0,0,1,1.46-.62,11.45,11.45,0,0,0-1.13.82,1.13,1.13,0,0,0-.32.45,3.58,3.58,0,0,0,1.7-.13l.15-.1c.05-.32.11-.63.18-.95.07.21.15.43.23.64a7.15,7.15,0,0,1,1.27-.83c.05-.29.12-.58.19-.88,0,.27.09.53.15.79a1.38,1.38,0,0,1,.22,0c.19,0,.46,0,.77,0a1.11,1.11,0,0,0,0-.16,12.19,12.19,0,0,1,.91-1.87,2.51,2.51,0,0,1-.13.67,6.09,6.09,0,0,0-.15,1.22,7.72,7.72,0,0,0,.54-.6,7.31,7.31,0,0,1,1.63-1,11.77,11.77,0,0,0-1,.86,2.29,2.29,0,0,0-.46.94h.19c.44-.3,1.48-1,2.25-1.42a7.35,7.35,0,0,1,2.31-.78s-.93.5-1.54.92a5.16,5.16,0,0,0-.78.72,2.69,2.69,0,0,1,.63-.11c.48-.29,1.26-.74,2-1.14a12.61,12.61,0,0,1,2.69-1A12.78,12.78,0,0,0,123.9,2c-.15.2-.41.51-.66.78l.31,0a5.44,5.44,0,0,1,2.72-.72,25.67,25.67,0,0,1,2.89,0,11.07,11.07,0,0,0-2.93.67,3.37,3.37,0,0,0-.34.23,7.48,7.48,0,0,0,2.42.22,10.18,10.18,0,0,1,1.06,0A15.12,15.12,0,0,1,133.76.95,42.79,42.79,0,0,1,139.24.3a17.58,17.58,0,0,0-3,1.23,9,9,0,0,0-1.58,2.09,19.6,19.6,0,0,1,2.32-1.14,11.1,11.1,0,0,1,2.23-.64,11.82,11.82,0,0,0-2.42,1.45,11.37,11.37,0,0,0-1.2,1.31s.78-.47,1.29-.75a4.37,4.37,0,0,1,1.42-.35s-.62.31-1.14.55a2.73,2.73,0,0,0-.89.66A4.6,4.6,0,0,1,138.59,4a19.29,19.29,0,0,1,3.17.37s-1.13.23-1.85.28a4.86,4.86,0,0,0-1.48.41A9.26,9.26,0,0,1,139.8,5a3,3,0,0,1,2.07.73c.84.68.88,1,.88,1A3.84,3.84,0,0,0,141,6.2c-.85,0-3.2.41-3.2.41a26,26,0,0,1,3.64.46A9.93,9.93,0,0,1,144.82,9s-2.92-1.21-3.37-1.25-1.15-.08-1.15-.08.7.36,1.64.91a2.39,2.39,0,0,1,.93,1.09,11.38,11.38,0,0,1,1.69,0c1,.1,2.13.08,2.13.08l-1.39.53.87,0-1.29.76a4.05,4.05,0,0,1,.8.66,3,3,0,0,0,.45-.6c.18-.36.41-.85.41-.85s-.19,1.7-.28,1.95c0,.07,0,.17-.08.27a1.17,1.17,0,0,1,0,.12c0,.12.06.23.09.35.39-.26,1.11-.76,1.55-1.14a7.77,7.77,0,0,1,2.07-1,17.8,17.8,0,0,1-1.44,1.09,4.35,4.35,0,0,0-1.22,1.24,3.66,3.66,0,0,1-.66.64c0,.08.08.18.12.26a11.61,11.61,0,0,1,1.72-1c.55-.24,1.6-.82,1.6-.82a3.55,3.55,0,0,1-1,1,10.44,10.44,0,0,0-1.38.91,4,4,0,0,0-.56.44,5.23,5.23,0,0,0,.84.71A2.77,2.77,0,0,1,149,17.11a2.74,2.74,0,0,0,1.71.17A11.41,11.41,0,0,0,154,15.85a23.17,23.17,0,0,1-2.56,2.53c-.35.25-.73.56-1.08.84a5.33,5.33,0,0,0,1,.44,4.71,4.71,0,0,0,1,.19,11.93,11.93,0,0,1-1.47.23c-.24,0-.59,0-.91,0,.15.22.32.45.48.71a4.74,4.74,0,0,0,1.27.34c.83.09,1,.09,1,.09a3,3,0,0,1-1,.41l-.66,0a12.09,12.09,0,0,1,.82,1.62,1.92,1.92,0,0,0,.5.33c.47.19.68.29.68.29l-1-.11a9.2,9.2,0,0,1,.38,1.5,61.64,61.64,0,0,1,.89,10.91c-.19,2.26-1.36,7-2.66,8.29-1.52,1.5-3.12,4.64-3.18,6.11a9.93,9.93,0,0,1-.23,1.53q-.72,1.69-1.43,3.36c.14-2.13.37-5.4.5-6.75a40.63,40.63,0,0,0-.3-5.5c0-.67-.11-1.47-.24-2.66.16.12,1.62,1.12,1.76,1.14a15,15,0,0,1-1.64-1.54,3.84,3.84,0,0,1-.37-1.56c2.89,2.14,1.72.69.14-.49-.38-.28-.44-.94-.5-1.58a4.37,4.37,0,0,0,2.27,1.19,11.81,11.81,0,0,1-2-1.44s-.4-.38-.4-.46c0-.23-.34-.87-.12-.72,2,1.45,3.4,2.34,3.12,2s-3.17-2.48-3.2-2.53c-.05-.28-.09-.56-.15-.84a30.36,30.36,0,0,0,4.2,2c-.05,0-3.24-1.94-3.86-2.33a3.57,3.57,0,0,0-.45-.22c0-.23-.1-.46-.15-.67,2.6,1,.43-.4-.19-.65a6.44,6.44,0,0,0-.29-.71c-.72-1.53-2.64-2.29-4.31-3.19a14.4,14.4,0,0,0-10-1.65c-2.35.86-5.21,2.18-8,2.13-3.07-.06-4.17-1.11-7.86-1.81-1.82-.23-5.75-.27-7.71.5-7.81,3.11-5.28,3.71-7.13,5.11,2.14-1.29-1.93,2.23-2,2.3-2,1.56.93-.19,1.91-1-.77,3.07-2.44,2.47-3,3.52s2.65-1.45,2.65-1.45c-.34,2.19-2.28,2.45-2.06,2.79s1.77-1,1.78-1c-.05.39-.11.77-.19,1.15-2,1-2.89,1.84-.07.43-.05.31-.11.61-.17.92-2.42,1.09-3.94,2.18-.09.44-.17.8-1.6,1.8-.28,1.19-.12.45-.25.89-.4,1.31-1,2.74-.8,4.46-.6,7.68a34.07,34.07,0,0,1,0,4.36l-1.29-3.58ZM132.62,3.79a4.3,4.3,0,0,1,.71.44,3.2,3.2,0,0,1,.48-1,3.87,3.87,0,0,1,.89-1.05,7.83,7.83,0,0,0-1.61,1.14c-.19.19-.34.36-.47.5Zm-24.74-.93,0,.14A6.63,6.63,0,0,0,109,4a3.11,3.11,0,0,1,.6.55h.19a3.43,3.43,0,0,0-1.25-1.22,4,4,0,0,1-.66-.47Zm-12,10.82c.13-.34.23-.68.33-1-.49-.37-1.86-1.39-2.32-1.8s-1-.9-1-.9a7.23,7.23,0,0,0,1.64,2.83,4.6,4.6,0,0,0,1.31.85Zm.35-1c.08-.3.15-.57.19-.81L94.5,10.53Z" style="fill:#3c2415;fill-rule:evenodd"/><path d="M128.56,21.28A5.77,5.77,0,0,0,131.07,20,18.75,18.75,0,0,0,134,16.73a39.29,39.29,0,0,1-3.58,2.94A7.71,7.71,0,0,0,128.56,21.28Z" style="fill:#2d170b;fill-rule:evenodd"/><path d="M129.24,21a5.92,5.92,0,0,0,2.81.07,17.68,17.68,0,0,0,4.06-1.56,36.61,36.61,0,0,1-4.5.94A7.23,7.23,0,0,0,129.24,21Z" style="fill:#2d170b;fill-rule:evenodd"/><path d="M130.61,20.87a5.89,5.89,0,0,0,2.6-1,16.69,16.69,0,0,0,3-3,35.93,35.93,0,0,1-3.72,2.6A6.87,6.87,0,0,0,130.61,20.87Z" style="fill:#2d170b;fill-rule:evenodd"/><path d="M132.72,20.65a6.4,6.4,0,0,0,3.07-1,3.79,3.79,0,0,0,1.35-3.08,5.53,5.53,0,0,1-2,2.69C133.82,20,132.72,20.65,132.72,20.65Z" style="fill:#2d170b;fill-rule:evenodd"/><path d="M119.36,24.81a4.59,4.59,0,0,0,3.09-1.28c1.44-1.35,3.49-5.63,3.49-5.63s-1.1,4.46-3.27,6.55C120.79,26.25,119.06,25.72,119.36,24.81Z" style="fill:#2d170b;fill-rule:evenodd"/><path d="M89.5,24.58l0-.1a2.81,2.81,0,0,0,1.09.26,2.63,2.63,0,0,0,1.07-1,4,4,0,0,1-.69,0c-1.63-.12-1.82-1-1.82-1a2.56,2.56,0,0,0,1.55.58,5.65,5.65,0,0,0,1.3,0,2.4,2.4,0,0,1,.6-.41,2.3,2.3,0,0,1-.87-.26c-.26,0-.57-.08-.89-.14a1.44,1.44,0,0,1-1.23-1,1,1,0,0,0,.67.22,3.27,3.27,0,0,0,.58-.09,1.73,1.73,0,0,1-.15-.21,10.33,10.33,0,0,0,1.79,1,8.66,8.66,0,0,0,1.23.35c.13,0-.4-.63-.74-1.32s-.41-1.23-.3-1.21a11.42,11.42,0,0,0,3,2.85,3.62,3.62,0,0,0,.88.41,3.81,3.81,0,0,0,1.09,0c.12.24.24.47.38.71a1.07,1.07,0,0,0-.8,0,5.23,5.23,0,0,0-1.1.43s.17-.84-.43-.88a3.59,3.59,0,0,0-1.57.35,2.55,2.55,0,0,0-.58.49s.36-1,.09-1-.65.35-1.16.53-1.07,1.08-1.85,1A1.8,1.8,0,0,1,89.5,24.58Z" style="fill:#2d170b;fill-rule:evenodd"/><path d="M94.95,51.27a8.92,8.92,0,0,0-.83-2.61,27.56,27.56,0,0,0-2.56-3.48,22.66,22.66,0,0,0-.26-2.78c-.07-.38-.4-.68-.48-1s.15-.66,0-.88a10,10,0,0,0-.64-1.15c-.32.36-.26.65-.28.25A3.13,3.13,0,0,1,90,39l-.31-.45a9.08,9.08,0,0,0-.22,1.54,4.14,4.14,0,0,1-.19-1.54,4.75,4.75,0,0,1,.16-.83c0-.37.12-.75.14-1.12,0-.13-.8-.3-.79-.44,0-.48.09-1,.15-1.62,0-.11.09-.15.1-.27s0-.27,0-.37.13-.33.15-.51a7.66,7.66,0,0,0-.07-1.77l1.41,1.6.78.1c0,.49,0,1-.05,1.45l.78.11.56.27L93,36.31c.09.43.17.86.27,1.28l.64-1.12c.19,1.2.39,2.4.59,3.6.2-.8.41-1.61.62-2.43l.59-1,0-.07,0-.07a.3.3,0,0,1,0-.09l0-.07,0,0,0-.06.06-.09c.09-.33.17-.68.25-1a6,6,0,0,0,.76-.41l.53-.35c.21-.13.42-.27.63-.41l.26-.17.31-.24c-.63,2.49-1.85,2.55-2.6,3.06a.36.36,0,0,0,0,.09.16.16,0,0,0,0,.06l.11.18a.18.18,0,0,0,0,.08c.81-.47,2-1.4,2-1.4a3.44,3.44,0,0,1-1.85,2.5c0,.12-.09.23-.12.35.4,0,1.68-1.07,1.7-1.08-.06.39-.13.77-.19,1.16-2,1-2.89,1.84-.07.43-.05.3-.11.61-.17.92-2.44,1.09-4,2.19-.09.44-.17.8-1.61,1.8-.29,1.19-.11.45-.25.89-.4,1.31-1,2.74-.8,4.46-.6,7.68a34.7,34.7,0,0,1,0,4.35c-.44-1.19-.87-2.39-1.29-3.58Zm58-21.9c-.16-1.48-.35-2.93-.54-4.1a9,9,0,0,0-.38-1.5l1,.11s-.21-.1-.68-.29a1.77,1.77,0,0,1-.5-.33,13,13,0,0,0-.83-1.62l.66,0a2.9,2.9,0,0,0,1-.41s-.12,0-1-.09a4.73,4.73,0,0,1-1.27-.34l-.49-.71c.32,0,.68,0,.92,0a12.13,12.13,0,0,0,1.48-.23,4.72,4.72,0,0,1-1-.19,5.54,5.54,0,0,1-1-.44c.35-.28.74-.59,1.09-.84A23.47,23.47,0,0,0,154,15.85a11.47,11.47,0,0,1-3.29,1.43,2.75,2.75,0,0,1-1.72-.17,2.78,2.78,0,0,0-1.06-1.83,5.46,5.46,0,0,1-.83-.71,3.92,3.92,0,0,1,.55-.44,10.51,10.51,0,0,1,1.39-.91,3.55,3.55,0,0,0,1-1s-1,.58-1.6.82a12.15,12.15,0,0,0-1.73,1c0-.09-.09-.18-.12-.26a3.54,3.54,0,0,0,.66-.64,4.37,4.37,0,0,1,1.23-1.24,17.92,17.92,0,0,0,1.44-1.09,7.88,7.88,0,0,0-2.07,1c-.44.37-1.16.88-1.56,1.14,0-.12-.07-.23-.09-.35s0-.08,0-.12.05-.2.08-.27c.09-.25.29-1.95.29-1.95s-.23.49-.42.85a3,3,0,0,1-.45.6,3.9,3.9,0,0,0-.81-.66l1.29-.76-.87,0,1.39-.53s-1.11,0-2.13-.08a12.42,12.42,0,0,0-1.7,0,2.44,2.44,0,0,0-.94-1.09c-.94-.54-1.64-.9-1.64-.9s.7,0,1.15.07S144.8,9,144.8,9a10,10,0,0,0-3.37-1.9,26,26,0,0,0-3.64-.46s2.36-.4,3.21-.41a3.88,3.88,0,0,1,1.74.54s0-.32-.89-1A3,3,0,0,0,139.76,5a9.22,9.22,0,0,0-1.37.08,5,5,0,0,1,1.48-.41c.73-.06,1.85-.29,1.85-.29A19.31,19.31,0,0,0,138.55,4a4.64,4.64,0,0,0-2.36.69,2.76,2.76,0,0,1,.89-.66c.53-.24,1.15-.55,1.15-.55a4.42,4.42,0,0,0-1.43.35c-.51.28-1.29.76-1.29.76a11.54,11.54,0,0,1,1.21-1.31,11.68,11.68,0,0,1,2.42-1.44,10.58,10.58,0,0,0-2.23.63,20.37,20.37,0,0,0-2.32,1.14,9.35,9.35,0,0,1,1.58-2.09A17.6,17.6,0,0,1,139.21.3a43.07,43.07,0,0,0-5.49.65,15.16,15.16,0,0,0-4.41,2.19,10.6,10.6,0,0,0-1.06,0A7.63,7.63,0,0,1,125.83,3a2.71,2.71,0,0,1,.34-.23,11,11,0,0,1,2.94-.67,24.63,24.63,0,0,0-2.89,0,5.44,5.44,0,0,0-2.73.72l-.32,0c.25-.27.52-.58.66-.78A12.84,12.84,0,0,1,125.67.51a12.78,12.78,0,0,0-2.69,1c-.75.4-1.52.85-2,1.14a2.68,2.68,0,0,0-.63.11,5.12,5.12,0,0,1,.78-.72c.6-.41,1.53-.92,1.53-.92a7.41,7.41,0,0,0-2.31.78c-.79.46-1.82,1.12-2.26,1.43h-.19a2.24,2.24,0,0,1,.47-.94,12.63,12.63,0,0,1,1-.86,7.31,7.31,0,0,0-1.64,1,6,6,0,0,1-.55.6,6.46,6.46,0,0,1,.15-1.22,2.48,2.48,0,0,0,.12-.66,11.58,11.58,0,0,0-.9,1.87.61.61,0,0,1,0,.16c-.31,0-.58,0-.77,0l-.22,0c-.06-.26-.11-.52-.15-.79-.07.3-.13.6-.19.89a6.58,6.58,0,0,0-1.27.83c-.08-.21-.16-.42-.24-.64-.07.32-.13.63-.18.95l-.15.1a3.58,3.58,0,0,1-1.71.13,1.22,1.22,0,0,1,.33-.44,11.9,11.9,0,0,1,1.13-.83,11.83,11.83,0,0,0-1.46.62,4.51,4.51,0,0,0-.81.59l-.21,0a4.53,4.53,0,0,0-1.09-1l-1.64-1a1.61,1.61,0,0,1,.21-.42l.69-1-1,.75-.3.39L106.84,2s.22.24.52.52l-.3.39L105.88,2c-.57-.42-1.2-1-1.2-1a2,2,0,0,0,.48,1c.47.63.93,1.15.93,1.15a11.55,11.55,0,0,0-.34,1.13,2.45,2.45,0,0,1-.6,1.11,5.54,5.54,0,0,1,.29-1.4,2,2,0,0,0,0-1.07,3.68,3.68,0,0,1-.64,1.25c-.5.65-1.17,1.37-1.17,1.37.23-.45.47-.91.7-1.36a5.57,5.57,0,0,0-1.07,1.19,7.6,7.6,0,0,0-.87,2.44l-.07.05a5.41,5.41,0,0,1-1.34.66h0a4.32,4.32,0,0,1,.5-1.7,3.5,3.5,0,0,0-1,1,4.53,4.53,0,0,0-.32.88,12.19,12.19,0,0,1-2.3.22,4.87,4.87,0,0,0-.52,0l-.82.08a3.51,3.51,0,0,0-1.36.32,10.84,10.84,0,0,1,1.83-.06c.38.29.07.74-.66,1.28-.42-.1-1.1-.29-2-.6a5.24,5.24,0,0,1-2.54-1.79,11.56,11.56,0,0,0,.47,2.94A8.49,8.49,0,0,0,93.89,14c.44.73.09.36-.38.12l-1.42-.71a3,3,0,0,0,.37.81,13.81,13.81,0,0,1,.7,1.45,1.77,1.77,0,0,1-.79-.45,20.15,20.15,0,0,0-2-1.33s1.36,1.9,2.05,2.83A5.34,5.34,0,0,0,94,18.06l-.11.23A6,6,0,0,1,92,17.1a5.08,5.08,0,0,0-1.19-1,11.44,11.44,0,0,1,1.44,1.75,3.37,3.37,0,0,0,.77.95l-.56.21c-.27.13-.56.36-1,.59l.46,0,1.9-.18.52-.37,1.26.36.52-.38c0-.24,0-.49.06-.74l1.64.06c0-.25,0-.5.06-.75l.05,0c-.17-.19-.34-.39-.51-.6l1.27-1c-.17-.19-.34-.39-.5-.6s-.13-.46-.21-.68l1.4.73c-.07-.67-.15-1.35-.21-2,.66-1-.52-3-.52-3s4.25,1.07,5.91,2.65l.43,1.47s0,0,0,0l.64-.54.69,1-.12,1.53-1.91-.27c.07.33.14.66.21,1l-.37.77-1.62-.8c.19.45.37.9.56,1.34a10.65,10.65,0,0,1-1.28.21c-1.16.37-.71,1.4,1.81.83,1.76-.41,3.4-1.78,4.8-2.57a0,0,0,0,0,0,0,.19.19,0,0,0,0,.07c.1.54.2,1.09.32,1.64-.13.72-.08,1.22.49.75a2.73,2.73,0,0,0,.39-.4l0,0c0-.21,0-.42,0-.63l1.17-.67c0-.21,0-.43,0-.64s-.1-.42-.14-.63l1.09-.8c0-.21-.09-.41-.13-.63l-.32-.68,1.44-.69c-.1-.23-.2-.46-.29-.69s-.18-.46-.26-.7l1.52-.57c-.09-.22-.17-.46-.25-.7,0-.07.07-.14.11-.22s-.08-.43-.11-.66l1.31-.63c0-.21-.09-.44-.12-.66l.28-.47c0-.22,0-.44,0-.66l1.3-.57,0-.66a1.94,1.94,0,0,1,1.09-.67l.16,0h.07l.29,0,.59.3c-.07.41-.13.83-.19,1.25l.59.3a1.38,1.38,0,0,0,0,.18,1.28,1.28,0,0,0,0,.17l.54.46-.67,1.22.54.47.83.21.15,0,.15,0,.26,0,.19,0c.12-.17.23-.35.35-.52l1.31-.14.33-.52.41-.22.59-.27.4-.18.13,0,.45-.52,1.37.38.44-.52.67.13-.7,1.08.66.13s0,.09,0,.13l-.76,1c0,.19.06.39.1.58l-.18.36c-.07.15-.15.3-.23.44a.09.09,0,0,0,0,.05c0,.24.1.48.15.72l-1.52.43c0,.24.09.49.15.72l-.09.09c0,.24,0,.49,0,.73l-1.57.13c0,.25,0,.49,0,.74l-1.19,1.32c-.54.64-.82,1-.82,1s1.41-.19,3.23-.61l1-.26.58-.16.91-.26.17-.05.4-.57,1.41.31.39-.57c.09-.23.17-.46.25-.69L131,15l.24-.69.09-.05c0-.25,0-.5-.06-.74l1.6-.26c0-.24,0-.49-.07-.74s-.08-.47-.11-.71l1.48-.46c0-.24-.08-.47-.11-.71.41-.39.25-2.44,1-2.32l2.7,2.6c.14-.57.29-1.15.43-1.74.18,1.06.36,2.12.55,3.17l1.41-1.71c-.08.6-.15,1.19-.23,1.78s.05,1,.09,1.56l1.34-1.55c0,.44,0,.87,0,1.31l.93-.48-1.51,2.6.62.38.12.51.39.53-.7,1.14.39.52.37.64-1.28.88.37.63c0,.23-.05.46-.07.69l-1.46.27c0,.22,0,.46-.07.68l-.4.69-1.44-.72-.4.69c-.62.1-1.25.15-1.88.19H135l-.59.36-1.17-.67-.59.36h0l-.45.64-1.38-.79-.46.64h0l-.05,0-.28.72-1.55-.44-.28.72-.46.23c-2.39,1.2-5.09,2.56-6.51,2.43a5.07,5.07,0,0,1-1.64-.5l.91-1.2-1.78,1.36c-.13-.5-.27-1-.4-1.5l-.8.19-.75.08L116.24,25l-.75.08-.76.15c0-.29,0-.57,0-.86l.66-1.57-2,1.22-.73.24c-.23-.43-.46-.86-.7-1.29l-.74.26h-.08a6.16,6.16,0,0,0-4.77.89l-1.32.9c-.07.22-.13.44-.19.66l-3.33-1.37c.56.71,1.14,1.41,1.71,2.12l-.2.68-1.51-.12-2.74-2.26c-.46.31,1.64,3.62,1.21,4a3.41,3.41,0,0,1-.25.27c0,.26.06.5.09.76l-1.59-1.56c0,.85,0,1.68,0,2.52.07.25.13.49.19.74l-1.58.4c.06.24.11.49.17.73s.19.45.28.67l-1.34.71.29.67c0,.13-.06.26-.09.4l.37-.31.12-.1c.07-.19.15-.37.23-.57l1.23-.37.07-.16.24-.42.35-.4c.5-.5.79-.85.34-.63l0-.08h0c.1-.19.2-.38.31-.57l.15-.27.11-.16.11-.19c.13-.19.27-.39.4-.59l0-.06,0,0c.7-.67,2.14-1.56,5.58-2.93,2-.78,5.89-.73,7.73-.5.71.13,1.31.28,1.86.43l.21.05.16.06.13,0,.14,0,.15,0,.14,0,.15,0,.08,0,.38.12,1.54.47c.34.1.66.18,1,.25a3.9,3.9,0,0,0,1.74.41,2.88,2.88,0,0,0,1-.27c2.49-.2,5-1.33,7.12-2.1a14.47,14.47,0,0,1,10,1.65c1.67.9,3.6,1.67,4.33,3.19a6.53,6.53,0,0,1,.29.71c.63.25,2.8,1.68.19.65q.09.33.16.67a4.12,4.12,0,0,1,.45.23c.61.39,3.81,2.27,3.87,2.32a30.58,30.58,0,0,1-4.21-2c0,.28.09.56.15.84,0,.05,2.89,2.16,3.21,2.53s-1.07-.55-3.13-2c-.21-.15.07.49.11.72a2.66,2.66,0,0,0,.41.46,11.61,11.61,0,0,0,2,1.44,4.38,4.38,0,0,1-2.28-1.19c.05.64.12,1.3.5,1.58,1.57,1.17,2.75,2.63-.13.49a3.7,3.7,0,0,0,.36,1.56,15.28,15.28,0,0,0,1.65,1.54c-.14,0-1.61-1-1.76-1.14.13,1.19.19,2,.23,2.66a41.26,41.26,0,0,1,.3,5.5c-.12,1.36-.36,5-.5,7.11l1.44-3.71a10.05,10.05,0,0,0,.23-1.53c.06-1.47,1.66-4.61,3.18-6.11,1.19-1.16,2.25-5.22,2.59-7.64.23.36.47.71.71,1.06,0,0-.07-.87-.15-1.45a1.91,1.91,0,0,0-.44-1c0-1,0-2.36-.15-3.81.39.29.91.68.79.46s-.08-.32-.25-.72a2.35,2.35,0,0,0-.64-.83c0-.19,0-.38-.07-.58a3,3,0,0,0,.82.32,2.13,2.13,0,0,1-.83-.8l-.06-.1ZM132.56,3.79c.13-.14.28-.31.47-.5a7.93,7.93,0,0,1,1.62-1.14,3.91,3.91,0,0,0-.89,1.05,3.45,3.45,0,0,0-.49,1,4.05,4.05,0,0,0-.71-.44Zm-24.79-.93a3.9,3.9,0,0,0,.66.47,3.51,3.51,0,0,1,1.25,1.22h-.19a3.15,3.15,0,0,0-.61-.55,6.72,6.72,0,0,1-1.13-1s0-.05,0-.14Zm-12,10.82a4.29,4.29,0,0,1-1.33-.85A7.2,7.2,0,0,1,92.8,10s.4.41,1,.91,1.84,1.43,2.33,1.79c-.09.3-.2.64-.32,1Zm.34-1-1.75-2.11,1.94,1.29A7.06,7.06,0,0,1,96.11,12.64Z" style="fill:#2d170b;fill-rule:evenodd"/><path d="M122.4,27.91a5.09,5.09,0,0,1,2.23-3.33c2-1.42,8.07-3.05,8.07-3.05s-6.09.49-9.25,2.64C120.77,26,121.15,28.09,122.4,27.91Z" style="fill:#4c3024;fill-rule:evenodd"/><path d="M117,26.06a4,4,0,0,1,1.78-2.67c1.64-1.14,6.46-2.41,6.46-2.41s-4.89.35-7.41,2.08C115.63,24.55,115.94,26.22,117,26.06Z" style="fill:#674933;fill-rule:evenodd"/><path d="M125.42,26.31s2-1,3.7-1.86,6.62-2.58,6.62-2.58A26.57,26.57,0,0,0,127.89,24C125.28,25.3,124.42,26.46,125.42,26.31Z" style="fill:#4c3024;fill-rule:evenodd"/><path d="M116.43,25.79s1.42-.74,2.63-1.3,4.17-2.57,4.17-2.57a16,16,0,0,1-4.32,3.36C117.09,26.22,116,26.27,116.43,25.79Z" style="fill:#674933;fill-rule:evenodd"/><path d="M125.67,22.25s.75-2.07,1.34-3.26,2.72-3.84,3.47-6.13c-1.7,2.49-3.19,3.82-4.25,5.74S125.12,22.74,125.67,22.25Z" style="fill:#674933;fill-rule:evenodd"/><path d="M108.69,21.53a8.33,8.33,0,0,1,2.61-3.43c1.85-1.36,4.4-3.42,4.4-3.42a19,19,0,0,1-3.19,3.62C110.61,19.94,108.1,22.49,108.69,21.53Z" style="fill:#674933;fill-rule:evenodd"/><path d="M108.23,24.22s.07-1.06,1.73-2.61,3.84-3.4,3.84-3.4A28.61,28.61,0,0,1,110.86,22C109.08,23.87,108,24.69,108.23,24.22Z" style="fill:#674933;fill-rule:evenodd"/><path d="M111.59,22.52a9.47,9.47,0,0,1,2.25-3.12,16.21,16.21,0,0,0,3.11-4c.42-.86,1.59-3.42,1.59-3.42a42,42,0,0,1-2.17,6.2c-.83,1.36-2.07,3.9-2.07,3.9.28-1,.58-2,.87-3C115.16,19.06,111.33,23.24,111.59,22.52Z" style="fill:#674933;fill-rule:evenodd"/><path d="M95.64,31.69a6.29,6.29,0,0,0-1.42,1.61,14.28,14.28,0,0,0-.83,2A6,6,0,0,1,94,32.75C94.56,31.83,96.14,30.79,95.64,31.69Z" style="fill:#674933;fill-rule:evenodd"/><path d="M95.23,30.19a7.2,7.2,0,0,0-1.67,1.19c-.68.7-1.56,1.73-1.56,1.73a5.12,5.12,0,0,1,1.34-2.32C94.45,29.62,96,29.44,95.23,30.19Z" style="fill:#674933;fill-rule:evenodd"/><path d="M94.79,28.77a7.7,7.7,0,0,0-1.92.82c-.83.54-2.61,2-2.61,2A11.72,11.72,0,0,1,92.8,29C94.17,28.06,95.69,28.19,94.79,28.77Z" style="fill:#674933;fill-rule:evenodd"/><path d="M94.54,26.09a8.15,8.15,0,0,1-2.19.38A22.59,22.59,0,0,1,88.69,26a9.27,9.27,0,0,0,3.6,1.14A5,5,0,0,0,95,26.53C95.17,26.35,95,26.1,94.54,26.09Z" style="fill:#4c3024;fill-rule:evenodd"/><path d="M119.62,21.38A8.76,8.76,0,0,1,122,19.68c1.44-.67,3.78-2,3.78-2a10.67,10.67,0,0,1-2.4,2.29,41.51,41.51,0,0,1-4.15,2Z" style="fill:#4c3024;fill-rule:evenodd"/><path d="M121.09,18.84a9,9,0,0,1,2.44-1.71c1.44-.67,3.79-2,3.79-2a8.74,8.74,0,0,1-3,2.36,26.75,26.75,0,0,0-4.19,2.72Z" style="fill:#674933;fill-rule:evenodd"/><path d="M133.14,19.29s.56-2.46,1-3.71,3.17-3.33,3.17-3.33a19.52,19.52,0,0,0-2.59,3.57C134.24,17,133.14,19.29,133.14,19.29Z" style="fill:#4c3024;fill-rule:evenodd"/><path d="M134.93,17a12.12,12.12,0,0,0,1.59-2.6A2.85,2.85,0,0,1,138,12.62a6.64,6.64,0,0,1,1.52-.77,12.4,12.4,0,0,0-2,2.36A10.28,10.28,0,0,1,134.93,17Z" style="fill:#674933;fill-rule:evenodd"/><path d="M144.39,20.92a13.28,13.28,0,0,0,2.35-2.33,3.17,3.17,0,0,1,2-1.5,7.43,7.43,0,0,1,1.77-.44,13.78,13.78,0,0,0-2.68,2A11.27,11.27,0,0,1,144.39,20.92Z" style="fill:#4c3024;fill-rule:evenodd"/><path d="M120.73,12.11A18.79,18.79,0,0,1,124,9.53a20.52,20.52,0,0,0,3.09-1.64c.79-.67,1.58-1.22,1.58-1.22s-1.24,2.47-2.52,2.85a15.53,15.53,0,0,0-3.53,1.56C121.6,11.7,120.73,12.11,120.73,12.11Z" style="fill:#674933;fill-rule:evenodd"/><path d="M128.62,7.62a13.84,13.84,0,0,1-1.14,2.63,11.07,11.07,0,0,0-1.1,3.09,19.93,19.93,0,0,0,1.79-2.6C128.66,9.74,128.37,9.21,128.62,7.62Z" style="fill:#674933;fill-rule:evenodd"/><path d="M133.81,24.81a16.35,16.35,0,0,0,3.07.52c1.83.15,2.45-.07,3.61.37s2.93.92,2.93.92a17.65,17.65,0,0,0-4.08-1.81A15.36,15.36,0,0,0,133.81,24.81Z" style="fill:#4c3024;fill-rule:evenodd"/><path d="M136.94,23.38a4.6,4.6,0,0,0,1.34-2.05,15.87,15.87,0,0,0,0-2.88,4,4,0,0,1,.67,2.86A4.43,4.43,0,0,1,136.94,23.38Z" style="fill:#4c3024;fill-rule:evenodd"/><path d="M137.31,19.93a4.76,4.76,0,0,1-.11-2.62,17.14,17.14,0,0,1,1.62-4,33.27,33.27,0,0,0-.95,4.34A6.69,6.69,0,0,1,137.31,19.93Z" style="fill:#4c3024;fill-rule:evenodd"/><path d="M128,19.34a5.23,5.23,0,0,0,1.75-2.08,17.08,17.08,0,0,0,1.21-4.12,34.91,34.91,0,0,1-2,4A6.7,6.7,0,0,0,128,19.34Z" style="fill:#4c3024;fill-rule:evenodd"/><path d="M130.91,17.58a5.15,5.15,0,0,0,1.25-2.37,16.52,16.52,0,0,0,.29-4.24,33.62,33.62,0,0,1-1.06,4.3A6.37,6.37,0,0,0,130.91,17.58Z" style="fill:#4c3024;fill-rule:evenodd"/><path d="M133.94,16a5.16,5.16,0,0,0,1.27-2.37,16.42,16.42,0,0,0,.3-4.25,33.13,33.13,0,0,1-1.06,4.32A6.63,6.63,0,0,0,133.94,16Z" style="fill:#4c3024;fill-rule:evenodd"/><path d="M139,19.1s.12-1.08.19-2.46-.26-1.74.15-2.87a13.76,13.76,0,0,1,1.46-2.6,8.25,8.25,0,0,0-.89,3.39C139.84,16.51,139.77,18.14,139,19.1Z" style="fill:#4c3024;fill-rule:evenodd"/><path d="M141.58,17.2a12.87,12.87,0,0,1,.73-2.67c.57-1.46,1.14-3.26,1.14-3.26a5.09,5.09,0,0,1-.15,3.17A14.87,14.87,0,0,1,141.58,17.2Z" style="fill:#4c3024;fill-rule:evenodd"/><path d="M134.64,23a3.72,3.72,0,0,0,1.44-.43A4.17,4.17,0,0,0,137.24,21a16.57,16.57,0,0,1-1.56,1.27A9.71,9.71,0,0,0,134.64,23Z" style="fill:#4c3024;fill-rule:evenodd"/><path d="M116,20.67s-.33-.67,1.27-1.76A23.17,23.17,0,0,0,120.51,16S118.12,20.61,116,20.67Z" style="fill:#4c3024;fill-rule:evenodd"/><path d="M119.34,19.27a3.54,3.54,0,0,1,1.17-1.33c.93-.71,2.29-2,2.29-2a6.3,6.3,0,0,1-1.42,2.17A13.88,13.88,0,0,1,119.34,19.27Z" style="fill:#4c3024;fill-rule:evenodd"/><path d="M117.5,18.22a19.63,19.63,0,0,0,1.6-3,33.08,33.08,0,0,0,1-3.66,9.08,9.08,0,0,0-1.71,3C118,15.89,117.5,18.22,117.5,18.22Z" style="fill:#4c3024;fill-rule:evenodd"/><path d="M141.49,23.28s2.42-.68,3.21-2.41,1.91-4.24,1.91-4.24a6.61,6.61,0,0,0-1.6,1.89c-.83,1.36-1.44,2.86-2.21,3.34A3.68,3.68,0,0,0,141.49,23.28Z" style="fill:#4c3024;fill-rule:evenodd"/><path d="M141.69,24.74a8.07,8.07,0,0,0,3.08-1.63c.83-1,1.19-1.37,1.19-1.37s-.7,2.5-1.71,2.71A21.54,21.54,0,0,1,141.69,24.74Z" style="fill:#4c3024;fill-rule:evenodd"/><path d="M143.8,25.35A16.9,16.9,0,0,0,146,24a11.64,11.64,0,0,1,3.32-1.22A10.86,10.86,0,0,1,147,24.5,12.24,12.24,0,0,1,143.8,25.35Z" style="fill:#4c3024;fill-rule:evenodd"/><path d="M142.85,27.79a3.6,3.6,0,0,1,2.19-.21,11.77,11.77,0,0,0,2.7.68c1.23.09,2.1.09,2.1.09a10.8,10.8,0,0,1-3.23.09c-.75-.14-1.43-.36-2.09-.49S143.33,27.88,142.85,27.79Z" style="fill:#4c3024;fill-rule:evenodd"/><path d="M144.05,26.54s1.94-.88,2.94-.42.53,1,1.27,1.23a7,7,0,0,0,1.58.26,3.11,3.11,0,0,1-1.86.07c-1.12-.26-.65-1-1.77-1.05S144.05,26.54,144.05,26.54Z" style="fill:#4c3024;fill-rule:evenodd"/><path d="M143.68,29.69a10.71,10.71,0,0,1,2.16,0,19.85,19.85,0,0,0,2.28.38c.85,0,1.94,0,1.94,0a8.33,8.33,0,0,1-2.68.61A8.86,8.86,0,0,1,143.68,29.69Z" style="fill:#4c3024;fill-rule:evenodd"/><path d="M145.9,31.41a2.07,2.07,0,0,0,1.54,1,4.93,4.93,0,0,1,2.51,1.12c1.09.72.93,1.18,1.68,1.38s.21-.08-.5-1.23a3.38,3.38,0,0,0-2.67-1.83C147.35,31.7,145.9,31.41,145.9,31.41Z" style="fill:#4c3024;fill-rule:evenodd"/><path d="M147.36,37.52a8.93,8.93,0,0,0,2.09,1.73,2.75,2.75,0,0,0,2.33.18,6.69,6.69,0,0,1-2.56-1.12A2.92,2.92,0,0,0,147.36,37.52Z" style="fill:#4c3024;fill-rule:evenodd"/><path d="M147.77,40A5.42,5.42,0,0,0,149,41.69a3.08,3.08,0,0,0,1.24.65s-.67.48-1.72-.24A2.15,2.15,0,0,1,147.77,40Z" style="fill:#4c3024;fill-rule:evenodd"/><path d="M130.26,10.32a31.91,31.91,0,0,0,.3-3.28c.06-1.71.64-3.25,1.21-3.67s.88-.68.88-.68a9.38,9.38,0,0,0-1.37,3.56A8.5,8.5,0,0,1,130.26,10.32Z" style="fill:#4c3024;fill-rule:evenodd"/><path d="M105.11,22.82c.34-1.16.67-1.42,1.93-2.6a5.48,5.48,0,0,0,1.92-2.8,10,10,0,0,0,.62-2.25,28.73,28.73,0,0,1-2.74,4c-1.25,1.38-2.17,2.1-2.45,2.77S105.11,22.82,105.11,22.82Z" style="fill:#4c3024;fill-rule:evenodd"/><path d="M103.23,23a2,2,0,0,1-.16-1.69,4.73,4.73,0,0,1,1.49-1.8s-2.19.24-2.32,1.4A2.74,2.74,0,0,0,103.23,23Z" style="fill:#4c3024;fill-rule:evenodd"/><path d="M102.67,25.92a3.31,3.31,0,0,1-1.42-1.4,6.14,6.14,0,0,1-.33-2.39s-.79,1.77-.08,2.73A2.81,2.81,0,0,0,102.67,25.92Z" style="fill:#4c3024;fill-rule:evenodd"/><path d="M101.68,25.29a2.8,2.8,0,0,1-1.4-.67,6.75,6.75,0,0,1-1.48-2s.18,1.91,1.29,2.46S101.68,25.29,101.68,25.29Z" style="fill:#4c3024;fill-rule:evenodd"/><path d="M115.52,13.65a1.74,1.74,0,0,1-.64-1.43,3.21,3.21,0,0,1,.49-1.7s.14,1.29.24,2A2.3,2.3,0,0,1,115.52,13.65Z" style="fill:#4c3024;fill-rule:evenodd"/><path d="M116.54,12.68a2.24,2.24,0,0,1-.56-1.84A7.84,7.84,0,0,1,116.35,9s.39,1.68.44,2.24A4.18,4.18,0,0,1,116.54,12.68Z" style="fill:#4c3024;fill-rule:evenodd"/><path d="M117.65,11c-.37-1-.74-1.62-.38-2.3a5.43,5.43,0,0,1,1.21-1.36,5.21,5.21,0,0,0-.4,2A2.44,2.44,0,0,1,117.65,11Z" style="fill:#4c3024;fill-rule:evenodd"/><path d="M96.33,10a24.37,24.37,0,0,1,5.21,2c2.25,1.12,3.1,1.47,4,2.4s1.33,1.8.54,1.36-2.36-1.85-3.68-2.66S96.33,10,96.33,10Z" style="fill:#674933;fill-rule:evenodd"/><path d="M98.41,11.42a29.86,29.86,0,0,1,3.5,2.58c1,1,2.57,3.8,1.54,3.12s-1.73-2.41-2.87-3.34A15.38,15.38,0,0,1,98.41,11.42Z" style="fill:#674933;fill-rule:evenodd"/><path d="M99.31,13.18A27.87,27.87,0,0,1,101,16.5c.31.95.91,2.92.21,1.9a14.59,14.59,0,0,1-1.31-2.71A6.69,6.69,0,0,1,99.31,13.18Z" style="fill:#4c3024;fill-rule:evenodd"/><path d="M98.44,12.74a19.41,19.41,0,0,0,.34,3.13c.26.86,1.5,2,1.52,2.37s-.35.48-1-.19a3.66,3.66,0,0,1-1.11-2.16A8.59,8.59,0,0,1,98.44,12.74Z" style="fill:#4c3024;fill-rule:evenodd"/><path d="M94.23,19.26a12.29,12.29,0,0,0,2.84,1.86c1.17.42,2.72-.34,2.72.23s-1.59,1.17-3.1.61A5.52,5.52,0,0,1,94.23,19.26Z" style="fill:#4c3024;fill-rule:evenodd"/><path d="M106,13.44a20.9,20.9,0,0,0,2.5.24c1.42.05,1.85.18,2.3.71s-.88-.11-1.85-.1A5,5,0,0,1,106,13.44Z" style="fill:#4c3024;fill-rule:evenodd"/><path d="M108.23,6.24s1.77,1.17,3,2.06,1.57,1.54,1.43,1.88-.79-.1-1.82-1A29.64,29.64,0,0,1,108.23,6.24Z" style="fill:#4c3024;fill-rule:evenodd"/><path d="M114.33,10.9a2.56,2.56,0,0,1,.85-1.67,20.5,20.5,0,0,1,2.27-2.18,24.73,24.73,0,0,0,2.38-2.3,57.21,57.21,0,0,0-5.17,3.94C114,9.48,113.1,10.86,114.33,10.9Z" style="fill:#4c3024;fill-rule:evenodd"/><path d="M113.33,9.24a5.93,5.93,0,0,1,1.07-1.39C115.19,7.06,118,5,118,5s-3,1.56-4.22,2.38S112.65,9.21,113.33,9.24Z" style="fill:#4c3024;fill-rule:evenodd"/><path d="M121.55,10.1A8.57,8.57,0,0,0,120.48,8c-.59-.77-2-3.23-2-3.23S120.24,7,121.1,7.87,122.61,10.44,121.55,10.1Z" style="fill:#4c3024;fill-rule:evenodd"/><path d="M123.35,8.8c.59,0,.45-3.15.45-3.15a5.85,5.85,0,0,0-.87,2C122.95,8.28,122.85,8.57,123.35,8.8Z" style="fill:#4c3024;fill-rule:evenodd"/><path d="M121.69,8.14c.44.29.83-1.26,1.1-1.6s.74-1,.74-1S121.19,7.32,121.69,8.14Z" style="fill:#4c3024;fill-rule:evenodd"/><path d="M104.79,12.16c-.83-.43-.47-2.39-.13-3.6s2.48-3.68,2.48-3.68-2,3.1-1.93,4.71S105.43,12.53,104.79,12.16Z" style="fill:#4c3024;fill-rule:evenodd"/><path d="M128.32,21.78a36.77,36.77,0,0,1,2.82-5.08,23.72,23.72,0,0,0,2.69-4.12,5,5,0,0,1,.69-1.35A31.55,31.55,0,0,1,132,17.32C130.83,19,128.18,21.78,128.32,21.78Z" style="fill:#674933;fill-rule:evenodd"/><path d="M125.56,26.11a6.09,6.09,0,0,1,3.66-.53c2.2.31,6.87,2.52,6.87,2.52s-3.91-2.81-7.27-3.32C125.92,24.35,124.68,25.58,125.56,26.11Z" style="fill:#2d170b;fill-rule:evenodd"/><path d="M123.93,27.11a5.87,5.87,0,0,1,4.15-.63c2.47.49,7.66,3.64,7.66,3.64s-4.31-4-8.1-4.75C124.4,24.7,123,26.35,123.93,27.11Z" style="fill:#4c3024;fill-rule:evenodd"/></svg>