<svg xmlns="http://www.w3.org/2000/svg" xmlns:xlink="http://www.w3.org/1999/xlink" viewBox="0 0 210.84 566.87"><defs><linearGradient id="a" x1="5.33" y1="193.56" x2="50.63" y2="193.56" gradientUnits="userSpaceOnUse"><stop offset="0" stop-color="#231f20"/><stop offset="0.14" stop-color="#cdcfd0"/><stop offset="0.27" stop-color="#f8f8f9"/><stop offset="0.36" stop-color="#f1f2f2"/><stop offset="0.53" stop-color="#e0e1e2"/><stop offset="0.68" stop-color="#cbccce"/><stop offset="1" stop-color="#231f20"/></linearGradient><linearGradient id="b" x1="44.75" y1="199.17" x2="168.28" y2="199.17" xlink:href="#a"/><linearGradient id="c" x1="126.71" y1="481.1" x2="182.89" y2="481.1" xlink:href="#a"/><linearGradient id="d" x1="29.03" y1="482.01" x2="86.27" y2="482.01" xlink:href="#a"/><linearGradient id="e" x1="166.05" y1="192.39" x2="210.33" y2="192.39" xlink:href="#a"/></defs><title>man-2</title><path d="M41.19,281.38c-2.24,1.32-27.29,12.72-31,7.73L9,281.44l28.73-9.1Z" style="fill:#61656d;stroke:#000;stroke-linejoin:round;stroke-width:1.0006000000000002px;fill-rule:evenodd"/><path d="M12.95,280.64c-.28,4.27-.86,11.08-.74,15,.07,2.24,1.31,8.68,3,10.45a10.31,10.31,0,0,0,5.1,3.28c2.76,3.44,5.17,6.35,8.65,6.55,2.61,3.31,3.42,4.12,5.12,3.93,2.18-.25.7-4.67.36-8.65a2.26,2.26,0,0,0,2.93-1.75c1.22-5.81.75-13.24,1.41-17.69a28.76,28.76,0,0,0-2.6-10,31,31,0,0,0-4-5.63Z" style="fill:#fdd6ba;stroke:#000;stroke-miterlimit:22.925600000000003;stroke-width:1.0001px;fill-rule:evenodd"/><path d="M13.59,281c0,4.15-1,10.69-.67,14.46.18,2.16,1.38,8.44,2.93,10,1.35,1.4,2.67,2.66,4.54,3l-1.19-2.67-.55-3.66-1-3.75-2.28-2.89-.18-2.76,3.27-6.16,3.76-2.91,4.77-1.3,4.09.34,4.22,4.17.4,2.69-.78,1.83-1.7-.17-.35.94-.43,4,.35,8.66,1.32,5.47,2.14-.25L37.39,300l.46-12.41-3.91-8.73Z" style="fill:#ecc7b1;fill-rule:evenodd"/><polyline points="29.52 316.48 26.4 309.43 24.68 301.58 23.3 299.85" style="fill:none;stroke:#000;stroke-miterlimit:22.925600000000003;stroke-width:1.0001px;fill-rule:evenodd"/><polyline points="20.26 309.13 17.28 304.62 14.85 298.5 14.18 297.42" style="fill:none;stroke:#000;stroke-miterlimit:22.925600000000003;stroke-width:1.0001px;fill-rule:evenodd"/><polyline points="24.39 314.02 22.84 310.76 21.32 305.41 19.61 299.38 18.37 297.96" style="fill:none;stroke:#000;stroke-miterlimit:22.925600000000003;stroke-width:1.0001px;fill-rule:evenodd"/><path d="M34.2,311.26s-.78-4.07-1.15-5.14a53.65,53.65,0,0,1-.6-6.74l.28-6.53.79-2.93" style="fill:none;stroke:#000;stroke-miterlimit:22.925600000000003;stroke-width:1.0001px;fill-rule:evenodd"/><path d="M7.4,190c-1.51,12.48-4.66,33.85-4.58,49.48.17,1.95,0,5.31.25,8.84a228.77,228.77,0,0,0,7.07,40.41c2.07-3,26.43-9.67,31-7.49.26-4.44,2.44-15.57,2.36-21.33-.08-5.94.11-17.36.05-22.09A112,112,0,0,0,45,226.38c.29-2.75.49-7.76,1.07-9.06l-.16-8.16.66-11.44Z" style="fill:#7b8089;stroke:#231f20;stroke-linejoin:round;stroke-width:1.0006000000000002px;fill-rule:evenodd"/><path d="M40.42,196.83,41.88,201,40,203.42l-2.87-.75-8.74-.8-5.64-1.6L17.88,196l-3.1-1.11,3,5.23,9.63,9.08,10.79,6.15.7,2.26-2.7,4.49L33,225l-3.62,2.56-3.62,3.5L27,233.56l6.08.13,1.92,2,.69,13.23,2.73,14.66-1,16.57,1.78-.07,1.36.24,2.53-18c1.1-7.86-.08-19.38-.26-24.44.69-3.23,1.07-10.23,1.41-13,.29-2.31.75-7,1.31-8.25l-1.4-6.57.63-12.88Z" style="fill:#61656d;fill-rule:evenodd"/><path d="M150.24,91c-2-5.73-6.11-34.48-42.08-34.23S66.94,82.19,65.22,94.61c4,6.33,13.83,26,41.82,26.62C135.59,121.9,145.54,100,150.24,91Z" style="fill:#ed1c24;stroke:#000;stroke-linejoin:round;stroke-width:1.0006000000000002px;fill-rule:evenodd"/><path d="M36.89,316s.94.59,8.76,4c13,5.59-3.53,17.38,59.09,16.63,66.29-.8,51.43-9.23,66.15-15.08,5.76-2.29,6.46-4,6.46-4L173,303.72,40.9,306.8Z" style="fill:#61656d;stroke:#000;stroke-linejoin:round;stroke-width:1.0006000000000002px;fill-rule:evenodd"/><path d="M47.1,204.7l5.62-30.39-6.43-61.82-7-5.86c-8.17,6.55-13,18.4-17.75,31A358.37,358.37,0,0,0,8.34,181.23L7.41,193C13.62,194.86,23.17,203.63,47.1,204.7Z" style="fill:#ed1c24;stroke:#000;stroke-miterlimit:22.925600000000003;stroke-width:1.0001px;fill-rule:evenodd"/><polygon points="46.87 200.5 50.77 189.74 50.68 170.07 43.21 110.01 39.92 107.12 37.71 108.87 36.07 110.72 37.96 111.53 39.39 113.85 40.12 116.5 44.39 133.44 46.16 162.27 43.83 159.13 42.13 148.36 41.47 140.06 40.48 136.8 39.02 135.98 38.19 140.57 38.76 152.5 40.35 162.6 42.24 169.79 42.19 175.67 40.64 178.71 34.88 176.85 29.42 169.34 25.63 162.44 23.86 162.62 24.23 170.9 26.95 180.35 30.47 191.12 35.08 195.44 46.87 200.5" style="fill:#c33233;fill-rule:evenodd"/><path d="M140.28,529.18a37.12,37.12,0,0,0-1.42,13l4.06,5.06,11.73,7,18,2.14,17.29-.67.73-4.64s.43-5.3-2.23-7a28.11,28.11,0,0,1-9.24-9.21c-2.86-4.78-2.45-8.48-3.72-11.85l-20.8-6.44Z" style="fill:#4d555b;stroke:#000;stroke-linejoin:round;stroke-width:1.0006000000000002px;fill-rule:evenodd"/><path d="M73.13,531.49a35.09,35.09,0,0,1,1.5,13l-4.31,5.06-12.44,7-19,2.14L20.5,558l-.77-4.64s-.46-5.31,2.36-7,8-4.08,11.05-8.86a77.17,77.17,0,0,0,6.39-12.73l18.36-5.91Z" style="fill:#4d555b;stroke:#000;stroke-linejoin:round;stroke-width:1.0006000000000002px;fill-rule:evenodd"/><path d="M72.55,531.62a35.94,35.94,0,0,1,1.47,13L54.26,556.87,49,558H43.79l3-2,.3-1.82-1.49-4-1.84-1.46-11.47-.59,11.76-1.6,4.48-1.81-.79-1.18-2.4-2.09L49.7,544,52,545.81l1.38,2.42,3.87.14,3.63-2.57,4.69-2.52-.52-4-5.14-5.73-9.16-5-5.62-.26-1.68,8.39L41.65,535l-1.88,1-4.23,3.38L40,526Z" style="fill:#373d42;fill-rule:evenodd"/><path d="M166.47,524.32l2.27,13.57-4.81,2.67,3.83-1.13,1.48-.75.35-1.2-.7-7.11,1.51-2.49,2.55.61,3.56,5.38,3.14,4.35-2.26-.49-3.93-4.49-4.23-2.33.08,1.23,3.61,2,2.55,2.28,1,1.62,1.57.85,1.34.62,1,1.8.31,2.3-1.89,1.88-2.9.93,2.52.48,3.51,0,2.88-.14,1.74,0,1.21.82.09,1.41-1,1.27.06,2.68,1,.4,1.42-.08.52-1.61s.46-5.57-1.88-7.14a31,31,0,0,1-9.31-9.45c-2.86-4.78-2.45-8.48-3.72-11.85Z" style="fill:#373d42;fill-rule:evenodd"/><path d="M139.66,543.87c1.46,1.74,4.48,1.48,7.84,2.95s3.36,4.88,9.39,7,14.78,3.1,22.67,2.38a56.47,56.47,0,0,1,8.61-.33l-.17,1.73c-.5,1.39-3.81,2.77-7.57,3.22a66.6,66.6,0,0,1-10,.3l-.66-1.28-.82-.06-.45,1.29c-1.66-.12-3.23-.3-4.68-.51l-.63-1.32-.8-.15,0,1.26-1.2-.21-2.61-.5-.45-1.13-.63-.55.05,1.44a26.64,26.64,0,0,1-3.21-1l-.57-1.11-.52-.5v1.15c-1.4-.67-1.29-1.16-1.29-1.16l-1.1-1.8-6-.2a18,18,0,0,1-2.53-1l0-1.81-.33-.07-.68,1.32A7.66,7.66,0,0,1,139.5,552l-.67-8.3.28-.16L139,543Z" style="fill:#58595b;stroke:#000;stroke-linejoin:round;stroke-width:1.0006000000000002px;fill-rule:evenodd"/><path d="M138.73,542c1.58,1.74,5.23,2.22,8.85,3.68s4.16,5,10.65,7.13,15.8,3,24.3,2.26,7.75-2.82,8.54-4.25l.08,2.32h.38l-.29,4.95c-.54,1.39-4.1,2.77-8.16,3.22a77.33,77.33,0,0,1-10.83.3l-.71-1.28-.89-.06-.48,1.29c-1.79-.12-3.48-.3-5-.51l-.68-1.32-.86-.15,0,1.26-1.29-.21-2.82-.5L159,559l-.68-.55.06,1.44a30.47,30.47,0,0,1-3.45-1l-.61-1.11-.56-.5v1.15a5.59,5.59,0,0,1-1.92-1.16l-1.19-1.67-5.91-.32a20.28,20.28,0,0,1-2.73-1l0-1.81-.36-.07-.73,1.32a8.26,8.26,0,0,1-1.95-1.26l-.72-8.3.3-.16,0-1.75Z" style="fill:#4d555b;stroke:#000;stroke-linejoin:round;stroke-width:1.0006000000000002px;fill-rule:evenodd"/><polygon points="145.02 554.63 146.45 552.5 149.65 554.92 145.02 554.63" style="fill:#373d42;fill-rule:evenodd"/><path d="M187.67,555a5.29,5.29,0,0,0,3-1.87l-.26,4.71a5.5,5.5,0,0,1-2.42,1.63l.24-3.52-.55-.1Z" style="fill:#373d42;fill-rule:evenodd"/><path d="M163.34,530.3c1.23-1.5,4.1-4.42,5.59-5.21" style="fill:none;stroke:#000;stroke-linecap:round;stroke-linejoin:round;stroke-width:2.0001px;fill-rule:evenodd"/><path d="M173.06,529.33c-1.5-1.24-4.88-3.54-6.49-4" style="fill:none;stroke:#000;stroke-linecap:round;stroke-linejoin:round;stroke-width:2.0001px;fill-rule:evenodd"/><path d="M131.55,488.18c-.31-2.63-.5-3-1-5.42-1.36-7.26-4.37-13.23-5.21-19.61a290.81,290.81,0,0,1-2-35.21c-.44-2.27-1.91-4.19-2.35-6.46-.34-1.76-.33-3.88-.67-5.64-.29-3.05-2.15-6.11-2.44-9.17-.49-5.09.75-11.4.26-16.49-1.87-12.32-4.73-18.21-5.85-26.55-.29-2.12-.9-6.82-.9-9,0-6.17-1.16-11.86-2.2-18.26-1.26-7.72-2.5-16.17-3.39-23.63l64,1.41c-.12,8.25-1.15,17.11-1.27,25.36-.18,12.19.93,28.19,1.09,42.72.12,10.61-.58,18.86.94,26.54.13,5.28,5.14,7.19,6.44,14.45,2.17,12.1-.61,25.24-.29,41.21.89,4,2.12,5.34,3,9.35a59.26,59.26,0,0,1,1.36,10.49Z" style="fill:#7b8089;stroke:#231f20;stroke-linejoin:round;stroke-width:1.0006000000000002px;fill-rule:evenodd"/><path d="M181.34,483.94a101,101,0,0,1,0,14.11,97.74,97.74,0,0,1-3.07,15.34c-.12,2.07,1.33,3.79,1.21,5.86A43.29,43.29,0,0,1,177,529.69c-2.79-6.5-25.57-4.14-37.26,3.31-3.5-5.17-4.52-13.74-4.52-13.74-1.92-9.19-2.7-22.2-3.81-31.6Z" style="fill:#7b8089;stroke:#231f20;stroke-linejoin:round;stroke-width:1.0006000000000002px;fill-rule:evenodd"/><path d="M134.55,447l10.3-1.71,10.35-4.81,5.23-3.26,2.76,0,.53,1.33-1.2,2.53L159.07,446l-2.18,2C139.24,453.45,134.8,451.28,134.55,447Z" style="fill:#61656d;stroke:#61656d;stroke-linejoin:round;stroke-width:1.0006000000000002px;fill-rule:evenodd"/><polygon points="154.06 417.61 152.45 415.37 143.54 413.64 135.59 409.95 131.56 407.44 129.44 407.42 129.03 408.44 129.96 410.39 133.02 414.99 140.47 419.48 145.09 420.69 149.65 420.05 154.06 417.61" style="fill:#61656d;stroke:#61656d;stroke-linejoin:round;stroke-width:1.0006000000000002px;fill-rule:evenodd"/><path d="M165.18,450.95l2.89-10.46,1.17-9-1.75-3.53-4.85,3.14L151.2,434l-6.23.22,1.72-3,11.56-6.29,5.11-7.41L166,407l-.66-9.8-3.52-7.12,2.72-4.7,1-6.77-3-14.54-.42-22.21-1.89-12-2.39-3.79-6-1.66L131,324.36l-14.54,1.89-4.6,2.75-2.45,4-2.5-16.24,62-2.67c-.12,8.25-1.15,17.11-1.27,25.36-.18,12.19.93,28.19,1.09,42.72.12,10.6-.58,18.86.94,26.54.13,5.28,5.14,7.19,6.44,14.45a40.54,40.54,0,0,1,.67,4.09,150.42,150.42,0,0,1,0,18.47C175.9,447.69,172.62,449.61,165.18,450.95Z" style="fill:#61656d;fill-rule:evenodd"/><path d="M169.81,314.88l-20,.87.13,59.74c7.7.11,16.81-1.25,19.55-2.16l.56-28.68Z" style="fill:#7b8089;stroke:#231f20;stroke-linejoin:round;stroke-width:1.0006000000000002px;fill-rule:evenodd"/><polygon points="163.25 355.01 163.6 331.49 169.24 329.39 169.18 352.91 168.92 372.86 165.78 373.47 163.63 373.73 163.25 355.01" style="fill:#61656d;stroke:#61656d;stroke-linejoin:round;stroke-width:1.0006000000000002px;fill-rule:evenodd"/><path d="M169.72,315.68c-5.37.38-9.94-.38-18.64-.32l-.47,18.09,6.53.67A61.32,61.32,0,0,0,169,333.6Z" style="fill:#61656d;fill-rule:evenodd"/><path d="M170.16,311.21c-3.83.57-12.66,1.47-21.28,1.92l.05,19.89a86.84,86.84,0,0,0,21.66-1.43Z" style="fill:#7b8089;stroke:#231f20;stroke-linejoin:round;stroke-width:1.0006000000000002px;fill-rule:evenodd"/><polygon points="164.86 312.64 169.57 312.17 169.76 330.93 165.03 331.78 164.48 325.77 162.62 323.25 155.43 322.47 149.93 322.74 149.89 318.9 164.86 312.64" style="fill:#61656d;stroke:#61656d;stroke-linejoin:round;stroke-width:1.0006000000000002px;fill-rule:evenodd"/><path d="M150,313.29l.07,18.83c6.86-.25,13.64,0,20.44-1.6" style="fill:none;stroke:#fff;stroke-linejoin:round;stroke-width:0.5px;stroke-dasharray:2.500200033187866,1.500100016593933;fill-rule:evenodd"/><path d="M152,313.18l.43,16.74a100.31,100.31,0,0,0,17.85-1.39" style="fill:none;stroke:#fff;stroke-linejoin:round;stroke-width:0.5px;stroke-dasharray:2.500200033187866,1.500100016593933;fill-rule:evenodd"/><path d="M151,333.88l.14,40.58a81.24,81.24,0,0,0,18-2.3" style="fill:none;stroke:#fff;stroke-linejoin:round;stroke-width:0.5px;stroke-dasharray:2.500200033187866,1.500100016593933;fill-rule:evenodd"/><path d="M152.75,333.64l.05,39c6-.42,13.27-1.1,16.55-2.35" style="fill:none;stroke:#fff;stroke-linejoin:round;stroke-width:0.5px;stroke-dasharray:2.500200033187866,1.500100016593933;fill-rule:evenodd"/><path d="M174.58,486.73l-8.16-4.68,4.79-2.7.2-6.94,1.45-3.29-.32-3.84-4.85-5.84-5.58-6.31,1.1-1.92c6.25-1.26,11.5-3.29,13.78-5.45-.34,6.89-1.14,11-1,18.95.89,4,1.93,5,2.82,9,1.06,4.76,1.58,6.2,1.78,11.15Z" style="fill:#61656d;fill-rule:evenodd"/><path d="M180.75,485.8a101.89,101.89,0,0,1,0,11.2,108.68,108.68,0,0,1-3.11,16.28c-.12,2.07,1.42,3.51,1.3,5.58a33.56,33.56,0,0,1-2.08,9.32c-2.47-2.28-5.69-2.9-10.12-3l3.77-3.92,2.11-6.72L168,511.89l-7.88-.72-9.87,3.44.81-2.21,6.49-4.58,8-2.09,7.11.34,2.9-3.67-.73-4.29.72-3.21,2.29-1.44.34-2.08-2.53-3.85Z" style="fill:#61656d;fill-rule:evenodd"/><path d="M73.79,546.18c-1.55,1.74-4.75,1.48-8.31,2.94s-3.57,4.88-10,7-15.68,3.1-24,2.38a63.37,63.37,0,0,0-9.13-.33l.18,1.73c.53,1.39,4,2.77,8,3.22a74.88,74.88,0,0,0,10.66.3l.7-1.28.87-.06.48,1.29c1.76-.12,3.42-.3,5-.51l.67-1.32.85-.15,0,1.26,1.27-.21,2.77-.5.47-1.13.67-.55-.06,1.44a29.75,29.75,0,0,0,3.4-1l.6-1.11.55-.5v1.15c1.49-.66,1.37-1.16,1.37-1.16l1.17-1.8,6.34-.2a19.76,19.76,0,0,0,2.68-1l0-1.81.35-.07.72,1.32A8.11,8.11,0,0,0,74,554.27l.71-8.3-.29-.16.16-.52Z" style="fill:#58595b;stroke:#000;stroke-linejoin:round;stroke-width:1.0006000000000002px;fill-rule:evenodd"/><path d="M74.77,544.33c-1.68,1.74-5.55,2.22-9.38,3.68s-4.41,5-11.3,7.13-16.76,3-25.77,2.26-8.22-2.82-9.05-4.25l-.08,2.32h-.4l.31,4.95c.58,1.39,4.35,2.77,8.65,3.22a86.63,86.63,0,0,0,11.49.3l.75-1.28.94-.06.51,1.29c1.9-.12,3.69-.3,5.35-.51l.73-1.32.91-.15,0,1.26,1.37-.21,3-.5.51-1.13.72-.55-.06,1.44a34,34,0,0,0,3.66-1l.65-1.11.59-.5v1.15a6,6,0,0,0,2-1.16l1.26-1.68,6.27-.32a22.48,22.48,0,0,0,2.89-1l0-1.81.38-.07.77,1.32a8.83,8.83,0,0,0,2.07-1.26l.76-8.3L75,546.3l0-1.75Z" style="fill:#4d555b;stroke:#000;stroke-linejoin:round;stroke-width:1.0006000000000002px;fill-rule:evenodd"/><path d="M69.28,556.41l1.39-.33.21-1.94,1.1-.28.79,1.25a3.87,3.87,0,0,0,1.21-.73l.6-7.3-.25-.13,0-1.41-.19-.18c-1.14,1.23-3.45,1.61-6.05,2.5l0,1.68.64,0Z" style="fill:#373d42;fill-rule:evenodd"/><polygon points="68.1 556.94 66.58 554.81 63.19 557.23 68.1 556.94" style="fill:#373d42;stroke:#000;stroke-linejoin:round;stroke-width:1.0006000000000002px;fill-rule:evenodd"/><path d="M48.67,532.61c-1.3-1.5-4.35-4.42-5.92-5.21" style="fill:none;stroke:#000;stroke-linecap:round;stroke-linejoin:round;stroke-width:2.0001px;fill-rule:evenodd"/><path d="M38.08,532.11c1.59-1.24,5.46-4,7.16-4.49" style="fill:none;stroke:#000;stroke-linecap:round;stroke-linejoin:round;stroke-width:2.0001px;fill-rule:evenodd"/><path d="M75.1,546.55c-1.51,1.49-7.9,3.07-9.82,4.36-2.08,1.41-4.65,4.47-8.05,6-6.2,2.81-19.12,4.22-30.29,3-6.69-.76-7.67-3.17-7.84-4.11" style="fill:none;stroke:#000;stroke-linejoin:round;stroke-width:1.0006000000000002px;fill-rule:evenodd"/><path d="M44.94,528.53c-.2,5.8-1.46,7.67-1.31,11.27.08,1.93,9.45,3.69,9.64,8.38a7.63,7.63,0,0,0,3.65.2L60.26,546a51.21,51.21,0,0,1,7.9-3.13l.24,4" style="fill:none;stroke:#000;stroke-linejoin:round;stroke-width:1.0006000000000002px;fill-rule:evenodd"/><path d="M46,528.32c-.19,5.51-1.42,7.75-1.25,11.17.08,1.46,9.13,3.41,9.31,7.86a5.49,5.49,0,0,0,2.32.16l3.65-2.6a73.61,73.61,0,0,1,9-3.31l.38,4.8" style="fill:none;stroke:#000;stroke-linejoin:round;stroke-width:0.5px;stroke-dasharray:2.500200033187866,1.500100016593933;fill-rule:evenodd"/><path d="M42.85,528.58a28.82,28.82,0,0,1-7.09,10.32c-1.42,1.39-3.46,1.5-6.07,2.7" style="fill:none;stroke:#000;stroke-linejoin:round;stroke-width:1.0006000000000002px;fill-rule:evenodd"/><path d="M41.6,528.9a31.72,31.72,0,0,1-6.82,9.62c-1.18,1.15-1.44.47-3.6,1.46" style="fill:none;stroke:#000;stroke-linejoin:round;stroke-width:0.5px;stroke-dasharray:2.500200033187866,1.500100016593933;fill-rule:evenodd"/><path d="M47.19,537.57c-1.3-1.5-4.35-4.42-5.93-5.21" style="fill:none;stroke:#000;stroke-linecap:round;stroke-linejoin:round;stroke-width:2.0001px;fill-rule:evenodd"/><path d="M35.13,536.88c1.48-1.64,6.45-4.43,8.81-4.06" style="fill:none;stroke:#000;stroke-linecap:round;stroke-linejoin:round;stroke-width:2.0001px;fill-rule:evenodd"/><path d="M60.38,545.91c-.77-2.43-5.7-5.74-5.78-6.75-.73-2.83-.42-6.1.23-9.8" style="fill:none;stroke:#000;stroke-linejoin:round;stroke-width:1.0001px;fill-rule:evenodd"/><path d="M61.17,545.46c-.77-2.43-5.54-5.51-5.62-6.53-.73-2.83-.42-6.1.23-9.8" style="fill:none;stroke:#000;stroke-linejoin:round;stroke-width:0.5px;stroke-dasharray:2.500200033187866,1.500100016593933;fill-rule:evenodd"/><path d="M63,544.72c-.77-2.43-5.54-5.51-5.62-6.53-.73-2.83-.42-6.1.23-9.8" style="fill:none;stroke:#000;stroke-linejoin:round;stroke-width:0.5px;stroke-dasharray:2.500200033187866,1.500100016593933;fill-rule:evenodd"/><polyline points="51.66 545.08 54.43 543.51 55.23 544.33 52.45 545.9" style="fill:none;stroke:#000;stroke-linejoin:round;stroke-width:0.5px;stroke-dasharray:2.500200033187866,1.500100016593933;fill-rule:evenodd"/><path d="M55.83,545.71a.64.64,0,0,0-.85,0,.56.56,0,0,0,.19.78.64.64,0,0,0,.85,0A.56.56,0,0,0,55.83,545.71Z" style="fill:none;stroke:#000;stroke-linejoin:round;stroke-width:0.5px;fill-rule:evenodd"/><path d="M46.07,537.54a1.26,1.26,0,0,1,1.33-1.1,1.13,1.13,0,0,1,1.11,1.23,1.26,1.26,0,0,1-1.33,1.1A1.13,1.13,0,0,1,46.07,537.54Z" style="fill:none;stroke:#000;stroke-linejoin:round;stroke-width:1.0001px;fill-rule:evenodd"/><path d="M47.51,532.67a1.26,1.26,0,0,1,1.33-1.1,1.13,1.13,0,0,1,1.11,1.23,1.26,1.26,0,0,1-1.33,1.1A1.13,1.13,0,0,1,47.51,532.67Z" style="fill:none;stroke:#000;stroke-linejoin:round;stroke-width:1.0001px;fill-rule:evenodd"/><polyline points="68.5 557.43 66.52 554.68 62.01 557.98" style="fill:none;stroke:#000;stroke-linecap:round;stroke-linejoin:round;stroke-width:1.0006000000000002px;fill-rule:evenodd"/><path d="M42.47,549.59s-6.74-.13-12-.29c-3.17-.1-5.83-.47-6.19-.12-1,.92,2.92,1.56,5.4,1.65S42.47,549.59,42.47,549.59Z" style="fill:#7b8089;fill-rule:evenodd"/><path d="M36.61,486.18c.4-1.27-3.94-.92-4-1.86,0-2.24-2.52-8.65-2.5-14.86,0-7.88,1.63-12.84,1.65-15.29.82-7.46-.07-15.33-.25-24.05-.21-9.89,1.46-18.95,2.68-27,1.24-4.94,6-11.77,7.42-17.34C41,381,40,376,39.68,371.21c-1.45-19.2,0-40.51,0-59.83l66.81,6.22c-.83,5-2.33,10.33-3.49,14.65-1.09,4,0,10.93-1.16,15.59-2.21,9.07-4.65,20.43-7.12,30.16-1.48,5.84-3.52,11-4,15-.39,3.13.32,6.46.31,9.87,0,9-3.49,22.52-4.36,27.92-.91,5.65-2.08,15.24-2.86,24-.31,3.41-1,6.91-.61,9.77.16,1.21,1.81,3.68,1.87,4.9.26,5.78-.12,9.42-1.41,17.48Z" style="fill:#7b8089;stroke:#231f20;stroke-linejoin:round;stroke-width:1.0006000000000002px;fill-rule:evenodd"/><path d="M83.65,486.53c-1.67,10.36-4.49,26-5.72,36.39l-2.77,8.28-1.28,2.12C67.27,534.43,47,524,36.58,531.93c-1.07-.66-6.32-20.71-7.75-31.12-.6-4.38,2.83-11.91,4-15.7Z" style="fill:#7b8089;stroke:#231f20;stroke-linejoin:round;stroke-width:1.0006000000000002px;fill-rule:evenodd"/><path d="M72.68,488.94l2.53-8-7-1.07-10.63-.05,3-3.77,6.94-4.55,6.66-8L78,454.17l2.14-7.05.17-.05L81.61,443l-2.21-4.47L74.62,441,68,447.59c-3.46,2-7.74,2.23-9.63,2.29-3.61.12-6.63-.58-6.25-2l7.91-5,10.5-9.39,5.72-8.38,3.69-8,1.32-12.21-1.54-10.29,1.59-7,2.47-5.86,6.72-23.44,2.66-22.43-1.44-5.58-7.51-4.41-17.94-3.32-15.63-.85-6,1.11-4.31,2.17.25-12.76,65.3,5.32c-.83,5-2.33,10.33-3.49,14.65-1.09,4,0,10.93-1.16,15.59-2.21,9.07-4.65,20.43-7.12,30.16-1.48,5.84-3.52,11-4,15-.39,3.13.33,6.46.31,9.87,0,9-3.49,22.53-4.36,27.92-.56,3.47-1.31,9.43-1.91,14.79l.13-.07c-.37,3.26-.78,6-1.07,9.25s-1,6.91-.61,9.77c.16,1.21,1.81,3.68,1.87,4.9.28,6.19,0,10-1.47,18.77C80,489.18,76.6,488.69,72.68,488.94Z" style="fill:#61656d;fill-rule:evenodd"/><path d="M40.07,313.12l20,1.43-.83,59.38c-8.34-.7-14.86-1.46-19.53-2.61l-.5-25.55Z" style="fill:#7b8089;stroke:#231f20;stroke-linejoin:round;stroke-width:1.0006000000000002px;fill-rule:evenodd"/><path d="M40.15,313.91c5.37.54,9.95-.1,18.65.21l.26,18.1-6.54.49a61.61,61.61,0,0,1-11.85-.86Z" style="fill:#61656d;fill-rule:evenodd"/><path d="M39.76,309.44c3.83.68,12.65,1.83,21.27,2.52l-.29,19.87a87.4,87.4,0,0,1-21.66-2Z" style="fill:#7b8089;stroke:#231f20;stroke-linejoin:round;stroke-width:1.0006000000000002px;fill-rule:evenodd"/><polygon points="60.15 321.3 50.3 320.2 44.01 319.95 40.23 321.28 40.54 311.37 60.33 313.04 60.15 321.3" style="fill:#61656d;stroke:#61656d;stroke-linejoin:round;stroke-width:1.0006000000000002px;fill-rule:evenodd"/><path d="M59.94,312.09l-.29,18.81c-6.86-.44-13.64-.33-20.43-2.17" style="fill:none;stroke:#fff;stroke-linejoin:round;stroke-width:0.5px;stroke-dasharray:2.500200033187866,1.500100016593933;fill-rule:evenodd"/><path d="M57.94,311.92l-.63,16.71a100.93,100.93,0,0,1-17.84-1.89" style="fill:none;stroke:#fff;stroke-linejoin:round;stroke-width:0.5px;stroke-dasharray:2.500200033187866,1.500100016593933;fill-rule:evenodd"/><path d="M58.67,332.63l-.42,40.13c-6.42-.16-15.28-1.45-18.15-2.4" style="fill:none;stroke:#fff;stroke-linejoin:round;stroke-width:0.5px;stroke-dasharray:2.500200033187866,1.500100016593933;fill-rule:evenodd"/><path d="M56.92,332.34l-.51,38.59c-6-.59-13.26-1.06-16.53-2.4" style="fill:none;stroke:#fff;stroke-linejoin:round;stroke-width:0.5px;stroke-dasharray:2.500200033187866,1.500100016593933;fill-rule:evenodd"/><path d="M82.43,488.7c-1.63,9.89-4,24.26-5.17,34.12l-2.77,8.27-.9,1.73a96.69,96.69,0,0,1-11.27-2.25l2.94-8.24-.66-3.8-9.07-3-.21-1.92.54-1.93,6-3.91,8.8-10.08,1.55-7.63A102.41,102.41,0,0,0,82.43,488.7Z" style="fill:#61656d;fill-rule:evenodd"/><path d="M48.13,204.46c-19.44-.18-39.65-3.95-41.41-8.45l1.57-13.35c1.49,4.19,22.87,8.33,41,8.68Z" style="stroke:#000;stroke-linejoin:round;stroke-width:1.0006000000000002px;fill-rule:evenodd;fill:url(#a)"/><polygon points="97.35 232.79 96.61 250.64 95.26 292.45 93.13 322.75 97.2 322.9 106.1 246.34 103.58 235.68 97.35 232.79" style="fill:#001d48;stroke:#000;stroke-linejoin:round;stroke-width:1.0006000000000002px;fill-rule:evenodd"/><path d="M165.9,202.95,163,195.58,153.62,160l10.24-56.42,8-.39c6,6.87,11.31,13.51,18.85,28.84,6.05,12.31,12.55,31.76,14,37.44.77,4.64,2.06,12.58,3.4,24.83C205.53,198.93,180,203,165.9,202.95Z" style="fill:#ed1c24;stroke:#000;stroke-miterlimit:22.925600000000003;stroke-width:1.0001px;fill-rule:evenodd"/><polygon points="166.58 199.22 162.67 188.46 162.77 168.79 170.24 108.73 173.53 105.96 176.63 109.94 175.28 110.42 174.06 112.57 173.33 115.22 169.06 132.16 167.29 160.99 169.62 157.85 171.32 147.08 171.98 138.78 172.97 135.52 174.43 134.7 175.26 139.29 174.69 151.22 173.1 161.32 171.21 168.51 171.26 174.39 172.81 177.43 178.57 175.57 185.41 168.06 189.75 160.89 190.69 161.07 190.87 165.77 185.67 177.7 178.31 185.16 177.46 187.71 178.65 192.24 166.58 199.22" style="fill:#c33233;fill-rule:evenodd"/><path d="M168.11,205.94c.09-7-.12-14.72-.23-22.46-.09-6.64.27-15.36.43-23.22.19-9.64.54-17.94,1.71-29.59.81-8,2.54-19.11,4.86-26a15.9,15.9,0,0,0-6-3.37c-13.09-7.18-26.37-11.14-41-14.62l-7.68,3.07H90.8L80.38,88.25C68.63,93.1,54.6,96.1,44.22,102.13a14,14,0,0,0-5.76,3.67c2.87,5.63,5.56,18.1,6.71,30.48,1.29,13.88-.11,28.89.64,43-.77,8.77-1.21,18.42-1.15,26.76Z" style="fill:#ed1c24;stroke:#000;stroke-miterlimit:22.925600000000003;stroke-width:1.0001px;fill-rule:evenodd"/><rect x="120.02" y="145.19" width="35.47" height="36.81" style="fill:none;stroke:#000;stroke-linejoin:round;stroke-width:1.0006000000000002px"/><rect x="56.49" y="145.19" width="35.47" height="36.81" style="fill:none;stroke:#000;stroke-linejoin:round;stroke-width:1.0006000000000002px"/><polyline points="154.66 153.34 154.66 181 120.82 181 120.82 153.34" style="fill:none;stroke:#fff;stroke-linejoin:round;stroke-width:0.5px;stroke-dasharray:2.500200033187866,1.500100016593933;fill-rule:evenodd"/><polyline points="91.12 153.34 91.12 181 57.28 181 57.28 153.34" style="fill:none;stroke:#fff;stroke-linejoin:round;stroke-width:0.5px;stroke-dasharray:2.500200033187866,1.500100016593933;fill-rule:evenodd"/><polyline points="153.01 153.34 153.01 179.35 122.34 179.35 122.34 153.34" style="fill:none;stroke:#fff;stroke-linejoin:round;stroke-width:0.5px;stroke-dasharray:2.500200033187866,1.500100016593933;fill-rule:evenodd"/><polyline points="89.48 153.34 89.48 179.35 58.8 179.35 58.8 153.34" style="fill:none;stroke:#fff;stroke-linejoin:round;stroke-width:0.5px;stroke-dasharray:2.500200033187866,1.500100016593933;fill-rule:evenodd"/><path d="M105.11,130l-2.49,66.15-5.52.07.28-17.62L96.75,146l.78-8.63.91-8.23-.93-1.81-3.29-2.06-13-7.88c-.24.44-7.31,8.26-10.29,10.92l-7.64-5.58-11-9.5c6.12-6.38,15.58-15.83,19.37-19.81C78.1,98.36,100.66,125,105.11,130Z" style="fill:#c33233;fill-rule:evenodd"/><path d="M111.89,122.4l4.15,1.12,7.53-3.09,8-4.14,4.44-2.68,2.73,3.48,5,4.84,18.6-15.08C156.25,100.48,146.8,91,143,87,136.57,92,116.34,117.4,111.89,122.4Z" style="fill:#c33233;fill-rule:evenodd"/><polygon points="160.15 193.74 162.48 189.27 164.24 178.44 165.03 168.04 166.13 165.16 168.1 146.29 167.57 161.18 167.11 174.57 167.2 191.96 160.15 193.74" style="fill:#c33233;fill-rule:evenodd"/><path d="M126,100.7c3.4,1.21,13.06,13.9,19.22,19.39l19.26-15.61c-6.34-6.6-16.13-16.38-20-20.5A143.59,143.59,0,0,0,126,100.7Z" style="fill:#ed1c24;stroke:#000;stroke-miterlimit:22.925600000000003;stroke-width:1.0001px;fill-rule:evenodd"/><path d="M125.75,98.77c2.58.31,11,5.58,15.57,8.54l10.83-14c-2.89-2.47-6.5-8-10.24-9.06C137,85.24,130.86,91.72,125.75,98.77Z" style="fill:#c33233;stroke:#000;stroke-linejoin:round;stroke-width:1.0006000000000002px;fill-rule:evenodd"/><path d="M145.17,113.84l12.82-10-3.78-3.78-12.48,10S145,114,145.17,113.84Z" style="fill:none;stroke:#000;stroke-linejoin:round;stroke-width:1.0006000000000002px;fill-rule:evenodd"/><path d="M140.84,109l12.82-10-3.78-3.78-12.48,10S140.66,109.14,140.84,109Z" style="fill:none;stroke:#000;stroke-linejoin:round;stroke-width:1.0006000000000002px;fill-rule:evenodd"/><line x1="145.06" y1="113.73" x2="154.22" y2="100.33" style="fill:none;stroke:#000;stroke-linejoin:round;stroke-width:0.5px;stroke-dasharray:2.500200033187866,1.500100016593933"/><line x1="140.73" y1="108.89" x2="149.89" y2="95.49" style="fill:none;stroke:#000;stroke-linejoin:round;stroke-width:0.5px;stroke-dasharray:2.500200033187866,1.500100016593933"/><line x1="142.08" y1="110.29" x2="157.77" y2="103.76" style="fill:none;stroke:#000;stroke-linejoin:round;stroke-width:0.5px;stroke-dasharray:2.500200033187866,1.500100016593933"/><line x1="137.75" y1="105.45" x2="153.44" y2="98.93" style="fill:none;stroke:#000;stroke-linejoin:round;stroke-width:0.5px;stroke-dasharray:2.500200033187866,1.500100016593933"/><path d="M132.79,106.06c3.38,1,8.39,9.07,12.5,12.29l17.35-14.26c-3.93-3.52-8.64-10-11.2-10.79" style="fill:none;stroke:#fff;stroke-linejoin:round;stroke-width:0.5px;stroke-dasharray:2.500200033187866,1.500100016593933;fill-rule:evenodd"/><path d="M131,101.6c3.38,1,10.33,10.67,14.44,13.89l14.37-11.74c-3.92-3.52-8.29-9.29-10.86-10.1" style="fill:none;stroke:#fff;stroke-linejoin:round;stroke-width:0.5px;stroke-dasharray:2.500200033187866,1.500100016593933;fill-rule:evenodd"/><path d="M87.83,107.85c-3.4,1.21-13.05,13.9-19.22,19.39L49.35,111.64c6.34-6.6,16.13-16.38,20-20.5A143.6,143.6,0,0,1,87.83,107.85Z" style="fill:#ed1c24;stroke:#000;stroke-miterlimit:22.925600000000003;stroke-width:1.0001px;fill-rule:evenodd"/><path d="M68.68,121,55.85,111l3.78-3.78,12.48,10S68.86,121.13,68.68,121Z" style="fill:none;stroke:#000;stroke-linejoin:round;stroke-width:0.5px;stroke-dasharray:2.500200033187866,1.500100016593933;fill-rule:evenodd"/><path d="M73,116.42l-12.82-10L64,102.68l12.48,10S73.19,116.56,73,116.42Z" style="fill:none;stroke:#000;stroke-linejoin:round;stroke-width:0.5px;stroke-dasharray:2.500200033187866,1.500100016593933;fill-rule:evenodd"/><line x1="68.79" y1="120.88" x2="59.63" y2="107.48" style="fill:none;stroke:#000;stroke-linejoin:round;stroke-width:0.5px;stroke-dasharray:2.500200033187866,1.500100016593933"/><line x1="73.12" y1="116.31" x2="63.96" y2="102.91" style="fill:none;stroke:#000;stroke-linejoin:round;stroke-width:0.5px;stroke-dasharray:2.500200033187866,1.500100016593933"/><line x1="71.77" y1="117.44" x2="56.08" y2="110.91" style="fill:none;stroke:#000;stroke-linejoin:round;stroke-width:0.5px;stroke-dasharray:2.500200033187866,1.500100016593933"/><line x1="76.1" y1="112.87" x2="60.41" y2="106.34" style="fill:none;stroke:#000;stroke-linejoin:round;stroke-width:0.5px;stroke-dasharray:2.500200033187866,1.500100016593933"/><path d="M81.06,113.21c-3.38,1-8.39,9.07-12.5,12.29L51.21,111.25c3.92-3.52,8.64-10,11.2-10.79" style="fill:none;stroke:#fff;stroke-linejoin:round;stroke-width:0.5px;stroke-dasharray:2.500200033187866,1.500100016593933;fill-rule:evenodd"/><path d="M82.89,108.75c-3.38,1-10.33,10.67-14.44,13.9L54.07,110.9c3.92-3.52,8.29-9.29,10.86-10.1" style="fill:none;stroke:#fff;stroke-linejoin:round;stroke-width:0.5px;stroke-dasharray:2.500200033187866,1.500100016593933;fill-rule:evenodd"/><path d="M167,227.4l0-.49,0-3.81h-.1c1.08-4.58,1.21-13.25,1.3-20.1-41.25,2.71-87.23,3-123.45,1.1.05,8,.56,15.56,1.65,19.32L46.07,231h.26c-3,12.62-9,50.83-9.89,85.43,6.47,4.16,46,7.21,70.59,7.35,32.66.18,64-2.5,69.57-4.38-.31-31.88-2.49-73.28-9.39-88Z" style="fill:#7b8089;stroke:#231f20;stroke-linejoin:round;stroke-width:1.0006000000000002px;fill-rule:evenodd"/><path d="M170.54,246.29a112.78,112.78,0,0,0-4.71-17.89l-16,2.44L148.36,232l8.25,1.26,4.11,1.52,2.17,5.93.75,3.27h-.1L169.49,320l6.46-1C175.66,288.79,176.38,261.64,170.54,246.29Z" style="fill:#61656d;fill-rule:evenodd"/><path d="M39,274.45C26.11,274,12,279,8.42,282.26" style="fill:none;stroke:#fff;stroke-linejoin:round;stroke-width:0.5px;stroke-dasharray:2.500200033187866,1.500100016593933;fill-rule:evenodd"/><polygon points="146.51 224.59 148.2 221.4 152.94 217.54 155.86 216.96 156.4 217.76 155.68 218.69 152.85 219.64 149.24 222.13 148.41 224.16 146.51 224.59" style="fill:#61656d;fill-rule:evenodd"/><path d="M164.51,225.74l1.56-2.43c1.12-4.52,1.4-13.35,1.49-20.31l-5.8.61-.18,12.79-1.2,4-1.63,1.92-16.87,3.35Z" style="fill:#61656d;fill-rule:evenodd"/><path d="M119.18,248.95l47.39-2.2.9,48a414.24,414.24,0,0,1-47.53,1.71Z" style="fill:none;stroke:#000;stroke-miterlimit:22.925600000000003;stroke-width:1.0001px;fill-rule:evenodd"/><path d="M120.43,261.95l.57,33.2a304,304,0,0,0,45.35-1.61l-.41-33.28" style="fill:none;stroke:#fff;stroke-linejoin:round;stroke-width:0.5px;stroke-dasharray:2.500200033187866,1.500100016593933;fill-rule:evenodd"/><path d="M122.12,261.89l.56,31.56a280.07,280.07,0,0,0,42.05-1.6l-.41-31.53" style="fill:none;stroke:#fff;stroke-linejoin:round;stroke-width:0.5px;stroke-dasharray:2.500200033187866,1.500100016593933;fill-rule:evenodd"/><path d="M119.18,243.49c17.56,0,33.31-.76,48.15-1.83l.49,18.3a447.17,447.17,0,0,1-48.9,1.83Z" style="fill:#ed1c24;stroke:#000;stroke-linejoin:round;stroke-width:1.0001px;fill-rule:evenodd"/><path d="M120.36,243.75,120,260.57A416.83,416.83,0,0,0,166.65,259l-.2-17.07" style="fill:none;stroke:#fff;stroke-linejoin:round;stroke-width:0.5px;stroke-dasharray:2.500200033187866,1.500100016593933;fill-rule:evenodd"/><path d="M122.22,243.69l-.31,15c14.4.35,28.57-.42,42.69-1.45l-.06-15.17" style="fill:none;stroke:#fff;stroke-linejoin:round;stroke-width:0.5px;stroke-dasharray:2.500200033187866,1.500100016593933;fill-rule:evenodd"/><path d="M167.36,244.33c-14.86,1.13-30.55,1.84-47.43,1.94" style="fill:none;stroke:#fff;stroke-linejoin:round;stroke-width:0.5px;stroke-dasharray:2.500200033187866,1.500100016593933;fill-rule:evenodd"/><path d="M46.71,230.65c8,.53,34,1.63,60.89,1.78s53.44-.87,59.34-1.73" style="fill:none;stroke:#fff;stroke-linejoin:round;stroke-width:0.5px;stroke-dasharray:2.500200033187866,1.500100016593933;fill-rule:evenodd"/><path d="M46.71,224.24c8,.53,33.79,1.39,60.66,1.55s53.44-.87,59.34-1.73" style="fill:none;stroke:#fff;stroke-linejoin:round;stroke-width:0.5px;stroke-dasharray:2.500200033187866,1.500100016593933;fill-rule:evenodd"/><path d="M37.17,310.66c6,3.08,37.21,6.84,68.52,7s64.47-3,71.35-4.72" style="fill:none;stroke:#fff;stroke-linejoin:round;stroke-width:0.5px;stroke-dasharray:2.500200033187866,1.500100016593933;fill-rule:evenodd"/><path d="M44.75,204.47c8.95,1.65,39.77,3.19,59.71,3.66,23.33.55,55.08-1.16,63.82-3.56l-.11-14.47c-8.62,2.32-37.86,4.06-60.31,4.06-21.08,0-57.24-1.65-62.86-3.15Z" style="stroke:#000;stroke-linejoin:round;stroke-width:1.0006000000000002px;fill-rule:evenodd;fill:url(#b)"/><path d="M44.65,192.34c11,1.92,37.41,3.24,61.09,3.29,28.33.05,47.46-1.15,62.2-3.74" style="fill:none;stroke:#000;stroke-linejoin:round;stroke-width:0.5px;stroke-dasharray:2.500200033187866,1.500100016593933;fill-rule:evenodd"/><path d="M44.72,192.32a118.73,118.73,0,0,1-20.93-2.42c-8.3-1.73-13.72-3.18-15.59-5.63" style="fill:none;stroke:#000;stroke-linejoin:round;stroke-width:0.5px;stroke-dasharray:2.500200033187866,1.500100016593933;fill-rule:evenodd"/><path d="M44.37,203.19a160.91,160.91,0,0,1-20.31-1.91c-8.36-1.41-14.64-3.38-16.94-6.17" style="fill:none;stroke:#000;stroke-linejoin:round;stroke-width:0.5px;stroke-dasharray:2.500200033187866,1.500100016593933;fill-rule:evenodd"/><path d="M44.65,203.11c11,1.92,37.42,2.94,61.09,3.45,26.3.56,47.71-1.15,62.46-3.74" style="fill:none;stroke:#000;stroke-linejoin:round;stroke-width:0.5px;stroke-dasharray:2.500200033187866,1.500100016593933;fill-rule:evenodd"/><path d="M131.6,489.05c5,2.47,15.8,2.76,26.07,2,11.29-.89,22.16-3.09,23.82-5.81l-1-7.53-1.92-6.87c-.61,3.91-10.69,6.25-22.94,6.94-11,.61-24.44-.23-27.51-2.89l2,6.65Z" style="stroke:#000;stroke-linejoin:round;stroke-width:1.0006000000000002px;fill-rule:evenodd;fill:url(#c)"/><path d="M83.29,488.67c-5,2.37-17.66,3.12-27.93,2.34-11.29-.85-20.81-2.81-22.46-5.43l-1.59-7.48-.92-5.4c.61,3.76,14.76,4.9,27,5.55,11,.59,24.44-.22,27.51-2.78l-.46,6.39Z" style="stroke:#000;stroke-linejoin:round;stroke-width:1.0006000000000002px;fill-rule:evenodd;fill:url(#d)"/><path d="M172.32,281.38c2.22,1.32,27.13,12.72,30.92,7.73l1.28-7.68-28.62-9.1Z" style="fill:#61656d;stroke:#000;stroke-linejoin:round;stroke-width:1.0006000000000002px;fill-rule:evenodd"/><path d="M199.16,281.65c0,4.12.13,10.7-.22,14.44-.21,2.14-1.8,8.26-3.54,9.85a9.93,9.93,0,0,1-5.1,2.83c-2.87,3.13-5.37,5.77-8.72,5.76-2.72,3-3.55,3.75-5.16,3.46-2.08-.38-.39-4.53.2-8.33a2.18,2.18,0,0,1-2.71-1.87c-.8-5.66.11-12.76-.25-17.08a27.67,27.67,0,0,1,3.13-9.47,30,30,0,0,1,4.22-5.16Z" style="fill:#fdd6ba;stroke:#000;stroke-miterlimit:22.925600000000003;stroke-width:1.0001px;fill-rule:evenodd"/><path d="M198.26,281.45c0,4.12.13,10.7-.22,14.44-.2,2.14-1.77,8.26-3.48,9.85a9.16,9.16,0,0,1-5,2.46l-3.71,3.88-3,1.74.62-1.5,3.28-2.76,3.22-7.49.77-3.3,2.52-2.72-.1-2.74L188,283.52l-5.63-2H178.8l-1.95,1.31,2.35-4.44Z" style="fill:#ecc7b1;fill-rule:evenodd"/><polygon points="86.7 69.42 85.75 84.96 100.78 101.43 104.94 101.97 124.3 88.66 124.3 72.21 123.26 55.03 108.37 60.09 86.7 69.42" style="fill:#fdd6ba;stroke:#000;stroke-miterlimit:22.925600000000003;stroke-width:1.0001px;fill-rule:evenodd"/><polygon points="102.13 83.16 105 85.02 110.58 83.57 119.23 77.09 117.43 83.57 107.34 95.29 112.56 95.11 123.74 83.57 123.74 71.5 122.66 63.21 121.03 61.95 102.13 83.16" style="fill:#ecc7b1;stroke:#ecc7b1;stroke-miterlimit:22.925600000000003;stroke-width:1.0001px;fill-rule:evenodd"/><polygon points="87.15 72.37 95.81 81.68 91.62 79.81 89.5 78.7 88.18 79.52 87.6 81.32 90.08 87.25 86.98 84.93 86.72 81.88 87.15 72.37" style="fill:#ecc7b1;stroke:#ecc7b1;stroke-miterlimit:22.925600000000003;stroke-width:1.0001px;fill-rule:evenodd"/><polygon points="90.04 103.44 95.87 114.92 102.64 124.02 107.51 124.02 121.34 106.16 108.95 96.96 98.09 97 90.04 103.44" style="fill:#fff;stroke:#000;stroke-linejoin:round;stroke-width:1.0006000000000002px;fill-rule:evenodd"/><polygon points="91.52 105.98 98.6 96.81 99.76 97.39 100.34 115.73 98.02 114.68 98.95 107.14 98.95 99.48 96.74 102.96 94.65 108.65 91.52 105.98" style="fill:#a5c3d2;fill-rule:evenodd"/><polygon points="117.52 108.53 107.88 96.81 106.72 97.39 107.54 99.48 109.74 102.96 113.8 112.36 117.52 108.53" style="fill:#a5c3d2;fill-rule:evenodd"/><path d="M100,97.28c.4,9.4-.17,16.79,0,27.74" style="fill:none;stroke:#000;stroke-linejoin:round;stroke-width:1.0006000000000002px;fill-rule:evenodd"/><path d="M105.86,125.21l.51-27.12-5.49,0c.36,9.25,0,14.51.15,25.11" style="fill:none;stroke:#000;stroke-linejoin:round;stroke-width:0.5px;stroke-dasharray:2.500200033187866,1.500100016593933;fill-rule:evenodd"/><path d="M85.54,80.23c.77,3.61,5.08,10.14,14.56,16.59-4.38,3.5-9.6,13.65-13.16,18.66-3.85-7.64-4.36-18.64-5.22-25.74Z" style="fill:#fff;stroke:#000;stroke-linejoin:round;stroke-width:1.0006000000000002px;fill-rule:evenodd"/><path d="M107.16,122.87a53.9,53.9,0,0,0-9-10.34C92.94,101.87,89.74,96.08,83,87.14L75.81,95.5l17.37,18.66,14,10.78Z" style="fill:#6d6e71;stroke:#000;stroke-miterlimit:22.925600000000003;stroke-width:1.0001px;fill-rule:evenodd"/><path d="M94.75,124.42c2.72,1.7,5.33,3.37,7.58,5.11l4.84-6.53c-2.79-2.4-5.23-4.15-7.58-5.84Z" style="fill:#ed1c24;stroke:#000;stroke-miterlimit:22.925600000000003;stroke-width:1.0001px;fill-rule:evenodd"/><path d="M99.59,117.16a69.74,69.74,0,0,1-9.26-7.61c-7.1-7.07-16.46-16.41-23.9-22.82l-7,10.56c6.52,3.73,13.29,10.62,22,18,4,3.38,8.8,6.27,13.33,9.1Z" style="fill:#6d6e71;stroke:#000;stroke-miterlimit:22.925600000000003;stroke-width:1.0001px;fill-rule:evenodd"/><path d="M64,86C66.9,79.19,76.48,66.09,86.3,64l.12,6.24-.07,12.51A36.67,36.67,0,0,1,87,92.85c-1.72.26-5,3-7,6.63Z" style="fill:#6d6e71;stroke:#000;stroke-miterlimit:22.925600000000003;stroke-width:1.0001px;fill-rule:evenodd"/><path d="M80.61,48.87,81.21,56c.16,1.89,2.37,11.53,4.84,15.56,2.18,3.56,4.43,6.16,9.52,10.78,3.81,2,10.66,1.79,16.1-1.86,5.74-5.29,9.37-10.07,11.7-16.73a18.28,18.28,0,0,0,.82-5.49l-.52-13,3.7-8.33-3.87-11.8-8.85-9.89-11.52-5.07L89.64,15.89l-10.76,9.2-1,8,.38,4.49,1.35,5.26-.11,1.87Z" style="fill:#fdd6ba;stroke:#000;stroke-miterlimit:22.925600000000003;stroke-width:1.0001px;fill-rule:evenodd"/><path d="M127.69,57.72c.91-4.12,5.05-12.87,1.5-15.45l-1.58-.17-2.24.52-1.71,4.17.53,10.59C124.78,58.82,126.36,59.29,127.69,57.72Z" style="fill:#ecc7b1;stroke:#000;stroke-miterlimit:22.925600000000003;stroke-width:1.0001px;fill-rule:evenodd"/><path d="M121.14,48.68l-3.85,18.64-4.79,8-4.35,5.4-3.35.8L101.84,80l-1.91,1,0,1.06c1.18.66,2.37.38,3.53.34a13.5,13.5,0,0,0,7.5-2.58c3-2.1,5.93-5.46,9.54-11.45l2.28-5.5.6-4.71-.13-6.81.45-9.4-7.48-25.47-10-.46-4.84,4.29,6.2.91,5,2.87,3.24,10.23,3.79,3.94Z" style="fill:#ecc7b1;stroke:#ecc7b1;stroke-linejoin:round;stroke-width:1.0001px;fill-rule:evenodd"/><polygon points="124.49 44.68 119.01 34.45 118.29 32.6 117.8 27.13 115.73 21.95 112.79 19.99 104.94 19.47 99.82 21.84 93.24 22.02 88.86 24.4 82.83 29.52 81.18 31.27 80.12 33.44 80.36 40.99 79.81 46.44 81.88 50.35 81.29 54.07 79.38 46.73 77.89 35 82.28 21.66 96.17 11.24 110.24 12.52 122.3 18 126.86 27.87 126.5 40.48 124.49 44.68" style="fill:#ecc7b1;stroke:#ecc7b1;stroke-miterlimit:22.925600000000003;stroke-width:1.0001px;fill-rule:evenodd"/><path d="M80.84,54l-1.4-5.52c-.06-1.78-2.31-3.71-2.08-5.68-.61-2.36,1.28-3.06.84-5.43-.31-.31.14-2.22-.06-2.71-.41-2.14.34-2.13.27-4.29,0,0,1.71-2.11.94-1.93.16-.87.9-1.63.82-2.68.32-.4-.26-2.93,0-3.35.91-1.09-.2-1.65.68-2.75.47-.68,1.21-2.09,1.72-2.84.88-.87,2.46-2.21,2.75-3.53.39-.92,1.28-.63,2-.63,1.41-.27,0-2,1.32-2.07.53,0,2-.19-.29-.28l5.95-2.78a7.44,7.44,0,0,0,2.2-.62c1.43-.9,3-.85,4.68-1l.07-.12c.8.31,1.8-.09,2.59.21a1.94,1.94,0,0,1,1.48.22l.1-.08c.77.37,1.49.36,2.14,1l1.16.55,1,1.22,2.6-.7,2.43,1.22.52.87h2.08l2.08,1.91,2.6.52a5.72,5.72,0,0,0,2.27,2.15,4.7,4.7,0,0,1,1.06,1.19c.4,1,1.75,2.9,1.66,3.92a.83.83,0,0,1,.28.62l1,1.84.52,3.12-.52.87,1,2.43a2.75,2.75,0,0,0,.1,1,2.45,2.45,0,0,1,.62,1.39c.63,1.56-.15,3.27-.46,4.77a7.63,7.63,0,0,1-.66,1.43l-.11,1.27-.69,3.47a23.51,23.51,0,0,0-1.38,2.27c-.13.62-.73.71-.86,1.32a1,1,0,0,1-.2.34,6.59,6.59,0,0,1-.85,3.09c-.4.39-.44,4.2-1.69,2.92-.44-.67-.11-2-.18-2.75s.33-1.18.34-1.93a4.11,4.11,0,0,0-.42-2.62,10.45,10.45,0,0,1-.29-1l-1.43-4a6.94,6.94,0,0,1,3.52,2.16c.41.36.42.44.52,0s-1.37-1.66-1.61-1.94c-.73-.87-1.86-1-2.64-1.84-.26-.17-.45-.27-.71-.45l-.62-1.31a12.49,12.49,0,0,1,1.92.45,5,5,0,0,1,3.15,1.69c.91.76.42-.94-.21-1-.33-.38-.1-.4-.58-.7-.61-.73-1.38-.77-2.1-1.22a1,1,0,0,0-.39-.32,6.16,6.16,0,0,1-3.14-1.88c0-.2,1.23.26,1.61.22.82.32,1.91-.07,2.72.39.29.07.94.11,1,.46.32.79,1.45-.3.26-1a11.7,11.7,0,0,0-3.78-1.45c-.59-.06-.91-.54-1.46-.65l.5-2.87-2.26-6.94-3-3.3-2,.42c-.24-2.62-3.87-5-6.2-5.53l-1.43-.56a4.07,4.07,0,0,0-2.18-.5,3.65,3.65,0,0,0-.71.09,0,0,0,0,0,0,0,2.92,2.92,0,0,1,1.48.3A22.63,22.63,0,0,1,105.4,14c1.65.73,4.43,3,4.26,5,0,.37-.59.4-.72.08a16.37,16.37,0,0,0-5-4.08l-1.79-.7c-.41,0-5.15-.64-5.39-.22-.06.13.6.11.71.12a31.14,31.14,0,0,1,4.33,1.08,9.88,9.88,0,0,1,2.5,2,1.94,1.94,0,0,0,.41.31c.28.71,1,1,1.39,1.66-1.62-.06-1.47,0-2.55-.89a19.92,19.92,0,0,0-2.33-1.13,1.19,1.19,0,0,0-.51-.26c-2.26,0-4.41-.44-6.68-.27-.14,0-1.87-.26-2,.21,0,.13.38-.09.39-.1,1.22.11,2.35.57,3.59.68,1.44.13,2.7,1,4.17,1.08a3.31,3.31,0,0,0,.66.43c.48.59,1.18.86,1.66,1.44l-.43.32c-1-.43-1.83-1.25-2.95-1.38a2.23,2.23,0,0,0-1.49-.21,9.06,9.06,0,0,0-3.77.14c-1.05-.21-3,1.35-3.48,2a17,17,0,0,0-1.45,1l.36-.14a9.48,9.48,0,0,1,1.37-.73c.83-.31,3.32-1.9,4.1-.69a5.9,5.9,0,0,1,2.58.12A4.09,4.09,0,0,1,99.51,22a4.7,4.7,0,0,0-1.2-.38,5.31,5.31,0,0,0-3.57.34c-.8,1.83-4.68,2.65-5.3,3.56A6.22,6.22,0,0,0,87.67,29c-.26,1.21-1.4,1.05-.94-.12a6.66,6.66,0,0,1,.58-3A2.36,2.36,0,0,1,88,24.49c-1.75-.48-1.47-.6-2.36.7-1,1-2.2,4-1.63,5.43.17.82-.37.34-.42-.3a6.52,6.52,0,0,1,.07-3.24,11.11,11.11,0,0,1,1-3c-1.37,1-2.81,1.8-3,3.59a10.62,10.62,0,0,0-.3,3.17c0,.24,1,4.38.77,4.57s-.24-.93-.71-1.66a17.53,17.53,0,0,1-1.19-3.17l-1.07,4.29c.27,1.83.57,3.09,0,4.81-.48.72-1,3.45.79,2.25.6-.6-.42,3.52-.48,3.61l.72,2.07Z" style="fill:#6d4725;stroke:#000;stroke-miterlimit:22.925600000000003;stroke-width:1.0001px;fill-rule:evenodd"/><path d="M124.61,79.63c-1,7.53-10.71,12-18.35,17.42,2.86,1.77,7.71,10.14,11.4,14.52,3.85-7.64,10.25-12,11.28-20.88Z" style="fill:#fff;stroke:#000;stroke-linejoin:round;stroke-width:1.0006000000000002px;fill-rule:evenodd"/><path d="M92.51,44.32l2.63,3.24-.81,10.88-.56,1.91-1,1.07L91,64.32l-.16-1.92,1.6-3,1.76-5.71-.1-5.88c-5.67-2.67-6.41-2-9.11.62l-1.7.2-1.6-.47,1.56-2.4,3.41-1.81Z" style="fill:#ecc7b1;stroke:#ecc7b1;stroke-linejoin:round;stroke-width:1.0001px;fill-rule:evenodd"/><polygon points="102.75 56.69 103.84 59.35 103.09 59.91 104.52 59.57 105.62 60.35 107.35 63.24 108.41 62.98 107.69 59.6 105.91 58.32 104.53 57.17 102.75 56.69" style="fill:#ecc7b1;stroke:#ecc7b1;stroke-linejoin:round;stroke-width:1.0001px;fill-rule:evenodd"/><polygon points="104.64 70.2 102.39 71.1 100.38 71.17 97.68 71.67 96.41 71.33 96.3 72.27 98.42 73.43 101.88 73.01 103.25 72.31 104.57 71.14 104.64 70.2" style="fill:#ecc7b1;stroke:#ecc7b1;stroke-linejoin:round;stroke-width:1.0001px;fill-rule:evenodd"/><polygon points="82.18 46.96 83.04 44.53 84.26 42.8 86.86 43.14 92.94 43.32 93.46 44.71 88.6 45.18 84.93 44.81 82.18 46.96" style="stroke:#000;stroke-linejoin:round;stroke-width:1.0001px;fill-rule:evenodd"/><path d="M100.89,43,100,45.49l3.31,1.23q2.94-4.84,9.31-.86l2.88-.69,1.28-1.52-8.21-2.57Z" style="fill:#ecc7b1;stroke:#ecc7b1;stroke-miterlimit:22.925600000000003;stroke-width:1.0001px;fill-rule:evenodd"/><polygon points="101.12 42.56 102.51 44.47 105.98 42.56 109.97 42.21 115.53 42.91 109.97 41 107.71 40.13 103.89 41.17 101.12 42.56" style="stroke:#000;stroke-linejoin:round;stroke-width:1.0001px;fill-rule:evenodd"/><path d="M93.47,47.76c-1.84-.84-5.17-2.59-7.67.49C87.09,50.37,93.22,49.44,93.47,47.76Z" style="fill:#eef0f5;stroke:#eef0f5;stroke-linejoin:round;stroke-width:1.0001px;fill-rule:evenodd"/><path d="M111.68,45.51c-1.84-.84-5.17-2.59-7.67.49C105.3,48.12,111.43,47.2,111.68,45.51Z" style="fill:#eef0f5;stroke:#eef0f5;stroke-linejoin:round;stroke-width:1.0001px;fill-rule:evenodd"/><path d="M93.71,48c-3.14-1.91-5.63-1.66-7.8.54l1.63.91" style="fill:none;stroke:#c1d1e1;stroke-linecap:round;stroke-linejoin:round;stroke-width:1.0001px;fill-rule:evenodd"/><path d="M111.91,45.67c-3.41-1.1-6.13-.81-8,1l2.3.66" style="fill:none;stroke:#c1d1e1;stroke-linecap:round;stroke-linejoin:round;stroke-width:1.0001px;fill-rule:evenodd"/><ellipse cx="89.31" cy="48.01" rx="1.95" ry="1.49" style="fill:#3d2816;stroke:#3d2816;stroke-linejoin:round;stroke-width:0.5px"/><ellipse cx="89.21" cy="48.02" rx="0.86" ry="0.63" style="stroke:#000;stroke-miterlimit:22.925600000000003;stroke-width:0.5px"/><ellipse cx="90.34" cy="47.62" rx="0.56" ry="0.19" transform="translate(-8.8 23.1) rotate(-13.9)" style="fill:#eef0f5;stroke:#eef0f5;stroke-linejoin:round;stroke-width:0.5px"/><path d="M85.22,48.72c1.08-2.65,5.48-3,9-.87" style="fill:none;stroke:#231f20;stroke-linecap:round;stroke-linejoin:round;stroke-width:1.0001px;fill-rule:evenodd"/><polyline points="93.38 44.63 95.19 47.66 95.54 48.87 94.5 57.55 94.5 58.77 96.58 60.5 98.67 61.02" style="fill:none;stroke:#231f20;stroke-linejoin:round;stroke-width:1.0001px;fill-rule:evenodd"/><polyline points="99.71 59.98 99.88 59.11 100.75 58.94 102.31 59.63" style="fill:none;stroke:#231f20;stroke-linejoin:round;stroke-width:1.0001px;fill-rule:evenodd"/><polyline points="103.35 59.29 103.87 58.24 102.14 56.68" style="fill:none;stroke:#231f20;stroke-linejoin:round;stroke-width:1.0001px;fill-rule:evenodd"/><polyline points="95.71 60.67 94.15 60.67 93.81 59.81 94.67 58.42" style="fill:none;stroke:#231f20;stroke-linejoin:round;stroke-width:1.0001px;fill-rule:evenodd"/><polygon points="92.35 68.89 93.88 69.06 96.23 68.31 99.53 68.66 102.31 67.62 104.91 67.62 107.24 67.1 106.98 66.46 106.03 67.11 104.57 67.1 102.14 66.4 99.71 67.44 98.32 67.44 96.23 67.1 94.09 68.61 92.43 68.03 92.35 68.89" style="fill:#440204;stroke:#440204;stroke-linejoin:round;stroke-width:1.0001px;fill-rule:evenodd"/><polyline points="95.54 70.74 97.62 71.61 100.4 70.92 102.48 70.92 105.26 69.7" style="fill:none;stroke:#440204;stroke-linejoin:round;stroke-width:1.0001px;fill-rule:evenodd"/><ellipse cx="107.14" cy="45.95" rx="2.06" ry="1.57" style="fill:#3d2816;stroke:#3d2816;stroke-linejoin:round;stroke-width:0.5px"/><ellipse cx="107.03" cy="45.96" rx="0.91" ry="0.66" style="stroke:#000;stroke-miterlimit:22.925600000000003;stroke-width:0.5px"/><ellipse cx="108.22" cy="45.54" rx="0.59" ry="0.2" transform="translate(-7.8 27.54) rotate(-14)" style="fill:#eef0f5;stroke:#eef0f5;stroke-linejoin:round;stroke-width:0.5px"/><path d="M103.47,46.84c1-2.81,4.1-3.48,9.08-1.18" style="fill:none;stroke:#231f20;stroke-linecap:round;stroke-linejoin:round;stroke-width:1.0001px;fill-rule:evenodd"/><path d="M118.18,90.1l3.05-1.66L123,89c1.39,1.78,1.48,3.11,2.91,6.86a10.85,10.85,0,0,0,2.3-5.23l-3.49-9.22C124.11,84.79,120.88,88.07,118.18,90.1Z" style="fill:#a5c3d2;fill-rule:evenodd"/><polyline points="92.91 68.86 93.89 69.3 96.33 68.42 99.55 68.86 102.34 67.83 104.92 67.74 106.53 67.37 107.02 66.91" style="fill:none;stroke:#231f20;stroke-miterlimit:22.925600000000003;stroke-width:0.5px;fill-rule:evenodd"/><polyline points="125.42 48.54 127.94 44.52 128.97 44.18" style="fill:none;stroke:#231f20;stroke-linejoin:round;stroke-width:1.0001px;fill-rule:evenodd"/><polyline points="125.88 51.75 126.79 51.75 127.25 52.78 127.59 55.19" style="fill:none;stroke:#000;stroke-linejoin:round;stroke-width:1.0001px;fill-rule:evenodd"/><path d="M115.89,208.9c-.24,9.65-.52,20-.83,29.21-.68,20.59-1.25,41-1.6,61.39-.13,7.66.18,16.52,0,24.27l-17.66-.07c0-7,0-17.06.31-24.34,1.15-31.32,1.6-61.31,2.14-91.5h0c.07-4.22.14-9.8.21-13.89l17.72.09c0,.2,0,.7,0,.9-.08,4.27-.18,9.5-.29,13.93Z" style="fill:#7b8089;stroke:#231f20;stroke-linejoin:round;stroke-width:1.0006000000000002px;fill-rule:evenodd"/><path d="M98.36,207.85c.4-25.35-2.1-61,1.17-74.93l2.49-3.15,13.79-11.83c-.5,25.61.74,64.69.27,90.3Z" style="fill:#ed1c24;stroke:#000;stroke-miterlimit:22.925600000000003;stroke-width:1.0001px;fill-rule:evenodd"/><path d="M104.51,126.44l23.86-42.7L135,74l7.39,4.29L127.89,97.58,108.57,123.1Z" style="fill:#ed1c24;stroke:#231f20;stroke-miterlimit:22.925600000000003;stroke-width:1.0001px;fill-rule:evenodd"/><path d="M99.52,132.86c6.12-13.35,18.28-24,27.41-35.89,2,1.17,6.93,9.55,9.89,14C124.89,119.38,105.92,124.41,99.52,132.86Z" style="fill:#ed1c24;stroke:#000;stroke-linejoin:round;stroke-width:1.0001px;fill-rule:evenodd"/><path d="M126.78,98.31c2,1.17,5.65,8.28,8.62,12.68-12.06,7.43-26.58,12-34,18.88" style="fill:none;stroke:#fff;stroke-linejoin:round;stroke-width:0.5px;stroke-dasharray:2.500200033187866,1.500100016593933;fill-rule:evenodd"/><path d="M125.76,99.32c2,1.17,4.13,6.75,7.09,11.15-10.91,6.29-23.65,10.81-29.41,15.83" style="fill:none;stroke:#fff;stroke-linejoin:round;stroke-width:0.5px;stroke-dasharray:2.500200033187866,1.500100016593933;fill-rule:evenodd"/><path d="M126.92,97.39c2.67.32,10.58,6.13,15.27,9.19l12.33-20.36c-4.11-2.69-10-7.54-13.88-8.68C136.78,83.88,132.21,90.1,126.92,97.39Z" style="fill:#ed1c24;stroke:#000;stroke-miterlimit:22.925600000000003;stroke-width:1.0001px;fill-rule:evenodd"/><polyline points="181.66 314.46 185.24 307.59 187.48 299.82 188.98 298.17" style="fill:none;stroke:#000;stroke-miterlimit:22.925600000000003;stroke-width:1.0001px;fill-rule:evenodd"/><polyline points="190.47 308.78 193.76 304.45 196.6 298.47 197.34 297.43" style="fill:none;stroke:#000;stroke-miterlimit:22.925600000000003;stroke-width:1.0001px;fill-rule:evenodd"/><polyline points="189.13 309.98 190.51 307.51 191.97 303.4 193.61 298.77 194.65 297.73" style="fill:none;stroke:#000;stroke-miterlimit:22.925600000000003;stroke-width:1.0001px;fill-rule:evenodd"/><path d="M139.32,74.78c-4.93-3.45-9-12-15.36-13.14l-.69,2.31.77,7.14.55,7.54-.2,7.76-2,7.93,2.4,1.26A205,205,0,0,0,139.32,74.78Z" style="fill:#6d6e71;stroke:#000;stroke-linejoin:round;stroke-width:1.0006000000000002px;fill-rule:evenodd"/><path d="M108.89,118.48c4.58-9.54,10.24-15,16.52-22.7A153.09,153.09,0,0,0,139.34,76" style="fill:none;stroke:#000;stroke-linejoin:round;stroke-width:1.4173px;stroke-dasharray:1.4172999858856201,1.4172999858856201;fill-rule:evenodd"/><path d="M106,122.68c-7.08-5.48-11.69-7.5-15.51-11.71-8.84-9.76-17.32-15.54-24.7-22.64" style="fill:none;stroke:#000;stroke-linejoin:round;stroke-width:1.4173px;stroke-dasharray:1.4172999858856201,1.4172999858856201;fill-rule:evenodd"/><path d="M168.73,101.47c-5.34,18.17-5.85,69-1,87.76" style="fill:none;stroke:#fff;stroke-linejoin:round;stroke-width:0.5px;stroke-dasharray:2.500200033187866,1.500100016593933;fill-rule:evenodd"/><path d="M173.85,104.34c-4.57,15.25-6.92,41.56-6,65.51" style="fill:none;stroke:#fff;stroke-linejoin:round;stroke-width:0.5px;stroke-dasharray:2.500200033187866,1.500100016593933;fill-rule:evenodd"/><path d="M39.55,105.2c6.27,15,8.63,39.63,6.18,65.3" style="fill:none;stroke:#fff;stroke-linejoin:round;stroke-width:0.5px;stroke-dasharray:2.500200033187866,1.500100016593933;fill-rule:evenodd"/><path d="M44.58,102.18c5.34,18.17,7.84,62.95.78,88.6" style="fill:none;stroke:#fff;stroke-linejoin:round;stroke-width:0.5px;stroke-dasharray:2.500200033187866,1.500100016593933;fill-rule:evenodd"/><path d="M110.84,323.15c-.19-5.36-.27-13.17-.24-21.57.07-18.49.83-41.25,1.31-53,1.11-27.65,1.14-38.35,1.58-66,.44-27.34-1.14-44.22-.47-58" style="fill:none;stroke:#fff;stroke-linejoin:round;stroke-width:0.5px;stroke-dasharray:2.500200033187866,1.500100016593933;fill-rule:evenodd"/><path d="M113.8,322.51l-16.65,0c0-4.91,0-10.61.08-17.27.37-18.41,1.2-40.92,1.39-49.58.62-28,.65-39.32,1.1-67,.44-27.34-1.95-43.57,1.64-57.35" style="fill:none;stroke:#fff;stroke-linejoin:round;stroke-width:0.5px;stroke-dasharray:2.500200033187866,1.500100016593933;fill-rule:evenodd"/><path d="M113.8,320.54l-14.89,0c0-4.86,0-10.5.07-17.09.33-18.22,1.07-40.5,1.24-49.07.55-27.68.58-38.92,1-66.29.4-27.06-1.58-43.93,1.63-57.56" style="fill:none;stroke:#fff;stroke-linejoin:round;stroke-width:0.5px;stroke-dasharray:2.500200033187866,1.500100016593933;fill-rule:evenodd"/><path d="M128,96.45c3.38,1,9.07,5.41,13.76,8.4l11.17-18.38c-4.15-2.84-9.9-7.11-12.46-7.93" style="fill:none;stroke:#fff;stroke-linejoin:round;stroke-width:0.5px;stroke-dasharray:2.500200033187866,1.500100016593933;fill-rule:evenodd"/><path d="M129.14,94.86c3.38,1,7.49,4,12.17,7l9.15-14.63c-4.15-2.83-7.44-5.67-11-7.06" style="fill:none;stroke:#fff;stroke-linejoin:round;stroke-width:0.5px;stroke-dasharray:2.500200033187866,1.500100016593933;fill-rule:evenodd"/><path d="M66.41,88.49,61.1,96.94c7.81,5.19,14.79,12.13,21.69,18,5.7,4.83,13,8.42,19.09,13" style="fill:none;stroke:#fff;stroke-linejoin:round;stroke-width:0.5px;stroke-dasharray:2.500200033187866,1.500100016593933;fill-rule:evenodd"/><path d="M84.63,477.18c-4.1,2-16.08,3-28.58,2.24-9.26-.56-25.47-1.62-25.4-5.13" style="fill:none;stroke:#000;stroke-linejoin:round;stroke-width:0.5px;stroke-dasharray:2.500200033187866,1.500100016593933;fill-rule:evenodd"/><path d="M83.41,487.27c-3.84,2-14.69,3.48-26.39,2.73-8.66-.55-24.45-3-24.38-6.46" style="fill:none;stroke:#000;stroke-linejoin:round;stroke-width:0.5px;stroke-dasharray:2.500200033187866,1.500100016593933;fill-rule:evenodd"/><path d="M128.58,476.6c4,2.42,14.46,2.92,25.38,2.6,16.85-.51,25.24-4.37,25.28-6.7" style="fill:none;stroke:#000;stroke-linejoin:round;stroke-width:0.5px;stroke-dasharray:2.500200033187866,1.500100016593933;fill-rule:evenodd"/><path d="M131.87,487.59c4,2.42,12.93,2.91,23.84,2.16,16.85-1.17,25.46-4.36,25.5-6.7" style="fill:none;stroke:#000;stroke-linejoin:round;stroke-width:0.5px;stroke-dasharray:2.500200033187866,1.500100016593933;fill-rule:evenodd"/><path d="M138.38,528.92c2.32-3.34,17.67-8.61,29.29-7.85,4.2.27,8.28,1,10.52,4.06" style="fill:none;stroke:#fff;stroke-linejoin:round;stroke-width:0.5px;stroke-dasharray:2.500200033187866,1.500100016593933;fill-rule:evenodd"/><path d="M75.4,528.27c-10.92-1.67-20.52-5.12-30.45-4.38-3.89.29-7.32,1-9.66,2.81" style="fill:none;stroke:#fff;stroke-linejoin:round;stroke-width:0.5px;stroke-dasharray:2.500200033187866,1.500100016593933;fill-rule:evenodd"/><polygon points="72.27 413.14 69.86 413.5 63.79 419.19 56.91 423.53 52.99 425.5 51.81 426.99 52.28 427.63 54.11 427.65 58.92 427.07 66.07 423.36 69.44 420.52 71.5 417.08 72.27 413.14" style="fill:#61656d;stroke:#61656d;stroke-linejoin:round;stroke-width:1.0006000000000002px;fill-rule:evenodd"/><path d="M50.54,226.48s-.55,2.17-.05,2.28.3-2.8.3-2.8" style="fill:none;stroke:#000;stroke-linecap:round;stroke-linejoin:round;stroke-width:0.5px;fill-rule:evenodd"/><path d="M67.18,228.39s.55-2.17.05-2.28-.3,2.8-.3,2.8" style="fill:none;stroke:#000;stroke-linecap:round;stroke-linejoin:round;stroke-width:0.5px;fill-rule:evenodd"/><path d="M56.84,226.42s.85,3.36.08,3.53-.46-4.33-.46-4.33" style="fill:none;stroke:#000;stroke-linecap:round;stroke-linejoin:round;stroke-width:0.5px;fill-rule:evenodd"/><path d="M49.11,232.9s-1,4.63-1.79,4.63,1.87-5.79,1.87-5.79" style="fill:none;stroke:#000;stroke-linecap:round;stroke-linejoin:round;stroke-width:0.5px;fill-rule:evenodd"/><path d="M59.49,226.14s-.9,2.75-.11,3.13" style="fill:none;stroke:#000;stroke-linecap:round;stroke-linejoin:round;stroke-width:0.5px;fill-rule:evenodd"/><path d="M131,227s-.9,2.75-.11,3.13" style="fill:none;stroke:#000;stroke-linecap:round;stroke-linejoin:round;stroke-width:0.5px;fill-rule:evenodd"/><path d="M82.51,227s.9,2.75.11,3.13" style="fill:none;stroke:#000;stroke-linecap:round;stroke-linejoin:round;stroke-width:0.5px;fill-rule:evenodd"/><path d="M73.28,226.52s-.51,1.56-.06,1.78" style="fill:none;stroke:#000;stroke-linecap:round;stroke-linejoin:round;stroke-width:0.5px;fill-rule:evenodd"/><path d="M155.43,222.77s-.69-2.09-.09-2.38" style="fill:none;stroke:#000;stroke-linecap:round;stroke-linejoin:round;stroke-width:0.5px;fill-rule:evenodd"/><path d="M58.09,222.77s.69-2.09.09-2.38" style="fill:none;stroke:#000;stroke-linecap:round;stroke-linejoin:round;stroke-width:0.5px;fill-rule:evenodd"/><path d="M79.64,226.48s.9,2.75.11,3.13" style="fill:none;stroke:#000;stroke-linecap:round;stroke-linejoin:round;stroke-width:0.5px;fill-rule:evenodd"/><path d="M59.86,225.64s1.16,3.56.15,4" style="fill:none;stroke:#000;stroke-linecap:round;stroke-linejoin:round;stroke-width:0.5px;fill-rule:evenodd"/><path d="M79.52,226.46s-1.16,3.56-.15,4" style="fill:none;stroke:#000;stroke-linecap:round;stroke-linejoin:round;stroke-width:0.5px;fill-rule:evenodd"/><path d="M48.76,225.68s-1.16,3.56-.15,4" style="fill:none;stroke:#000;stroke-linecap:round;stroke-linejoin:round;stroke-width:0.5px;fill-rule:evenodd"/><path d="M57.54,232.13s-2,4.36-1,4.84" style="fill:none;stroke:#000;stroke-linecap:round;stroke-linejoin:round;stroke-width:0.5px;fill-rule:evenodd"/><path d="M157.76,216.83s.51,5.37-1.48,6.33" style="fill:none;stroke:#000;stroke-linecap:round;stroke-linejoin:round;stroke-width:0.5px;fill-rule:evenodd"/><path d="M55.76,216.83s-.51,5.37,1.49,6.33" style="fill:none;stroke:#000;stroke-linecap:round;stroke-linejoin:round;stroke-width:0.5px;fill-rule:evenodd"/><path d="M135.71,217.75s.56,5.08-1,6.46c-.11.09.76-2.48-.24-3.63" style="fill:none;stroke:#000;stroke-linecap:round;stroke-linejoin:round;stroke-width:0.5px;fill-rule:evenodd"/><path d="M77.81,217.75s-.56,5.08,1,6.46c.11.09-.76-2.48.24-3.63" style="fill:none;stroke:#000;stroke-linecap:round;stroke-linejoin:round;stroke-width:0.5px;fill-rule:evenodd"/><path d="M66,238s-.49-4.43.9-5.64c.09-.08-.66,2.17.21,3.17" style="fill:none;stroke:#000;stroke-linecap:round;stroke-linejoin:round;stroke-width:0.5px;fill-rule:evenodd"/><path d="M149,215.21c-.21,1.29-1.75,7.08-2.44,8-.21,0,0-1.93-.24-2.67" style="fill:none;stroke:#000;stroke-linecap:round;stroke-linejoin:round;stroke-width:0.5px;fill-rule:evenodd"/><path d="M64.47,215.21c.21,1.29,1.75,7.08,2.44,8,.21,0,0-1.93.24-2.67" style="fill:none;stroke:#000;stroke-linecap:round;stroke-linejoin:round;stroke-width:0.5px;fill-rule:evenodd"/><path d="M167.41,214.18c.15,1.27-1.36,7.58-2.69,8.84-.23,0,.14-3.32-.62-5.46" style="fill:none;stroke:#000;stroke-linecap:round;stroke-linejoin:round;stroke-width:0.5px;fill-rule:evenodd"/><path d="M46.11,214.18c-.15,1.27,1.36,7.58,2.69,8.84.24,0-.14-3.32.62-5.46" style="fill:none;stroke:#000;stroke-linecap:round;stroke-linejoin:round;stroke-width:0.5px;fill-rule:evenodd"/><path d="M69.32,225.76s-1.17,3.56-.15,4" style="fill:none;stroke:#000;stroke-linecap:round;stroke-linejoin:round;stroke-width:0.5px;fill-rule:evenodd"/><path d="M69.29,225.88s1.17,3.56.15,4" style="fill:none;stroke:#000;stroke-linecap:round;stroke-linejoin:round;stroke-width:0.5px;fill-rule:evenodd"/><path d="M135.63,238.6a22.74,22.74,0,0,1-2.3-5.63l-.35,3.2" style="fill:none;stroke:#000;stroke-linecap:round;stroke-linejoin:round;stroke-width:0.5px;fill-rule:evenodd"/><path d="M77.89,238.6A22.74,22.74,0,0,0,80.2,233l.35,3.2" style="fill:none;stroke:#000;stroke-linecap:round;stroke-linejoin:round;stroke-width:0.5px;fill-rule:evenodd"/><path d="M78.3,32.45c-.81-6.14,2.12-14.08,7.1-19.95,4.79-5.64,10.49-9.62,19.46-9.92a18.2,18.2,0,0,1,5.54.79c13.72,3.12,22.29,17.95,20.4,30.6l-3.54,2.28-25.9-6.85L80.31,34.54S80.72,39.29,78.3,32.45Z" style="fill:#6d6e71;stroke:#000;stroke-miterlimit:22.925600000000003;stroke-width:1.0001px;fill-rule:evenodd"/><path d="M104.38,3a18.21,18.21,0,0,1,5.54.79c13.72,3.12,22,17.79,20.08,30.44l-6.42-.77C126.39,24.38,116.2,6.06,104.38,3Z" style="fill:#58595b;fill-rule:evenodd"/><path d="M79.54,45.84c.85-3.17,4.19-7.45,14.77-8.07,12.21-.71,18.61,2.42,25.18,4.85,7.4,2.75,10.82,4.94,11.11,6.55,0,0,1.85.41,2.19-1.11.17-.76,0-4.1-.1-7.56s-.07-6.52-.61-7.26-3.71-2.47-9.17-5c-6.6-3-12.11-8.13-29.48-6.66-14.84,1.26-16,8.77-16.82,10.16a24.43,24.43,0,0,0,.29,9.12c.73,4,.29,7.82,2.21,8.48C80.36,49.36,79.54,45.84,79.54,45.84Z" style="fill:#6d6e71;stroke:#000;stroke-miterlimit:22.925600000000003;stroke-width:1.0001px;fill-rule:evenodd"/><path d="M126,44.73c1.94.89,4.45,2.31,4.72,3.64,0,0,1.44.6,1.61-.88.09-.71-.09-4.07-.17-7.25s-.07-6-.57-6.67-.9-1.23-6-3.54c2.2.81,1.43,4.72,1.62,8.3S127.46,45.18,126,44.73Z" style="fill:#58595b;fill-rule:evenodd"/><path d="M106.32,3.06c-2.08-1.51-7,2.42-10.13,4.58" style="fill:none;stroke:#000;stroke-linejoin:round;stroke-width:1.0006000000000002px;fill-rule:evenodd"/><path d="M106.08,3.18c2.94-1.61,6.86,2.67,9.13,5.55" style="fill:none;stroke:#000;stroke-linejoin:round;stroke-width:1.0006000000000002px;fill-rule:evenodd"/><path d="M138.42,544.24c1.43,1.49,7.45,3.07,9.26,4.36,2,1.41,4.39,4.47,7.59,6,5.85,2.81,17.57,4.6,28.08,3.21,5.71-.76,7.83-3.3,8-4.23" style="fill:none;stroke:#000;stroke-linejoin:round;stroke-width:1.0006000000000002px;fill-rule:evenodd"/><path d="M166.86,526.22c.19,5.8,1.38,7.67,1.24,11.27-.07,1.93-8.91,3.69-9.09,8.38a6.79,6.79,0,0,1-3.44.2l-3.16-2.38a46.64,46.64,0,0,0-7.45-3.13l-.23,4" style="fill:none;stroke:#000;stroke-linejoin:round;stroke-width:1.0006000000000002px;fill-rule:evenodd"/><path d="M165.87,526c.18,5.51,1.34,7.75,1.18,11.17-.07,1.46-8.61,3.41-8.78,7.86a4.88,4.88,0,0,1-2.19.16l-3.44-2.6a67.1,67.1,0,0,0-8.49-3.31l-.36,4.8" style="fill:none;stroke:#000;stroke-linejoin:round;stroke-width:0.5px;stroke-dasharray:2.500200033187866,1.500100016593933;fill-rule:evenodd"/><path d="M168.83,526.27c1,2.75,4,6.71,7.75,10.6,1.34,1.39,3.18.93,5.63,2.14" style="fill:none;stroke:#000;stroke-linejoin:round;stroke-width:1.0006000000000002px;fill-rule:evenodd"/><path d="M170.36,526.59c.81,2.28,3.76,6,6.88,9.24,1.11,1.15,2.16,1.13,4.19,2.12" style="fill:none;stroke:#000;stroke-linejoin:round;stroke-width:0.5px;stroke-dasharray:2.500200033187866,1.500100016593933;fill-rule:evenodd"/><path d="M164.73,535.26c1.23-1.5,4.1-4.42,5.59-5.21" style="fill:none;stroke:#000;stroke-linecap:round;stroke-linejoin:round;stroke-width:2.0001px;fill-rule:evenodd"/><path d="M176,534.29c-1.4-1.64-6-4.15-8.22-3.78" style="fill:none;stroke:#000;stroke-linecap:round;stroke-linejoin:round;stroke-width:2.0001px;fill-rule:evenodd"/><path d="M152.3,543.6c.73-2.43,5.37-5.74,5.45-6.75.69-2.83.4-6.1-.22-9.8" style="fill:none;stroke:#000;stroke-linejoin:round;stroke-width:1.0001px;fill-rule:evenodd"/><path d="M151.55,543.16c.73-2.43,5.22-5.51,5.3-6.53.69-2.83.4-6.1-.22-9.8" style="fill:none;stroke:#000;stroke-linejoin:round;stroke-width:0.5px;stroke-dasharray:2.500200033187866,1.500100016593933;fill-rule:evenodd"/><path d="M149.83,542.41c.73-2.43,5.22-5.51,5.3-6.53.69-2.83.4-6.1-.22-9.8" style="fill:none;stroke:#000;stroke-linejoin:round;stroke-width:0.5px;stroke-dasharray:2.500200033187866,1.500100016593933;fill-rule:evenodd"/><polyline points="160.52 542.77 157.91 541.2 157.16 542.02 159.78 543.6" style="fill:none;stroke:#000;stroke-linejoin:round;stroke-width:0.5px;stroke-dasharray:2.500200033187866,1.500100016593933;fill-rule:evenodd"/><ellipse cx="156.9" cy="543.78" rx="0.64" ry="0.49" transform="translate(-308.7 222.01) rotate(-39.26)" style="fill:none;stroke:#000;stroke-linejoin:round;stroke-width:0.5px"/><path d="M165.8,535.23a1.21,1.21,0,0,0-1.25-1.11,1.11,1.11,0,0,0-1,1.23,1.21,1.21,0,0,0,1.25,1.1A1.11,1.11,0,0,0,165.8,535.23Z" style="fill:none;stroke:#000;stroke-linejoin:round;stroke-width:1.0001px;fill-rule:evenodd"/><path d="M177.06,533.54a1,1,0,0,0-1.35-.49,1.06,1.06,0,0,0,0,1.45A1,1,0,0,0,177,535,1.06,1.06,0,0,0,177.06,533.54Z" style="fill:none;stroke:#000;stroke-linejoin:round;stroke-width:1.0001px;fill-rule:evenodd"/><path d="M174.11,528.9a1,1,0,0,0-1.35-.49,1.06,1.06,0,0,0,0,1.45,1,1,0,0,0,1.35.49A1.06,1.06,0,0,0,174.11,528.9Z" style="fill:none;stroke:#000;stroke-linejoin:round;stroke-width:1.0001px;fill-rule:evenodd"/><path d="M164.44,530.36a1.21,1.21,0,0,0-1.25-1.1,1.11,1.11,0,0,0-1,1.23,1.21,1.21,0,0,0,1.25,1.1A1.11,1.11,0,0,0,164.44,530.36Z" style="fill:none;stroke:#000;stroke-linejoin:round;stroke-width:1.0001px;fill-rule:evenodd"/><polyline points="144.64 555.12 146.51 552.37 150.77 555.67" style="fill:none;stroke:#000;stroke-linecap:round;stroke-linejoin:round;stroke-width:1.0006000000000002px;fill-rule:evenodd"/><path d="M169.18,547.28s6.35-.12,11.34-.29c3-.1,5.5-.47,5.84-.13.92.92-2.75,1.56-5.09,1.65S169.18,547.28,169.18,547.28Z" style="fill:#7b8089;fill-rule:evenodd"/><path d="M91.68,248.7l-45.84-2.21-1,47.79A432.26,432.26,0,0,0,91,296.17Z" style="fill:none;stroke:#000;stroke-miterlimit:22.925600000000003;stroke-width:1.0001px;fill-rule:evenodd"/><path d="M90.47,261.69l-.55,33.2a340.37,340.37,0,0,1-43.86-1.61l.4-33.28" style="fill:none;stroke:#fff;stroke-linejoin:round;stroke-width:0.5px;stroke-dasharray:2.500200033187866,1.500100016593933;fill-rule:evenodd"/><path d="M88.84,261.64,88.3,293.2a327.34,327.34,0,0,1-40.68-1.6L48,260.07" style="fill:none;stroke:#fff;stroke-linejoin:round;stroke-width:0.5px;stroke-dasharray:2.500200033187866,1.500100016593933;fill-rule:evenodd"/><path d="M92.46,243.23c-17,0-32.19-.76-46.5-1.83l-1.25,18.3a416.37,416.37,0,0,0,47.23,1.83Z" style="fill:#ed1c24;stroke:#000;stroke-linejoin:round;stroke-width:1.0001px;fill-rule:evenodd"/><path d="M91.31,243.5,91,260.31a388.43,388.43,0,0,1-45.07-1.59l.92-17.07" style="fill:none;stroke:#fff;stroke-linejoin:round;stroke-width:0.5px;stroke-dasharray:2.500200033187866,1.500100016593933;fill-rule:evenodd"/><path d="M89.52,243.44l-.34,15A407.86,407.86,0,0,1,48,257l.71-15.17" style="fill:none;stroke:#fff;stroke-linejoin:round;stroke-width:0.5px;stroke-dasharray:2.500200033187866,1.500100016593933;fill-rule:evenodd"/><path d="M45.82,244.08c14.33,1.13,29.47,1.84,45.8,1.94" style="fill:none;stroke:#fff;stroke-linejoin:round;stroke-width:0.5px;stroke-dasharray:2.500200033187866,1.500100016593933;fill-rule:evenodd"/><rect x="135.18" y="90.32" width="16.02" height="4.81" transform="translate(-11.93 163.71) rotate(-57.51)" style="fill:none;stroke:#000;stroke-linejoin:round;stroke-width:1.0006000000000002px"/><polygon points="145.76 85.69 148.38 87.4 140.67 99.69 138.02 97.92 145.76 85.69" style="fill:none;stroke:#000;stroke-linejoin:round;stroke-width:0.5px;stroke-dasharray:2.500200033187866,1.500100016593933;fill-rule:evenodd"/><line x1="145.87" y1="85.88" x2="140.88" y2="99.48" style="fill:none;stroke:#000;stroke-linejoin:round;stroke-width:0.5px;stroke-dasharray:2.500200033187866,1.500100016593933"/><line x1="148.36" y1="87.44" x2="138.01" y2="97.95" style="fill:none;stroke:#000;stroke-linejoin:round;stroke-width:0.5px;stroke-dasharray:2.500200033187866,1.500100016593933"/><rect x="115.22" y="109.75" width="16.02" height="4.81" transform="translate(-37.57 68.49) rotate(-27.11)" style="fill:none;stroke:#000;stroke-linejoin:round;stroke-width:1.0006000000000002px"/><polygon points="128.99 107.39 130.39 110.19 117.52 116.88 116.13 114.02 128.99 107.39" style="fill:none;stroke:#000;stroke-linejoin:round;stroke-width:0.5px;stroke-dasharray:2.500200033187866,1.500100016593933;fill-rule:evenodd"/><line x1="128.99" y1="107.6" x2="117.81" y2="116.81" style="fill:none;stroke:#000;stroke-linejoin:round;stroke-width:0.5px;stroke-dasharray:2.500200033187866,1.500100016593933"/><line x1="130.36" y1="110.21" x2="116.11" y2="114.04" style="fill:none;stroke:#000;stroke-linejoin:round;stroke-width:0.5px;stroke-dasharray:2.500200033187866,1.500100016593933"/><path d="M207.5,189.89c.13,1.17.44,2.78.59,4.09,1.41,12.73,3.36,31.36,3.11,45.53-.2,1.95-.07,5.31-.36,8.84a230,230,0,0,1-7.57,40.41c-2-3-26.31-9.67-30.91-7.49-.21-4.44-.15-16,0-21.72a111.1,111.1,0,0,0-1.23-21.3,113.18,113.18,0,0,1-1.93-11.88c-.26-2.75-.4-7.76-1-9.06l.26-8.16L168,197.72Z" style="fill:#7b8089;stroke:#231f20;stroke-linejoin:round;stroke-width:1.0006000000000002px;fill-rule:evenodd"/><path d="M173.25,196.78l-2.61,7.79.87,2.89,3.69.72,10.38-3.91,5.31-4.05,4.9-4.31,3.1-1.11-3,5.23-9.62,9.08-10.79,6.15-.7,2.26,4.12,8.26,2.9,3.27,1.24,1.9-.23,2.21-3.34,1-1.38,4.76-.16,9.92-2.73,14.66,1,16.57-1.78-.07-1.37.24.09-19.79c0-7.93-.09-15.12-1.38-22.48-.69-3.24-1.73-9.9-2.07-12.64-.29-2.31-.26-6.79-.82-8.09l.58-7.22-.63-12.88Z" style="fill:#61656d;fill-rule:evenodd"/><path d="M173.15,274.45c12.95-.43,28.35,4.58,31.93,7.81" style="fill:none;stroke:#fff;stroke-linejoin:round;stroke-width:0.5px;stroke-dasharray:2.500200033187866,1.500100016593933;fill-rule:evenodd"/><path d="M168.3,204.76c19-.92,38.38-6.15,40.11-10.38l-.13-.93-2-13.43c-1.45,4.68-20.67,10.09-38.33,10.49Z" style="stroke:#000;stroke-linejoin:round;stroke-width:1.0006000000000002px;fill-rule:evenodd;fill:url(#e)"/><path d="M169.55,191.64A104.82,104.82,0,0,0,190,189c8.11-1.73,14.41-4.38,16.65-7.17" style="fill:none;stroke:#000;stroke-linejoin:round;stroke-width:0.5px;stroke-dasharray:2.500200033187866,1.500100016593933;fill-rule:evenodd"/><path d="M169.89,203.36a134.25,134.25,0,0,0,20.67-2.94c8.11-1.73,15.3-4.5,17.55-7.29" style="fill:none;stroke:#000;stroke-linejoin:round;stroke-width:0.5px;stroke-dasharray:2.500200033187866,1.500100016593933;fill-rule:evenodd"/><circle cx="103.36" cy="100.63" r="1.15" transform="translate(-2.51 2.65) rotate(-1.45)" style="fill:none;stroke:#000;stroke-miterlimit:22.925600000000003;stroke-width:0.4989px"/><circle cx="103.03" cy="100.34" r="0.18" transform="translate(-2.25 2.36) rotate(-1.3)" style="fill:none;stroke:#000;stroke-miterlimit:22.925600000000003;stroke-width:0.216px"/><circle cx="103.65" cy="100.32" r="0.18" transform="translate(-2.49 2.64) rotate(-1.44)" style="fill:none;stroke:#000;stroke-miterlimit:22.925600000000003;stroke-width:0.216px"/><circle cx="103.66" cy="100.88" r="0.18" transform="translate(-2.66 2.81) rotate(-1.53)" style="fill:none;stroke:#000;stroke-miterlimit:22.925600000000003;stroke-width:0.216px"/><circle cx="103.08" cy="100.89" r="0.18" transform="translate(-2.67 2.8) rotate(-1.54)" style="fill:none;stroke:#000;stroke-miterlimit:22.925600000000003;stroke-width:0.216px"/><line x1="104.5" y1="100.62" x2="105.15" y2="100.6" style="fill:none;stroke:#000;stroke-miterlimit:22.925600000000003;stroke-width:0.4989px"/><circle cx="103.61" cy="110.9" r="1.25" transform="translate(-2.77 2.65) rotate(-1.45)" style="fill:none;stroke:#000;stroke-miterlimit:22.925600000000003;stroke-width:0.4989px"/><circle cx="103.3" cy="111.26" r="0.2" transform="translate(-2.96 2.82) rotate(-1.54)" style="fill:none;stroke:#000;stroke-miterlimit:22.925600000000003;stroke-width:0.216px"/><circle cx="103.28" cy="110.6" r="0.2" transform="translate(-2.83 2.72) rotate(-1.49)" style="fill:none;stroke:#000;stroke-miterlimit:22.925600000000003;stroke-width:0.216px"/><circle cx="103.88" cy="110.58" r="0.2" transform="translate(-2.7 2.6) rotate(-1.41)" style="fill:none;stroke:#000;stroke-miterlimit:22.925600000000003;stroke-width:0.216px"/><circle cx="103.9" cy="111.21" r="0.2" transform="translate(-2.71 2.6) rotate(-1.41)" style="fill:none;stroke:#000;stroke-miterlimit:22.925600000000003;stroke-width:0.216px"/><line x1="103.58" y1="109.62" x2="103.57" y2="109.12" style="fill:none;stroke:#000;stroke-miterlimit:22.925600000000003;stroke-width:0.4989px"/><line x1="103.66" y1="112.66" x2="103.64" y2="112.16" style="fill:none;stroke:#000;stroke-miterlimit:22.925600000000003;stroke-width:0.4989px"/><rect x="119.4" y="138.77" width="36.92" height="14.96" style="fill:#ed1c24;stroke:#000;stroke-linejoin:round;stroke-width:1.0006000000000002px"/><rect x="55.86" y="138.77" width="36.92" height="14.96" style="fill:#ed1c24;stroke:#000;stroke-linejoin:round;stroke-width:1.0006000000000002px"/><polyline points="155.25 138.8 155.25 152.76 120.35 152.76 120.35 138.8" style="fill:none;stroke:#fff;stroke-linejoin:round;stroke-width:0.5px;stroke-dasharray:2.500200033187866,1.500100016593933;fill-rule:evenodd"/><polyline points="91.72 138.8 91.72 152.76 56.81 152.76 56.81 138.8" style="fill:none;stroke:#fff;stroke-linejoin:round;stroke-width:0.5px;stroke-dasharray:2.500200033187866,1.500100016593933;fill-rule:evenodd"/><polyline points="153.82 138.8 153.82 151.21 121.9 151.21 121.9 138.8" style="fill:none;stroke:#fff;stroke-linejoin:round;stroke-width:0.5px;stroke-dasharray:2.500200033187866,1.500100016593933;fill-rule:evenodd"/><polyline points="90.28 138.8 90.28 151.21 58.37 151.21 58.37 138.8" style="fill:none;stroke:#fff;stroke-linejoin:round;stroke-width:0.5px;stroke-dasharray:2.500200033187866,1.500100016593933;fill-rule:evenodd"/><line x1="156.11" y1="141.06" x2="119.34" y2="141.06" style="fill:none;stroke:#fff;stroke-linejoin:round;stroke-width:0.5px;stroke-dasharray:2.500200033187866,1.500100016593933"/><line x1="92.57" y1="141.06" x2="55.81" y2="141.06" style="fill:none;stroke:#fff;stroke-linejoin:round;stroke-width:0.5px;stroke-dasharray:2.500200033187866,1.500100016593933"/><polygon points="166.49 230.33 166.24 223.79 160.14 224.17 160.27 230.84 166.49 230.33" style="fill:#61656d;fill-rule:evenodd"/><path d="M163,226.48s.55,2.17.05,2.28-.3-2.8-.3-2.8" style="fill:none;stroke:#000;stroke-linecap:round;stroke-linejoin:round;stroke-width:0.5px;fill-rule:evenodd"/><path d="M146.34,228.39s-.55-2.17-.05-2.28.3,2.8.3,2.8" style="fill:none;stroke:#000;stroke-linecap:round;stroke-linejoin:round;stroke-width:0.5px;fill-rule:evenodd"/><path d="M156.68,226.42s-.85,3.36-.08,3.53.46-4.33.46-4.33" style="fill:none;stroke:#000;stroke-linecap:round;stroke-linejoin:round;stroke-width:0.5px;fill-rule:evenodd"/><path d="M154,226.14s.9,2.75.11,3.13" style="fill:none;stroke:#000;stroke-linecap:round;stroke-linejoin:round;stroke-width:0.5px;fill-rule:evenodd"/><path d="M140.24,226.52s.51,1.56.06,1.78" style="fill:none;stroke:#000;stroke-linecap:round;stroke-linejoin:round;stroke-width:0.5px;fill-rule:evenodd"/><path d="M133.88,226.48s-.9,2.75-.11,3.13" style="fill:none;stroke:#000;stroke-linecap:round;stroke-linejoin:round;stroke-width:0.5px;fill-rule:evenodd"/><path d="M153.66,225.64s-1.17,3.56-.15,4" style="fill:none;stroke:#000;stroke-linecap:round;stroke-linejoin:round;stroke-width:0.5px;fill-rule:evenodd"/><path d="M134,226.46s1.16,3.56.15,4" style="fill:none;stroke:#000;stroke-linecap:round;stroke-linejoin:round;stroke-width:0.5px;fill-rule:evenodd"/><path d="M164.76,225.68s1.16,3.56.14,4" style="fill:none;stroke:#000;stroke-linecap:round;stroke-linejoin:round;stroke-width:0.5px;fill-rule:evenodd"/><path d="M147.52,238s.49-4.43-.9-5.64c-.09-.08.66,2.17-.21,3.17" style="fill:none;stroke:#000;stroke-linecap:round;stroke-linejoin:round;stroke-width:0.5px;fill-rule:evenodd"/><path d="M144.2,225.76s1.16,3.56.15,4" style="fill:none;stroke:#000;stroke-linecap:round;stroke-linejoin:round;stroke-width:0.5px;fill-rule:evenodd"/><path d="M144.23,225.88s-1.16,3.56-.15,4" style="fill:none;stroke:#000;stroke-linecap:round;stroke-linejoin:round;stroke-width:0.5px;fill-rule:evenodd"/><path d="M176.69,309.76s1-4,1.48-5.08a54.27,54.27,0,0,0,1-6.72l.15-6.57-.59-3" style="fill:none;stroke:#000;stroke-miterlimit:22.925600000000003;stroke-width:1.0001px;fill-rule:evenodd"/><path d="M164.41,232.9s1,4.63,1.79,4.63-1.87-5.79-1.87-5.79" style="fill:none;stroke:#000;stroke-linecap:round;stroke-linejoin:round;stroke-width:0.5px;fill-rule:evenodd"/><path d="M156,232.13s2,4.36,1,4.84" style="fill:none;stroke:#000;stroke-linecap:round;stroke-linejoin:round;stroke-width:0.5px;fill-rule:evenodd"/></svg>