<svg xmlns="http://www.w3.org/2000/svg" xmlns:xlink="http://www.w3.org/1999/xlink" viewBox="0 0 219.029 100.855"><defs><style>.a{fill:#eb8d00;}.b{fill:#fff;}.c{clip-path:url(#a);}</style><clipPath id="a"><rect width="219.029" height="100.855"/></clipPath></defs><g transform="translate(-1219 -28)"><g transform="translate(1222.056 59.21)"><path class="a" d="M51.431,379.7l-.935,5.88a1.331,1.331,0,0,1-2.354.615,3.537,3.537,0,0,0-1.264-.941,4.35,4.35,0,0,0-1.759-.329,3.945,3.945,0,0,0-1.489.273,4.025,4.025,0,0,0-1.285.847c-.021.021-.044.041-.065.059a4.611,4.611,0,0,0-.873,1.183,4.975,4.975,0,0,0-.494,1.527c0,.006,0,.012,0,.018l0,0c-.018.1-.03.212-.041.332s-.015.218-.015.327a3.056,3.056,0,0,0,.184,1.109,2.269,2.269,0,0,0,.524.794,2.242,2.242,0,0,0,.809.515,3.331,3.331,0,0,0,1.166.185,5.593,5.593,0,0,0,3.759-1.379,1.336,1.336,0,0,1,1.874.135,1.311,1.311,0,0,1,.3,1.121l-.924,5.875a1.326,1.326,0,0,1-.85,1.035h0a19.844,19.844,0,0,1-2.818.821,13.287,13.287,0,0,1-2.623.285,12.188,12.188,0,0,1-4.106-.656,9.336,9.336,0,0,1-3.316-2.015h0a8.767,8.767,0,0,1-2.167-3.133,10.171,10.171,0,0,1-.713-3.874c0-.327.015-.659.041-1,.027-.3.068-.638.127-1.009a12.917,12.917,0,0,1,1.626-4.586,13.271,13.271,0,0,1,3.239-3.674c.03-.021.059-.041.086-.061A13.987,13.987,0,0,1,40.98,377.8a13.124,13.124,0,0,1,4.45-.765,11.792,11.792,0,0,1,5.291,1.209,1.322,1.322,0,0,1,.711,1.462Zm-3.206,3.262.435-2.736a9.412,9.412,0,0,0-3.23-.55,10.5,10.5,0,0,0-3.553.6,11.263,11.263,0,0,0-3.159,1.771.593.593,0,0,1-.08.065,10.733,10.733,0,0,0-2.605,2.939,10.378,10.378,0,0,0-1.291,3.668c-.038.241-.071.512-.095.812-.024.259-.033.521-.033.783a7.626,7.626,0,0,0,.515,2.892,6.176,6.176,0,0,0,1.522,2.191h0l.006.006a6.671,6.671,0,0,0,2.383,1.442,9.623,9.623,0,0,0,3.212.5,10.576,10.576,0,0,0,2.09-.224,15.675,15.675,0,0,0,1.7-.456l.382-2.406a8.424,8.424,0,0,1-2.887.488,5.993,5.993,0,0,1-2.1-.359,4.926,4.926,0,0,1-1.747-1.118,4.84,4.84,0,0,1-1.127-1.716,5.646,5.646,0,0,1-.37-2.059c0-.182.009-.368.027-.553s.038-.355.071-.553l0,0a7.665,7.665,0,0,1,.752-2.312,7.24,7.24,0,0,1,1.389-1.863c.021-.023.047-.05.071-.073a6.706,6.706,0,0,1,2.125-1.394,6.575,6.575,0,0,1,2.49-.471,6.985,6.985,0,0,1,2.833.559c.092.041.181.082.272.126Zm24.144-3.724-3.035,19.068a1.324,1.324,0,0,1-1.311,1.118v0H62.056a1.328,1.328,0,0,1-1.332-1.323,1.31,1.31,0,0,1,.041-.324l2.028-12.758H59.475l-2.114,13.285a1.323,1.323,0,0,1-1.311,1.118v0H50.084a1.328,1.328,0,0,1-1.332-1.323,1.292,1.292,0,0,1,.041-.324l3.032-19.068a1.328,1.328,0,0,1,1.311-1.118v-.006H71.074a1.332,1.332,0,0,1,1.294,1.65ZM66.89,396.78l2.633-16.544H54.27L51.638,396.78h3.277l2.1-13.173a1.328,1.328,0,0,1,1.329-1.233h6v.006a1.6,1.6,0,0,1,.2.015,1.319,1.319,0,0,1,1.107,1.506l-2.046,12.879Zm21.05-17.544L87.2,383.9a1.325,1.325,0,0,1-1.311,1.115v.006H85.64a1.322,1.322,0,0,1,.717,1.174,1.293,1.293,0,0,1-.038.324l-.7,4.407a1.2,1.2,0,0,0,.068,2.395,1.223,1.223,0,0,1-.038.315l-.746,4.677a1.326,1.326,0,0,1-1.311,1.112v0H71.4a1.328,1.328,0,0,1-1.332-1.323,1.292,1.292,0,0,1,.041-.324l3.032-19.068a1.328,1.328,0,0,1,1.311-1.118v-.006H86.647a1.328,1.328,0,0,1,1.332,1.323,1.293,1.293,0,0,1-.038.324Zm-3.186,3.139.34-2.139H75.585L72.954,396.78h9.509l.34-2.136H78.13v-.006a1.635,1.635,0,0,1-.207-.015,1.322,1.322,0,0,1-1.1-1.512l.4-2.489a1.333,1.333,0,0,1,1.329-1.224h4.633l.3-1.88H79.257v0a1.241,1.241,0,0,1-.207-.018,1.318,1.318,0,0,1-1.1-1.509l.385-2.392a1.327,1.327,0,0,1,1.326-1.224Zm24.213-3.145L107.887,386a12.681,12.681,0,0,1,.918-2.065,13.235,13.235,0,0,1,2.931-3.562h0a13.34,13.34,0,0,1,4.284-2.509,14.888,14.888,0,0,1,5.045-.839,13.2,13.2,0,0,1,4.4.688,9.444,9.444,0,0,1,3.485,2.136,8.774,8.774,0,0,1,2.09,3.1,10.23,10.23,0,0,1,.7,3.818c0,.312-.015.635-.041.968s-.062.647-.112.968c-.006.038-.012.077-.021.112a13.466,13.466,0,0,1-.939,3.18,1.5,1.5,0,0,0,.6-.233,2.718,2.718,0,0,0,.832-.988l0,0,0,0a7.831,7.831,0,0,0,.636-1.633,21.18,21.18,0,0,0,.542-2.53l0-.006h0l1.264-7.9a1.326,1.326,0,0,1,1.311-1.112v-.006h15.6a1.328,1.328,0,0,1,1.332,1.323,1.262,1.262,0,0,1-.038.318L150.661,392h.6a1.353,1.353,0,0,1,.7.2l2.146-13.482a1.323,1.323,0,0,1,1.311-1.118v-.006h12.195a1.335,1.335,0,0,1,.672.182c.03-.018.059-.032.089-.047a1.337,1.337,0,0,1,.583-.132v0h6.7a1.331,1.331,0,0,1,1.258.9l1.7,3.969.589-3.742a1.328,1.328,0,0,1,1.311-1.118v-.006h5.841a1.328,1.328,0,0,1,1.332,1.323,1.293,1.293,0,0,1-.038.324l-.45,2.842,2.928-3.945a1.338,1.338,0,0,1,1.072-.541v0h6.709a1.322,1.322,0,0,1,.977,2.224l-7.031,8.716,2.733,5.486.139-.877a1.326,1.326,0,0,1,1.311-1.112v-.006a1.628,1.628,0,0,0,.918-.256,2.717,2.717,0,0,0,.832-.988l0,0,0,0a7.832,7.832,0,0,0,.637-1.633,20.6,20.6,0,0,0,.542-2.53l0-.006h0l1.264-7.9a1.326,1.326,0,0,1,1.311-1.112v-.006h15.6a1.328,1.328,0,0,1,1.332,1.323,1.262,1.262,0,0,1-.038.318L216.4,392h.6a1.313,1.313,0,0,1,.634.159l6.877-13.827a1.331,1.331,0,0,1,1.19-.738v0h7.884a1.331,1.331,0,0,1,1.317,1.144l3.434,19.145a1.32,1.32,0,0,1-1.081,1.53,1.226,1.226,0,0,1-.231.021h-6.333a1.329,1.329,0,0,1-1.329-1.244l-.317-2.348h-4.086l-1.261,2.806a1.329,1.329,0,0,1-1.214.783v0h-5.119l-.435,2.727a1.323,1.323,0,0,1-1.311,1.112v.006h-5.478a1.328,1.328,0,0,1-1.332-1.323,1.366,1.366,0,0,1,.035-.315l.355-2.206h-7.333l-.438,2.727a1.323,1.323,0,0,1-1.311,1.112v.006h-5.451a1.328,1.328,0,0,1-1.332-1.324,1.223,1.223,0,0,1,.038-.315l.352-2.206h-5.649a1.332,1.332,0,0,1-1.255-.88l-1.6-4.012-.6,3.777a1.328,1.328,0,0,1-1.311,1.112v0h-5.847a1.328,1.328,0,0,1-1.332-1.323,1.384,1.384,0,0,1,.038-.315l.462-2.9-2.851,3.98a1.331,1.331,0,0,1-1.084.553v0h-7.064a1.313,1.313,0,0,1-.542-.112,1.359,1.359,0,0,1-.533.109v0h-12.2a1.339,1.339,0,0,1-.7-.2l-.468,2.927a1.323,1.323,0,0,1-1.311,1.112v.006H144.4a1.33,1.33,0,0,1-1.332-1.323,1.365,1.365,0,0,1,.038-.315l.352-2.206h-7.33l-.438,2.727a1.323,1.323,0,0,1-1.311,1.112v.006h-5.451a1.328,1.328,0,0,1-1.332-1.324,1.222,1.222,0,0,1,.038-.315l1.042-6.531a13.9,13.9,0,0,1-1.528,1.539.161.161,0,0,1-.027.021,13.289,13.289,0,0,1-4.245,2.489,14.845,14.845,0,0,1-5.042.836,13.169,13.169,0,0,1-4.4-.691,9.473,9.473,0,0,1-3.492-2.136,8.983,8.983,0,0,1-1.5-1.889l-1.1,6.9a1.323,1.323,0,0,1-1.311,1.118v.006h-5.451a1.328,1.328,0,0,1-1.332-1.324,1.291,1.291,0,0,1,.038-.324l.352-2.224h-12.8a1.326,1.326,0,0,1-1.332-1.323,1.238,1.238,0,0,1,.038-.315L88.6,378.707a1.328,1.328,0,0,1,1.311-1.112v-.006h5.966a1.328,1.328,0,0,1,1.332,1.323,1.262,1.262,0,0,1-.039.318l-2.039,12.79h3.126l2.126-13.314a1.326,1.326,0,0,1,1.311-1.112v-.006h5.98A1.328,1.328,0,0,1,109,378.912a1.262,1.262,0,0,1-.038.318Zm-1.806,11.311L106.927,392h.361a11.581,11.581,0,0,1-.127-1.456Zm-3.1,2.571,2.058-12.876h-3.3l-2.1,13.208a1.328,1.328,0,0,1-1.329,1.224H93.575v0a1.228,1.228,0,0,1-.207-.018,1.317,1.317,0,0,1-1.1-1.509l2.058-12.9H91.044L88.4,396.78h12.792v.006a1.548,1.548,0,0,1,.2.015,1.321,1.321,0,0,1,1.11,1.506l-.37,2.345H104.9l.953-6.007h-.483v-.006a1.634,1.634,0,0,1-.207-.015,1.322,1.322,0,0,1-1.1-1.512Zm23.7-1.315a10.548,10.548,0,0,0,1.175-3.407c0-.026.006-.053.009-.076.041-.268.071-.529.092-.785s.03-.5.03-.759a7.63,7.63,0,0,0-.5-2.848,6.17,6.17,0,0,0-1.477-2.174,6.721,6.721,0,0,0-2.517-1.536,10.448,10.448,0,0,0-3.511-.535,12.285,12.285,0,0,0-4.148.671,10.769,10.769,0,0,0-3.434,2.024v0l0,0a10.243,10.243,0,0,0-3.523,6.257c0,.027-.006.05-.009.076-.041.268-.071.527-.092.78s-.03.494-.03.75a7.64,7.64,0,0,0,.5,2.851,6.223,6.223,0,0,0,1.471,2.186,6.858,6.858,0,0,0,2.525,1.536,10.6,10.6,0,0,0,3.514.535,12.213,12.213,0,0,0,4.148-.674,10.567,10.567,0,0,0,3.4-2,.211.211,0,0,0,.03-.023,10.588,10.588,0,0,0,2.348-2.851Zm-5.015-3.495c.015-.082.027-.191.038-.332.009-.1.012-.208.012-.318a3.031,3.031,0,0,0-.181-1.1,2.24,2.24,0,0,0-.524-.78,2.338,2.338,0,0,0-.8-.521,2.936,2.936,0,0,0-1.075-.179,3.761,3.761,0,0,0-1.356.238,4.147,4.147,0,0,0-1.238.756,4.332,4.332,0,0,0-.983,1.189,4.26,4.26,0,0,0-.491,1.456l0,.006h0c-.015.082-.027.194-.038.335-.009.1-.015.206-.015.315a3.006,3.006,0,0,0,.184,1.094,2.206,2.206,0,0,0,.521.78,2.4,2.4,0,0,0,.814.527,3.006,3.006,0,0,0,1.078.176,3.753,3.753,0,0,0,1.353-.241,4.052,4.052,0,0,0,1.229-.747,4.3,4.3,0,0,0,.977-1.183,4.382,4.382,0,0,0,.5-1.465V388.3Zm2.691-.115c-.012.147-.036.324-.068.53h0a7.071,7.071,0,0,1-4.379,5.46,6.449,6.449,0,0,1-2.3.415,5.645,5.645,0,0,1-2.034-.362,5.019,5.019,0,0,1-1.711-1.1,4.741,4.741,0,0,1-1.143-1.709,5.537,5.537,0,0,1-.373-2.056c0-.173.009-.35.024-.532.012-.144.036-.324.071-.532h0a7.055,7.055,0,0,1,4.388-5.454,6.4,6.4,0,0,1,2.3-.424,5.619,5.619,0,0,1,2.031.365,5.028,5.028,0,0,1,1.711,1.1,4.819,4.819,0,0,1,1.135,1.712,5.526,5.526,0,0,1,.37,2.05c0,.176-.006.353-.024.535Zm22.362,4.925,2.058-12.876H136.939l-1.087,6.778h0a24.323,24.323,0,0,1-.6,2.848,10.675,10.675,0,0,1-.865,2.183l0,0a5.3,5.3,0,0,1-1.685,1.915,4.193,4.193,0,0,1-1.238.565l-.977,6.1h2.766l.417-2.621a1.333,1.333,0,0,1,1.329-1.224h10.022v.006a1.652,1.652,0,0,1,.207.015,1.322,1.322,0,0,1,1.1,1.512l-.37,2.312h2.789l.956-5.98h-.6v-.006a1.64,1.64,0,0,1-.207-.015,1.322,1.322,0,0,1-1.1-1.512Zm-4.675-8.09h-1.3l-.548,3.383A12.411,12.411,0,0,1,140.2,392H142Zm-2.434-2.647h3.991v.006a1.285,1.285,0,0,1,.21.015,1.321,1.321,0,0,1,1.1,1.509l-1.525,9.517a1.328,1.328,0,0,1-1.326,1.224h-5.767v-.006a1.319,1.319,0,0,1-.708-2.436,3.312,3.312,0,0,0,1.149-1.368,9.872,9.872,0,0,0,.838-2.842l.708-4.4a1.33,1.33,0,0,1,1.329-1.221Zm27.906-1.183-.429,2.709a1.321,1.321,0,0,1-1.311,1.115v.006H166.6a1.325,1.325,0,0,1,.719,1.174,1.294,1.294,0,0,1-.041.324l-.693,4.407a1.2,1.2,0,0,0,.069,2.395,1.369,1.369,0,0,1-.038.315l-.235,1.45,5.634-6.9Zm-2.875,1.182.34-2.139H156.55l-2.632,16.544h9.509l.34-2.136h-4.675v-.006a1.682,1.682,0,0,1-.207-.015,1.324,1.324,0,0,1-1.1-1.512l.4-2.489a1.328,1.328,0,0,1,1.326-1.224h4.636l.3-1.88h-4.218v0a1.229,1.229,0,0,1-.207-.018,1.317,1.317,0,0,1-1.1-1.509l.385-2.392a1.33,1.33,0,0,1,1.329-1.224Zm23.534,5.16,5.886-7.3h-3.268l-5.749,7.751h0a1.315,1.315,0,0,1-.684.479,1.339,1.339,0,0,1,.477.6l3.07,7.713H193l-3.9-7.816a1.311,1.311,0,0,1,.148-1.43Zm-5.909,1.915a1.326,1.326,0,0,1,.838-1.127.874.874,0,0,1,.1-.035,1.318,1.318,0,0,1-.548-1.283l1.069-6.769H181.65l-1.122,7.1a1.314,1.314,0,0,1-.8,1.085,1.064,1.064,0,0,1-.136.047,1.32,1.32,0,0,1,.554,1.288l-1.122,7.022h3.156Zm-5.6-.662a.546.546,0,1,0,.234-1.065l-3.206-7.487h-3.689l3.7,7.546,0,0a1.314,1.314,0,0,1-.163,1.409l-6.2,7.587h3.594l5.732-7.993Zm35.785,4.324,2.057-12.876H202.676l-1.087,6.778h0a24.326,24.326,0,0,1-.6,2.848,10.674,10.674,0,0,1-.865,2.183l0,0a5.3,5.3,0,0,1-1.685,1.915,4.156,4.156,0,0,1-1.238.565l-.977,6.1h2.765L199.4,398a1.333,1.333,0,0,1,1.329-1.224h10.022v.006a1.652,1.652,0,0,1,.207.015,1.322,1.322,0,0,1,1.1,1.512l-.37,2.312h2.789l.364-2.268a1.409,1.409,0,0,1-.024-.253,1.31,1.31,0,0,1,.166-.641l.45-2.818h-.6v-.006a1.634,1.634,0,0,1-.207-.015,1.322,1.322,0,0,1-1.1-1.512Zm-4.674-8.09h-1.3l-.548,3.383A12.41,12.41,0,0,1,205.933,392h1.809Zm-2.434-2.647h3.99v.006a1.285,1.285,0,0,1,.21.015,1.321,1.321,0,0,1,1.1,1.509l-1.525,9.517a1.325,1.325,0,0,1-1.326,1.224h-5.767v-.006a1.319,1.319,0,0,1-.708-2.436,3.312,3.312,0,0,0,1.149-1.368,9.872,9.872,0,0,0,.838-2.842l.708-4.4a1.33,1.33,0,0,1,1.329-1.221ZM231.85,396.78h3.582l-2.968-16.544h-5.942L218.3,396.78h3.328l1.214-2.706a1.337,1.337,0,0,1,1.258-.885H230.2v0a1.332,1.332,0,0,1,1.317,1.144Zm-3.739-7.793-.015-.091-.041.091Zm1.984-4.957.85,6.007a1.38,1.38,0,0,1,.027.274,1.326,1.326,0,0,1-1.332,1.323h-3.65a1.327,1.327,0,0,1-1.212-1.865l2.789-6.1h0a1.332,1.332,0,0,1,2.528.362Z" transform="translate(-28.034 -359.665)"/><path class="b" d="M59.678,388.9l-.947,5.954a5.064,5.064,0,0,0-4.065-1.777,5.159,5.159,0,0,0-3.695,1.494,6.011,6.011,0,0,0-1.824,3.515,5.281,5.281,0,0,0-.077.882,3.811,3.811,0,0,0,1.1,2.839,3.975,3.975,0,0,0,2.913,1.089,6.893,6.893,0,0,0,4.627-1.7l-.933,5.931a14.644,14.644,0,0,1-4.98,1.018,9.128,9.128,0,0,1-6.513-2.309,7.909,7.909,0,0,1-2.457-6.045,11.8,11.8,0,0,1,4.53-9.235,11.962,11.962,0,0,1,7.618-2.724,10.451,10.451,0,0,1,4.7,1.071Zm20.943-.509-3.052,19.189H71.6l2.288-14.406h-6L65.6,407.581H59.63l3.052-19.189Zm15.573,0-.761,4.783H89.2l-.4,2.5h5.767l-.713,4.524H88.09l-.414,2.6h6.229l-.764,4.783H80.947L84,388.392Zm21.026,0-2.3,14.406h2.037l-1.374,8.654h-5.453l.61-3.871H96.389l3.067-19.189h5.966l-2.3,14.429h5.818l2.3-14.429Zm22.583,9.593a11.605,11.605,0,0,1-3.979,7.137,12.424,12.424,0,0,1-8.447,3.021,9.606,9.606,0,0,1-6.963-2.447,7.956,7.956,0,0,1-2.38-5.984,11.709,11.709,0,0,1,4.118-8.86,12.464,12.464,0,0,1,8.453-3.021,9.576,9.576,0,0,1,6.957,2.448,7.922,7.922,0,0,1,2.377,5.969,11.616,11.616,0,0,1-.136,1.738Zm-6.205,0a5.252,5.252,0,0,0,.074-.856,3.77,3.77,0,0,0-1.107-2.821,3.854,3.854,0,0,0-2.81-1.082,5.163,5.163,0,0,0-3.461,1.321,5.545,5.545,0,0,0-1.918,3.439,5.4,5.4,0,0,0-.074.859,3.765,3.765,0,0,0,1.11,2.821,3.88,3.88,0,0,0,2.818,1.08,5.138,5.138,0,0,0,3.452-1.315A5.547,5.547,0,0,0,133.6,397.985Zm27.353-9.593-2.3,14.406H160.8l-1.38,8.628h-5.478l.613-3.845H144.537l-.613,3.845h-5.453l1.374-8.6a3.238,3.238,0,0,0,2.917-1.939,14.535,14.535,0,0,0,1.323-4.6l1.264-7.893Zm-6.729,4.783H150.23l-.725,4.5q-.631,3.888-2.588,5.122h5.764Zm22.935-4.783-.761,4.783h-6.229l-.4,2.5h5.77l-.714,4.524h-5.77l-.414,2.6h6.232l-.764,4.783h-12.2l3.055-19.189Zm30.3,0-7.623,9.445,4.855,9.743h-7.067l-3.4-8.552-1.365,8.552h-5.844l1.368-8.552-6.134,8.552h-7.064l7.952-9.743-4.627-9.446h6.7l3.553,8.293,1.309-8.293H195.9l-1.309,8.293,6.152-8.293Zm19.235,0-2.3,14.406h2.152l-1.38,8.628h-5.48l.616-3.845H210.274l-.616,3.845h-5.453l1.377-8.6a3.238,3.238,0,0,0,2.917-1.939,14.536,14.536,0,0,0,1.323-4.6l1.264-7.893Zm-6.729,4.783h-3.994l-.725,4.5q-.626,3.888-2.588,5.122h5.764Zm26.607,14.406h-6.333l-.488-3.592h-6.1l-1.614,3.592H225.7l9.545-19.189h7.881Zm-7.384-7.793-.861-6.1-2.789,6.1Z" transform="translate(-37.581 -369.142)"/><path class="a" d="M8.783,244.261l-.012.018.015.026Zm1.027,3.222a1.31,1.31,0,0,1-.468.447c-.012.006-.021.012-.033.018l-1.631.956a1.331,1.331,0,0,1-1.821-.465c-.006-.009-.009-.018-.015-.026h0l-.228-.4-1.534.891a1.33,1.33,0,0,1-1.818-.471.065.065,0,0,1-.009-.015h0L.177,244.767a1.314,1.314,0,0,1,.189-1.559l3.212-3.64a1.33,1.33,0,0,1,1.767-.205v0l1.241.874.586-.665a1.33,1.33,0,0,1,1.77-.206l0,0,.867.621c.03-.053.059-.1.089-.153a8.217,8.217,0,0,1,2.022-2.294.923.923,0,0,1,.086-.065,8.763,8.763,0,0,1,2.4-1.333,8.175,8.175,0,0,1,2.78-.479,7.807,7.807,0,0,1,1.72.191,7.209,7.209,0,0,1,1.608.571,1.318,1.318,0,0,1,.717,1.436c.13-.086.263-.171.4-.25a7.221,7.221,0,0,1,1.936-.756,9.011,9.011,0,0,1,1.235-.2l.03-.191a1.332,1.332,0,0,1,1.317-1.127h3.458a1.328,1.328,0,0,1,1.332,1.323.192.192,0,0,1,0,.041,6.24,6.24,0,0,1,2.283.744.684.684,0,0,1,.077.05,4.255,4.255,0,0,1,1.391,1.327l.272-1.712a1.325,1.325,0,0,1,1.311-1.115v-.006h7.108a1.325,1.325,0,0,1,.847.3,1.334,1.334,0,0,1,.841-.294v-.006h4.675a7.679,7.679,0,0,1,2.1.262,4.593,4.593,0,0,1,1.744.891l0,0a3.794,3.794,0,0,1,1.075,1.444,4.321,4.321,0,0,1,.284,1l1.421-2.857a1.33,1.33,0,0,1,1.193-.735v0h4.6a1.329,1.329,0,0,1,1.317,1.141l2,11.143a1.323,1.323,0,0,1-1.081,1.53,1.536,1.536,0,0,1-.231.021H60.469a1.329,1.329,0,0,1-1.329-1.247l-.115-.847H57.488l-.589,1.309a1.328,1.328,0,0,1-1.214.78v.006H52a1.326,1.326,0,0,1-1.149-1.994l1.232-2.471a6.313,6.313,0,0,1-1.036.406,7.881,7.881,0,0,1-2.2.294H48.5l-.423,2.648a1.323,1.323,0,0,1-1.311,1.112v.006H43.292a1.328,1.328,0,0,1-.847-.3,1.32,1.32,0,0,1-.841.3v.006H34.5a1.33,1.33,0,0,1-1.332-1.323,1.292,1.292,0,0,1,.041-.324l.293-1.85a5.871,5.871,0,0,1-1.2.9.64.64,0,0,1-.062.032,7.045,7.045,0,0,1-1.871.727,9.063,9.063,0,0,1-1.25.2l-.08.509a1.323,1.323,0,0,1-1.311,1.118v.006H24.27a1.33,1.33,0,0,1-1.332-1.323,1.269,1.269,0,0,1,.041-.321l.006-.035c-.2-.029-.4-.068-.589-.109a5.872,5.872,0,0,1-1.685-.638c-.024-.015-.047-.029-.071-.047a4.354,4.354,0,0,1-.817-.629l-.27,1.716a1.322,1.322,0,0,1-.85,1.033h0a11.546,11.546,0,0,1-1.726.5,8.326,8.326,0,0,1-1.637.179,7.673,7.673,0,0,1-2.582-.415l-.071-.026a6.037,6.037,0,0,1-2.054-1.268h0a5.576,5.576,0,0,1-.823-.953Zm8.571-8.578.071-.447-.133-.035a5.084,5.084,0,0,0-1.127-.118,5.488,5.488,0,0,0-1.883.315,6.025,6.025,0,0,0-1.655.918.773.773,0,0,1-.074.065,5.637,5.637,0,0,0-1.389,1.559,5.466,5.466,0,0,0-.682,1.947c-.021.115-.036.259-.05.432-.012.132-.018.271-.018.412a3.876,3.876,0,0,0,.261,1.48,3.062,3.062,0,0,0,.752,1.083h0l.006,0a3.306,3.306,0,0,0,1.14.7l.053.018a5.029,5.029,0,0,0,1.688.259,5.438,5.438,0,0,0,1.107-.118c.2-.041.4-.091.607-.15l.038-.229a5.643,5.643,0,0,1-1,.088,4.007,4.007,0,0,1-1.421-.247,3.445,3.445,0,0,1-2-1.968,3.845,3.845,0,0,1-.255-1.4c0-.121.006-.244.018-.368s.027-.233.05-.368h0a4.977,4.977,0,0,1,.488-1.506,4.766,4.766,0,0,1,.885-1.194c.024-.026.047-.053.074-.079a4.522,4.522,0,0,1,1.415-.927,4.368,4.368,0,0,1,1.661-.315,4.822,4.822,0,0,1,1.371.188Zm.249,3.26a1.316,1.316,0,0,1-.29-.268,1.5,1.5,0,0,0-.527-.388,1.993,1.993,0,0,0-.8-.144,1.746,1.746,0,0,0-.66.118,1.791,1.791,0,0,0-.571.38c-.021.018-.041.035-.059.053a2.107,2.107,0,0,0-.382.527,2.371,2.371,0,0,0-.234.721.05.05,0,0,1,0,.021h0q-.009.057-.018.15c0,.047-.006.094-.006.141a1.265,1.265,0,0,0,.068.45.763.763,0,0,0,.181.271.817.817,0,0,0,.275.176,1.411,1.411,0,0,0,.486.071,2.807,2.807,0,0,0,.986-.168,2.766,2.766,0,0,0,.844-.5,1.3,1.3,0,0,1,.61-.3c0-.035,0-.068,0-.1,0-.182.009-.377.027-.579s.038-.382.071-.582a.292.292,0,0,1,.006-.047Zm13.456,1.727a4.309,4.309,0,0,0,.589-1.606c0-.024.006-.047.009-.074.021-.141.038-.277.05-.406s.015-.235.015-.353a2.338,2.338,0,0,0-.225-1.091,1.607,1.607,0,0,0-.592-.612l-.041-.024a4.6,4.6,0,0,0-2.288-.471h-.044a3.156,3.156,0,0,1,.574.118,2.8,2.8,0,0,1,.918.474l0,0a2.446,2.446,0,0,1,.764.971,2.893,2.893,0,0,1,.24,1.182c0,.1-.006.206-.015.315-.006.05-.018.15-.041.294a3.751,3.751,0,0,1-.432,1.274,3.268,3.268,0,0,1-.895,1.012l0,0,0,0a3.392,3.392,0,0,1-1,.518c-.092.029-.184.053-.275.076.124-.021.246-.044.364-.074a4.418,4.418,0,0,0,1.158-.444l.059-.035a3.228,3.228,0,0,0,1.116-1.047Zm-3.92,1.691h.139a1.19,1.19,0,0,1-.2-.018,1.317,1.317,0,0,1-1.11-1.5l.571-3.6a1.329,1.329,0,0,1,1.329-1.233h.272a1.327,1.327,0,0,1-1.084-1.253H27.3l-.018.106a1.328,1.328,0,0,1-1.323,1.171h-.107a1.318,1.318,0,0,1,1.1,1.5l-.571,3.595a1.327,1.327,0,0,1-1.329,1.233H24.8a3.308,3.308,0,0,1-.989-.144,2.823,2.823,0,0,1-.909-.477v0l-.006,0a2.514,2.514,0,0,1-.752-.983,2.866,2.866,0,0,1-.237-1.171c0-.068.006-.171.018-.312s.027-.241.038-.312h0a3.794,3.794,0,0,1,.429-1.259A3.236,3.236,0,0,1,23.3,239.9h0a3.316,3.316,0,0,1,.98-.5l.006,0c-.036.009-.071.015-.1.024a4.606,4.606,0,0,0-1.22.468,3.241,3.241,0,0,0-1.116,1.053,4.259,4.259,0,0,0-.586,1.586c0,.026-.006.05-.009.076-.021.141-.038.277-.05.406s-.015.241-.015.362a2.351,2.351,0,0,0,.225,1.094,1.608,1.608,0,0,0,.6.615l.041.024a3.259,3.259,0,0,0,.924.35,6.263,6.263,0,0,0,1.35.126h.189v.006a1.588,1.588,0,0,1,.2.015,1.319,1.319,0,0,1,1.107,1.506l-.009.061h.773l.053-.353a1.332,1.332,0,0,1,1.329-1.235Zm13.642-6.81.024-.141H37.409l-1.359,8.54h4.423l.021-.141H38.419v-.006a1.646,1.646,0,0,1-.207-.015,1.322,1.322,0,0,1-1.1-1.512l.225-1.406a1.328,1.328,0,0,1,1.329-1.224h.3a.968.968,0,0,1-.1-.012,1.321,1.321,0,0,1-1.1-1.509L37.98,240a1.33,1.33,0,0,1,1.329-1.224ZM51.934,242a3.326,3.326,0,0,0,.364-1.1c.012-.071.024-.165.033-.288a2.472,2.472,0,0,0,.012-.256,1.949,1.949,0,0,0-.124-.75,1.149,1.149,0,0,0-.337-.441l0,0,0,0a2.039,2.039,0,0,0-.758-.365,5.028,5.028,0,0,0-1.291-.159,2.347,2.347,0,0,1,.711.347,2.061,2.061,0,0,1,.876,1.771c0,.05,0,.118-.009.215s-.018.176-.027.25l-.006,0v.006a2.575,2.575,0,0,1-1.054,1.774,2.818,2.818,0,0,1-.74.374,4.294,4.294,0,0,0,.722-.141,2.909,2.909,0,0,0,.986-.485,2.449,2.449,0,0,0,.642-.741Zm-5.894,2.633a1.327,1.327,0,0,1,1.164-1.215,1.318,1.318,0,0,1-.746-1.394l.361-2.294a1.32,1.32,0,0,1,.731-1.094H46.2l-1.359,8.54h.791Zm15.593,2.542h.939l-1.531-8.54H58.385l-4.248,8.54h.69l.542-1.209a1.337,1.337,0,0,1,1.258-.885h.406a1.317,1.317,0,0,1-.515-1.668l1.625-3.557h0a1.332,1.332,0,0,1,2.528.362l.492,3.462a1.389,1.389,0,0,1,.03.277,1.324,1.324,0,0,1-.7,1.162,1.322,1.322,0,0,1,1.01,1.109Zm16.052-8.4.024-.141H72.193l-1.359,8.54H72.45a1.312,1.312,0,0,1-.616-1.333l.326-2.03a1.4,1.4,0,0,0,.4-2.521l.2-1.28a1.328,1.328,0,0,1,1.329-1.235Zm1.984,2.336a1.316,1.316,0,0,1-.56.277,3.781,3.781,0,0,1,.444.453Zm-3.31,1.815a4.237,4.237,0,0,0-.66-.094,1.878,1.878,0,0,1,1.187,1.927c0,.053-.006.132-.018.241-.009.091-.021.168-.033.233h0a2.372,2.372,0,0,1-1.057,1.65l-.024.018a4.281,4.281,0,0,0,.613-.271c.027-.018.053-.035.083-.053a2.407,2.407,0,0,0,1.255-1.824c.006-.044.015-.121.024-.226.006-.065.009-.132.009-.208a1.326,1.326,0,0,0-.145-.665,1.23,1.23,0,0,0-.456-.438,2.779,2.779,0,0,0-.776-.288Zm2.155,5.442a5.8,5.8,0,0,1-.725.494.921.921,0,0,1-.107.056,6.842,6.842,0,0,1-1.726.668,8.824,8.824,0,0,1-2.061.235H69.28a1.328,1.328,0,0,1-1.332-1.323,1.446,1.446,0,0,1,.038-.324L69.748,237.1a1.321,1.321,0,0,1,1.311-1.115v-.006h8.2a1.336,1.336,0,0,1,1.181.709,1.321,1.321,0,0,1,1.172-.7v-.006h7.111a1.326,1.326,0,0,1,1.116.6,11.3,11.3,0,0,1,1.9-.691,9.388,9.388,0,0,1,2.374-.312,7.727,7.727,0,0,1,1.978.238,5.2,5.2,0,0,1,1.7.779,3.962,3.962,0,0,1,1.214,1.336,3.415,3.415,0,0,1,.311.774,8.475,8.475,0,0,1,.959-.968.188.188,0,0,0,.027-.024,8.36,8.36,0,0,1,2.644-1.539,9.2,9.2,0,0,1,3.126-.524,8.265,8.265,0,0,1,2.747.432,6.028,6.028,0,0,1,2.232,1.371,5.663,5.663,0,0,1,1.1,1.462l.29-1.818a1.321,1.321,0,0,1,1.311-1.115v-.006h10.457a1.328,1.328,0,0,1,1.332,1.323,1.291,1.291,0,0,1-.041.324l-.791,4.975,2.925-5.883a1.328,1.328,0,0,1,1.19-.735v0h4.6a1.329,1.329,0,0,1,1.32,1.141l.631,3.521a7.619,7.619,0,0,1,.42-.818,8.218,8.218,0,0,1,2.022-2.295.935.935,0,0,1,.086-.065,8.762,8.762,0,0,1,2.4-1.333,8.173,8.173,0,0,1,2.78-.48,7.807,7.807,0,0,1,1.72.191,7.21,7.21,0,0,1,1.608.571.844.844,0,0,1,.124.071,1.319,1.319,0,0,1,1.042-.5v-.006h3.476a1.326,1.326,0,0,1,1.332,1.323,1.27,1.27,0,0,1-.038.321l-.4,2.551h.87l.488-3.074a1.321,1.321,0,0,1,1.311-1.115v-.006h3.48a1.328,1.328,0,0,1,1.332,1.323,1.292,1.292,0,0,1-.041.324l-.151.95a8.45,8.45,0,0,1,.85-.838.189.189,0,0,0,.027-.023,8.328,8.328,0,0,1,2.644-1.539,9.175,9.175,0,0,1,3.126-.524,8.265,8.265,0,0,1,2.747.432,6.027,6.027,0,0,1,2.232,1.371,5.6,5.6,0,0,1,1.3,1.877,8.485,8.485,0,0,1,1.708-1.8.933.933,0,0,1,.086-.065,8.763,8.763,0,0,1,2.4-1.333,8.174,8.174,0,0,1,2.78-.479,7.829,7.829,0,0,1,1.721.191,7.056,7.056,0,0,1,1.171.373,1.293,1.293,0,0,1,.752-.233v-.006h8.307a1.317,1.317,0,0,1,.548.118,1.33,1.33,0,0,1,.568-.129v0h3.449a1.326,1.326,0,0,1,1.332,1.323,1.291,1.291,0,0,1-.038.324l-.231,1.447,2.138-2.6a1.323,1.323,0,0,1,1.03-.488v0h3.28a1.328,1.328,0,0,1,1.332,1.323,1.3,1.3,0,0,1-.041.324l-.388,2.436,1.3-.753a1.333,1.333,0,0,1,1.815.471c0,.009.009.015.012.024l0,0,.231.406,1.539-.9a1.336,1.336,0,0,1,1.818.471.118.118,0,0,0,.015.026h0l2.055,3.68a1.309,1.309,0,0,1-.184,1.536l-3.2,3.624a1.334,1.334,0,0,1-1.8.182l-1.2-.859-.607.682a1.336,1.336,0,0,1-1.77.2l-1.273-.915-.121.771a1.328,1.328,0,0,1-1.311,1.118v.006h-3.464a1.33,1.33,0,0,1-1.332-1.323,1.29,1.29,0,0,1,.041-.324l.219-1.377-2.1,2.541a1.334,1.334,0,0,1-1.024.479v.006h-3.3a1.328,1.328,0,0,1-1.332-1.323,1.446,1.446,0,0,1,.038-.324l1.066-6.692h-.838l-1.149,7.216a1.324,1.324,0,0,1-1.311,1.118v.006h-3.479a1.328,1.328,0,0,1-1.332-1.323,1.223,1.223,0,0,1,.038-.315l1.069-6.7h-.607a1.331,1.331,0,0,1-2.3.418,1.5,1.5,0,0,0-.527-.388,1.994,1.994,0,0,0-.8-.144,1.737,1.737,0,0,0-.66.118,1.792,1.792,0,0,0-.571.38l-.062.053a2.175,2.175,0,0,0-.379.527,2.372,2.372,0,0,0-.234.721.049.049,0,0,1,0,.021h0q-.009.057-.018.15c0,.047-.006.094-.006.141a.969.969,0,0,0,.249.721.788.788,0,0,0,.275.176,1.411,1.411,0,0,0,.486.071,2.818,2.818,0,0,0,.986-.168,2.718,2.718,0,0,0,.841-.5,1.336,1.336,0,0,1,1.874.132,1.313,1.313,0,0,1,.3,1.121l-.536,3.4a1.322,1.322,0,0,1-.85,1.033h0a11.56,11.56,0,0,1-1.726.5,8.342,8.342,0,0,1-1.64.179,7.668,7.668,0,0,1-2.579-.415l-.071-.026a6.008,6.008,0,0,1-2.055-1.268h0A5.7,5.7,0,0,1,171.2,246.5a8.541,8.541,0,0,1-1.412,1.559.161.161,0,0,0-.027.021,8.237,8.237,0,0,1-2.641,1.541,9.174,9.174,0,0,1-3.126.524,8.2,8.2,0,0,1-2.747-.435,6.061,6.061,0,0,1-2.238-1.371,5.763,5.763,0,0,1-1.1-1.453l-.287,1.809a1.328,1.328,0,0,1-1.311,1.118v.006h-3.482a1.33,1.33,0,0,1-1.332-1.323,1.368,1.368,0,0,1,.038-.315l.447-2.795h-.87l-.53,3.315a1.323,1.323,0,0,1-1.311,1.112v.006H145.8a1.327,1.327,0,0,1-1-.45,1.251,1.251,0,0,1-.2.094h0a11.557,11.557,0,0,1-1.726.5,8.333,8.333,0,0,1-1.637.179,7.673,7.673,0,0,1-2.582-.415l-.071-.026a6.047,6.047,0,0,1-1.827-1.062,1.329,1.329,0,0,1-1.1,1.156,1.534,1.534,0,0,1-.228.021H131.74a1.327,1.327,0,0,1-1.329-1.247l-.115-.847h-1.54l-.586,1.309a1.331,1.331,0,0,1-1.214.78v.006h-3.689a1.284,1.284,0,0,1-.426-.071,1.25,1.25,0,0,1-.409.065v.006h-3.477a1.328,1.328,0,0,1-1.332-1.324,1.447,1.447,0,0,1,.038-.324l1.075-6.751h-.814l-1.158,7.275a1.326,1.326,0,0,1-1.311,1.118v.006h-3.479a1.33,1.33,0,0,1-1.332-1.323,1.292,1.292,0,0,1,.041-.324l.151-.956a8.5,8.5,0,0,1-.85.844.165.165,0,0,0-.027.021,8.236,8.236,0,0,1-2.641,1.541,9.174,9.174,0,0,1-3.126.524,8.2,8.2,0,0,1-2.747-.435,6.06,6.06,0,0,1-2.238-1.371,5.8,5.8,0,0,1-.971-1.227c-.068.124-.145.244-.225.362a5.529,5.529,0,0,1-1.537,1.477,7.352,7.352,0,0,1-4.148,1.18,9.021,9.021,0,0,1-2.709-.388,7,7,0,0,1-1.483-.653,1.325,1.325,0,0,1-1.184.724v.006H79.837a1.33,1.33,0,0,1-1.332-1.324.92.92,0,0,1,.009-.129Zm8.636-9.593.024-.141H82.751l-1.359,8.54h4.423l.024-.141H83.76v-.006a1.687,1.687,0,0,1-.207-.015,1.323,1.323,0,0,1-1.1-1.512l.225-1.406A1.332,1.332,0,0,1,84,242.867h.3a.968.968,0,0,1-.1-.012,1.323,1.323,0,0,1-1.1-1.509l.219-1.35a1.325,1.325,0,0,1,1.326-1.224Zm2.226,2.071a1.344,1.344,0,0,1-.32.327,1.358,1.358,0,0,1,.056.382,1.292,1.292,0,0,1-.038.324l-.391,2.471a1.336,1.336,0,0,1,1.323-.5,1.237,1.237,0,0,1,.033-.182l.332-2.056a1.327,1.327,0,0,1-.962-.7c-.012-.021-.021-.044-.033-.068Zm7.242-.5a1.605,1.605,0,0,0,.13-.4.59.59,0,0,1,.012-.076c0-.026.009-.061.012-.106,0-.029.006-.061.006-.094a1,1,0,0,0-.113-.485,1.307,1.307,0,0,0-.411-.432,2.587,2.587,0,0,0-.844-.38,5.089,5.089,0,0,0-1.292-.144,6.447,6.447,0,0,0-.755.041,3.138,3.138,0,0,1,1.442.382,1.907,1.907,0,0,1,1,1.747,2.328,2.328,0,0,1-.172.888,2.135,2.135,0,0,0,.278-.153,2.021,2.021,0,0,0,.409-.365l0,0a1.962,1.962,0,0,0,.29-.429Zm-2.081,2.271a1.289,1.289,0,0,1,.009-.153l-.009.006a3.365,3.365,0,0,1-.838.3c-.05.009-.1.021-.151.029a2.584,2.584,0,0,1,.642.28,1.943,1.943,0,0,1,.968,1.753,2.377,2.377,0,0,1-.32,1.2,2.591,2.591,0,0,1-.844.874,3.254,3.254,0,0,1-.9.4,3.554,3.554,0,0,1-.968.132,4.708,4.708,0,0,1-1.788-.347c-.08-.035-.163-.071-.243-.109l-.065.1q.182.071.373.132a6.4,6.4,0,0,0,1.918.265A4.734,4.734,0,0,0,95,246.747a2.875,2.875,0,0,0,.809-.762,2.1,2.1,0,0,0,.335-.809.406.406,0,0,1,.009-.059q.009-.053.018-.159c0-.044.006-.088.006-.132a.876.876,0,0,0-.145-.538,1.29,1.29,0,0,0-.533-.374,1.354,1.354,0,0,1-.971-1.3Zm14.957,1.933a5.542,5.542,0,0,0,.616-1.771c0-.026.006-.05.009-.073.024-.144.038-.285.05-.418s.015-.259.015-.4a3.913,3.913,0,0,0-.249-1.459,3.074,3.074,0,0,0-.731-1.074,3.417,3.417,0,0,0-1.267-.771,5.545,5.545,0,0,0-1.863-.28,6.6,6.6,0,0,0-2.232.355,5.746,5.746,0,0,0-1.8,1.053l-.027.026a5.594,5.594,0,0,0-1.25,1.512,5.663,5.663,0,0,0-.616,1.771.313.313,0,0,1-.009.074c-.021.144-.038.282-.047.415s-.015.256-.015.394a3.917,3.917,0,0,0,.252,1.459,3.046,3.046,0,0,0,.728,1.083,3.429,3.429,0,0,0,1.27.771,5.644,5.644,0,0,0,1.863.28,6.589,6.589,0,0,0,2.232-.359,5.655,5.655,0,0,0,1.794-1.05l.03-.026a5.572,5.572,0,0,0,1.246-1.512Zm-2.987-1.856c.006-.023.009-.073.018-.153,0-.044.006-.088.006-.138a1.241,1.241,0,0,0-.068-.444.792.792,0,0,0-.178-.262.828.828,0,0,0-.278-.182,1.181,1.181,0,0,0-.426-.065,1.638,1.638,0,0,0-.6.1h0v.006a1.884,1.884,0,0,0-.557.338,1.982,1.982,0,0,0-.45.541,2.025,2.025,0,0,0-.225.668v.006h0c0,.021-.009.071-.015.153,0,.044-.006.091-.006.138a1.228,1.228,0,0,0,.068.438.736.736,0,0,0,.172.259.983.983,0,0,0,.716.256,1.618,1.618,0,0,0,.592-.106,1.871,1.871,0,0,0,.551-.335,1.977,1.977,0,0,0,.447-.541,2,2,0,0,0,.228-.671l0-.006Zm2.67.065c-.006.086-.024.2-.047.35h0a4.526,4.526,0,0,1-1.56,2.8,4.469,4.469,0,0,1-1.341.812,4.252,4.252,0,0,1-1.539.282,3.55,3.55,0,0,1-2.567-1.009,3.361,3.361,0,0,1-.8-1.191,3.822,3.822,0,0,1-.255-1.4c0-.115.006-.233.015-.355.009-.082.024-.2.047-.35h0a4.653,4.653,0,0,1,2.907-3.609v0a4.325,4.325,0,0,1,1.54-.285,3.854,3.854,0,0,1,1.383.25,3.442,3.442,0,0,1,1.184.765,3.287,3.287,0,0,1,.791,1.191,3.743,3.743,0,0,1,.257,1.394c0,.115-.006.233-.018.355ZM121.3,247.17l1.359-8.54h-7.772l-1.359,8.54h.791L115.462,240a1.325,1.325,0,0,1,1.326-1.233h3.5v.006a1.6,1.6,0,0,1,.2.015A1.319,1.319,0,0,1,121.6,240.3l-1.09,6.872Zm11.6,0h.941l-1.531-8.54h-2.659l-4.246,8.54h.69l.542-1.209a1.331,1.331,0,0,1,1.258-.885h.4a1.319,1.319,0,0,1-.512-1.668l1.625-3.557h0a1.332,1.332,0,0,1,2.528.362l.488,3.462a1.2,1.2,0,0,1,.03.277,1.322,1.322,0,0,1-.7,1.162,1.33,1.33,0,0,1,1.009,1.109Zm11.375-8.266.071-.447-.133-.035a5.084,5.084,0,0,0-1.127-.118,5.486,5.486,0,0,0-1.883.315,6.024,6.024,0,0,0-1.655.918.78.78,0,0,1-.074.065,5.637,5.637,0,0,0-1.389,1.559,5.465,5.465,0,0,0-.681,1.947c-.021.115-.036.259-.05.432-.012.132-.018.271-.018.412a3.348,3.348,0,0,0,1.013,2.562h0l.006,0a3.306,3.306,0,0,0,1.14.7l.053.018a5.029,5.029,0,0,0,1.688.259,5.439,5.439,0,0,0,1.107-.118c.2-.041.4-.091.607-.15l.038-.229a5.643,5.643,0,0,1-1,.088,4.007,4.007,0,0,1-1.422-.247,3.427,3.427,0,0,1-1.214-.777,3.485,3.485,0,0,1-1.039-2.592c0-.121.006-.244.018-.368s.027-.233.05-.368h0a4.977,4.977,0,0,1,.488-1.506,4.765,4.765,0,0,1,.885-1.194c.024-.026.047-.053.074-.079a4.522,4.522,0,0,1,1.415-.927,4.368,4.368,0,0,1,1.661-.315,4.822,4.822,0,0,1,1.371.188Zm1.152,3.48a1.308,1.308,0,0,1-.355-.006,1.334,1.334,0,0,1-.838-.483,1.5,1.5,0,0,0-.527-.388,1.994,1.994,0,0,0-.8-.144,1.747,1.747,0,0,0-.66.118,1.791,1.791,0,0,0-.571.38c-.021.018-.041.035-.059.053a2.11,2.11,0,0,0-.382.527,2.372,2.372,0,0,0-.234.721.049.049,0,0,1,0,.021h0q-.009.057-.018.15c0,.047-.006.094-.006.141a.97.97,0,0,0,.249.721.817.817,0,0,0,.275.176,1.41,1.41,0,0,0,.486.071,2.807,2.807,0,0,0,.986-.168,2.767,2.767,0,0,0,.844-.5,1.328,1.328,0,0,1,1.424-.2Zm9.755,4.786,1.359-8.54h-.793l-.468,2.962a1.33,1.33,0,0,1-1.27,1.233,1.316,1.316,0,0,1,.844,1.441l-.462,2.9Zm-6.525-3.212a1.328,1.328,0,0,1,1.27-1.221,1.317,1.317,0,0,1-.844-1.436l.42-2.671h-.793l-1.356,8.54h.791Zm20.644.591a5.542,5.542,0,0,0,.616-1.771c0-.026.006-.05.009-.074.024-.144.038-.285.05-.418s.015-.259.015-.4a3.913,3.913,0,0,0-.249-1.459,3.074,3.074,0,0,0-.731-1.074,3.417,3.417,0,0,0-1.267-.771,5.546,5.546,0,0,0-1.863-.28,6.6,6.6,0,0,0-2.232.355,5.747,5.747,0,0,0-1.8,1.053l-.027.027a5.54,5.54,0,0,0-1.25,1.512,5.664,5.664,0,0,0-.616,1.771.313.313,0,0,1-.009.074c-.021.144-.038.282-.047.415s-.015.256-.015.394a3.917,3.917,0,0,0,.252,1.459,3.046,3.046,0,0,0,.728,1.083,3.429,3.429,0,0,0,1.27.771,5.634,5.634,0,0,0,1.863.28,6.587,6.587,0,0,0,2.232-.359,5.654,5.654,0,0,0,1.794-1.05.267.267,0,0,1,.03-.026,5.571,5.571,0,0,0,1.246-1.512Zm-2.987-1.856c.006-.024.009-.074.018-.153,0-.044.006-.088.006-.138a1.242,1.242,0,0,0-.068-.444.792.792,0,0,0-.178-.262.827.827,0,0,0-.278-.182,1.183,1.183,0,0,0-.426-.065,1.64,1.64,0,0,0-.6.1h0v.006a1.885,1.885,0,0,0-.557.338,1.981,1.981,0,0,0-.45.541,1.958,1.958,0,0,0-.225.668v.006h0c0,.021-.009.071-.015.153,0,.044-.006.091-.006.138a1.228,1.228,0,0,0,.068.438.735.735,0,0,0,.172.259.983.983,0,0,0,.716.256,1.616,1.616,0,0,0,.592-.106,1.871,1.871,0,0,0,.551-.335,1.978,1.978,0,0,0,.447-.541,2,2,0,0,0,.228-.671l0-.006Zm2.67.065c-.006.086-.024.2-.047.35h0a4.679,4.679,0,0,1-2.9,3.61,4.251,4.251,0,0,1-1.54.282,3.544,3.544,0,0,1-2.567-1.009,3.361,3.361,0,0,1-.8-1.191,3.823,3.823,0,0,1-.255-1.4c0-.115.006-.233.015-.355.009-.082.024-.2.047-.35h0a4.667,4.667,0,0,1,2.907-3.609l0,0a4.313,4.313,0,0,1,1.54-.285,3.854,3.854,0,0,1,1.383.25,3.469,3.469,0,0,1,1.184.765,3.326,3.326,0,0,1,.791,1.191A3.744,3.744,0,0,1,169,242.4c0,.115,0,.233-.015.355Zm11.339-3.854.071-.447-.133-.035a5.086,5.086,0,0,0-1.127-.118,5.5,5.5,0,0,0-1.886.315,6.05,6.05,0,0,0-1.652.918c-.024.023-.05.044-.074.065a5.638,5.638,0,0,0-1.389,1.559,5.527,5.527,0,0,0-.684,1.947c-.018.115-.033.259-.047.433-.012.132-.018.271-.018.412a3.348,3.348,0,0,0,1.013,2.562h0l.006,0a3.306,3.306,0,0,0,1.14.7l.053.018a5.023,5.023,0,0,0,1.685.259,5.443,5.443,0,0,0,1.11-.118c.2-.041.4-.091.607-.15l.036-.229a5.577,5.577,0,0,1-1,.088,4.005,4.005,0,0,1-1.422-.247,3.426,3.426,0,0,1-1.214-.777,3.485,3.485,0,0,1-1.039-2.592c0-.121.006-.244.018-.368s.027-.233.047-.368h.006a4.9,4.9,0,0,1,.488-1.506,4.762,4.762,0,0,1,.885-1.194c.024-.026.047-.053.074-.079a4.489,4.489,0,0,1,1.415-.927,4.366,4.366,0,0,1,1.661-.315,4.823,4.823,0,0,1,1.371.188Zm9.175-.074.033-.2h-5.62l-.033.2h.867v.006a1.628,1.628,0,0,1,.207.015,1.322,1.322,0,0,1,1.1,1.512l-1.087,6.807h.793l1.131-7.108a1.325,1.325,0,0,1,1.326-1.233Zm14.128,3.995-.352,2.209.98-1.094Zm-3.378,4.345,1.359-8.555h-1.1l-1.892,2.3a1.37,1.37,0,0,1,.5-.018,1.319,1.319,0,0,1,1.107,1.506l-.755,4.763Zm-7.147,0,1.812-2.2a1.377,1.377,0,0,1-.48.015,1.321,1.321,0,0,1-1.11-1.506l.773-4.866h-.761l-1.359,8.555Z" transform="translate(-0.003 -235.33)"/><path class="b" d="M19.05,250.89l-2.4,2.7,1.54,2.665-1.679.986-2.072-3.651,3.239-3.68Zm-3.579,0-2.407,2.7,1.548,2.665-1.694.986-2.078-3.651,3.245-3.68Zm13.971-3.809-.554,3.471a2.942,2.942,0,0,0-2.369-1.035,3.012,3.012,0,0,0-2.155.871,3.507,3.507,0,0,0-1.063,2.05,2.989,2.989,0,0,0-.044.512,2.231,2.231,0,0,0,.642,1.656,2.324,2.324,0,0,0,1.7.635,4.023,4.023,0,0,0,2.7-.994l-.545,3.457a8.428,8.428,0,0,1-2.9.594,5.322,5.322,0,0,1-3.8-1.344,4.626,4.626,0,0,1-1.433-3.524,6.455,6.455,0,0,1,.089-1.053,6.692,6.692,0,0,1,2.552-4.33,6.965,6.965,0,0,1,4.441-1.589,6.115,6.115,0,0,1,2.742.624Zm14.069,4.8a4.872,4.872,0,0,1-2.365,3.671,6.758,6.758,0,0,1-3.47.827h-.189l-.249,1.588H33.779l.249-1.588h-.189a5.839,5.839,0,0,1-2.946-.656,3.084,3.084,0,0,1-1.525-2.877,6.618,6.618,0,0,1,.08-.965,4.85,4.85,0,0,1,2.362-3.659,6.864,6.864,0,0,1,3.464-.818h.189l.2-1.277h3.455l-.195,1.277h.189a5.881,5.881,0,0,1,2.955.653,3.068,3.068,0,0,1,1.522,2.868,6.546,6.546,0,0,1-.077.956Zm-3.319,0a2.786,2.786,0,0,0,.036-.406,1.311,1.311,0,0,0-.5-1.121,1.679,1.679,0,0,0-1.072-.327H38.4l-.589,3.71h.255a2.087,2.087,0,0,0,2.123-1.856Zm-5.042-1.853H34.9a2.12,2.12,0,0,0-1.3.412,2.1,2.1,0,0,0-.817,1.441,2.428,2.428,0,0,0-.038.4,1.355,1.355,0,0,0,.492,1.124,1.668,1.668,0,0,0,1.069.335h.257Zm17.742-3.247-.444,2.789h-3.63l-.233,1.456h3.364l-.418,2.639H48.167l-.24,1.515h3.63l-.444,2.789H44l1.78-11.188Zm10.226,3.795a4.045,4.045,0,0,1-1.507,2.68,5.221,5.221,0,0,1-3.257.947H56.874l-.6,3.765H52.8l1.779-11.187h4.675a4.564,4.564,0,0,1,2.99.841,2.7,2.7,0,0,1,.941,2.2,4.786,4.786,0,0,1-.065.75Zm-3.544-.086a1.742,1.742,0,0,0,.018-.268c0-.624-.429-.935-1.3-.935h-.642l-.376,2.406h.61q1.5,0,1.688-1.2Zm14.1,7.478H69.978l-.284-2.095H66.135l-.941,2.095H61.505l5.563-11.187h4.6Zm-4.3-4.542-.5-3.557-1.625,3.557Zm19.4-6.645-.444,2.789H83.6l-.219,1.391h1.35a5.076,5.076,0,0,1,2.582.588,2.423,2.423,0,0,1,1.261,2.239,4,4,0,0,1-.053.635,3.725,3.725,0,0,1-1.895,2.768,6.306,6.306,0,0,1-3.224.777H78.786l1.779-11.187Zm-3.733,7.672a1.17,1.17,0,0,0,.024-.223q0-.847-1.344-.847H83l-.343,2.139h.764q1.452,0,1.619-1.068Zm13.2-7.672-.444,2.789H94.16l-.233,1.456h3.36l-.414,2.639H93.509l-.24,1.515H96.9l-.444,2.789H89.346l1.779-11.188Zm9.344,2.786a3.027,3.027,0,0,1-.746,1.553,3.314,3.314,0,0,1-1.463.971.054.054,0,0,0,.015.029,2.217,2.217,0,0,1,1.634,2.18,3.112,3.112,0,0,1-.044.509,3.654,3.654,0,0,1-1.729,2.512,6.034,6.034,0,0,1-3.411.959,6.453,6.453,0,0,1-4.171-1.3l1.59-2.362a3.323,3.323,0,0,0,2.383.977,2.039,2.039,0,0,0,1.137-.318,1.108,1.108,0,0,0,.562-.971c0-.565-.453-.847-1.365-.847h-1.131l.4-2.448h1.084a2.368,2.368,0,0,0,1.1-.233.963.963,0,0,0,.56-.9q0-.812-1.386-.812a5.546,5.546,0,0,0-2.5.718l-.571-2.336a8.906,8.906,0,0,1,4.1-1.065,4.929,4.929,0,0,1,2.9.771,2.344,2.344,0,0,1,1.087,1.994,2.556,2.556,0,0,1-.038.421Zm13.364,2.806a6.741,6.741,0,0,1-2.321,4.16A7.224,7.224,0,0,1,113.7,258.3a5.6,5.6,0,0,1-4.059-1.427,4.64,4.64,0,0,1-1.386-3.486,6.581,6.581,0,0,1,.08-1.009,6.767,6.767,0,0,1,2.318-4.16,7.279,7.279,0,0,1,4.929-1.759,5.581,5.581,0,0,1,4.056,1.427,4.613,4.613,0,0,1,1.386,3.48,6.558,6.558,0,0,1-.08,1.012Zm-3.618,0a2.847,2.847,0,0,0,.044-.5,2.2,2.2,0,0,0-.645-1.644,2.252,2.252,0,0,0-1.637-.632,3.026,3.026,0,0,0-2.019.771,3.219,3.219,0,0,0-1.119,2,3.257,3.257,0,0,0-.041.5,2.186,2.186,0,0,0,.648,1.644,2.261,2.261,0,0,0,1.643.633,3,3,0,0,0,2.01-.768,3.25,3.25,0,0,0,1.116-2.01Zm16.393-5.592-1.779,11.187h-3.475l1.332-8.4h-3.5l-1.336,8.4h-3.479l1.782-11.187Zm11.221,11.187h-3.692l-.284-2.094H137.4l-.941,2.094h-3.689l5.563-11.187h4.6Zm-4.3-4.542-.5-3.557-1.625,3.557Zm14.7-6.348-.554,3.471a2.942,2.942,0,0,0-2.369-1.036,3.007,3.007,0,0,0-2.155.871,3.507,3.507,0,0,0-1.063,2.05,2.993,2.993,0,0,0-.044.512,2.22,2.22,0,0,0,.642,1.656,2.322,2.322,0,0,0,1.7.635,4.025,4.025,0,0,0,2.7-.994l-.545,3.457a8.429,8.429,0,0,1-2.9.594,5.322,5.322,0,0,1-3.8-1.344,4.608,4.608,0,0,1-1.433-3.524,6.788,6.788,0,0,1,.086-1.053,6.7,6.7,0,0,1,2.555-4.33,6.965,6.965,0,0,1,4.441-1.589,6.124,6.124,0,0,1,2.742.624Zm12.269-.3-1.782,11.187H162.34l.708-4.433h-3.559l-.708,4.433H155.3l1.779-11.187h3.479l-.663,4.195h3.559l.663-4.195Zm13.145,5.592a6.737,6.737,0,0,1-2.318,4.16A7.235,7.235,0,0,1,173.5,258.3a5.6,5.6,0,0,1-4.059-1.427,4.642,4.642,0,0,1-1.389-3.486,6.981,6.981,0,0,1,.08-1.009,6.771,6.771,0,0,1,2.321-4.16,7.264,7.264,0,0,1,4.926-1.759,5.582,5.582,0,0,1,4.056,1.427,4.613,4.613,0,0,1,1.386,3.48,6.562,6.562,0,0,1-.08,1.012Zm-3.615,0a3.157,3.157,0,0,0,.041-.5,2.184,2.184,0,0,0-.645-1.644,2.242,2.242,0,0,0-1.637-.632,3.026,3.026,0,0,0-2.019.771,3.229,3.229,0,0,0-1.116,2,3.27,3.27,0,0,0-.044.5,2.2,2.2,0,0,0,.648,1.644,2.261,2.261,0,0,0,1.643.632,3,3,0,0,0,2.01-.768,3.24,3.24,0,0,0,1.119-2.01Zm14.246-5.3-.554,3.471a2.933,2.933,0,0,0-2.368-1.036,3,3,0,0,0-2.152.871,3.507,3.507,0,0,0-1.063,2.05,2.99,2.99,0,0,0-.044.512,2.22,2.22,0,0,0,.643,1.656,2.313,2.313,0,0,0,1.7.635,4.017,4.017,0,0,0,2.7-.994l-.545,3.457a8.4,8.4,0,0,1-2.9.594,5.322,5.322,0,0,1-3.8-1.344,4.608,4.608,0,0,1-1.433-3.524,6.791,6.791,0,0,1,.086-1.053,6.684,6.684,0,0,1,2.555-4.33,6.949,6.949,0,0,1,4.438-1.589A6.116,6.116,0,0,1,191.377,247.081Zm9.21-.3-.453,2.848h-2.407l-1.325,8.339H192.92l1.329-8.34h-2.422l.453-2.848Zm12.076-.015-1.779,11.2h-3.461l1-6.289-5.193,6.289h-3.3l1.779-11.2h3.452l-1.016,6.392,5.243-6.392Zm8.527,6.825-3.221,3.65-1.374-.986,2.386-2.665-1.525-2.7,1.679-.977Zm-3.579,0-3.244,3.65L213,256.258l2.383-2.665-1.522-2.7,1.676-.977Z" transform="translate(-9.512 -244.807)"/></g><g transform="translate(1219 28)"><g class="c"><path class="b" d="M64.1,28.524h2.954C67.869,27,68.786,25.366,69.7,23.94a79.141,79.141,0,0,1,14.059-4.788,69.21,69.21,0,0,0-3.769,9.372h1.019a62.613,62.613,0,0,1,4.075-9.678c3.158-.713,6.724-1.426,10.7-1.936-1.121,3.871-2.037,7.742-2.852,11.614h1.019A115.45,115.45,0,0,1,96.8,16.809a110.983,110.983,0,0,1,12.123-.713v.509h0V28.524h1.019V16.5h0v-.509a105.264,105.264,0,0,1,11.817.713,117.823,117.823,0,0,1,2.954,11.817h1.019c-.815-3.973-1.732-7.844-2.852-11.715a87.226,87.226,0,0,1,10.9,2.037,71.166,71.166,0,0,1,4.177,9.678h1.019a79.4,79.4,0,0,0-3.871-9.372,68.266,68.266,0,0,1,14.874,5.7c.713,1.222,1.426,2.445,2.037,3.667h2.954A50.527,50.527,0,0,0,85.188,6.214c-.1.1-.2.1-.306.2a8.8,8.8,0,0,0-1.63,1.019,6.852,6.852,0,0,0-1.121.713c-.306.2-.509.306-.815.509a10.669,10.669,0,0,0-1.121.815c-.2.1-.408.306-.611.407-.611.407-1.222.917-1.732,1.324-.1,0-.1.1-.2.1l-1.834,1.528-.1.1A39.255,39.255,0,0,0,72.148,16.5h0l-.408.407h0A52.057,52.057,0,0,0,64.1,28.524Zm73.451-16.911c.1.1.2.1.306.2.509.407,1.019.815,1.63,1.222.2.1.306.306.509.407a31.413,31.413,0,0,1,3.362,3.056,45.371,45.371,0,0,1,5.4,6.316,79.53,79.53,0,0,0-14.262-5.094c-.2-.509-.509-.917-.713-1.426h0A37.96,37.96,0,0,0,121.863,4.075,49.463,49.463,0,0,1,137.551,11.613ZM117.278,3.26A20.876,20.876,0,0,1,122.066,5.6a35.229,35.229,0,0,1,10.595,11h.509l-.407.2.306.611a89.133,89.133,0,0,0-10.493-1.834c-1.732-4.686-3.973-9.271-7.641-12.632A8.684,8.684,0,0,1,117.278,3.26Zm-7.233-.611a23.025,23.025,0,0,1,2.649.1,14.977,14.977,0,0,1,3.871,3.26,36.973,36.973,0,0,1,5.094,9.474,102.065,102.065,0,0,0-11.512-.611C110.045,10.7,110.045,6.621,110.045,2.648Zm-3.769.1a24.826,24.826,0,0,1,2.751-.1V14.873a101.535,101.535,0,0,0-11.614.713,39.7,39.7,0,0,1,3.667-7.539,14.945,14.945,0,0,1,4.788-4.992C105.97,2.852,106.072,2.75,106.276,2.75Zm-2.343.2c-3.667,3.362-5.909,7.946-7.641,12.632h-.1v.1c-3.769.509-7.233,1.121-10.289,1.834a4.13,4.13,0,0,0,.509-.917h0A35.008,35.008,0,0,1,96.8,5.806a23.615,23.615,0,0,1,4.788-2.445A18.8,18.8,0,0,1,103.933,2.954ZM75.815,16.5A47.358,47.358,0,0,1,97.209,4.278,37.908,37.908,0,0,0,86,15.484l-.1-.1c-.509.815-.917,1.528-1.324,2.343A99.2,99.2,0,0,0,71.027,22,48.738,48.738,0,0,1,75.815,16.5Z" transform="translate(1.201 0)"/><path class="b" d="M148.492,76a57.847,57.847,0,0,1-5.094,6.112l-.1.1A46.837,46.837,0,0,1,121.9,94.439a35.092,35.092,0,0,0,6.724-5.6,28.15,28.15,0,0,0,1.936-2.241l.1-.1h0A59.348,59.348,0,0,0,136.572,76.1h-1.121a51.9,51.9,0,0,1-5.909,10.187h0c-.509.611-1.121,1.324-1.732,1.936l-.1.1h0a32.941,32.941,0,0,1-6.927,5.5,29.788,29.788,0,0,1-3.667,1.732c-.713.1-1.426.2-2.241.306,3.056-2.751,4.992-6.316,6.622-10.086a76.7,76.7,0,0,0,3.464-9.678H123.94A62.184,62.184,0,0,1,119.865,87l.1.1c-1.528,3.158-3.362,6.214-6.214,8.354a2.082,2.082,0,0,1-.917.509,26.693,26.693,0,0,1-2.852.1V82.622h0V76h-1.019v5.909h0v14.16c-1.019,0-2.037-.1-3.056-.1a13.485,13.485,0,0,1-2.954-2.445A30.171,30.171,0,0,1,98.777,86.9h0a70.6,70.6,0,0,1-3.566-10.8H94.193c.611,2.445,1.426,4.89,2.241,7.233h-.1c1.732,4.584,3.464,8.761,7.233,12.123l.306.306c-.815-.1-1.528-.2-2.343-.306a20.169,20.169,0,0,1-4.686-2.343,35.615,35.615,0,0,1-8.557-8.048h0a30.322,30.322,0,0,1-2.037-2.954h0Q84.413,79.056,82.885,76H81.764a49.237,49.237,0,0,0,8.557,12.938l.1-.1a34.255,34.255,0,0,0,7.233,5.7c-.2-.1-.509-.1-.713-.2a56.211,56.211,0,0,1-5.4-1.834,46.238,46.238,0,0,1-15.79-10.391A48.563,48.563,0,0,1,70.558,76H67.4A51.364,51.364,0,0,0,73,83.029c.2.2.306.407.509.509l.408.407a2.7,2.7,0,0,0,.611.509c.1.1.306.2.407.408a50.252,50.252,0,0,0,34.637,13.753h0a49.923,49.923,0,0,0,35.554-14.67A48.311,48.311,0,0,0,151.65,76Z" transform="translate(1.263 1.424)"/></g></g></g></svg>