<svg xmlns="http://www.w3.org/2000/svg" xmlns:xlink="http://www.w3.org/1999/xlink" viewBox="0 0 274.63 774.16"><defs><linearGradient id="a" x1="94.43" y1="731.56" x2="88.71" y2="736.35" gradientUnits="userSpaceOnUse"><stop offset="0"/><stop offset="1" stop-color="#fff"/></linearGradient><linearGradient id="b" x1="90.82" y1="734.83" x2="93.12" y2="734.04" gradientTransform="translate(484.72 107.06) rotate(39.19)" xlink:href="#a"/><linearGradient id="c" x1="75.1" y1="729.74" x2="78.47" y2="734.21" xlink:href="#a"/><linearGradient id="d" x1="77.21" y1="732.97" x2="75.48" y2="731.8" xlink:href="#a"/><linearGradient id="e" x1="233.75" y1="735.3" x2="239.89" y2="739.44" xlink:href="#a"/><linearGradient id="f" x1="237.58" y1="738.16" x2="235.36" y2="737.57" xlink:href="#a"/><linearGradient id="g" x1="252.77" y1="731.83" x2="249.93" y2="736.57" xlink:href="#a"/><linearGradient id="h" x1="250.98" y1="735.21" x2="252.65" y2="733.9" xlink:href="#a"/><linearGradient id="i" x1="27.11" y1="195.66" x2="85.54" y2="195.66" gradientUnits="userSpaceOnUse"><stop offset="0"/><stop offset="0.04" stop-color="#5e5f5d"/><stop offset="0.12" stop-color="#c6bdbb"/><stop offset="0.19" stop-color="#efede9"/><stop offset="0.24" stop-color="#fff"/><stop offset="0.49" stop-color="#d8dbd0"/><stop offset="0.71" stop-color="#afa4a0"/><stop offset="0.91" stop-color="#635a5e"/><stop offset="1"/></linearGradient><linearGradient id="j" x1="197.42" y1="252.47" x2="265.43" y2="252.47" xlink:href="#i"/><linearGradient id="k" x1="53.3" y1="220.44" x2="215.66" y2="220.44" xlink:href="#i"/><linearGradient id="l" x1="67.36" y1="672.16" x2="125.21" y2="672.16" gradientUnits="userSpaceOnUse"><stop offset="0"/><stop offset="0.06" stop-color="#5e5f5d"/><stop offset="0.12" stop-color="#c6bdbb"/><stop offset="0.19" stop-color="#efede9"/><stop offset="0.24" stop-color="#fff"/><stop offset="0.4" stop-color="#d8dbd0"/><stop offset="0.62" stop-color="#afa4a0"/><stop offset="0.78" stop-color="#635a5e"/><stop offset="1"/></linearGradient><linearGradient id="m" x1="126.72" y1="662.37" x2="81.35" y2="671.19" gradientUnits="userSpaceOnUse"><stop offset="0"/><stop offset="0.04" stop-color="#121212"/><stop offset="0.17" stop-color="#434343"/><stop offset="0.3" stop-color="#6d6d6d"/><stop offset="0.44" stop-color="#8f8f8f"/><stop offset="0.57" stop-color="#aaa"/><stop offset="0.71" stop-color="#bdbdbd"/><stop offset="0.85" stop-color="#c8c8c8"/><stop offset="1" stop-color="#ccc"/></linearGradient><linearGradient id="n" x1="179.51" y1="628.28" x2="239.76" y2="628.28" xlink:href="#l"/><linearGradient id="o" x1="240.19" y1="616.77" x2="215.32" y2="626.32" gradientUnits="userSpaceOnUse"><stop offset="0"/><stop offset="0.33" stop-color="#2f2f2f"/><stop offset="1" stop-color="#999"/></linearGradient></defs><title>woman-1</title><path d="M48.58,377.39c-.42,1.73-39.11,12-41.82,6.21l.37-10,39.35-1.42Z" style="fill:#1a1a1a;stroke:#000;stroke-miterlimit:22.925600000000003;stroke-width:1.0001px;fill-rule:evenodd"/><path d="M19.17,341.36c-2,7.43-3.17,11-4.29,18.19-.8,6.32-5.61,26.8-5.81,31.68.25,2.49,1.29,5,1.81,7.45,1.15,5.35,2.37,10.51,5.46,15.67,8.93,3.22,18.73,4.59,25.15,5.58l.28-2.66c-2.92-5.08-7.17-5.17-12.11-8.39a61.09,61.09,0,0,1-2.24-17.81l3.19-2.22,1.52,3.94c0,9.51,1.67,14.51,4,19.11,3.23,1.85,5,.35,5.49-1.66l-1.36-4.46L39.86,392l.84-8.08-.64-7-1.68-10.1-2.89-8.65a22.7,22.7,0,0,1,1.3-11Z" style="fill:#fc9;stroke:#000;stroke-linejoin:round;stroke-width:1.0006000000000002px;fill-rule:evenodd"/><path d="M33.09,343.83c-2,7.43-1.56,7.43-2.67,14.66L13.8,378.56l11.07-.17,9.78,1,1.94,3.36-.89,12.82,1.86,7.84-.09,5.34c1.05,3.83,2.64,2.49,3,1.41l-1.36-4.46-.38-13.82.84-8.08-.64-7-1.68-10.1-2.89-8.65a22.69,22.69,0,0,1,1.3-11Z" style="fill:#e3ab74;fill-rule:evenodd"/><path d="M31.44,418.31l-8.84-3.93a38,38,0,0,1-4.83-16.11l-3-4.55" style="fill:none;stroke:#000;stroke-linejoin:round;stroke-width:1.0006000000000002px;fill-rule:evenodd"/><path d="M117.65,727.39a71.89,71.89,0,0,1,1.55,19.1l-4.35,5.3-13.06,9.57-20.06,3.11-19.35-.69-.86-6.25S61,750.37,64,748A35.43,35.43,0,0,0,74.2,735.45c3.16-6.48,2.66-11.48,4.06-16l23.2-9Z" style="fill:#2e3132;stroke:#000;stroke-linejoin:round;stroke-width:1.0006000000000002px;fill-rule:evenodd"/><path d="M87.93,723.43l13.31-1.82L116.57,727a71.89,71.89,0,0,1,1.55,19.09l-4.35,5.3L103.18,760l-6.83,3.49-6.63.06L89,754.84l-2.4-2.27L74.22,751.2l14.4-1.46L96.53,747l9.2-5,.85-5.07-2-5.87-2.7-3-5-1.42Z" style="fill:#171919;fill-rule:evenodd"/><path d="M87.17,723.78c-.35,5.57,1.17,9.55-.93,12a5,5,0,0,1-3.26.87c-.74-.09-2.16-.32-2.29-1.45-.32-2.88,2.53-5.4,4.17-10.53C85,724.28,85,722.84,87.17,723.78Z" style="fill:#2e3132;stroke:#000;stroke-linejoin:round;stroke-width:1.0006000000000002px;fill-rule:evenodd"/><path d="M118.47,747.21A19.53,19.53,0,0,1,111,753.5c-3.74,2-5,4.42-11.72,7.36s-16.5,4.38-25.33,3.5a52.3,52.3,0,0,0-9.63-.34l.2,2.34c.57,1.87,4.28,3.7,8.49,4.25a61.62,61.62,0,0,0,11.24.28l.72-1.74.92-.09.51,1.74c1.85-.18,3.61-.44,5.23-.74l.7-1.8.89-.22,0,1.7,1.34-.3,2.92-.7.49-1.53.7-.75,0,1.95a26.39,26.39,0,0,0,3.58-1.36l.63-1.51.57-.68v1.56c1.56-.92,1.43-1.59,1.43-1.59l1.21-2.44,6.68-.34a18.46,18.46,0,0,0,2.82-1.39l0-2.45.37-.1.77,1.77a8.81,8.81,0,0,0,2-1.72l.67-11.22-.31-.21.17-.7Z" style="fill:#333;stroke:#000;stroke-linejoin:round;stroke-width:1.0006000000000002px;fill-rule:evenodd"/><path d="M119.49,744.7c-.67,2.55-2.55,3.25-5.07,3.79-1.34.29-2.19,2.49-2.82,3-1.95,1.62-3,1.71-4.94,3.13-3.3,2.37-5.86,5.53-11.1,7.49-1.66.62-2-1.39-4.74-.81a72.18,72.18,0,0,1-20.2,1.58c-9.51-.87-8.69-3.71-9.58-5.64-1.45.4-.71,6.79-.59,9.57.62,1.87,5.09,3.93,9.63,4.48a71.64,71.64,0,0,0,12.12.27l.79-1.15,1-.09.55,1.14c2-.18,3.89-.44,5.64-.75l.76-1.32,1-.22,0,1.22,1.44-.31,3.15-.71.53-.94.75-.39-.06,1a30,30,0,0,0,3.85-1.37l.68-1,.5-.56.11,1a6.33,6.33,0,0,0,2.14-1.59l1.31-2.28,6.61-.51a20.44,20.44,0,0,0,3-1.39l.15-1.26.4-.34.7.82a18,18,0,0,0,3-2.57C120.21,755.41,120.88,745.07,119.49,744.7Z" style="fill:#2e3132;stroke:#000;stroke-linejoin:round;stroke-width:1.0006000000000002px;fill-rule:evenodd"/><path d="M60.29,764.21c.06,1,.13,1.92.16,2.61.62,1.87,5.09,3.93,9.63,4.48a71.64,71.64,0,0,0,12.12.27l.79-1.15,1-.09.55,1.14c2-.18,3.89-.44,5.64-.75l.76-1.32,1-.22,0,1.22,1.44-.31,3.15-.71.53-.94.75-.39-.06,1a30,30,0,0,0,3.85-1.37l.68-1,.5-.56.11,1a6.33,6.33,0,0,0,2.14-1.59l1.31-2.28,6.61-.51a20.44,20.44,0,0,0,3-1.39l.15-1.26.4-.34.7.82a18,18,0,0,0,3-2.57c0-.32.15-2.37.17-2.9a11.39,11.39,0,0,1-4.05,2.54c-.7.28-1.34,1.75-2,2-1.51.58-2-1-3.53-.45-3,1.06-5.78,4.47-7.63,5-.9.28-1.8-.29-2.7,0-1.14.32-1.43,1.32-2.55,1.6C81,770.09,65.15,769.77,60.29,764.21Z" style="fill:#1a1a1a;stroke:#000;stroke-linejoin:round;stroke-width:1.0001px;fill-rule:evenodd"/><path d="M120.36,751c-.65,2.69-3.06,3.17-4.95,4.15-.79.41-1.29,1.85-1.9,2-.89.2-1.84-.73-3.83,0s-4.29,4.26-6.55,5c-1,.36-2-.44-3.33.1-.85.33-1.6,1.29-2.27,1.37-1,.13-1.69-.79-2.69-1.33" style="fill:none;stroke:#000;stroke-linejoin:round;stroke-width:1.0001px;fill-rule:evenodd"/><path d="M120.1,748.77c-.65,2.69-3.81,3.17-5.3,4.16a18.08,18.08,0,0,0-3.31,3.9" style="fill:none;stroke:#000;stroke-linejoin:round;stroke-width:1.0001px;fill-rule:evenodd"/><path d="M78.91,730.17c2.7,2.49,8.21,2.91,10.83,1.77" style="fill:none;stroke:#000;stroke-linecap:round;stroke-linejoin:round;stroke-width:2.0001px;fill-rule:evenodd"/><path d="M108.88,753c-1.23-9.33-7.78-15.78-12.52-19.56" style="fill:none;stroke:#000;stroke-linejoin:round;stroke-width:1.0001px;fill-rule:evenodd"/><path d="M107.58,753.36c-1.23-9.33-7.12-14.65-11.86-18.43" style="fill:none;stroke:#000;stroke-linejoin:round;stroke-width:0.5px;stroke-dasharray:2.500200033187866,1.500100016593933;fill-rule:evenodd"/><path d="M113,762.47l-1.31-1.79a8.34,8.34,0,0,0-5.53,2.6" style="fill:none;stroke:#000;stroke-linejoin:round;stroke-width:1.0001px;fill-rule:evenodd"/><path d="M85.48,752.19s-7.11-.09-12.69-.25c-3.35-.1-6.15-.57-6.53-.1-1,1.25,3.09,2.08,5.71,2.16S85.48,752.19,85.48,752.19Z" style="fill:#ccc;fill-rule:evenodd"/><path d="M97.12,725.31a24,24,0,0,1-4.78,14.92c-2.06,2.63-20.23,3.61-18.61-3.62" style="fill:none;stroke:#000;stroke-linejoin:round;stroke-width:1.0006000000000002px;fill-rule:evenodd"/><path d="M95.91,725c0,3.46-.89,9.79-4.54,14.32-1.7,2.11-18.54,3.47-16.81-4.36" style="fill:none;stroke:#000;stroke-linejoin:round;stroke-width:0.5px;stroke-dasharray:2.500200033187866,1.500100016593933;fill-rule:evenodd"/><path d="M91.92,731.32l-3,2.43a1.76,1.76,0,0,1,.21-2.87A1.84,1.84,0,0,1,91.92,731.32Z" style="fill:none;stroke:#666;stroke-linejoin:round;stroke-width:0.5px;fill-rule:evenodd"/><path d="M93,735.77a1.43,1.43,0,0,1-2-.18l-2-2.46,2.32-1.89,2,2.46A1.42,1.42,0,0,1,93,735.77Z" style="stroke:#000;stroke-linejoin:round;stroke-width:0.5px;fill-rule:evenodd;fill:url(#a)"/><ellipse cx="91.97" cy="734.44" rx="0.94" ry="0.94" transform="translate(-443.36 223.28) rotate(-39.19)" style="stroke:#000;stroke-linejoin:round;stroke-width:0.5px;fill:url(#b)"/><path d="M77.16,729.65l1.44,2.59a1.92,1.92,0,0,0,.58-2.56C78.41,728.27,77.16,729.65,77.16,729.65Z" style="fill:none;stroke:#666;stroke-linejoin:round;stroke-width:0.5px;fill-rule:evenodd"/><path d="M75.32,733.41c.44.79,1.23.31,1.4.14l2-1.86-1.11-2-2,1.86A1.57,1.57,0,0,0,75.32,733.41Z" style="stroke:#000;stroke-linejoin:round;stroke-width:0.5px;fill-rule:evenodd;fill:url(#c)"/><path d="M76.93,731.83a.57.57,0,0,0-.94-.09,1,1,0,0,0-.24,1.19.57.57,0,0,0,.94.08A1,1,0,0,0,76.93,731.83Z" style="stroke:#000;stroke-linejoin:round;stroke-width:0.5px;fill-rule:evenodd;fill:url(#d)"/><path d="M89.62,731.43A44.07,44.07,0,0,0,82,723.76" style="fill:none;stroke:#000;stroke-linecap:round;stroke-linejoin:round;stroke-width:2.0001px;fill-rule:evenodd"/><path d="M79.07,730.09c1.55-2.24,8.72-5.91,11.21-5.76" style="fill:none;stroke:#000;stroke-linecap:round;stroke-linejoin:round;stroke-width:2.0001px;fill-rule:evenodd"/><path d="M198.72,127.35c-2.47-8-9.22-56.26-61.83-53.66-23.84,1.18-35.69,8.92-44,17.64-10,10.52-13.94,22.87-15.78,32.15,5.26,9,15.51,36.08,55.48,38.84C173.37,165.13,191.35,139.5,198.72,127.35Z" style="fill:#ff0;stroke:#000;stroke-linejoin:round;stroke-width:1.0001px;fill-rule:evenodd"/><path d="M172.84,82.73c4.66,3.86,8.66,6.86,12,11.93a73.3,73.3,0,0,1,6.7,12,112.24,112.24,0,0,1,5.9,18c-.86,1.42-2.14,4.06-3.33,5.8L191,122.34l-.54-8.76-3-10.71L181.16,91.3l-2.38-3-2-.36-1.31.69-3.31,3-3.65-3.25Z" style="fill:#edd20e;fill-rule:evenodd"/><path d="M126.21,595.41l.24-16.6c-.94-8.56-2.41-17.37-2.64-26.28-.9-34.93,6.08-74.81,7.67-108.58l2.76-68.89L48.89,376.9c.4,7.78.11,17.5.49,29.9.55,18.13,4.7,39.49,5.29,50.86l5.24,45.75c1.33,17.23,4.59,36.11,4.93,52.72.24,11.9-2.28,27.09-3,39l-.09.79c-.51,8.13-.85,12.05-1.17,20.52l.86,9.41c.86,9.34-2,23.46,1.43,32.29,5,13,5.27,19.64,5.27,19.64S67.63,702,69,708.15s7.15,18.41,7.92,17.83c5.62-4.24,30.23,1.2,41.69.89l4.28-13.45-.5-16-2.6-11.61s4-6.71,3.55-11.42c-.91-9.95.48-15.76,2.11-24.81l.09-3.28c1-5.24,1.27-10.41,1.25-17.37,0-8.7-1.1-29.12-1.1-29.12A41,41,0,0,1,126.21,595.41Z" style="fill:#333;stroke:#000;stroke-miterlimit:22.925600000000003;stroke-width:1.0001px;fill-rule:evenodd"/><path d="M125.83,594.87l.24-16.6c-.94-8.56-2.41-17.37-2.64-26.28-.9-34.93,6.08-74.81,7.67-108.58l1-25.57-82.88-6.33c.53,8.4,1.65,17.21,2.71,25.2,2.91-.71,10.06-2.36,13.21-2.36,4,0,31.42,2.23,40.77,5.57s15.6,3.34,16.49,14.48-1.34,55-3.79,72-10.47,40.33-14.93,52.8S92.8,601,100.82,598.11s15.6-19.83,16-8.47-6.91,33-7.13,43,1.11,20.94-3.34,22.95-30.75,6.46-27.18,11.81,14.26.45,24.73,8.47,10.69,18.49,7.58,21.83-.22,5.12,2.9,10.47,1.78,7.69-3,9.69c-4.22,1.76-11.8,5.86-13.55,6.82,7.49.78,15.22,1.79,20.34,1.64l4.28-13.45-.5-16-2.6-11.61s4-6.71,3.55-11.41c-.91-10,.48-15.76,2.11-24.81l.09-3.28c1-5.24,1.27-10.41,1.25-17.37,0-8.7-1.1-29.12-1.1-29.12A40.7,40.7,0,0,1,125.83,594.87Z" style="fill:#1a1a1a;fill-rule:evenodd"/><path d="M62,524c5-1.72,44.24,1.13,61.94,11" style="fill:none;stroke:#000;stroke-miterlimit:22.925600000000003;stroke-width:1.0001px;fill-rule:evenodd"/><path d="M62.21,525.42c5-1.72,44.24,1.13,61.94,11" style="fill:none;stroke:#ff0;stroke-linejoin:round;stroke-width:0.5px;stroke-dasharray:2.500200033187866,1.500100016593933;fill-rule:evenodd"/><path d="M62.62,527.88c5-1.72,43.86,1.13,61.41,11" style="fill:none;stroke:#ff0;stroke-linejoin:round;stroke-width:0.5px;stroke-dasharray:2.500200033187866,1.500100016593933;fill-rule:evenodd"/><path d="M51.82,430.84c.84,14.51.84,31.83,1.59,37.75s4.45,25.4,6.62,41l1.73,11.26,24.66-68.34C86.32,451.7,62.13,437.05,51.82,430.84Z" style="fill:#333;stroke:#000;stroke-miterlimit:22.925600000000003;stroke-width:1.0001px;fill-rule:evenodd"/><path d="M52.74,447.13c.26,8.95.44,16.92.9,20.55.74,5.83,4.38,25,6.52,40.33l1.7,11.09,3.37-9.35a124.37,124.37,0,0,1-3.81-14.44c-.83-5.56-2.05-27.45-1.93-31.89s21.64,1.8,21.64,1.8l1.09-3.1L55.61,448Z" style="fill:#1a1a1a;fill-rule:evenodd"/><line x1="80.19" y1="465.65" x2="61.56" y2="518.15" style="fill:none;stroke:#ff0;stroke-linejoin:round;stroke-width:0.5px;stroke-dasharray:2.500200033187866,1.500100016593933"/><line x1="79.4" y1="461.71" x2="60.77" y2="514.22" style="fill:none;stroke:#ff0;stroke-linejoin:round;stroke-width:0.5px;stroke-dasharray:2.500200033187866,1.500100016593933"/><path d="M52.17,421.62c10.72,8.79,23.62,16.21,40.09,25.29L85,466.56,51,454.49C51,442.55,50.39,429.59,52.17,421.62Z" style="fill:#333;stroke:#000;stroke-miterlimit:22.925600000000003;stroke-width:1.0001px;fill-rule:evenodd"/><path d="M52.6,422.57q2.41,2,5,3.87c-1.06,1.66-2.49,5.51-1.13,13.38,1.24,7.14,1.87,13.21,2.18,16.83l-7.13-2.53C51.53,442.66,50.9,430.22,52.6,422.57Z" style="fill:#1a1a1a;fill-rule:evenodd"/><polyline points="90.86 447.16 84.23 464.68 51.83 453.3" style="fill:none;stroke:#ff0;stroke-linejoin:round;stroke-width:0.5px;stroke-dasharray:2.500200033187866,1.500100016593933;fill-rule:evenodd"/><polyline points="88.84 445.93 82.77 461.75 51.69 450.75" style="fill:none;stroke:#ff0;stroke-linejoin:round;stroke-width:0.5px;stroke-dasharray:2.500200033187866,1.500100016593933;fill-rule:evenodd"/><path d="M52.41,425.86C62.7,434,75.12,441.14,90.73,449.71" style="fill:none;stroke:#ff0;stroke-linejoin:round;stroke-width:0.5px;stroke-dasharray:2.500200033187866,1.500100016593933;fill-rule:evenodd"/><rect x="56.29" y="441.08" width="7.02" height="14.06" transform="translate(-381.54 350.13) rotate(-69.88)" style="fill:none;stroke:#ff0;stroke-linejoin:round;stroke-width:0.5px;stroke-dasharray:2.500200033187866,1.500100016593933"/><path d="M67.73,447.27c-.36,0-15.63,1.61-15.63,1.61" style="fill:none;stroke:#ff0;stroke-linejoin:round;stroke-width:0.5px;stroke-dasharray:2.500200033187866,1.500100016593933;fill-rule:evenodd"/><path d="M54.47,442.42c.27.23,10.89,11.33,10.89,11.33" style="fill:none;stroke:#ff0;stroke-linejoin:round;stroke-width:0.5px;stroke-dasharray:2.500200033187866,1.500100016593933;fill-rule:evenodd"/><line x1="63.52" y1="574.52" x2="80.56" y2="569.37" style="fill:none;stroke:#000;stroke-linejoin:round;stroke-width:1.0006000000000002px"/><line x1="125.9" y1="574.7" x2="106.41" y2="569.55" style="fill:none;stroke:#000;stroke-linejoin:round;stroke-width:1.0006000000000002px"/><line x1="61.25" y1="623.69" x2="79.84" y2="628.84" style="fill:none;stroke:#000;stroke-linejoin:round;stroke-width:1.0006000000000002px"/><line x1="126.75" y1="624.04" x2="107.37" y2="629.2" style="fill:none;stroke:#000;stroke-linejoin:round;stroke-width:1.0006000000000002px"/><polyline points="63.69 575.78 76.76 571.83 76.57 573.58 63.04 580.7" style="fill:none;stroke:#ff0;stroke-linejoin:round;stroke-width:0.5px;stroke-dasharray:2.500200033187866,1.500100016593933;fill-rule:evenodd"/><polyline points="125.7 575.96 110.75 572 110.97 573.76 126.44 580.88" style="fill:none;stroke:#ff0;stroke-linejoin:round;stroke-width:0.5px;stroke-dasharray:2.500200033187866,1.500100016593933;fill-rule:evenodd"/><polyline points="61.43 622.43 75.7 626.38 75.49 624.63 60.73 617.51" style="fill:none;stroke:#ff0;stroke-linejoin:round;stroke-width:0.5px;stroke-dasharray:2.500200033187866,1.500100016593933;fill-rule:evenodd"/><polyline points="126.56 622.78 111.69 626.74 111.91 624.98 126.55 618.22" style="fill:none;stroke:#ff0;stroke-linejoin:round;stroke-width:0.5px;stroke-dasharray:2.500200033187866,1.500100016593933;fill-rule:evenodd"/><path d="M210.32,733.18a68.71,68.71,0,0,0,.17,18.71l4.8,4.79,13.83,8.21,20.22,1.33,19.16-2.3.29-6.15s-.12-7-3.27-9.07a35.2,35.2,0,0,1-11.31-11.34c-3.72-6-3.67-10.95-5.47-15.27l-23.86-6.76Z" style="fill:#2e3132;stroke:#000;stroke-linejoin:round;stroke-width:1.0006000000000002px;fill-rule:evenodd"/><path d="M240.28,727.09c.85,5.39-.31,9.39,2,11.55a5.09,5.09,0,0,0,3.31.57c.73-.15,2.12-.49,2.14-1.6.06-2.82-3-5-5.09-9.89C242.51,727.4,242.34,726,240.28,727.09Z" style="fill:#2e3132;stroke:#000;stroke-linejoin:round;stroke-width:1.0006000000000002px;fill-rule:evenodd"/><path d="M238.21,727.54l6.25.09,2.11,1.48,4.53,6.31L254.6,741l-.51.72,1.6,1.17,1.13,2.42.16,3.5-1.89,2.62L252,752.93l2.85.43,3.91-.23,3.18-.42,1.93-.11,1.44,1,.26,1.84-1,1.76.36,3.51,1.15.45,1.57-.23.4-2.16s-.12-7.35-2.89-9.23a39,39,0,0,1-11.41-11.66c-3.72-6-3.67-10.95-5.47-15.27L211,733.27l-.1,5.21,2.65-2.18,10.63-4.53Z" style="fill:#171919;fill-rule:evenodd"/><path d="M211.29,752.53a19.59,19.59,0,0,0,8,5.49c3.9,1.65,5.37,3.88,12.31,6.18s16.79,2.87,25.48,1.27a53.33,53.33,0,0,1,9.54-1.14v2.29c-.4,1.87-3.92,4-8.06,4.85a62.68,62.68,0,0,1-11.14,1.21l-.88-1.63h-.92l-.35,1.73c-1.86,0-3.62-.12-5.26-.28l-.86-1.69-.91-.14.17,1.65-1.36-.18-3-.44-.62-1.45-.76-.67.22,1.89a26.89,26.89,0,0,1-3.68-1l-.76-1.41-.63-.61.14,1.51c-1.63-.76-1.56-1.42-1.56-1.42L225,766.23l-6.67.23a18.57,18.57,0,0,1-2.93-1.11l-.24-2.38-.38-.07-.6,1.79a8.82,8.82,0,0,1-2.15-1.51l-1.68-10.86.29-.23-.23-.67Z" style="fill:#333;stroke:#000;stroke-linejoin:round;stroke-width:1.0006000000000002px;fill-rule:evenodd"/><path d="M210,750.18c.89,2.42,2.83,2.94,5.38,3.26,1.36.17,2.4,2.23,3.08,2.69,2.08,1.41,3.09,1.41,5.19,2.63,3.49,2,6.32,4.89,11.71,6.35,1.71.46,1.84-1.52,4.63-1.19a73.57,73.57,0,0,0,20.21-.17c9.37-1.65,8.3-4.35,9-6.29,1.48.27,1.32,6.54,1.45,9.26-.45,1.87-4.7,4.25-9.16,5.17a72.91,72.91,0,0,1-12,1.28l-.88-1h-1l-.44,1.16c-2,0-3.9-.1-5.67-.25l-.87-1.22-1-.13.14,1.19-1.46-.18-3.19-.42-.61-.87-.78-.32.15,1a30.47,30.47,0,0,1-4-1l-.77-.95-.55-.5,0,.95a6.37,6.37,0,0,1-2.27-1.37l-1.51-2.11-6.61.06A20.85,20.85,0,0,1,215.1,766l-.26-1.21-.43-.29-.62.86a17.94,17.94,0,0,1-3.21-2.24C210.29,760.65,208.7,750.65,210,750.18Z" style="fill:#2e3132;stroke:#000;stroke-linejoin:round;stroke-width:1.0006000000000002px;fill-rule:evenodd"/><path d="M270.62,764.17c0,1,0,1.88.07,2.56-.45,1.87-4.7,4.25-9.16,5.17a72.91,72.91,0,0,1-12,1.28l-.88-1h-1l-.44,1.16c-2,0-3.9-.1-5.67-.25l-.87-1.22-1-.13.14,1.19-1.46-.18-3.19-.42-.61-.87-.78-.32.15,1a30.47,30.47,0,0,1-4-1l-.77-.95-.55-.5,0,.95a6.37,6.37,0,0,1-2.27-1.37l-1.51-2.11-6.61.06A20.85,20.85,0,0,1,215.1,766l-.26-1.21-.43-.29-.62.86a17.94,17.94,0,0,1-3.21-2.24c0-.31-.37-2.29-.43-2.81a11.51,11.51,0,0,0,4.26,2.13c.72.21,1.48,1.59,2.21,1.79,1.56.44,1.94-1.12,3.47-.73,3.06.78,6.15,3.86,8,4.26.92.2,1.77-.44,2.68-.26,1.16.22,1.54,1.16,2.68,1.34C250.6,771.63,266.29,770,270.62,764.17Z" style="fill:#1a1a1a;stroke:#000;stroke-linejoin:round;stroke-width:1.0001px;fill-rule:evenodd"/><path d="M209.76,756.4c.89,2.56,3.33,2.82,5.29,3.63.82.33,1.44,1.69,2.06,1.77.91.12,1.77-.86,3.8-.33s4.65,3.79,7,4.35c1.06.26,1.91-.59,3.31-.19.87.25,1.7,1.12,2.38,1.14,1,0,1.6-.91,2.56-1.52" style="fill:none;stroke:#000;stroke-linejoin:round;stroke-width:1.0001px;fill-rule:evenodd"/><path d="M209.8,754.18c.89,2.56,4.07,2.76,5.64,3.6a17.94,17.94,0,0,1,3.64,3.52" style="fill:none;stroke:#000;stroke-linejoin:round;stroke-width:1.0001px;fill-rule:evenodd"/><path d="M249.06,732.61c-2.46,2.65-7.89,3.52-10.6,2.63" style="fill:none;stroke:#000;stroke-linecap:round;stroke-linejoin:round;stroke-width:2.0001px;fill-rule:evenodd"/><path d="M221.34,757.37c.38-9.18,6.31-16,10.68-20.08" style="fill:none;stroke:#000;stroke-linejoin:round;stroke-width:1.0001px;fill-rule:evenodd"/><path d="M222.66,757.59c.38-9.18,5.76-14.85,10.13-18.93" style="fill:none;stroke:#000;stroke-linejoin:round;stroke-width:0.5px;stroke-dasharray:2.500200033187866,1.500100016593933;fill-rule:evenodd"/><path d="M218.09,766.92l1.15-1.85a8.46,8.46,0,0,1,5.73,2.07" style="fill:none;stroke:#000;stroke-linejoin:round;stroke-width:1.0001px;fill-rule:evenodd"/><path d="M244.51,754.59s7.05-.69,12.58-1.31c3.32-.38,6.06-1.07,6.48-.64,1.12,1.13-2.88,2.28-5.48,2.58S244.51,754.59,244.51,754.59Z" style="fill:#ccc;fill-rule:evenodd"/><path d="M183,655.68c.69,5.7,1.85,15.64,2.44,20.85.68,5.62,5.8,12.49,9.37,22.94-.48,4.6-1.78,7.91-.88,13,1,5.52,8.42,14.3,15.14,23.66,12.09-3.09,28.22-13.18,41.29-10.9.31-10.39,6.93-20.35,4.18-30.48s-13-12.37-13.74-18.7c-1.08-9.09.25-19.07.09-28.79-.22-13.32-1.79-26.49-2.78-39.28l-16.68-65.81L218.89,500l-4.73-44.39-5.89-50.49-4.92-34.63-83,15.95s6.7,22.19,8.13,30.09c1.48,8.18,2.13,22.58,3.12,27.87,6.16,22.16,13.7,46.18,19.94,65.58,9.19,34.82,15.26,70.49,25.27,105.07,2.25,10.28,4,23.57,6.1,40.65Z" style="fill:#333;stroke:#000;stroke-miterlimit:22.925600000000003;stroke-width:1.0001px;fill-rule:evenodd"/><path d="M240.9,724.6a27.2,27.2,0,0,1,8.76,0c.31-10.39,6.93-20.35,4.18-30.48s-13-12.37-13.74-18.7c-1.08-9.09.25-19.07.09-28.79-.22-13.32-1.79-26.5-2.78-39.28l-16.68-65.81-2.57-42.25-4.73-44.39-3.06-26.19-80.49-9.36c1.07,8,1.11,20.46,1.93,25.27a142.14,142.14,0,0,1,33.55-3.38c17.42.32,34.28-1.56,37.13,10.56S210,510.23,209.27,520s-3.21,16.4-2.67,21.75,8.74,20.33,13,30.31,10.52,16.4,8.56,24.43-9.81,26.92-12.3,37.44-7.67,17.83-2,19.26,18-2.67,18.72,4.1-4.14,19.93-.49,23.94,16,5.34,16.38,11.48-5.19,10.23-14.11,12.19-14.62,9.45-10.34,9.63,14.26-7.84,16.58-3.39C242.31,714.38,241.49,721.08,240.9,724.6Z" style="fill:#1a1a1a;fill-rule:evenodd"/><path d="M210.68,423.7c2.17,13.63,5.74,29.7,6.22,35.35s.88,24.48,2,39.36l.63,10.8-38.21-58.32C181.22,450.16,201.87,431.59,210.68,423.7Z" style="fill:#333;stroke:#000;stroke-miterlimit:22.925600000000003;stroke-width:1.0001px;fill-rule:evenodd"/><path d="M213.14,439c1.58,8.35,3.06,15.79,3.35,19.25.48,5.56.87,24.11,1.93,38.75l.62,10.63-5.23-8a112.46,112.46,0,0,0,.75-14.18c-.34-5.32-3.65-25.88-4.69-30s-20.81,6.13-20.81,6.13L187.36,459l23.17-18.52Z" style="fill:#1a1a1a;fill-rule:evenodd"/><line x1="190.09" y1="461.83" x2="219.14" y2="506.7" style="fill:none;stroke:#ff0;stroke-linejoin:round;stroke-width:0.5px;stroke-dasharray:2.500200033187866,1.500100016593933"/><line x1="190.05" y1="458.01" x2="219.1" y2="502.89" style="fill:none;stroke:#ff0;stroke-linejoin:round;stroke-width:0.5px;stroke-dasharray:2.500200033187866,1.500100016593933"/><path d="M208.49,414.76c-8.68,10.36-19.78,19.91-34,31.71l11.12,16.75L216.39,445C213.9,433.95,211.87,421.79,208.49,414.76Z" style="fill:#333;stroke:#000;stroke-miterlimit:22.925600000000003;stroke-width:1.0001px;fill-rule:evenodd"/><path d="M208.13,415.74q-1.95,2.33-4.07,4.61c1.38,1.32,3.57,4.6,3.86,12.18.26,6.88.89,12.64,1.33,16.06l6.46-3.82C213.32,434.15,211.37,422.48,208.13,415.74Z" style="fill:#1a1a1a;fill-rule:evenodd"/><polyline points="175.85 446.88 185.94 461.76 215.3 444.54" style="fill:none;stroke:#ff0;stroke-linejoin:round;stroke-width:0.5px;stroke-dasharray:2.500200033187866,1.500100016593933;fill-rule:evenodd"/><polyline points="177.57 445.32 186.76 458.75 214.92 442.14" style="fill:none;stroke:#ff0;stroke-linejoin:round;stroke-width:0.5px;stroke-dasharray:2.500200033187866,1.500100016593933;fill-rule:evenodd"/><path d="M209.08,419.19c-8.38,9.71-19.07,18.85-32.58,30" style="fill:none;stroke:#ff0;stroke-linejoin:round;stroke-width:0.5px;stroke-dasharray:2.500200033187866,1.500100016593933;fill-rule:evenodd"/><polygon points="198.62 442.15 210.54 434.94 214.26 440.56 202.34 447.77 198.62 442.15" style="fill:none;stroke:#ff0;stroke-linejoin:round;stroke-width:0.5px;stroke-dasharray:2.500200033187866,1.500100016593933;fill-rule:evenodd"/><path d="M198.5,442.22c.35-.07,15.63-1.72,15.63-1.72" style="fill:none;stroke:#ff0;stroke-linejoin:round;stroke-width:0.5px;stroke-dasharray:2.500200033187866,1.500100016593933;fill-rule:evenodd"/><path d="M210.48,435c-.21.27-8.33,12.75-8.33,12.75" style="fill:none;stroke:#ff0;stroke-linejoin:round;stroke-width:0.5px;stroke-dasharray:2.500200033187866,1.500100016593933;fill-rule:evenodd"/><path d="M216.58,586.37c-3,4.05-12.5,7.23-23.95-.92-7.83-5.58-20.87-25.63-21-28.71-.27-7.58,4.65.47,21.18,13.31S216.58,586.37,216.58,586.37Z" style="fill:#1a1a1a;fill-rule:evenodd"/><path d="M230.36,728.72a25.42,25.42,0,0,0,6.27,14.82c2.28,2.39,20.42,1.81,18.16-5.09" style="fill:none;stroke:#000;stroke-linejoin:round;stroke-width:1.0006000000000002px;fill-rule:evenodd"/><path d="M231.7,728.36c.26,3.37,1.77,10.07,5.8,14.17,1.88,1.91,18.73,1.82,16.31-5.66" style="fill:none;stroke:#000;stroke-linejoin:round;stroke-width:0.5px;stroke-dasharray:2.500200033187866,1.500100016593933;fill-rule:evenodd"/><path d="M236.24,734.83l3.2,2.11a1.7,1.7,0,0,0-.47-2.78A1.85,1.85,0,0,0,236.24,734.83Z" style="fill:none;stroke:#666;stroke-linejoin:round;stroke-width:0.5px;fill-rule:evenodd"/><path d="M235.59,739.25a1.44,1.44,0,0,0,2-.34l1.77-2.56-2.47-1.65-1.77,2.56A1.38,1.38,0,0,0,235.59,739.25Z" style="stroke:#000;stroke-linejoin:round;stroke-width:0.5px;fill-rule:evenodd;fill:url(#e)"/><path d="M237,737.11a1,1,0,0,0-1.31.24.91.91,0,0,0,.26,1.28,1,1,0,0,0,1.31-.24A.91.91,0,0,0,237,737.11Z" style="stroke:#000;stroke-linejoin:round;stroke-width:0.5px;fill-rule:evenodd;fill:url(#f)"/><path d="M250.75,732l-1.2,2.64a1.87,1.87,0,0,1-.81-2.44C249.39,730.73,250.75,732,250.75,732Z" style="fill:none;stroke:#666;stroke-linejoin:round;stroke-width:0.5px;fill-rule:evenodd"/><path d="M252.93,735.46c-.36.81-1.19.4-1.38.26l-2.15-1.64.92-2.06,2.15,1.64A1.51,1.51,0,0,1,252.93,735.46Z" style="stroke:#000;stroke-linejoin:round;stroke-width:0.5px;fill-rule:evenodd;fill:url(#g)"/><path d="M251.18,734.07a.57.57,0,0,1,.93-.16,1,1,0,0,1,.35,1.14.57.57,0,0,1-.93.16A1,1,0,0,1,251.18,734.07Z" style="stroke:#000;stroke-linejoin:round;stroke-width:0.5px;fill-rule:evenodd;fill:url(#h)"/><path d="M238.53,734.75c1.2-2.08,4.56-6.57,6.12-7.72" style="fill:none;stroke:#000;stroke-linecap:round;stroke-linejoin:round;stroke-width:2.0001px;fill-rule:evenodd"/><path d="M248.9,732.55c-1.74-2-9.09-5-11.54-4.67" style="fill:none;stroke:#000;stroke-linecap:round;stroke-linejoin:round;stroke-width:2.0001px;fill-rule:evenodd"/><path d="M12.4,254.63c-2.83,16.72-8.18,41-9.22,62.06.24,7.85-1.44,26.8.39,38.08.56,3.45,2,26.72,2.92,28.49,7.48-7.8,37.28-8.16,42.17-6,2.9-.74,2.56-45.21,5.77-58.88,1.17-4.3,2.39-10.09,4.47-14.87,1.25-2.87-.26-7.83.57-9.53l7.83-15-1.17-12.45,4-8.9,15.43-48.13-8.23-78.4L52.94,140.5C38.37,156,27.91,193,21.27,214.11,18.71,225.48,14.21,242.82,12.4,254.63Z" style="fill:#333;stroke:#000;stroke-linejoin:round;stroke-width:1.0001px;fill-rule:evenodd"/><path d="M36.34,375.61c5.73-.07,10.44.37,12.14,1.11,2.9-.74,2.56-45.21,5.77-58.88,1.17-4.31,2.39-10.09,4.47-14.87,1.25-2.87-.26-7.83.57-9.53l7.83-15L65.95,266l4-8.9,2.88-9c-1.91-34.52-10.34-85.54-19-90.12-3.95-.17-5.67,5.57-6.21,32.7S51,242.91,46,237.4,35.66,210.22,34,222.69,50.7,274.34,45.72,282s-18.41-30.07-21.51-18,13.46,31.13,14,48.49-.65,21.67-1.58,35.6S36.56,370.36,36.34,375.61Z" style="fill:#1a1a1a;fill-rule:evenodd"/><path d="M84,214.14l1.49-4.66-8.23-78.4L49.82,139c-6.39,6.47-16.3,36.46-22.71,56.42Z" style="fill:#ff0;stroke:#000;stroke-linejoin:round;stroke-width:1.0001px;fill-rule:evenodd"/><path d="M47.77,202.22l21.1,6.93c-3.71-25-9.25-47.67-14.89-50.65-3.95-.17-5.67,5.57-6.21,32.7C47.7,194.94,47.71,198.63,47.77,202.22Z" style="fill:#edd20e;fill-rule:evenodd"/><path d="M84,214.14l1.49-4.66-1.64-15.6L33.11,177.19c-2.17,6.37-4.22,12.69-6,18.24Z" style="stroke:#000;stroke-miterlimit:22.925600000000003;stroke-width:1.0001px;fill-rule:evenodd;fill:url(#i)"/><path d="M65.08,187.7l-17-5.6c-.1,2.73-.19,5.75-.26,9.1-.08,3.74-.06,7.43,0,11l21.1,6.93C67.76,201.63,66.48,194.32,65.08,187.7Z" style="fill:#ccc;fill-rule:evenodd"/><line x1="32.76" y1="178.41" x2="53.3" y2="185.16" style="fill:none;stroke:#000;stroke-linejoin:round;stroke-width:0.5px;stroke-dasharray:2.500200033187866,1.500100016593933"/><line x1="27.57" y1="194.21" x2="53.23" y2="202.64" style="fill:none;stroke:#000;stroke-linejoin:round;stroke-width:0.5px;stroke-dasharray:2.500200033187866,1.500100016593933"/><path d="M50.14,368.41c-7.49-1.62-36.49-.83-44.69,6" style="fill:none;stroke:#ff0;stroke-linejoin:round;stroke-width:0.5px;stroke-dasharray:2.500200033187866,1.500100016593933;fill-rule:evenodd"/><path d="M49.6,366.09c-7.49-1.62-36.49-.83-44.69,6" style="fill:none;stroke:#ff0;stroke-linejoin:round;stroke-width:0.5px;stroke-dasharray:2.500200033187866,1.500100016593933;fill-rule:evenodd"/><polygon points="117.09 312.77 114.93 337.15 110.28 394.57 105.35 436.11 110.8 436.58 127.96 331.87 127.47 316.11 117.09 312.77" style="fill:#2a282e;stroke:#2a282e;stroke-miterlimit:22.925600000000003;stroke-width:1.0001px;fill-rule:evenodd"/><path d="M221.85,388.54c.33,1.75,38.38,14.17,41.41,8.51l.18-10-39.21-3.59Z" style="fill:#1a1a1a;stroke:#000;stroke-miterlimit:22.925600000000003;stroke-width:1.0001px;fill-rule:evenodd"/><path d="M254.39,352.32c.93,7.64,1.59,11.3,1.67,18.62-.1,6.37,1.75,27.32,1.26,32.18-.6,2.42-2,4.79-2.85,7.12-1.89,5.13-3.83,10.06-7.63,14.74-9.29,1.92-19.19,1.89-25.68,2l.1-2.67c3.61-4.61,7.83-4.1,13.18-6.59a61.08,61.08,0,0,0,4.74-17.31l-2.84-2.65-2.07,3.69c-1.3,9.42-3.71,14.13-6.64,18.36-3.46,1.37-5-.37-5.2-2.42l2-4.22,2.34-13.63.31-8.12,1.62-6.8,3.09-9.76,4.09-8.15a22.69,22.69,0,0,0,.28-11.12Z" style="fill:#fc9;stroke:#000;stroke-linejoin:round;stroke-width:1.0006000000000002px;fill-rule:evenodd"/><path d="M229,389.6l.79-4.57,2.61-8.9,3.81-7.59a21.13,21.13,0,0,0,.26-10.35l17-3c.87,7.12,1.48,10.52,1.55,17.34-.09,5.93,1.8,25.87,1.34,30.39-.56,2.26-1.94,4-2.74,6.2-1.76,4.78-3.74,10.45-7.28,14.81-3.15.69-7.24,1.42-9.41,1.67l-6.06.16,8.92-2.84,4.25-8,2.9-7.21,4-4.79.2-2.73-4.28-9.87-7.06-2-7.94-.55Z" style="fill:#e3ab74;fill-rule:evenodd"/><path d="M231.34,426.75l9.31-2.64a38,38,0,0,0,7.07-15.26l3.57-4.09" style="fill:none;stroke:#000;stroke-linejoin:round;stroke-width:1.0006000000000002px;fill-rule:evenodd"/><path d="M264.74,268c1.91,16.85,5.91,41.34,5.78,62.48-.67,7.83,0,26.84-2.49,38-.75,3.42-3.46,26.57-4.48,28.29-7-8.21-36.77-10.21-41.77-8.35-2.86-.9-.07-45.28-2.52-59.11-.93-4.36-1.83-10.2-3.65-15.1-1.09-2.93.69-7.81,0-9.55l-7-15.4,1.86-12.36L207,267.76l-12.75-48.91L206.74,141l22,.52c13.69,16.25,23.91,64,29.37,85.48C260.05,238.51,263.59,256.07,264.74,268Z" style="fill:#333;stroke:#000;stroke-linejoin:round;stroke-width:1.0001px;fill-rule:evenodd"/><path d="M228.69,387.18a23.5,23.5,0,0,0-6.72.64c-2.86-.9-.07-45.28-2.52-59.11-.93-4.36-1.83-10.21-3.65-15.1-1.09-2.93.69-7.81,0-9.55l-7-15.4,1.86-12.36-3.48-9.11-11.4-43.71c8.63-27,22-65.92,27.55-66,7.13-1.48,2.08,44-.3,63.9s-.41,23.24,3.45,19.68,14.11-33.87,15.15-18.72-4.46,22.87-8.91,33.27-14.85,26.74-9.51,28.52,13.37-3.27,17.82-10.4,15.15-16.64,11.88-5.94-19.61,30-22.58,35.95-3.57,11.59-1.19,20.79-1.49,22-1.49,33C227.65,366.13,228.38,381.06,228.69,387.18Z" style="fill:#1a1a1a;fill-rule:evenodd"/><path d="M264.74,268c.21,1.84.44,3.77.69,5.78l-62.24-20.45-9-34.44L206.74,141l22.7-1.14c13.7,16.25,23.22,65.65,28.68,87.14C260.05,238.51,263.59,256.07,264.74,268Z" style="fill:#ff0;stroke:#000;stroke-linejoin:round;stroke-width:1.0001px;fill-rule:evenodd"/><path d="M252.53,268.73l-6-2c4.33-4.3,8.56-6.36,6.34.9-.11.35-.23.7-.36,1.06ZM230,261.32l-26.59-8.74-7.62-29.24c8.63-27,22-65.92,27.55-66,7.13-1.48,2.08,44-.3,63.9s-.41,23.24,3.45,19.68,14.11-33.87,15.15-18.72-4.46,22.87-8.91,33.27C231.91,257.29,231,259.27,230,261.32Z" style="fill:#edd20e;fill-rule:evenodd"/><path d="M264.74,268c.21,1.84.44,3.77.69,5.78l-62.24-20.45-5.76-22.1,65.19,21.42C263.52,258.12,264.3,263.45,264.74,268Z" style="stroke:#000;stroke-miterlimit:22.925600000000003;stroke-width:1.0001px;fill-rule:evenodd;fill:url(#j)"/><path d="M199.29,232.29l23.41,7.86c.59,3.35,2,3.39,4,1.55l.15-.15,10.65,3.57c-1.49,3.58-3.23,7-4.82,10.82-.74,1.76-1.65,3.69-2.62,5.7l-25.46-8.54Z" style="fill:#999;fill-rule:evenodd"/><path d="M252.64,269l-6-2c4.34-4.3,8.56-6.36,6.34.9C252.89,268.32,252.77,268.67,252.64,269Z" style="fill:#4d4d4d;fill-rule:evenodd"/><line x1="215.81" y1="238.71" x2="262.75" y2="254.14" style="fill:none;stroke:#000;stroke-linejoin:round;stroke-width:0.5px;stroke-dasharray:2.500200033187866,1.500100016593933"/><line x1="214.75" y1="255.58" x2="265.12" y2="272.13" style="fill:none;stroke:#000;stroke-linejoin:round;stroke-width:0.5px;stroke-dasharray:2.500200033187866,1.500100016593933"/><path d="M53.31,288.89c-.42,3.33-.73,6.71-1.3,10.07-5.83,34.53-10.5,75.15-11.45,126.66,8.39,6.15,50.38,11,83.38,12.85,43.8,2.42,84.32.34,91.95-1.88,1.88-20.8.48-80.75-.63-99.36-.67-11.33-2.88-20.42-2.72-26.48.57-20.7,1.82-51.87,3.29-76.5,1.66-19.09,3-38.28,5.76-57.23,1.62-10.94,4.47-27.62,8.05-37-1.73-2-5.16-3.23-7.47-3.69-13.8-8.45-39.58-20.68-53.18-24.73l-11.44,5.78-39.46-2-11-6.1C95.78,113.5,73.47,128.08,60,136.07c-2.11.12-6.92,2.68-8.13,3.78,3.46,7.94,2,16.47,2.71,33.57.41,10-1.25,23.35-1,33.58.7,23.52-.23,45.72-1.22,67.89C52.19,279.49,53.69,284.3,53.31,288.89Z" style="fill:#333;stroke:#000;stroke-linejoin:round;stroke-width:1.0001px;fill-rule:evenodd"/><path d="M136.58,313.36l-1.46,25.26-2,57.57-.42,34.92c-.1,8.73-4.59,6.9-8.72,6.84l-1.22-106.09,2.3-15.59,12.55-109.89,5.11.76-3.86,53.21Z" style="fill:#1a1a1a;fill-rule:evenodd"/><path d="M53.71,288.13c-.33,2.65-.49,8.79-1,11.42-2,10.27-3.1,19.13-4.47,29.35-2.4,17.88-4.28,37.4-5.58,59.14,3.52-25.28,8.48-56.1,11.62-68,5-18.9,5.94-15.69,10.34-6.06,2.55,5.57,2-4.7.07-17.07-1.38-9-4.44-17.42-5.26-24.19-2-16-.11-62-.83-71.25s-1.83-34.75-1.83-40.12-.9-4-1.8-3.56c0,4.3,0,9.34.25,15.48.41,10-1.34,23.35-1,33.58.93,24.07-.41,45.36-1.12,67.94C53,278.85,54.22,284.08,53.71,288.13Z" style="fill:#1a1a1a;fill-rule:evenodd"/><polygon points="59.06 202 113.83 223.66 112.66 239.59 66.52 236.02 57.31 225.75 59.06 202" style="fill:#333;stroke:#000;stroke-linejoin:round;stroke-width:1.0001px;fill-rule:evenodd"/><polyline points="112.74 223.33 111.63 238.39 67.24 234.96 58.68 225.2 60.27 202.53" style="fill:none;stroke:#ff0;stroke-linejoin:round;stroke-width:0.5px;stroke-dasharray:2.500200033187866,1.500100016593933;fill-rule:evenodd"/><polyline points="110.48 222.48 109.47 236.23 68.95 233.09 61.13 224.18 62.59 203.48" style="fill:none;stroke:#ff0;stroke-linejoin:round;stroke-width:0.5px;stroke-dasharray:2.500200033187866,1.500100016593933;fill-rule:evenodd"/><polygon points="65.74 221.45 80.23 222.57 79.68 229.99 65.19 228.87 65.74 221.45" style="fill:none;stroke:#ff0;stroke-linejoin:round;stroke-width:0.5px;stroke-dasharray:2.500200033187866,1.500100016593933;fill-rule:evenodd"/><path d="M65.6,221.44c.33.16,14,8.41,14,8.41" style="fill:none;stroke:#ff0;stroke-linejoin:round;stroke-width:0.5px;stroke-dasharray:2.500200033187866,1.500100016593933;fill-rule:evenodd"/><path d="M80.16,222.56c-.35.11-15.1,6.16-15.1,6.16" style="fill:none;stroke:#ff0;stroke-linejoin:round;stroke-width:0.5px;stroke-dasharray:2.500200033187866,1.500100016593933;fill-rule:evenodd"/><path d="M200.34,438c7.45-.52,12.73-1.18,15-1.85,1.88-20.8.1-80.56-.63-99.18-.32-8.12-2.88-20.6-2.72-26.66.57-20.7,1.82-51.87,3.29-76.5,1.66-19.09,3-38.28,5.76-57.23.79-5.33,1.87-12,3.19-18.56-1.31-1.16-4.42-2.87-5.35,6-1.19,11.29-3,44.56-4.75,51.1s-8.32,44-11.88,57.93-15.75,42.78-14.85,48.72,15.74-25.25,15.74-5.94,1.19,37.73,1.19,69.51A341.1,341.1,0,0,1,200.34,438Z" style="fill:#1a1a1a;fill-rule:evenodd"/><path d="M164.66,331.34s25.45,6.55,30.78,8.22,12.48,4.65,12.48,4.65l.67,3.28a201.57,201.57,0,0,0-19.48-7.77C177.45,335.73,164.23,331.17,164.66,331.34Z" style="fill:#1a1a1a;fill-rule:evenodd"/><path d="M88.27,327.24s-22.58,5.22-27.33,6.62-11.14,4-11.14,4l-.73,3.23a163.21,163.21,0,0,1,17.41-6.74C76.87,330.95,88.66,327.09,88.27,327.24Z" style="fill:#1a1a1a;fill-rule:evenodd"/><path d="M134.63,323.18c27,7.9,60.79,14.84,80.87,23.7" style="fill:none;stroke:#000;stroke-linejoin:round;stroke-width:1.0001px;fill-rule:evenodd"/><path d="M118.33,319.42c-24,6.49-53.91,11.68-71.89,19.48" style="fill:none;stroke:#000;stroke-linejoin:round;stroke-width:1.0001px;fill-rule:evenodd"/><path d="M134.73,321.64c27,7.9,60.79,14.84,80.87,23.7" style="fill:none;stroke:#ff0;stroke-linejoin:round;stroke-width:0.5px;stroke-dasharray:2.500200033187866,1.500100016593933;fill-rule:evenodd"/><path d="M118.31,317.88c-24,6.49-53.91,11.68-71.89,19.48" style="fill:none;stroke:#ff0;stroke-linejoin:round;stroke-width:0.5px;stroke-dasharray:2.500200033187866,1.500100016593933;fill-rule:evenodd"/><path d="M134,319c27,7.9,60.79,14.84,80.87,23.7" style="fill:none;stroke:#ff0;stroke-linejoin:round;stroke-width:0.5px;stroke-dasharray:2.500200033187866,1.500100016593933;fill-rule:evenodd"/><path d="M119,315.3c-24,6.49-53.91,11.68-71.89,19.48" style="fill:none;stroke:#ff0;stroke-linejoin:round;stroke-width:0.5px;stroke-dasharray:2.500200033187866,1.500100016593933;fill-rule:evenodd"/><path d="M52.76,298.09c10.62,1.42,45,5.16,80.59,7.74s70.94,3.57,78.84,2.95" style="fill:none;stroke:#ff0;stroke-linejoin:round;stroke-width:0.5px;stroke-dasharray:2.500200033187866,1.500100016593933;fill-rule:evenodd"/><path d="M52.24,299.23c10.67,1.42,45.21,5.19,81,7.78s71.31,3.59,79.25,3" style="fill:none;stroke:#000;stroke-linejoin:round;stroke-width:1.0001px;fill-rule:evenodd"/><path d="M53.33,289.58C63.95,291,98,294.41,133.63,297s70.94,3.57,78.84,2.95" style="fill:none;stroke:#ff0;stroke-linejoin:round;stroke-width:0.5px;stroke-dasharray:2.500200033187866,1.500100016593933;fill-rule:evenodd"/><path d="M53.16,288.4c10.62,1.41,45.06,4.94,80.67,7.51s70.94,3.57,78.84,2.95" style="fill:none;stroke:#000;stroke-linejoin:round;stroke-width:1.0001px;fill-rule:evenodd"/><path d="M58.21,292.89s-.92,2.83-.27,3,.64-3.68.64-3.68" style="fill:none;stroke:#000;stroke-linecap:round;stroke-linejoin:round;stroke-width:0.5px;fill-rule:evenodd"/><path d="M80.11,296.89s.92-2.83.27-3-.64,3.69-.64,3.69" style="fill:none;stroke:#000;stroke-linecap:round;stroke-linejoin:round;stroke-width:0.5px;fill-rule:evenodd"/><path d="M66.56,293.37s.83,4.52-.2,4.69-.22-5.79-.22-5.79" style="fill:none;stroke:#000;stroke-linecap:round;stroke-linejoin:round;stroke-width:0.5px;fill-rule:evenodd"/><path d="M55.74,301.29s-1.73,6-2.78,6,3-7.51,3-7.51" style="fill:none;stroke:#000;stroke-linecap:round;stroke-linejoin:round;stroke-width:0.5px;fill-rule:evenodd"/><path d="M70.1,293.23s-1.44,3.57-.42,4.14" style="fill:none;stroke:#000;stroke-linecap:round;stroke-linejoin:round;stroke-width:0.5px;fill-rule:evenodd"/><path d="M164.87,300.7s-1.44,3.57-.42,4.14" style="fill:none;stroke:#000;stroke-linecap:round;stroke-linejoin:round;stroke-width:0.5px;fill-rule:evenodd"/><path d="M100.55,296.42s1,3.73-.13,4.16" style="fill:none;stroke:#000;stroke-linecap:round;stroke-linejoin:round;stroke-width:0.5px;fill-rule:evenodd"/><path d="M88.36,295s-.82,2-.24,2.35" style="fill:none;stroke:#000;stroke-linecap:round;stroke-linejoin:round;stroke-width:0.5px;fill-rule:evenodd"/><path d="M197.62,297.23s-.72-2.84.1-3.16" style="fill:none;stroke:#000;stroke-linecap:round;stroke-linejoin:round;stroke-width:0.5px;fill-rule:evenodd"/><path d="M68.55,288.64s1.09-2.72.32-3.15" style="fill:none;stroke:#000;stroke-linecap:round;stroke-linejoin:round;stroke-width:0.5px;fill-rule:evenodd"/><path d="M96.79,295.46s1,3.73-.13,4.16" style="fill:none;stroke:#000;stroke-linecap:round;stroke-linejoin:round;stroke-width:0.5px;fill-rule:evenodd"/><path d="M70.64,292.61s1.23,4.82-.16,5.37" style="fill:none;stroke:#000;stroke-linecap:round;stroke-linejoin:round;stroke-width:0.5px;fill-rule:evenodd"/><path d="M96.64,295.42s-1.86,4.61-.55,5.34" style="fill:none;stroke:#000;stroke-linecap:round;stroke-linejoin:round;stroke-width:0.5px;fill-rule:evenodd"/><path d="M55.92,291.67s-1.86,4.61-.55,5.35" style="fill:none;stroke:#000;stroke-linecap:round;stroke-linejoin:round;stroke-width:0.5px;fill-rule:evenodd"/><path d="M67,301s-3,5.61-1.72,6.34" style="fill:none;stroke:#000;stroke-linecap:round;stroke-linejoin:round;stroke-width:0.5px;fill-rule:evenodd"/><path d="M201.24,289.56s.2,7.16-2.53,8.27" style="fill:none;stroke:#000;stroke-linecap:round;stroke-linejoin:round;stroke-width:0.5px;fill-rule:evenodd"/><path d="M66,280.56s-1.15,7.07,1.41,8.53" style="fill:none;stroke:#000;stroke-linecap:round;stroke-linejoin:round;stroke-width:0.5px;fill-rule:evenodd"/><path d="M171.91,288.83s.29,6.78-1.94,8.48c-.15.11,1.22-3.23,0-4.84" style="fill:none;stroke:#000;stroke-linecap:round;stroke-linejoin:round;stroke-width:0.5px;fill-rule:evenodd"/><path d="M95.14,283.72s-1.19,6.68.8,8.66c.13.13-.78-3.36.63-4.79" style="fill:none;stroke:#000;stroke-linecap:round;stroke-linejoin:round;stroke-width:0.5px;fill-rule:evenodd"/><path d="M77.69,309.5s-.26-5.92,1.69-7.4c.13-.1-1.07,2.82,0,4.22" style="fill:none;stroke:#000;stroke-linecap:round;stroke-linejoin:round;stroke-width:0.5px;fill-rule:evenodd"/><path d="M189.83,286.64c-.4,1.69-2.95,9.23-3.95,10.44-.29,0,.19-2.56-.08-3.56" style="fill:none;stroke:#000;stroke-linecap:round;stroke-linejoin:round;stroke-width:0.5px;fill-rule:evenodd"/><path d="M77.68,279.17c.17,1.73,1.7,9.54,2.53,10.87.28.06.15-2.56.55-3.51" style="fill:none;stroke:#000;stroke-linecap:round;stroke-linejoin:round;stroke-width:0.5px;fill-rule:evenodd"/><path d="M212.81,287.51c.09,1.7-2.47,9.93-4.35,11.49-.32,0,.47-4.39-.34-7.29" style="fill:none;stroke:#000;stroke-linecap:round;stroke-linejoin:round;stroke-width:0.5px;fill-rule:evenodd"/><path d="M53.42,276.19c-.32,1.68,1.13,10.17,2.79,12,.31.07.11-4.42,1.3-7.18" style="fill:none;stroke:#000;stroke-linecap:round;stroke-linejoin:round;stroke-width:0.5px;fill-rule:evenodd"/><path d="M83.18,293.6s-1.86,4.61-.55,5.34" style="fill:none;stroke:#000;stroke-linecap:round;stroke-linejoin:round;stroke-width:0.5px;fill-rule:evenodd"/><path d="M83.12,293.76s1.23,4.82-.16,5.37" style="fill:none;stroke:#000;stroke-linecap:round;stroke-linejoin:round;stroke-width:0.5px;fill-rule:evenodd"/><path d="M170,316.48a30.19,30.19,0,0,1-2.56-7.67l-.74,4.21" style="fill:none;stroke:#000;stroke-linecap:round;stroke-linejoin:round;stroke-width:0.5px;fill-rule:evenodd"/><path d="M93.41,311.39A30.2,30.2,0,0,0,97,304.12l.18,4.27" style="fill:none;stroke:#000;stroke-linecap:round;stroke-linejoin:round;stroke-width:0.5px;fill-rule:evenodd"/><path d="M207.31,302.81s.54,2.92-.13,3-.14-3.74-.14-3.74" style="fill:none;stroke:#000;stroke-linecap:round;stroke-linejoin:round;stroke-width:0.5px;fill-rule:evenodd"/><path d="M185.07,303.87s-.54-2.92.13-3,.15,3.74.15,3.74" style="fill:none;stroke:#000;stroke-linecap:round;stroke-linejoin:round;stroke-width:0.5px;fill-rule:evenodd"/><path d="M199,302.18s-1.42,4.38-.42,4.67,1-5.7,1-5.7" style="fill:none;stroke:#000;stroke-linecap:round;stroke-linejoin:round;stroke-width:0.5px;fill-rule:evenodd"/><path d="M195.48,301.57s1,3.73-.13,4.16" style="fill:none;stroke:#000;stroke-linecap:round;stroke-linejoin:round;stroke-width:0.5px;fill-rule:evenodd"/><path d="M177.15,300.86s.54,2.12-.07,2.36" style="fill:none;stroke:#000;stroke-linecap:round;stroke-linejoin:round;stroke-width:0.5px;fill-rule:evenodd"/><path d="M168.73,300.25s-1.44,3.57-.43,4.14" style="fill:none;stroke:#000;stroke-linecap:round;stroke-linejoin:round;stroke-width:0.5px;fill-rule:evenodd"/><path d="M195,300.88s-1.86,4.61-.55,5.34" style="fill:none;stroke:#000;stroke-linecap:round;stroke-linejoin:round;stroke-width:0.5px;fill-rule:evenodd"/><path d="M168.88,300.23s1.23,4.82-.16,5.37" style="fill:none;stroke:#000;stroke-linecap:round;stroke-linejoin:round;stroke-width:0.5px;fill-rule:evenodd"/><path d="M209.74,301.91s1.23,4.82-.16,5.37" style="fill:none;stroke:#000;stroke-linecap:round;stroke-linejoin:round;stroke-width:0.5px;fill-rule:evenodd"/><path d="M185.79,316.69s1-5.84-.7-7.56c-.12-.12.69,2.94-.55,4.19" style="fill:none;stroke:#000;stroke-linecap:round;stroke-linejoin:round;stroke-width:0.5px;fill-rule:evenodd"/><path d="M182.47,300.21s1.23,4.82-.16,5.37" style="fill:none;stroke:#000;stroke-linecap:round;stroke-linejoin:round;stroke-width:0.5px;fill-rule:evenodd"/><path d="M182.5,300.37s-1.86,4.61-.55,5.34" style="fill:none;stroke:#000;stroke-linecap:round;stroke-linejoin:round;stroke-width:0.5px;fill-rule:evenodd"/><path d="M208.64,311.46s.92,6.23,2,6.29-2-7.84-2-7.84" style="fill:none;stroke:#000;stroke-linecap:round;stroke-linejoin:round;stroke-width:0.5px;fill-rule:evenodd"/><path d="M197.52,309.69s2.26,6,.86,6.51" style="fill:none;stroke:#000;stroke-linecap:round;stroke-linejoin:round;stroke-width:0.5px;fill-rule:evenodd"/><path d="M262.53,332.53c-4.9,2.8-16.73.32-24.05-6.84s-6.66-18.77-3.84-20.05,5.06,11.91,13.73,17.31S263,329.6,262.53,332.53Z" style="fill:#1a1a1a;fill-rule:evenodd"/><path d="M214.61,257c.38-7.87.79-15.61,1.22-22.8,1.66-19.09,3-38.28,5.76-57.23,1.62-10.94,4.47-27.62,8.05-37C220.21,132,183.59,116,169,111.61l-11.44,5.78-39.46-2-9.48-4C90.34,118.11,63.78,125.91,49.49,139c4.92,16.12,3.42,46.3,4,65.15Z" style="fill:#ff0;stroke:#000;stroke-linejoin:round;stroke-width:1.0001px;fill-rule:evenodd"/><path d="M130.73,166.4c8.05-8.13,13.9-11.33,21.32-20,8.87-10.36,20.54-24,29.92-33.51l10.36,13.88q-.86.58-1.72,1.23c6.16,6.48,14.26,14.92,20.13,21.25l-26,21.39c-5.17-4.76-12.16-13.41-17.79-19.63l-2.49,2.51c-5.88,5.87-16.22,11.34-19.43,17.44-1.6,3-.72,7.37-1.2,16.67-.61,12-2.56,25.78-3.7,26.82Z" style="fill:#edd20e;fill-rule:evenodd"/><path d="M94.61,150.93c-4.22,4.62-8.56,9.37-12.07,12.44l-25.4-22c8.71-8.9,22.14-22.09,27.53-27.65a212.07,212.07,0,0,1,20,18.75,5,5,0,0,1,.84-.55c11.6,17.48,21.63,21.95,28.86,41.24-6.9-10.61-19.52-8.81-35.68-17.18A8.28,8.28,0,0,1,94.61,150.93Z" style="fill:#edd20e;fill-rule:evenodd"/><path d="M214.13,256.3c.38-7.87.79-15.61,1.22-22.8,1.66-19.09,3-38.28,5.76-57.23.79-5.33,1.87-12,3.19-18.56-1.31-1.16-4.42-2.87-5.35,6-.87,8.29-2.07,28.45-3.34,41.15-.75,3.68-1.73,3.36-3.23-.08s-3.56-23.84-6-18.49,4,39,3.12,49.24c-.14,1.61-.25,3.05-.34,4.34-.89,4.61-1.82,9.39-2.73,13.94Z" style="fill:#edd20e;fill-rule:evenodd"/><path d="M53.17,159.16c1,14.94.48,32.15.89,44.5l4.8,1c-.16-1.94.26-.31-.14-5.49s-2-31.28-2-38.11S53.67,158.45,53.17,159.16Z" style="fill:#edd20e;fill-rule:evenodd"/><path d="M214.61,257c.33-6.81.68-13.53,1-19.87L53.3,183.83c0,7.35,0,14.37.22,20.28Z" style="stroke:#000;stroke-miterlimit:22.925600000000003;stroke-width:1.0001px;fill-rule:evenodd;fill:url(#k)"/><line x1="53.8" y1="185.59" x2="215.35" y2="238.68" style="fill:none;stroke:#000;stroke-linejoin:round;stroke-width:0.5px;stroke-dasharray:2.500200033187866,1.500100016593933"/><line x1="53.06" y1="202.19" x2="214.61" y2="255.28" style="fill:none;stroke:#000;stroke-linejoin:round;stroke-width:0.5px;stroke-dasharray:2.500200033187866,1.500100016593933"/><path d="M41.07,417.32c19.78,5.2,45.09,8.66,82.68,11.16s83.44.26,91.77-.44" style="fill:none;stroke:#ff0;stroke-linejoin:round;stroke-width:0.5px;stroke-dasharray:2.500200033187866,1.500100016593933;fill-rule:evenodd"/><path d="M41.25,414.81C61,420,86.34,423.47,123.93,426s83.44.26,91.77-.44" style="fill:none;stroke:#ff0;stroke-linejoin:round;stroke-width:0.5px;stroke-dasharray:2.500200033187866,1.500100016593933;fill-rule:evenodd"/><path d="M220.7,380.2c8.81-1.57,36.57.47,44.38,7.74" style="fill:none;stroke:#ff0;stroke-linejoin:round;stroke-width:0.5px;stroke-dasharray:2.500200033187866,1.500100016593933;fill-rule:evenodd"/><path d="M220.88,377.88c8.81-1.57,36.57.47,44.38,7.74" style="fill:none;stroke:#ff0;stroke-linejoin:round;stroke-width:0.5px;stroke-dasharray:2.500200033187866,1.500100016593933;fill-rule:evenodd"/><path d="M115.41,92.8s1.59,12.23,0,18.08-15.59,15-15.59,15l-6.7,9.18h60.5l12-10c-1,.84-7.08-9.4-8.49-18.28s4.09-26.38,4.09-26.38l-24.59,15-12.06,1.46Z" style="fill:#fc9;stroke:#000;stroke-linejoin:round;stroke-width:1.0006000000000002px;fill-rule:evenodd"/><path d="M110.67,118.91s-2.17,2.8-1.48,4.33,1.78,3.41,1,4.09-5.27-.59-8.52,1.6-5.6,4.18-5.6,4.18l-1.65-.84,8.72-8.88Z" style="fill:#e3ab74;fill-rule:evenodd"/><path d="M133,104.63c6,.84,14.41-1.32,18.1-.1,3.25,1.07,2.24,13.31,4.47,21.07-9.91,9.66-20.58,5.48-22,7.62-1.08,1.59,3.78,1.13,9.89,3.44l-17.77,17.78-18.15-1.5,15.68,5.86,6.25,7,20.42-26.61,16-13.3c-1,.84-7.79-10.65-9.2-19.53s3-23.71,3-23.71L136.58,95C124.55,101.57,127.75,103.2,133,104.63Z" style="fill:#e3ab74;fill-rule:evenodd"/><path d="M140.12,108.06s-9.47,25.46-10.84,23.71-1-2.83-3.07-3.35-8.48.87-11.12,0c-1.42-.44,7.8-2.79,14-7.83S138.9,107.47,140.12,108.06Z" style="fill:#e3ab74;fill-rule:evenodd"/><path d="M111.92,117.73c5.09,13.85,41,12.43,50.25-1.36l2.28,4.24,4.08,2.35-33.27,41.77-7.74-1.35-21-32.16a33.33,33.33,0,0,1,2.5-8.51A27.69,27.69,0,0,1,111.92,117.73Z" style="fill:#ffc;stroke:#000;stroke-miterlimit:22.925600000000003;stroke-width:1.0001px;fill-rule:evenodd"/><polygon points="139.1 127.35 149.85 135.16 148.74 143.61 137.08 166.76 130.59 167.41 116.7 133.06 126.4 126.51 129.13 127.89 125.78 132.73 124.25 135.7 126.05 142.17 129.33 153.63 130.03 135.55 130.34 157.17 133.77 163.27 137.39 162.63 144.74 141.12 140.78 131.74 139.1 127.35" style="fill:#ede980;fill-rule:evenodd"/><path d="M129.91,127.68c1,12.91.69,29.25,1.41,44.3" style="fill:none;stroke:#000;stroke-linejoin:round;stroke-width:1.0006000000000002px;fill-rule:evenodd"/><path d="M131.71,170l7.83.1-.79-41.55-7.55.17c.89,12.71.7,29.75,1.4,44.33" style="fill:none;stroke:#000;stroke-linejoin:round;stroke-width:0.5px;stroke-dasharray:2.500200033187866,1.500100016593933;fill-rule:evenodd"/><path d="M115.92,106.68c-2.46.39-3.09,4.15-6.09,7.54a30.43,30.43,0,0,0-5.77,11.1c1.21,12,3,7,7,23.11,6.11-4.27,14.48-21.08,19.49-21.13C125.89,124.81,117.21,112.85,115.92,106.68Z" style="fill:#ffc;stroke:#000;stroke-miterlimit:22.925600000000003;stroke-width:1.0001px;fill-rule:evenodd"/><path d="M156.81,104c2.49.11.29,4.68,3.65,7.7a27.59,27.59,0,0,1,7.28,9.73c.16,12.08-12.06,14.54-15.86,24.44-6.55-3.55-9.56-17.59-15.1-18.48C141.12,124.34,156.22,110.23,156.81,104Z" style="fill:#ffc;stroke:#000;stroke-miterlimit:22.925600000000003;stroke-width:1.0001px;fill-rule:evenodd"/><path d="M152.9,112c1.91-2.47,3.8-5,4-6.66,2.11.09.24,4,3.1,6.53a23.41,23.41,0,0,1,6.17,8.26c0,3.2-4.49,7.85-5.68,10.1Z" style="fill:#ede980;fill-rule:evenodd"/><circle cx="134.72" cy="132.13" r="1.58" transform="translate(-7.29 7.87) rotate(-3.26)" style="fill:none;stroke:#000;stroke-linejoin:round;stroke-width:0.4989px"/><circle cx="134.25" cy="131.75" r="0.25" transform="translate(-7.19 7.75) rotate(-3.22)" style="fill:none;stroke:#000;stroke-linejoin:round;stroke-width:0.216px"/><circle cx="135.1" cy="131.7" r="0.25" transform="translate(-7.19 7.8) rotate(-3.22)" style="fill:none;stroke:#000;stroke-linejoin:round;stroke-width:0.216px"/><circle cx="135.14" cy="132.46" r="0.25" transform="translate(-7.23 7.8) rotate(-3.22)" style="fill:none;stroke:#000;stroke-linejoin:round;stroke-width:0.216px"/><circle cx="134.34" cy="132.51" r="0.25" transform="translate(-7.23 7.76) rotate(-3.22)" style="fill:none;stroke:#000;stroke-linejoin:round;stroke-width:0.216px"/><line x1="136.28" y1="132.07" x2="137.18" y2="132.02" style="fill:none;stroke:#000;stroke-linejoin:round;stroke-width:0.4989px"/><circle cx="135.5" cy="146.26" r="1.72" transform="translate(-8.08 7.93) rotate(-3.25)" style="fill:none;stroke:#000;stroke-linejoin:round;stroke-width:0.4989px"/><circle cx="135.09" cy="146.76" r="0.27" transform="translate(-8.05 7.84) rotate(-3.23)" style="fill:none;stroke:#000;stroke-linejoin:round;stroke-width:0.216px"/><circle cx="135.04" cy="145.85" r="0.27" transform="translate(-8.12 7.96) rotate(-3.28)" style="fill:none;stroke:#000;stroke-linejoin:round;stroke-width:0.216px"/><circle cx="135.86" cy="145.8" r="0.27" transform="translate(-8.12 8.01) rotate(-3.28)" style="fill:none;stroke:#000;stroke-linejoin:round;stroke-width:0.216px"/><circle cx="135.91" cy="146.67" r="0.27" transform="translate(-8.06 7.9) rotate(-3.24)" style="fill:none;stroke:#000;stroke-linejoin:round;stroke-width:0.216px"/><line x1="135.4" y1="144.49" x2="135.36" y2="143.8" style="fill:none;stroke:#000;stroke-linejoin:round;stroke-width:0.4989px"/><line x1="135.64" y1="148.68" x2="135.6" y2="147.99" style="fill:none;stroke:#000;stroke-linejoin:round;stroke-width:0.4989px"/><circle cx="135.53" cy="160.76" r="1.72" transform="translate(-8.91 7.95) rotate(-3.25)" style="fill:none;stroke:#000;stroke-linejoin:round;stroke-width:0.4989px"/><circle cx="135.11" cy="161.27" r="0.27" transform="translate(-9.01 8) rotate(-3.28)" style="fill:none;stroke:#000;stroke-linejoin:round;stroke-width:0.216px"/><circle cx="135.06" cy="160.35" r="0.27" transform="translate(-8.82 7.87) rotate(-3.23)" style="fill:none;stroke:#000;stroke-linejoin:round;stroke-width:0.216px"/><circle cx="135.89" cy="160.3" r="0.27" transform="translate(-8.95 8.04) rotate(-3.28)" style="fill:none;stroke:#000;stroke-linejoin:round;stroke-width:0.216px"/><circle cx="135.94" cy="161.17" r="0.27" transform="translate(-9 8.04) rotate(-3.28)" style="fill:none;stroke:#000;stroke-linejoin:round;stroke-width:0.216px"/><line x1="135.43" y1="159" x2="135.39" y2="158.31" style="fill:none;stroke:#000;stroke-linejoin:round;stroke-width:0.4989px"/><line x1="135.67" y1="163.18" x2="135.63" y2="162.49" style="fill:none;stroke:#000;stroke-linejoin:round;stroke-width:0.4989px"/><path d="M228.43,139.64c-4,8.64-8,32.3-10.77,58.39-2,18.43-1.93,26.64-2.4,43" style="fill:none;stroke:#000;stroke-linejoin:round;stroke-width:0.5px;stroke-dasharray:2.500200033187866,1.500100016593933;fill-rule:evenodd"/><path d="M226.5,138.15c-4.16,9-8.27,34.22-11.1,61.53-1.82,17.51-1,34.38-.58,49" style="fill:none;stroke:#000;stroke-linejoin:round;stroke-width:0.5px;stroke-dasharray:2.500200033187866,1.500100016593933;fill-rule:evenodd"/><path d="M50.68,138.37c2.28,5,3.3,14.48,3.71,24.52.8,19.84-.14,45.94-.15,71.69" style="fill:none;stroke:#000;stroke-linejoin:round;stroke-width:0.5px;stroke-dasharray:2.500200033187866,1.500100016593933;fill-rule:evenodd"/><path d="M52.72,136.74c2.28,5,3.3,14.48,3.71,24.52.8,19.84-1.4,51.18-2.3,74" style="fill:none;stroke:#000;stroke-linejoin:round;stroke-width:0.5px;stroke-dasharray:2.500200033187866,1.500100016593933;fill-rule:evenodd"/><path d="M107.51,132.58c-4.6,1.57-17.94,18.76-26.39,26.15l-25.4-22c8.71-8.9,22.14-22.09,27.53-27.65A194.6,194.6,0,0,1,107.51,132.58Z" style="fill:#ff0;stroke:#000;stroke-linejoin:round;stroke-width:1.0001px;fill-rule:evenodd"/><path d="M106.77,131.28c-2.61.26-9.09,4-14.71,8.15-4,2.93-8.79,1.14-11-3.08l-8-14.24a4.14,4.14,0,0,1-.61-1.51l2-1.78,18.4-8.49C97,116.93,101.65,123.7,106.77,131.28Z" style="fill:#edd20e;fill-rule:evenodd"/><path d="M81.4,150.12,64.47,136l5.19-5.09L86.12,145S81.64,150.32,81.4,150.12Z" style="fill:none;stroke:#000;stroke-linejoin:round;stroke-width:1.0006000000000002px;fill-rule:evenodd"/><path d="M87.36,143.58,70.43,129.5l5.19-5.09,16.47,14.08S87.6,143.78,87.36,143.58Z" style="fill:none;stroke:#000;stroke-linejoin:round;stroke-width:1.0006000000000002px;fill-rule:evenodd"/><line x1="81.55" y1="149.97" x2="69.65" y2="131.26" style="fill:none;stroke:#000;stroke-linejoin:round;stroke-width:0.5px;stroke-dasharray:2.500200033187866,1.500100016593933"/><line x1="87.51" y1="143.43" x2="75.61" y2="124.72" style="fill:none;stroke:#000;stroke-linejoin:round;stroke-width:0.5px;stroke-dasharray:2.500200033187866,1.500100016593933"/><line x1="85.65" y1="145.32" x2="64.78" y2="135.88" style="fill:none;stroke:#000;stroke-linejoin:round;stroke-width:0.5px;stroke-dasharray:2.500200033187866,1.500100016593933"/><line x1="91.61" y1="138.78" x2="70.74" y2="129.34" style="fill:none;stroke:#000;stroke-linejoin:round;stroke-width:0.5px;stroke-dasharray:2.500200033187866,1.500100016593933"/><path d="M98.26,139.77C93.68,141,86.72,152,81.11,156.33L58.23,136.2c5.38-4.74,12.31-13.48,15.39-15.81" style="fill:none;stroke:#000;stroke-linejoin:round;stroke-width:0.5px;stroke-dasharray:2.500200033187866,1.500100016593933;fill-rule:evenodd"/><path d="M100.85,133.68c-4.57,1.24-14.2,14.4-19.81,18.71l-19-16.58c5.38-4.74,11-12.56,13.85-14" style="fill:none;stroke:#000;stroke-linejoin:round;stroke-width:0.5px;stroke-dasharray:2.500200033187866,1.500100016593933;fill-rule:evenodd"/><path d="M159.77,139.56c4.55,1.69,17.46,19.21,25.71,26.81l26-21.39c-8.48-9.12-21.57-22.65-26.81-28.35A194.54,194.54,0,0,0,159.77,139.56Z" style="fill:#ff0;stroke:#000;stroke-linejoin:round;stroke-width:1.0001px;fill-rule:evenodd"/><path d="M185.93,159l17.27-14.31-5.06-5-16.81,14.3S185.69,159.18,185.93,159Z" style="fill:none;stroke:#000;stroke-linejoin:round;stroke-width:0.5px;stroke-dasharray:2.500200033187866,1.500100016593933;fill-rule:evenodd"/><line x1="185.78" y1="158.82" x2="198.15" y2="139.95" style="fill:none;stroke:#000;stroke-linejoin:round;stroke-width:0.5px;stroke-dasharray:2.500200033187866,1.500100016593933"/><line x1="181.8" y1="154.23" x2="202.9" y2="144.51" style="fill:none;stroke:#000;stroke-linejoin:round;stroke-width:0.5px;stroke-dasharray:2.500200033187866,1.500100016593933"/><path d="M179.6,151.68l17.27-14.31-5.06-5L175,146.63S179.36,151.88,179.6,151.68Z" style="fill:none;stroke:#000;stroke-linejoin:round;stroke-width:0.5px;stroke-dasharray:2.500200033187866,1.500100016593933;fill-rule:evenodd"/><line x1="179.45" y1="151.53" x2="191.82" y2="132.65" style="fill:none;stroke:#000;stroke-linejoin:round;stroke-width:0.5px;stroke-dasharray:2.500200033187866,1.500100016593933"/><line x1="175.47" y1="146.93" x2="196.57" y2="137.22" style="fill:none;stroke:#000;stroke-linejoin:round;stroke-width:0.5px;stroke-dasharray:2.500200033187866,1.500100016593933"/><path d="M168.92,146.34c4.47,3.85,11.91,14.21,16.78,18.32l23.74-19.54c-5.18-5.6-15.27-17.08-19-20.22" style="fill:none;stroke:#000;stroke-linejoin:round;stroke-width:0.5px;stroke-dasharray:2.500200033187866,1.500100016593933;fill-rule:evenodd"/><path d="M168.91,144.26c4.62,1,11.22,13.15,17,17.21l20.23-16.92c-5.59-4.49-14-17.69-17.47-18.58" style="fill:none;stroke:#000;stroke-linejoin:round;stroke-width:0.5px;stroke-dasharray:2.500200033187866,1.500100016593933;fill-rule:evenodd"/><circle cx="134.95" cy="161.04" r="1.72" transform="translate(-46.82 266.41) rotate(-80.14)" style="fill:none;stroke:#000;stroke-linejoin:round;stroke-width:0.4989px"/><circle cx="135.3" cy="161.58" r="0.27" transform="translate(-47.01 267.32) rotate(-80.17)" style="fill:none;stroke:#000;stroke-linejoin:round;stroke-width:0.216px"/><circle cx="135.46" cy="160.68" r="0.27" transform="translate(-46.05 266.62) rotate(-80.14)" style="fill:none;stroke:#000;stroke-linejoin:round;stroke-width:0.216px"/><circle cx="134.64" cy="160.54" r="0.27" transform="translate(-46.58 265.7) rotate(-80.14)" style="fill:none;stroke:#000;stroke-linejoin:round;stroke-width:0.216px"/><circle cx="134.49" cy="161.4" r="0.27" transform="translate(-47.57 266.23) rotate(-80.13)" style="fill:none;stroke:#000;stroke-linejoin:round;stroke-width:0.216px"/><line x1="135.25" y1="159.29" x2="135.36" y2="158.61" style="fill:none;stroke:#000;stroke-linejoin:round;stroke-width:0.4989px"/><line x1="134.53" y1="163.42" x2="134.65" y2="162.74" style="fill:none;stroke:#000;stroke-linejoin:round;stroke-width:0.4989px"/><path d="M131.41,162c3.11-5.64,8.23-12.41,11.05-15,6.07-15.11,9.43-22.63,17.63-35.53l10.8,10.1-21.55,27.21L131.51,164.8Z" style="fill:#ff0;stroke:#000;stroke-linejoin:round;stroke-width:1.0001px;fill-rule:evenodd"/><path d="M143.48,145.8c4.76-11.82,7.92-19,13.44-28.24l2.95,1.54s-7.58,11.44-10.69,17.82C146.64,142.14,146.26,143.59,143.48,145.8Z" style="fill:#edd20e;fill-rule:evenodd"/><path d="M131.42,162.14c8.05-8.13,13.9-11.33,21.32-20,8.87-10.36,20.54-24,29.92-33.51L193,122.51c-8.39,5.72-16.83,15.79-27.81,26.75-8,8-19.08,14.5-26.7,21.42Z" style="fill:#ff0;stroke:#000;stroke-linejoin:round;stroke-width:1.0001px;fill-rule:evenodd"/><path d="M113.9,260.39c-.27,5.87-.62,13.07-.87,19.17h0c-.56,13.29-1.11,27.47-1.54,40.22-1,28.35-2,56.5-3.41,84.5-.52,10.54-1.74,22.69-2.24,33.35l15.28.95c6,.59,8.58-3.58,9-8.4.66-8.14,1-17.34,1.22-24.55,1.29-43.14,3.4-84.4,5.42-125.92h0c.28-5.81.7-13.48,1-19.11.86-17.08,3-36.25,3.94-54.43.55-10.2,1.44-19.71-.1-29.31L138.81,172,121.4,154.57C119.75,189.86,115.55,225.07,113.9,260.39Z" style="fill:#333;stroke:#000;stroke-linejoin:round;stroke-width:1.0001px;fill-rule:evenodd"/><path d="M135.63,168.65c-10.26-19.83-17.43-39.66-27.69-59.49l-12-14.78-9.78,6.82,19,27,25.19,35.7Z" style="fill:#ff0;stroke:#000;stroke-linejoin:round;stroke-width:1.0001px;fill-rule:evenodd"/><path d="M124.49,145.73c-4.44-10-8.7-20-13.59-30-.05,3.22-.23,5.38-.23,5.38a67.87,67.87,0,0,1,4.81,10.16A47.26,47.26,0,0,0,124.49,145.73Z" style="fill:#edd20e;fill-rule:evenodd"/><path d="M141.72,177.56c-7.23-19.29-23.5-32-35.1-49.44-2,1-5.72,5.77-9.56,11.08a8.77,8.77,0,0,0,2.74,13C116,160.55,134.81,167,141.72,177.56Z" style="fill:#ff0;stroke:#000;stroke-linejoin:round;stroke-width:1.0001px;fill-rule:evenodd"/><path d="M107,129.26c-1.93,1.1-6.21,6.24-9.38,11.42C95,145,97.41,149.43,101,151.31c14.67,7.69,30.25,13.24,38.55,21.54" style="fill:none;stroke:#000;stroke-linejoin:round;stroke-width:0.5px;stroke-dasharray:2.500200033187866,1.500100016593933;fill-rule:evenodd"/><path d="M108.34,131.29c-1.95,1.11-4.88,4.68-7.8,9-2.16,3.23-2.88,6.61,2.12,9.17,13.25,6.8,27.89,12.9,34.42,19" style="fill:none;stroke:#000;stroke-linejoin:round;stroke-width:0.5px;stroke-dasharray:2.500200033187866,1.500100016593933;fill-rule:evenodd"/><path d="M106.4,128c-2.52.26-8.8,3.89-14.23,7.89-3.85,2.84-8.51,1.11-10.66-3l-7.74-13.78a8.37,8.37,0,0,1,2.33-11.72c4.43-3,9-6.18,12.47-7.14C93.56,109.11,99.51,117.81,106.4,128Z" style="fill:#ff0;stroke:#000;stroke-linejoin:round;stroke-width:1.0001px;fill-rule:evenodd"/><path d="M130,157.56c-5.87-13.26-12-21.46-20.19-32.29-5.61-7.41-11.68-16.48-18.67-27" style="fill:none;stroke:#000;stroke-linejoin:round;stroke-width:1.4173px;stroke-dasharray:1.4172999858856201,1.4172999858856201;fill-rule:evenodd"/><path d="M132.94,161.59c9-8.17,15-11.36,19.7-17.49,10.94-14.21,21.75-23.18,31-33.6" style="fill:none;stroke:#000;stroke-linejoin:round;stroke-width:1.4173px;stroke-dasharray:1.4172999858856201,1.4172999858856201;fill-rule:evenodd"/><path d="M109.48,437c.75-7.35,1.55-18.07,2.27-29.62,1.58-25.42,2.61-56.75,3-73,1-38.09,1.95-52.8,3.85-90.85,1.88-37.61,5-59.67,5.31-78.67" style="fill:none;stroke:#ff0;stroke-linejoin:round;stroke-width:0.5px;stroke-dasharray:2.500200033187866,1.500100016593933;fill-rule:evenodd"/><path d="M105.58,435.87l16,1.1c6,.16,6.59-4.41,6.83-6.92.47-4.92.69-10.37,1-16.39,1.17-25.33,2.1-56.34,2.63-68.26,1.7-38.49,2.69-54.1,4.59-92.14,1.79-35.85,6.12-57.6,3.44-76.23" style="fill:none;stroke:#ff0;stroke-linejoin:round;stroke-width:0.5px;stroke-dasharray:2.500200033187866,1.500100016593933;fill-rule:evenodd"/><path d="M105.76,433.17l15.59,1.07c4.19.2,4.4-2.89,4.75-5.6.67-5.22.75-11.08,1.06-17.6,1.21-25.07,2.23-55.75,2.78-67.55,1.76-38.09,2.75-53.54,4.69-91.19,1.92-37.22,6.21-59.18,3.14-78.21" style="fill:none;stroke:#ff0;stroke-linejoin:round;stroke-width:0.5px;stroke-dasharray:2.500200033187866,1.500100016593933;fill-rule:evenodd"/><path d="M105,126.67c-3.36.91-8.5,4.26-13.43,7.7-3.89,2.71-6.86.83-8.11-1.53l-9.07-15.77a6.56,6.56,0,0,1,2.29-8.26c4.8-3.18,9.51-6.37,12.12-7.16" style="fill:none;stroke:#000;stroke-linejoin:round;stroke-width:0.5px;stroke-dasharray:2.500200033187866,1.500100016593933;fill-rule:evenodd"/><path d="M104,124.45c-3.71,1-8.5,3.77-13.2,7.3-2.38,1.79-4.59,1.33-5.79-1.49l-8.12-14c-.78-1.35-1.53-3.62.82-5.24,4.53-3.12,8.34-5.65,12.43-7.18" style="fill:none;stroke:#000;stroke-linejoin:round;stroke-width:0.5px;stroke-dasharray:2.500200033187866,1.500100016593933;fill-rule:evenodd"/><path d="M182.85,111l7.9,11.12c-10,7.83-18.7,18-27.4,26.67-7.19,7.16-16.69,12.75-24.38,19.62" style="fill:none;stroke:#000;stroke-linejoin:round;stroke-width:0.5px;stroke-dasharray:2.500200033187866,1.500100016593933;fill-rule:evenodd"/><path d="M91.95,97.28c3-4.63,14-13.57,17.94-14.58l6,11.83a90.11,90.11,0,0,1,.08,13.3c-1.28,2-2.08,7.42-2.59,11.84-2.33.23-3.54,2.42-4.11,3.09Z" style="fill:#999;stroke:#000;stroke-linejoin:round;stroke-width:1.0001px;fill-rule:evenodd"/><path d="M105.84,85.4a15.93,15.93,0,0,1,4.08-2.08l5.77,11.44a87.32,87.32,0,0,1,.08,12.87c-1.24,2-2.41,7.31-2.91,11.59a3,3,0,0,0-2,1,87.34,87.34,0,0,0-.69-19.13A85.38,85.38,0,0,0,105.84,85.4Z" style="fill:gray;fill-rule:evenodd"/><path d="M164.41,65.86c6.17,12.05,11.83,18.57,13.07,33.26L166,100.3l-8.38-30.72Z" style="fill:#3a1415;stroke:#000;stroke-miterlimit:22.925600000000003;stroke-width:1.0001px;fill-rule:evenodd"/><path d="M176.7,97.25a36.25,36.25,0,0,0-6.13-8.79c-3.84-4.28-7.86-7.88-9.42-12.45" style="fill:none;stroke:#000;stroke-miterlimit:22.925600000000003;stroke-width:0.5px;fill-rule:evenodd"/><path d="M176.32,90.95c-3.86-8.25-12.71-12.39-14.56-17.42" style="fill:none;stroke:#000;stroke-miterlimit:22.925600000000003;stroke-width:0.5px;fill-rule:evenodd"/><path d="M174.33,84.35c-3-5.48-11.18-8.26-12.48-11.63" style="fill:none;stroke:#822b1d;stroke-miterlimit:22.925600000000003;stroke-width:0.5px;fill-rule:evenodd"/><path d="M172.19,80.24c-2-3.77-8.78-5.81-9.68-8.13" style="fill:none;stroke:#822b1d;stroke-miterlimit:22.925600000000003;stroke-width:0.5px;fill-rule:evenodd"/><path d="M176.93,93.55c-4.25-9.09-14-13.66-16-19.2" style="fill:none;stroke:#000;stroke-miterlimit:22.925600000000003;stroke-width:0.5px;fill-rule:evenodd"/><path d="M183.76,108.85c-5.48-9.29-7.21-22.28-21.41-28.31-1.46,5-3,8.21-3.74,11.5s-.55,6.45-1.61,11.64c1.74,4.33-1.15,8.09-1.06,15.39,3.47,1,6.18,4.33,9.36,8.75Z" style="fill:#999;stroke:#000;stroke-linejoin:round;stroke-width:1.0001px;fill-rule:evenodd"/><path d="M170.4,86.69a26,26,0,0,0-7.65-5.14c-1.53,5.24-.67,5.85-3.85,10.78a25.54,25.54,0,0,0-1.35,11.42c1.88,3.07-.44,8.61-.9,14.72a8.43,8.43,0,0,1,2.69,1.39L164.77,106l2.59-16.81,1.45-2Z" style="fill:gray;fill-rule:evenodd"/><path d="M87.26,130.91l-10.69-18,6.5-3.24,10.27,17.9S87.41,131.16,87.26,130.91Z" style="fill:none;stroke:#000;stroke-linejoin:round;stroke-width:1.0006000000000002px;fill-rule:evenodd"/><line x1="87.46" y1="130.81" x2="82.96" y2="109.92" style="fill:none;stroke:#000;stroke-linejoin:round;stroke-width:0.5px;stroke-dasharray:2.500200033187866,1.500100016593933"/><line x1="92.81" y1="127.67" x2="76.91" y2="112.82" style="fill:none;stroke:#000;stroke-linejoin:round;stroke-width:0.5px;stroke-dasharray:2.500200033187866,1.500100016593933"/><path d="M118.68,154.87,100,145.29l3.78-6.2L122,148.77S118.94,155,118.68,154.87Z" style="fill:none;stroke:#000;stroke-linejoin:round;stroke-width:1.0006000000000002px;fill-rule:evenodd"/><line x1="118.79" y1="154.68" x2="103.86" y2="139.39" style="fill:none;stroke:#000;stroke-linejoin:round;stroke-width:0.5px;stroke-dasharray:2.500200033187866,1.500100016593933"/><line x1="121.65" y1="149.18" x2="100.28" y2="145.07" style="fill:none;stroke:#000;stroke-linejoin:round;stroke-width:0.5px;stroke-dasharray:2.500200033187866,1.500100016593933"/><path d="M116.1,430.5l.74-21,7.22.78-1,20.61S116.09,430.8,116.1,430.5Z" style="fill:none;stroke:#ff0;stroke-linejoin:round;stroke-width:0.5px;stroke-dasharray:2.500200033187866,1.500100016593933;fill-rule:evenodd"/><line x1="116.32" y1="430.53" x2="123.8" y2="410.51" style="fill:none;stroke:#ff0;stroke-linejoin:round;stroke-width:0.5px;stroke-dasharray:2.500200033187866,1.500100016593933"/><line x1="122.51" y1="430.77" x2="117.15" y2="409.69" style="fill:none;stroke:#ff0;stroke-linejoin:round;stroke-width:0.5px;stroke-dasharray:2.500200033187866,1.500100016593933"/><path d="M127.21,236.71l.74-21,7.22.78-1,20.61S127.2,237,127.21,236.71Z" style="fill:none;stroke:#ff0;stroke-linejoin:round;stroke-width:0.5px;stroke-dasharray:2.500200033187866,1.500100016593933;fill-rule:evenodd"/><line x1="127.43" y1="236.73" x2="134.91" y2="216.72" style="fill:none;stroke:#ff0;stroke-linejoin:round;stroke-width:0.5px;stroke-dasharray:2.500200033187866,1.500100016593933"/><line x1="133.62" y1="236.98" x2="128.25" y2="215.89" style="fill:none;stroke:#ff0;stroke-linejoin:round;stroke-width:0.5px;stroke-dasharray:2.500200033187866,1.500100016593933"/><path d="M121.57,332.1l.73-21,7.22.78-1,20.61S121.56,332.4,121.57,332.1Z" style="fill:none;stroke:#ff0;stroke-linejoin:round;stroke-width:0.5px;stroke-dasharray:2.500200033187866,1.500100016593933;fill-rule:evenodd"/><line x1="121.79" y1="332.13" x2="129.27" y2="312.11" style="fill:none;stroke:#ff0;stroke-linejoin:round;stroke-width:0.5px;stroke-dasharray:2.500200033187866,1.500100016593933"/><line x1="127.99" y1="332.37" x2="122.62" y2="311.29" style="fill:none;stroke:#ff0;stroke-linejoin:round;stroke-width:0.5px;stroke-dasharray:2.500200033187866,1.500100016593933"/><path d="M167.77,57.63s1.5-3.45,4.27-3.8c1.83-.23,1.28,4.14.58,8.68-.75,4.83-1.28,9.09-2.78,11.93S166,79,164.62,78.8s-2.22-2.53-2.22-2.53Z" style="fill:#fc9;stroke:#000;stroke-linejoin:round;stroke-width:1.0006000000000002px;fill-rule:evenodd"/><path d="M169.61,56.68S171.78,55.4,172,56s-.15,6.7-.61,7-.05-5.2-.49-5l-2.56,1.38Z" style="fill:#e3ab74;fill-rule:evenodd"/><path d="M166.25,65.82s3.1,5.49,2.59,7.63,2.58-8.66,1.17-10.22-4-.16-4-.16Z" style="fill:#e3ab74;fill-rule:evenodd"/><path d="M107.08,53.38s-3.81-1.7-5-.32.24,5.67,1.16,10.38,2.93,13.61,4.65,13.14S107.08,53.38,107.08,53.38Z" style="fill:#e3ab74;stroke:#000;stroke-linejoin:round;stroke-width:1.0001px;fill-rule:evenodd"/><path d="M167.18,59.89c-1.62,6.08-4.6,26.44-8.47,32.09A32.41,32.41,0,0,1,147,101.71c-5,2.51-10.45,5.19-15.68,4.75-5.58-.47-9.76-4-13.06-7.64a46.83,46.83,0,0,1-6.69-9.25c-3.07-5.58-5.36-20.45-6-23.69s.09-4.19.59-9-.54-17,.77-21.31,9.75-21,26.58-21.46S157.59,21.72,162.3,29,167.09,59.39,167.18,59.89Z" style="fill:#fc9;stroke:#000;stroke-linejoin:round;stroke-width:1.0006000000000002px;fill-rule:evenodd"/><path d="M158.11,32.28c3.25,1.1,6.53,7.79,8.43,13.55,1.57,4.77.43,13.1.47,13.3-1.62,6.08-4.6,26.44-8.47,32.09a32.42,32.42,0,0,1-11.76,9.73c-5,2.51-10.45,5.19-15.68,4.75,10.75-4.18,15.35-6,19.39-14.29,5.22-10.75,9.16-15.74,11.32-23,1.09-3.7.62-7.21-.76-8.77-1-1.18,2.06-3.31,1.81-4.62-.51-2.61-3.06-3.68-3.38-4.74C158.07,45.67,157.78,38.6,158.11,32.28Z" style="fill:#e3ab74;fill-rule:evenodd"/><path d="M106.72,51.12a8.81,8.81,0,0,0,3.7-5.17c1.22-3.87,3.61-10.15,6.3-13.87l-5.08-5.76L106.5,46.42Z" style="fill:#e3ab74;fill-rule:evenodd"/><path d="M106.2,50.58l-1.75-4s.85-3.57,2.09-12.43,7.12-19.84,9.72-21.53,13.11-8,18.75-8,16.29,2.12,20.43,5,7.64,7.16,10.73,12.79,3.9,17.55,4,22.09c0,.19-3.84,15.32-4,14.59l-1.44-7.66s-4.89-4.65-5.09-6.75-.1-4.22-.14-5.46-6.73-.43-8.57-2.61.49-7.42-2.77-8.38-7.78,2-9.89,1.38-5.52,1.66-8.4.81-4.65-3.71-6.53-3-1.39,5-4.57,6.54-4.1-.18-5.74,1.79c-.67.8-2.28,3.92-3.56,8.84C107.58,51.66,106.1,50.92,106.2,50.58Z" style="fill:#d99e64;fill-rule:evenodd"/><path d="M132.09,90.88c-2.46-.23-4.82-.22-4.93.87s1.85,3.64,4.31,3.87,5-1.92,5.09-3S134.55,91.11,132.09,90.88Z" style="fill:#e3ab74;fill-rule:evenodd"/><path d="M132.26,78.2c3.55.34,6.75,1.46,7.12-.72.6-3.6-6.94-.73-10.15-2.35s-4.19-.39-3.94,1.25S128.71,77.86,132.26,78.2Z" style="fill:#e3ab74;fill-rule:evenodd"/><path d="M141.33,58.87c-.28-2,1.42-4.58,5.56-6a13.94,13.94,0,0,1,10.21,1c8.19,4.82-2.11,5.76-2.11,5.76Z" style="fill:#db8a6a;fill-rule:evenodd"/><path d="M127.36,58.3c.29-2-1.27-4.6-5.14-6a12.46,12.46,0,0,0-9.63.94C104.8,58,114.49,59,114.49,59Z" style="fill:#db8a6a;fill-rule:evenodd"/><path d="M143.82,57.09c1.92-1.34,3.86-2.31,6-2.14,3.35.28,5.42,2.16,4.11,2.58-.5.16-1.69-.66-4.77-1.05A17.82,17.82,0,0,0,143.82,57.09Z" style="fill:#fc9;fill-rule:evenodd"/><path d="M125,56.51c-1.79-1.35-3.59-2.33-5.61-2.17-3.16.26-5.14,2.14-3.91,2.57.46.16,1.61-.65,4.5-1A15.79,15.79,0,0,1,125,56.51Z" style="fill:#fc9;fill-rule:evenodd"/><path d="M120.38,100.29c-.44-.45-.87-.9-1.28-1.36a46.91,46.91,0,0,1-6.69-9.25c-2.59-4.71-4.63-16-5.61-21.4C111.29,73,112.89,88.75,120.38,100.29Z" style="fill:#e3ab74;fill-rule:evenodd"/><path d="M152.5,54.3c-5.32-1.47-8.46,1.38-10.73,4.27" style="fill:none;stroke:#4b160f;stroke-linecap:round;stroke-linejoin:round;stroke-width:0.5669000000000001px;fill-rule:evenodd"/><path d="M105.82,57.23l-2.33-7.45a89.86,89.86,0,0,1,.76-16.32c1.24-8.86,9.76-21.61,12.37-23.31s13.11-8,18.75-8a55.32,55.32,0,0,1,9.9,1.46c4,.84,7.66,1.8,9.86,3.32s4.53,4.26,6.87,6.71c2.07,2.17,4.21,4,5.66,6.6,3.09,5.62,3.76,16.55,3.84,21.08a48.26,48.26,0,0,1-1.72,13.17,48.82,48.82,0,0,1-3.31,7.44l-.54-11.23S161,44.11,160.84,42s.5-2.32.46-3.56-6.89-2.67-8.73-4.85-.73-5.93-4-6.89-7.82,1-9.93.36-6.1,2.25-6.64,1.33-7.35-2.81-9.42-2.15-3.15,3.62-4.51,4.83-4.29.72-5.94,2.7c-.67.8-2.27,4.17-3.55,9.09A116.66,116.66,0,0,0,105.82,57.23Z" style="fill:#3a1415;fill-rule:evenodd"/><path d="M145.27,3.58c4,.84,7.66,1.8,9.86,3.32s4.53,4.26,6.87,6.71c2.07,2.17,4.21,4,5.66,6.6,3.09,5.62,3.76,16.55,3.84,21.08a48.26,48.26,0,0,1-1.72,13.17,48.82,48.82,0,0,1-3.31,7.44L167,53.6l2.21-8.22-3.7-2.58,2.65-.34,1-.71-.51-2.2L167,38.66l-2.45-.24,3.54-2.49.86-1.56.18-4-1.59-3.2-1.38.24-3.59,3L165,25.5l.48-2.07-.49-2.3c-1.21-1.83-2.67-5-3.92-2.08a36,36,0,0,1-5.53,9.23c2.25-4,4.85-10.14,4.89-12.89l-1.85-2-1.17,0-2.58,4.94.91-5.91-.49-2.16-2.88-3Z" style="fill:#240e11;fill-rule:evenodd"/><path d="M105.82,57.23l-2.33-7.45a89.86,89.86,0,0,1,.76-16.32c1.24-8.86,9.76-21.61,12.37-23.31s13.11-8,18.75-8a55.32,55.32,0,0,1,9.9,1.46c4,.84,7.66,1.8,9.86,3.32s4.53,4.26,6.87,6.71c2.07,2.17,4.21,4,5.66,6.6,3.09,5.62,3.76,16.55,3.84,21.08a48.26,48.26,0,0,1-1.72,13.17,42.28,42.28,0,0,1-2.63,6.15" style="fill:none;stroke:#000;stroke-miterlimit:22.925600000000003;stroke-width:1.0001px;fill-rule:evenodd"/><path d="M129.87,57.13c1.59,6.13-2.69,14.55-2.66,17.75,0,1.14,2.1,2,4.11,2.83" style="fill:none;stroke:#4b160f;stroke-linecap:round;stroke-linejoin:round;stroke-width:0.8220000000000001px;fill-rule:evenodd"/><path d="M134,76.86c2.16-.86,3.26-1,5,.13" style="fill:none;stroke:#4b160f;stroke-linecap:round;stroke-linejoin:round;stroke-width:0.8220000000000001px;fill-rule:evenodd"/><path d="M126,77.16a1.63,1.63,0,0,1-.06-2.92" style="fill:none;stroke:#4b160f;stroke-linecap:round;stroke-linejoin:round;stroke-width:0.8220000000000001px;fill-rule:evenodd"/><polygon points="141.99 58.53 147.33 57.19 152.13 58.09 154.65 59.48 150.73 61.57 148.25 61.68 145.55 61.27 143.15 59.88 141.99 58.53" style="fill:#f2f7fa;stroke:#fff;stroke-miterlimit:22.925600000000003;stroke-width:0.216px;fill-rule:evenodd"/><path d="M141.84,59.15l1.23.42.08-.69a17,17,0,0,1,4.7-.89,10.72,10.72,0,0,1,6.25,2.08l1.34-.88-5.36-2.44-4.43,0S141.82,59.23,141.84,59.15Z" style="fill:#d3e0de;fill-rule:evenodd"/><path d="M141.6,58.85c.09.86.79.87,1.26.73,1.53.75,3.12,3.07,8,2.1" style="fill:none;stroke:#000;stroke-linecap:round;stroke-linejoin:round;stroke-width:0.5px;fill-rule:evenodd"/><path d="M148.09,56.47a2.55,2.55,0,0,1,2.72,2.27,2.39,2.39,0,0,1-2.3,2.56A2.55,2.55,0,0,1,145.79,59,2.39,2.39,0,0,1,148.09,56.47Z" style="fill:#4a0909;stroke:#000;stroke-linecap:round;stroke-linejoin:round;stroke-width:0.5px;fill-rule:evenodd"/><path d="M148.13,56.92a2.08,2.08,0,0,1,2.22,1.85,2,2,0,0,1-1.88,2.1A2.09,2.09,0,0,1,146.25,59,2,2,0,0,1,148.13,56.92Z" style="fill:none;stroke:#4b160f;stroke-linecap:round;stroke-linejoin:round;stroke-width:0.216px;fill-rule:evenodd"/><path d="M148.15,58.11a.88.88,0,0,1,.95.71.76.76,0,0,1-.74.83.88.88,0,0,1-.95-.71A.76.76,0,0,1,148.15,58.11Z" style="stroke:#000;stroke-linecap:round;stroke-linejoin:round;stroke-width:0.216px;fill-rule:evenodd"/><ellipse cx="149.25" cy="58.28" rx="0.27" ry="0.33" transform="translate(62.83 193.2) rotate(-78.69)" style="fill:#fff;stroke:#fff;stroke-linecap:round;stroke-linejoin:round;stroke-width:0.5px"/><path d="M155,59.3a4.42,4.42,0,0,0,4.19-2" style="fill:none;stroke:#000;stroke-linecap:round;stroke-miterlimit:22.925600000000003;stroke-width:0.4252px;fill-rule:evenodd"/><path d="M153.95,58.69a3.51,3.51,0,0,0,3.66-1.87" style="fill:none;stroke:#000;stroke-linecap:round;stroke-miterlimit:22.925600000000003;stroke-width:0.4252px;fill-rule:evenodd"/><path d="M152.4,57.91A3.23,3.23,0,0,0,156,56.48" style="fill:none;stroke:#000;stroke-linecap:round;stroke-miterlimit:22.925600000000003;stroke-width:0.4252px;fill-rule:evenodd"/><line x1="153.83" y1="60.36" x2="155.52" y2="59.5" style="fill:none;stroke:#000;stroke-linecap:round;stroke-miterlimit:22.925600000000003;stroke-width:0.5px"/><path d="M141.78,58.68c6-3,10.07-1.53,13.47.62" style="fill:none;stroke:#000;stroke-linecap:round;stroke-linejoin:round;stroke-width:1.0001px;fill-rule:evenodd"/><polygon points="126.6 58.26 121.64 56.77 117.05 57.52 114.6 58.81 118.18 60.99 120.51 61.18 123.08 60.86 125.43 59.57 126.6 58.26" style="fill:#f2f7fa;stroke:#fff;stroke-miterlimit:22.925600000000003;stroke-width:0.216px;fill-rule:evenodd"/><path d="M126.78,58.57l-.26.58-1,.06.07-.66a16.24,16.24,0,0,0-4.55-1.08,10.17,10.17,0,0,0-6,2.21l-1.26-.87L119,56.26l4.22,0S126.8,58.66,126.78,58.57Z" style="fill:#d3e0de;fill-rule:evenodd"/><path d="M119.76,56.12a2.46,2.46,0,0,1,2.62,2.19,2.31,2.31,0,0,1-2.22,2.47,2.46,2.46,0,0,1-2.62-2.19A2.31,2.31,0,0,1,119.76,56.12Z" style="fill:#4a0909;stroke:#000;stroke-linecap:round;stroke-linejoin:round;stroke-width:0.5px;fill-rule:evenodd"/><path d="M119.8,56.54a2,2,0,0,1,2.14,1.79,1.89,1.89,0,0,1-1.82,2A2,2,0,0,1,118,58.57,1.89,1.89,0,0,1,119.8,56.54Z" style="fill:none;stroke:#4b160f;stroke-linecap:round;stroke-linejoin:round;stroke-width:0.216px;fill-rule:evenodd"/><path d="M119.81,57.7a.85.85,0,0,1,.91.69.73.73,0,0,1-.71.8.85.85,0,0,1-.91-.69A.73.73,0,0,1,119.81,57.7Z" style="stroke:#000;stroke-linecap:round;stroke-linejoin:round;stroke-width:0.216px;fill-rule:evenodd"/><ellipse cx="120.69" cy="57.76" rx="0.26" ry="0.32" transform="translate(40.2 164.63) rotate(-78.59)" style="fill:#fff;stroke:#fff;stroke-linecap:round;stroke-linejoin:round;stroke-width:0.5px"/><path d="M126.72,58.28c-5.67-3.89-8.91-2.61-12.43-.07" style="fill:none;stroke:#000;stroke-linecap:round;stroke-linejoin:round;stroke-width:1.0001px;fill-rule:evenodd"/><path d="M116.67,53.87c4.45-.87,8.79,1.41,10.35,4.34" style="fill:none;stroke:#4b160f;stroke-linecap:round;stroke-linejoin:round;stroke-width:0.4989px;fill-rule:evenodd"/><path d="M127,58.59c-.14.85-.79.83-1.24.68-1.49.7-3.13,2.93-7.72,1.82" style="fill:none;stroke:#000;stroke-linecap:round;stroke-linejoin:round;stroke-width:0.5px;fill-rule:evenodd"/><path d="M114.29,58.63a4,4,0,0,1-3.84-2.13" style="fill:none;stroke:#000;stroke-linecap:round;stroke-miterlimit:22.925600000000003;stroke-width:0.4252px;fill-rule:evenodd"/><path d="M115,58a3.07,3.07,0,0,1-3.23-1.88" style="fill:none;stroke:#000;stroke-linecap:round;stroke-miterlimit:22.925600000000003;stroke-width:0.4252px;fill-rule:evenodd"/><path d="M116.14,57.51a2.62,2.62,0,0,1-3-1.37" style="fill:none;stroke:#000;stroke-linecap:round;stroke-miterlimit:22.925600000000003;stroke-width:0.4252px;fill-rule:evenodd"/><line x1="115.32" y1="59.71" x2="113.77" y2="58.8" style="fill:none;stroke:#000;stroke-linecap:round;stroke-miterlimit:22.925600000000003;stroke-width:0.5px"/><path d="M126.79,58.42c-5.59-3.15-9.52-1.75-12.76.2" style="fill:none;stroke:#000;stroke-linecap:round;stroke-linejoin:round;stroke-width:1.0001px;fill-rule:evenodd"/><path d="M140.16,52.63s.79,1.08,1.76,1,8.33-4.16,9.51-4.07,4.21.9,8.91,2.7c-1.4-1.34-7.81-4.07-9.58-3.91S140.29,51.65,140.16,52.63Z" style="fill:#4e1509;fill-rule:evenodd"/><path d="M127.16,51.71a.91.91,0,0,1-.93.9c-3.33.05-6.34-2.09-9.55-2.81-1.8-.4-5,.8-7.62,1.58,1.17-1.4,6.1-3.14,7.78-3.17S126.94,50.81,127.16,51.71Z" style="fill:#4e1509;fill-rule:evenodd"/><path d="M123.67,86.9c1.47-.51,2.55-2.27,4.28-2.67a20.73,20.73,0,0,1,3.71,0,14.9,14.9,0,0,1,4,.24c2.71.9,4.51,2.83,6.8,2.89,0,0-4.22,5.46-10.87,4.82S123.67,86.9,123.67,86.9Z" style="fill:#c73447;fill-rule:evenodd"/><path d="M124.08,87a8.65,8.65,0,0,0,1.76-.93c.87-.65,1.47-1.25,2.1-1.29a3.6,3.6,0,0,0,2.88,2c1.37.17,2.11-.36,3.4-.6.84-.16,4,1.35,4,1.35h-3.88l-1.88.17-1.09.23Z" style="fill:#911f2e;fill-rule:evenodd"/><path d="M131.63,88.2l-4-1-4-.15a3.87,3.87,0,0,1,1,1c1.05,1.59,2.92,2.94,6.28,3.62-3.18-1-4.16-2.13-4.36-3.14a.73.73,0,0,1,.64-.74C128.66,87.64,131.47,88.84,131.63,88.2Z" style="fill:#911f2e;fill-rule:evenodd"/><path d="M128.63,87.57a9.19,9.19,0,0,1,1.33.57,4.44,4.44,0,0,0,1.43.38,4.17,4.17,0,0,0,1.76-.29,14,14,0,0,1,2-.55Z" style="fill-rule:evenodd"/><path d="M134.43,87.1c-1.54.07-1.68.47-3.17.39-1.25-.06-3-.68-4.05-.68a11,11,0,0,1-3.44,0c-.53-.27-.46-.53-.93-.61a.48.48,0,0,0-.25.86c.14.13.72,0,.94.1a13.88,13.88,0,0,0,3.89.3c1.27.07,2.82.78,3.8.9s1.92-.38,3.41-.47c2.46-.15,5.58.24,7.39.15a3.73,3.73,0,0,0,1.5-.27c.92-.47.36-1.16-.24-1s-.74.57-1.1.67C140.26,87.94,136.57,87,134.43,87.1Z" style="fill:#4b160f;fill-rule:evenodd"/><path d="M141.86,58.54c5.88-3.88,9.26-2.48,13.14.34" style="fill:none;stroke:#000;stroke-linecap:round;stroke-linejoin:round;stroke-width:1.0001px;fill-rule:evenodd"/><path d="M128.2,89.28a18.4,18.4,0,0,0,5.34.09c.9-.12,1.83-.58,2,0s-1.37,1.24-3.54,1.09A8.17,8.17,0,0,1,128.2,89.28Z" style="fill:#f8c6b0;fill-rule:evenodd"/><path d="M151.51,35.31A49.08,49.08,0,0,0,163.16,18" style="fill:none;stroke:#000;stroke-miterlimit:22.925600000000003;stroke-width:0.5px;fill-rule:evenodd"/><path d="M125.84,27A31.24,31.24,0,0,1,122.9,6.43" style="fill:none;stroke:#000;stroke-miterlimit:22.925600000000003;stroke-width:0.5px;fill-rule:evenodd"/><path d="M124.06,18c-.46-4.23.07-10.35,1.34-13.53" style="fill:none;stroke:#822b1d;stroke-miterlimit:22.925600000000003;stroke-width:0.5px;fill-rule:evenodd"/><path d="M125.22,21.25c-.46-4.23,1.09-14.8,2.36-18" style="fill:none;stroke:#822b1d;stroke-miterlimit:22.925600000000003;stroke-width:0.5px;fill-rule:evenodd"/><path d="M125.84,27C119.91,19.5,119.68,13.64,120.9,7" style="fill:none;stroke:#000;stroke-miterlimit:22.925600000000003;stroke-width:0.5px;fill-rule:evenodd"/><path d="M132.46,28.55c2.43-9,15.33-15.36,15-22.83" style="fill:none;stroke:#000;stroke-miterlimit:22.925600000000003;stroke-width:0.5px;fill-rule:evenodd"/><path d="M132.5,28.32c2.43-9,8.51-13.33,9.94-24.07" style="fill:none;stroke:#000;stroke-miterlimit:22.925600000000003;stroke-width:0.5px;fill-rule:evenodd"/><path d="M134.89,26.71c2.24-6,13.4-11.27,15.07-20.71" style="fill:none;stroke:#000;stroke-miterlimit:22.925600000000003;stroke-width:0.5px;fill-rule:evenodd"/><path d="M136.83,26.58c2.54-5.46,13.38-9.64,15.05-19.08" style="fill:none;stroke:#822b1d;stroke-miterlimit:22.925600000000003;stroke-width:0.5px;fill-rule:evenodd"/><path d="M137.9,26.19c4-4.79,13.55-8.66,15.14-16.26" style="fill:none;stroke:#822b1d;stroke-miterlimit:22.925600000000003;stroke-width:0.5px;fill-rule:evenodd"/><path d="M151.81,34.93A49.4,49.4,0,0,0,165.56,19.2" style="fill:none;stroke:#000;stroke-miterlimit:22.925600000000003;stroke-width:0.5px;fill-rule:evenodd"/><path d="M171.23,49.24a21.38,21.38,0,0,0-9.77-4.18" style="fill:none;stroke:#000;stroke-miterlimit:22.925600000000003;stroke-width:0.5px;fill-rule:evenodd"/><path d="M160.59,44a21.55,21.55,0,0,1,10.51,1.78" style="fill:none;stroke:#000;stroke-miterlimit:22.925600000000003;stroke-width:0.5px;fill-rule:evenodd"/><path d="M103.59,46.59c1.59-2.59,5-6.36,5.75-6.77" style="fill:none;stroke:#000;stroke-miterlimit:22.925600000000003;stroke-width:0.5px;fill-rule:evenodd"/><path d="M103,44c2-2.28,6-5.44,6.84-5.72" style="fill:none;stroke:#000;stroke-miterlimit:22.925600000000003;stroke-width:0.5px;fill-rule:evenodd"/><path d="M103.15,39.91c2.44-1.85,7-4.16,7.86-4.27" style="fill:none;stroke:#000;stroke-miterlimit:22.925600000000003;stroke-width:0.5px;fill-rule:evenodd"/><path d="M106.52,27.63c4.21-1.82,4.21,6.24,10.41,3.68" style="fill:none;stroke:#000;stroke-miterlimit:22.925600000000003;stroke-width:0.5px;fill-rule:evenodd"/><path d="M106.5,25.26c4.4-1.31,5.47,7.3,11.94,5.5" style="fill:none;stroke:#822b1d;stroke-miterlimit:22.925600000000003;stroke-width:0.5px;fill-rule:evenodd"/><path d="M107.59,23.63c4.51-.86,5.07,7.61,11.69,6.46" style="fill:none;stroke:#822b1d;stroke-miterlimit:22.925600000000003;stroke-width:0.5px;fill-rule:evenodd"/><path d="M157.22,37.45c3-.66,9.12-3.43,11.41-5.48" style="fill:none;stroke:#822b1d;stroke-miterlimit:22.925600000000003;stroke-width:0.5px;fill-rule:evenodd"/><path d="M158.53,36.36c2.84-1.23,8.26-5.12,10.09-7.57" style="fill:none;stroke:#000;stroke-miterlimit:22.925600000000003;stroke-width:0.5px;fill-rule:evenodd"/><path d="M140.52,26a41.08,41.08,0,0,0,11.37-8.21,15.12,15.12,0,0,1-3.92,5.4C145.7,25.12,140.61,26.16,140.52,26Z" style="fill:#240e11;fill-rule:evenodd"/><path d="M121.23,26.08a27.2,27.2,0,0,1-5.47-7.64,10.05,10.05,0,0,0,1.32,4.28A10.87,10.87,0,0,0,121.23,26.08Z" style="fill:#240e11;fill-rule:evenodd"/><path d="M127.5,13.71a21.75,21.75,0,0,1,1.7-6.6,16.9,16.9,0,0,1,2.33-3.53c-.44.41-1.25,0-2.1,1a16.25,16.25,0,0,0-1.77,4A12.62,12.62,0,0,0,127.5,13.71Z" style="fill:#240e11;fill-rule:evenodd"/><path d="M146.05,25.75a26.36,26.36,0,0,0,7.3-5.27,9.7,9.7,0,0,1-2.52,3.47A10.49,10.49,0,0,1,146.05,25.75Z" style="fill:#240e11;fill-rule:evenodd"/><path d="M166.54,71.43s1.21-2.73,2-2.19,1.47-4,1.25-6.13" style="fill:none;stroke:#4b160f;stroke-linecap:round;stroke-linejoin:round;stroke-width:0.5669000000000001px;fill-rule:evenodd"/><polygon points="149.9 188.21 150.01 182.28 206.35 200.79 206.24 206.72 149.9 188.21" style="fill:none;stroke:#000;stroke-linejoin:round;stroke-width:1.0006000000000002px;fill-rule:evenodd"/><line x1="206.06" y1="203.59" x2="150.04" y2="185.18" style="fill:none;stroke:#000;stroke-miterlimit:22.925600000000003;stroke-width:1.0001px"/><path d="M153.09,186.29l1.36.39a16.52,16.52,0,0,0,.19,7.58,15.93,15.93,0,0,0,2.33,5.37l-3.11.06a26.77,26.77,0,0,1-1.36-7.64A20.41,20.41,0,0,1,153.09,186.29Z" style="fill-rule:evenodd"/><path d="M67.36,672.86a33.25,33.25,0,0,1,.74,4.9S67.63,702,69,708.15s7.15,18.41,7.92,17.83c5.62-4.24,30.23,1.2,41.69.89l4.28-13.45-.5-16-2.6-11.61s4-6.71,3.55-11.42c-.88-9.56.37-15.3,1.92-23.77Z" style="fill:#ff0;stroke:#000;stroke-miterlimit:22.925600000000003;stroke-width:1.0001px;fill-rule:evenodd"/><path d="M79.77,668.1c4,4.21,14.2.13,24.17,7.77,10.47,8,10.69,18.49,7.58,21.83s-.22,5.12,2.9,10.47,1.78,7.69-3,9.69c-4.22,1.76-11.8,5.86-13.55,6.82,7.49.78,15.22,1.79,20.34,1.64l4.28-13.45-.5-16-2.6-11.61s4-6.71,3.55-11.41c-.85-9.28.3-15,1.78-23Z" style="fill:#edd20e;fill-rule:evenodd"/><path d="M75.06,707.09c-1-4.54.59-13.18,8.57-16.36,5.46-2.18,20,.66,21.58,2.44,3.91,4.37-1.81,3-13.88,7S75.06,707.09,75.06,707.09Z" style="fill:#edd20e;fill-rule:evenodd"/><path d="M87.19,708.48c1.33-1.65,5.77-4.06,11.32-3.42,3.79.43,10.31,4.31,10.42,5.2.26,2.19-2.2.58-10.23-.64A74.82,74.82,0,0,0,87.19,708.48Z" style="fill:#edd20e;fill-rule:evenodd"/><path d="M73.45,720c7-7.33,32.57-.31,46.83-.27" style="fill:none;stroke:#000;stroke-linejoin:round;stroke-width:0.5px;stroke-dasharray:2.500200033187866,1.500100016593933;fill-rule:evenodd"/><path d="M183,655.68c.69,5.7,1.85,15.64,2.44,20.85.68,5.63,5.8,12.49,9.37,22.94-.48,4.6-1.78,7.91-.88,13,1,5.52,8.42,14.3,15.15,23.66,12.09-3.09,28.22-13.18,41.28-10.9.31-10.39,6.93-20.35,4.18-30.48s-13-12.37-13.74-18.7c-1.08-9.09.25-19.07.09-28.79-.22-13.32-1.79-26.5-2.78-39.28l-.16-.62-58.47,22.44c1.14,7.46,2.24,16,3.42,25.83Z" style="fill:#ff0;stroke:#000;stroke-miterlimit:22.925600000000003;stroke-width:1.0001px;fill-rule:evenodd"/><path d="M186,676.9c.92,5.53,5.84,12.28,9.29,22.4,0,.4-.09.78-.14,1.16,2-3.25,5.15-9.51,3-14.06C195.28,680.34,189.08,682.23,186,676.9Z" style="fill:#edd20e;fill-rule:evenodd"/><path d="M241.34,724.86a27.22,27.22,0,0,1,8.76,0c.31-10.39,6.58-19.45,3.82-29.58s-13-13.08-13.74-19.42c-1.08-9.09.61-19.25.45-29-.22-13.32-1.79-26.5-2.78-39.28l0-.1-14.62,5.61c-2.68,7.49-5.55,15.53-6.89,21.16-2.5,10.52-7.67,17.83-2,19.26s18-2.67,18.72,4.1-4.14,19.93-.49,23.93,16,5.34,16.38,11.48-5.19,10.23-14.11,12.19-14.62,9.45-10.34,9.63,14.26-7.85,16.58-3.39C242.76,714.64,241.94,721.35,241.34,724.86Z" style="fill:#edd20e;fill-rule:evenodd"/><path d="M208.12,705.92c-1.18-3.64.9-10.75,10.59-13.75,6.63-2.05,24.13-.49,26,.87,4.66,3.35-2.23,2.54-16.86,6.37S208.12,705.92,208.12,705.92Z" style="fill:#edd20e;fill-rule:evenodd"/><path d="M250.48,719.36c-9.06-4.47-29.3,5.71-44.13,11.28" style="fill:none;stroke:#000;stroke-linejoin:round;stroke-width:0.5px;stroke-dasharray:2.500200033187866,1.500100016593933;fill-rule:evenodd"/><path d="M67.36,672.86a33.25,33.25,0,0,1,.74,4.9s-.16,7.94,0,15.89l55.06-21.47c-.5-8.26.67-13.73,2.09-21.51Z" style="stroke:#000;stroke-miterlimit:22.925600000000003;stroke-width:1.0001px;fill-rule:evenodd;fill:url(#l)"/><path d="M107.95,677.28l14.76-5.76c-.55-7.79.48-12.9,1.78-20L82.65,667.6c3.75,3.92,13.23.12,22.51,7.23A27.38,27.38,0,0,1,107.95,677.28Z" style="fill-rule:evenodd;fill:url(#m)"/><path d="M239.76,626.69c-.14-5.12-.42-13.16-1.78-19.29l-58.47,22.44c.88,5.76,1.74,12.18,2.63,19.33Z" style="stroke:#000;stroke-miterlimit:22.925600000000003;stroke-width:1.0001px;fill-rule:evenodd;fill:url(#n)"/><path d="M237.6,608.19l-14.14,5.42c-2.5,7-5.14,14.42-6.39,19.66-.17.74-.36,1.46-.56,2.16l22.68-8.85C238.87,620.48,238.8,614.6,237.6,608.19Z" style="fill-rule:evenodd;fill:url(#o)"/><line x1="124.52" y1="652.78" x2="67.34" y2="674.36" style="fill:none;stroke:#000;stroke-linejoin:round;stroke-width:0.5px;stroke-dasharray:2.500200033187866,1.500100016593933"/><line x1="237.56" y1="609.28" x2="179.93" y2="631.3" style="fill:none;stroke:#000;stroke-linejoin:round;stroke-width:0.5px;stroke-dasharray:2.500200033187866,1.500100016593933"/><line x1="239.52" y1="625.1" x2="181.9" y2="647.35" style="fill:none;stroke:#000;stroke-linejoin:round;stroke-width:0.5px;stroke-dasharray:2.500200033187866,1.500100016593933"/><line x1="122.38" y1="670.97" x2="67.7" y2="692.01" style="fill:none;stroke:#000;stroke-linejoin:round;stroke-width:0.5px;stroke-dasharray:2.500200033187866,1.500100016593933"/><path d="M220,512.38c-5.68-.78-46,9.09-62.23,22" style="fill:none;stroke:#000;stroke-miterlimit:22.925600000000003;stroke-width:1.0001px;fill-rule:evenodd"/><path d="M220,513.8c-5.68-.78-46,9.09-62.23,22" style="fill:none;stroke:#ff0;stroke-linejoin:round;stroke-width:0.5px;stroke-dasharray:2.500200033187866,1.500100016593933;fill-rule:evenodd"/><path d="M220.19,516.29c-5.63-.79-45.62,9-61.68,21.93" style="fill:none;stroke:#ff0;stroke-linejoin:round;stroke-width:0.5px;stroke-dasharray:2.500200033187866,1.500100016593933;fill-rule:evenodd"/><line x1="225.86" y1="558.72" x2="208.11" y2="557.38" style="fill:none;stroke:#000;stroke-linejoin:round;stroke-width:1.0006000000000002px"/><line x1="166.29" y1="573" x2="184.2" y2="563.74" style="fill:none;stroke:#000;stroke-linejoin:round;stroke-width:1.0006000000000002px"/><polyline points="225.35 559.85 211.72 558.83 212.29 560.5 227.04 564.52" style="fill:none;stroke:#ff0;stroke-linejoin:round;stroke-width:0.5px;stroke-dasharray:2.500200033187866,1.500100016593933;fill-rule:evenodd"/><polyline points="166.75 574.18 180.5 567.08 180.66 568.85 167.59 578.74" style="fill:none;stroke:#ff0;stroke-linejoin:round;stroke-width:0.5px;stroke-dasharray:2.500200033187866,1.500100016593933;fill-rule:evenodd"/></svg>